<?xml version="1.0" encoding="UTF-8" ?><svg xmlns="http://www.w3.org/2000/svg" version="1.1">
<line x1="2.8037807806000625" y1="693.2957311188079" x2="74.42123782748489" y2="920.7626934374664" style="stroke:black;stroke-width:1" />
<line x1="21.358291071686185" y1="66.51612396784157" x2="2.8037807806000625" y2="693.2957311188079" style="stroke:black;stroke-width:1" />
<line x1="137.54884407703005" y1="13.52903017681606" x2="21.358291071686185" y2="66.51612396784157" style="stroke:black;stroke-width:1" />
<line x1="280.97721796680565" y1="6.38205594399277" x2="137.54884407703005" y2="13.52903017681606" style="stroke:black;stroke-width:1" />
<line x1="542.023953784061" y1="6.466539968299934" x2="280.97721796680565" y2="6.38205594399277" style="stroke:black;stroke-width:1" />
<line x1="585.6563145133932" y1="10.618022617352562" x2="542.023953784061" y2="6.466539968299934" style="stroke:black;stroke-width:1" />
<line x1="992.837698229764" y1="61.174700678958025" x2="585.6563145133932" y2="10.618022617352562" style="stroke:black;stroke-width:1" />
<line x1="981.2550387097154" y1="904.4649580675367" x2="992.837698229764" y2="61.174700678958025" style="stroke:black;stroke-width:1" />
<line x1="967.8640734946675" y1="983.4515315052402" x2="981.2550387097154" y2="904.4649580675367" style="stroke:black;stroke-width:1" />
<line x1="911.7912098954666" y1="989.1306040391114" x2="967.8640734946675" y2="983.4515315052402" style="stroke:black;stroke-width:1" />
<line x1="561.3809839889608" y1="981.8547634358885" x2="911.7912098954666" y2="989.1306040391114" style="stroke:black;stroke-width:1" />
<line x1="74.42123782748489" y1="920.7626934374664" x2="561.3809839889608" y2="981.8547634358885" style="stroke:black;stroke-width:1" />
<circle cx="2.8037807806000625" cy="693.2957311188079" r="10" stroke="black" stroke-width="1" fill="red" /><circle cx="21.358291071686185" cy="66.51612396784157" r="10" stroke="black" stroke-width="1" fill="red" /><circle cx="27.29866681044857" cy="81.15165430325166" r="10" stroke="black" stroke-width="1" fill="red" /><circle cx="19.771741562787383" cy="276.9141256877257" r="10" stroke="black" stroke-width="1" fill="red" /><circle cx="37.01877583306879" cy="65.82058660067291" r="10" stroke="black" stroke-width="1" fill="red" /><circle cx="38.26626734969085" cy="422.2204199471324" r="10" stroke="black" stroke-width="1" fill="red" /><circle cx="101.78472304933462" cy="73.28369954186498" r="10" stroke="black" stroke-width="1" fill="red" /><circle cx="137.54884407703005" cy="13.52903017681606" r="10" stroke="black" stroke-width="1" fill="red" /><circle cx="142.7277712320987" cy="117.94917536055539" r="10" stroke="black" stroke-width="1" fill="red" /><circle cx="114.74918141592528" cy="253.9102462138132" r="10" stroke="black" stroke-width="1" fill="red" /><circle cx="165.03993784760684" cy="81.017850309006" r="10" stroke="black" stroke-width="1" fill="red" /><circle cx="149.9354722841698" cy="180.80330211982286" r="10" stroke="black" stroke-width="1" fill="red" /><circle cx="139.2549598643519" cy="254.15057429110587" r="10" stroke="black" stroke-width="1" fill="red" /><circle cx="124.38496166167835" cy="373.93346519959726" r="10" stroke="black" stroke-width="1" fill="red" /><circle cx="280.97721796680565" cy="6.38205594399277" r="10" stroke="black" stroke-width="1" fill="red" /><circle cx="164.36296075631208" cy="371.71252894962237" r="10" stroke="black" stroke-width="1" fill="red" /><circle cx="334.19425949037793" cy="66.37362965620974" r="10" stroke="black" stroke-width="1" fill="red" /><circle cx="279.4028579053269" cy="220.19515063799844" r="10" stroke="black" stroke-width="1" fill="red" /><circle cx="176.41917847638345" cy="414.78826869521436" r="10" stroke="black" stroke-width="1" fill="red" /><circle cx="439.7589949377806" cy="18.72811756824011" r="10" stroke="black" stroke-width="1" fill="red" /><circle cx="460.7644685168696" cy="8.135292726205945" r="10" stroke="black" stroke-width="1" fill="red" /><circle cx="99.90488213793402" cy="549.3398657856645" r="10" stroke="black" stroke-width="1" fill="red" /><circle cx="135.1689605779688" cy="503.2285349420623" r="10" stroke="black" stroke-width="1" fill="red" /><circle cx="288.77315478535394" cy="295.43748259352066" r="10" stroke="black" stroke-width="1" fill="red" /><circle cx="338.8519128558738" cy="237.76013797515716" r="10" stroke="black" stroke-width="1" fill="red" /><circle cx="413.2879317976698" cy="147.43939098521008" r="10" stroke="black" stroke-width="1" fill="red" /><circle cx="542.023953784061" cy="6.466539968299934" r="10" stroke="black" stroke-width="1" fill="red" /><circle cx="565.5029775792066" cy="17.56315885860671" r="10" stroke="black" stroke-width="1" fill="red" /><circle cx="449.7201923614559" cy="166.0924366401164" r="10" stroke="black" stroke-width="1" fill="red" /><circle cx="585.6563145133932" cy="10.618022617352562" r="10" stroke="black" stroke-width="1" fill="red" /><circle cx="291.25068793388255" cy="387.9778841674658" r="10" stroke="black" stroke-width="1" fill="red" /><circle cx="384.37805883365974" cy="353.356957665927" r="10" stroke="black" stroke-width="1" fill="red" /><circle cx="634.8700746384892" cy="191.18734915196845" r="10" stroke="black" stroke-width="1" fill="red" /><circle cx="656.0032517182203" cy="183.91208355721332" r="10" stroke="black" stroke-width="1" fill="red" /><circle cx="735.3457102841809" cy="146.14577952712216" r="10" stroke="black" stroke-width="1" fill="red" /><circle cx="992.837698229764" cy="61.174700678958025" r="10" stroke="black" stroke-width="1" fill="red" /><circle cx="981.2531658133368" cy="119.79479924839819" r="10" stroke="black" stroke-width="1" fill="red" /><circle cx="574.828361986048" cy="358.02288279465546" r="10" stroke="black" stroke-width="1" fill="red" /><circle cx="468.1675948618518" cy="441.6978959071537" r="10" stroke="black" stroke-width="1" fill="red" /><circle cx="963.0811036310465" cy="183.69743930699522" r="10" stroke="black" stroke-width="1" fill="red" /><circle cx="624.1879640854531" cy="388.5754690161113" r="10" stroke="black" stroke-width="1" fill="red" /><circle cx="661.3165901841103" cy="378.89077425676686" r="10" stroke="black" stroke-width="1" fill="red" /><circle cx="755.6362072967946" cy="349.0799269730752" r="10" stroke="black" stroke-width="1" fill="red" /><circle cx="746.0424688397521" cy="392.8990461245842" r="10" stroke="black" stroke-width="1" fill="red" /><circle cx="325.50147648582004" cy="568.2274512787365" r="10" stroke="black" stroke-width="1" fill="red" /><circle cx="259.0926409862405" cy="596.3815267724043" r="10" stroke="black" stroke-width="1" fill="red" /><circle cx="675.3032881186231" cy="452.35959165522024" r="10" stroke="black" stroke-width="1" fill="red" /><circle cx="478.4702012284704" cy="537.3755092493532" r="10" stroke="black" stroke-width="1" fill="red" /><circle cx="639.2244688248311" cy="509.99283297305897" r="10" stroke="black" stroke-width="1" fill="red" /><circle cx="525.5335053550309" cy="556.1442595131103" r="10" stroke="black" stroke-width="1" fill="red" /><circle cx="840.5586591331318" cy="486.6861641666025" r="10" stroke="black" stroke-width="1" fill="red" /><circle cx="690.9251998183603" cy="524.5615634093377" r="10" stroke="black" stroke-width="1" fill="red" /><circle cx="973.3803336288395" cy="483.8414375897194" r="10" stroke="black" stroke-width="1" fill="red" /><circle cx="920.5441402477609" cy="503.1112523115547" r="10" stroke="black" stroke-width="1" fill="red" /><circle cx="973.5957688710516" cy="496.02880695277804" r="10" stroke="black" stroke-width="1" fill="red" /><circle cx="815.3478653974819" cy="529.2784362738802" r="10" stroke="black" stroke-width="1" fill="red" /><circle cx="551.2354642077145" cy="586.5298355829899" r="10" stroke="black" stroke-width="1" fill="red" /><circle cx="808.214419172259" cy="537.582742948583" r="10" stroke="black" stroke-width="1" fill="red" /><circle cx="813.4949424441006" cy="539.4084434878641" r="10" stroke="black" stroke-width="1" fill="red" /><circle cx="791.6186557859011" cy="549.8340492322397" r="10" stroke="black" stroke-width="1" fill="red" /><circle cx="848.6257963122094" cy="551.9243064654124" r="10" stroke="black" stroke-width="1" fill="red" /><circle cx="450.06519314844684" cy="626.1998437687197" r="10" stroke="black" stroke-width="1" fill="red" /><circle cx="712.2840308229642" cy="601.9671295568463" r="10" stroke="black" stroke-width="1" fill="red" /><circle cx="593.8243114897376" cy="617.4496329219304" r="10" stroke="black" stroke-width="1" fill="red" /><circle cx="756.0759600562075" cy="611.1519285072005" r="10" stroke="black" stroke-width="1" fill="red" /><circle cx="767.831542210837" cy="628.3721235121911" r="10" stroke="black" stroke-width="1" fill="red" /><circle cx="169.4079045841861" cy="679.3628252335016" r="10" stroke="black" stroke-width="1" fill="red" /><circle cx="46.66599337755872" cy="690.8208824253013" r="10" stroke="black" stroke-width="1" fill="red" /><circle cx="736.035421306421" cy="677.2806892273398" r="10" stroke="black" stroke-width="1" fill="red" /><circle cx="792.0369666234076" cy="682.5972341153475" r="10" stroke="black" stroke-width="1" fill="red" /><circle cx="854.4930123683944" cy="694.4204072406014" r="10" stroke="black" stroke-width="1" fill="red" /><circle cx="554.7670592136159" cy="703.9376402414048" r="10" stroke="black" stroke-width="1" fill="red" /><circle cx="826.2363216427701" cy="770.1776807011659" r="10" stroke="black" stroke-width="1" fill="red" /><circle cx="853.3388092903787" cy="772.8686458154459" r="10" stroke="black" stroke-width="1" fill="red" /><circle cx="885.1922161732033" cy="792.0843401193156" r="10" stroke="black" stroke-width="1" fill="red" /><circle cx="635.8918010050087" cy="791.1310423566384" r="10" stroke="black" stroke-width="1" fill="red" /><circle cx="925.4148499755763" cy="874.9462587776754" r="10" stroke="black" stroke-width="1" fill="red" /><circle cx="981.2550387097154" cy="904.4649580675367" r="10" stroke="black" stroke-width="1" fill="red" /><circle cx="913.6579789155512" cy="892.5712350634883" r="10" stroke="black" stroke-width="1" fill="red" /><circle cx="880.5997480660411" cy="927.9312319524818" r="10" stroke="black" stroke-width="1" fill="red" /><circle cx="694.35838474356" cy="884.9661872830374" r="10" stroke="black" stroke-width="1" fill="red" /><circle cx="814.8032114485155" cy="923.6240185961469" r="10" stroke="black" stroke-width="1" fill="red" /><circle cx="967.8640734946675" cy="983.4515315052402" r="10" stroke="black" stroke-width="1" fill="red" /><circle cx="911.7912098954666" cy="989.1306040391114" r="10" stroke="black" stroke-width="1" fill="red" /><circle cx="719.4874148167701" cy="939.6096230282702" r="10" stroke="black" stroke-width="1" fill="red" /><circle cx="355.86869718782543" cy="829.7308097441736" r="10" stroke="black" stroke-width="1" fill="red" /><circle cx="460.11233868365963" cy="890.2672250841491" r="10" stroke="black" stroke-width="1" fill="red" /><circle cx="194.75041960951145" cy="779.0561859935885" r="10" stroke="black" stroke-width="1" fill="red" /><circle cx="330.80575697591416" cy="850.8904023418452" r="10" stroke="black" stroke-width="1" fill="red" /><circle cx="561.3809839889608" cy="981.8547634358885" r="10" stroke="black" stroke-width="1" fill="red" /><circle cx="388.5297483550494" cy="912.4224388969702" r="10" stroke="black" stroke-width="1" fill="red" /><circle cx="416.3896432338075" cy="930.8702483084469" r="10" stroke="black" stroke-width="1" fill="red" /><circle cx="202.8519724349177" cy="809.0490274477221" r="10" stroke="black" stroke-width="1" fill="red" /><circle cx="199.396093126298" cy="851.5432078002028" r="10" stroke="black" stroke-width="1" fill="red" /><circle cx="226.64333675572234" cy="898.0181006449315" r="10" stroke="black" stroke-width="1" fill="red" /><circle cx="254.3936335200734" cy="932.7907301290265" r="10" stroke="black" stroke-width="1" fill="red" /><circle cx="211.56059102614776" cy="933.9509314698361" r="10" stroke="black" stroke-width="1" fill="red" /><circle cx="100.48943617602413" cy="873.7732614729531" r="10" stroke="black" stroke-width="1" fill="red" /><circle cx="68.05700572105111" cy="895.5359003833483" r="10" stroke="black" stroke-width="1" fill="red" /><circle cx="74.42123782748489" cy="920.7626934374664" r="10" stroke="black" stroke-width="1" fill="red" /></svg>
