<svg>
<line x1="1.6049536945109688" y1="345.31338156244016" x2="16.952921729380233" y2="984.3880613644344" style="stroke:black;stroke-width:1" />
<line x1="107.83384421872977" y1="98.57852079720874" x2="1.6049536945109688" y2="345.31338156244016" style="stroke:black;stroke-width:1" />
<line x1="238.46170175474967" y1="36.66564062778455" x2="107.83384421872977" y2="98.57852079720874" style="stroke:black;stroke-width:1" />
<line x1="262.685937281929" y1="29.616458620953967" x2="238.46170175474967" y2="36.66564062778455" style="stroke:black;stroke-width:1" />
<line x1="89.96855531653725" y1="248.35509333320306" x2="262.685937281929" y2="29.616458620953967" style="stroke:black;stroke-width:1" />
<line x1="116.11308782801555" y1="228.3174451837303" x2="89.96855531653725" y2="248.35509333320306" style="stroke:black;stroke-width:1" />
<line x1="127.9820549981322" y1="256.4986266735912" x2="116.11308782801555" y2="228.3174451837303" style="stroke:black;stroke-width:1" />
<line x1="371.1210562408562" y1="92.40018972870168" x2="127.9820549981322" y2="256.4986266735912" style="stroke:black;stroke-width:1" />
<line x1="273.1743288946409" y1="187.99503861430068" x2="371.1210562408562" y2="92.40018972870168" style="stroke:black;stroke-width:1" />
<line x1="556.0517569170872" y1="26.77131287670509" x2="273.1743288946409" y2="187.99503861430068" style="stroke:black;stroke-width:1" />
<line x1="369.55643181016626" y1="139.92627642609523" x2="556.0517569170872" y2="26.77131287670509" style="stroke:black;stroke-width:1" />
<line x1="532.0887470583475" y1="55.78108852586383" x2="369.55643181016626" y2="139.92627642609523" style="stroke:black;stroke-width:1" />
<line x1="718.7526422208541" y1="25.898161892668025" x2="532.0887470583475" y2="55.78108852586383" style="stroke:black;stroke-width:1" />
<line x1="798.6944220545097" y1="8.063398382856413" x2="718.7526422208541" y2="25.898161892668025" style="stroke:black;stroke-width:1" />
<line x1="506.52345671001973" y1="136.54583404380816" x2="798.6944220545097" y2="8.063398382856413" style="stroke:black;stroke-width:1" />
<line x1="752.0616244905325" y1="40.8717509327875" x2="506.52345671001973" y2="136.54583404380816" style="stroke:black;stroke-width:1" />
<line x1="776.9559524970045" y1="35.70039351375498" x2="752.0616244905325" y2="40.8717509327875" style="stroke:black;stroke-width:1" />
<line x1="246.46778319688377" y1="255.91818585762016" x2="776.9559524970045" y2="35.70039351375498" style="stroke:black;stroke-width:1" />
<line x1="228.47589356547826" y1="269.3698325831538" x2="246.46778319688377" y2="255.91818585762016" style="stroke:black;stroke-width:1" />
<line x1="759.6492792771102" y1="152.7450882104059" x2="228.47589356547826" y2="269.3698325831538" style="stroke:black;stroke-width:1" />
<line x1="960.5963298398551" y1="114.52854951095148" x2="759.6492792771102" y2="152.7450882104059" style="stroke:black;stroke-width:1" />
<line x1="833.8793975266848" y1="187.08305633443257" x2="960.5963298398551" y2="114.52854951095148" style="stroke:black;stroke-width:1" />
<line x1="943.7433916182938" y1="181.0751660018155" x2="833.8793975266848" y2="187.08305633443257" style="stroke:black;stroke-width:1" />
<line x1="544.2167455816478" y1="253.77096154215207" x2="943.7433916182938" y2="181.0751660018155" style="stroke:black;stroke-width:1" />
<line x1="820.5964625723377" y1="235.0528154165944" x2="544.2167455816478" y2="253.77096154215207" style="stroke:black;stroke-width:1" />
<line x1="715.0995532407229" y1="258.0994438769766" x2="820.5964625723377" y2="235.0528154165944" style="stroke:black;stroke-width:1" />
<line x1="699.6048773799091" y1="274.3728835295769" x2="715.0995532407229" y2="258.0994438769766" style="stroke:black;stroke-width:1" />
<line x1="621.8552991606724" y1="287.84132685854314" x2="699.6048773799091" y2="274.3728835295769" style="stroke:black;stroke-width:1" />
<line x1="550.6572775109761" y1="313.0304654901643" x2="621.8552991606724" y2="287.84132685854314" style="stroke:black;stroke-width:1" />
<line x1="485.52761072515784" y1="358.1069026391881" x2="550.6572775109761" y2="313.0304654901643" style="stroke:black;stroke-width:1" />
<line x1="955.4177558432505" y1="387.1382737027367" x2="485.52761072515784" y2="358.1069026391881" style="stroke:black;stroke-width:1" />
<line x1="664.2287078982195" y1="384.0436685192464" x2="955.4177558432505" y2="387.1382737027367" style="stroke:black;stroke-width:1" />
<line x1="870.3234282135281" y1="425.6249413989897" x2="664.2287078982195" y2="384.0436685192464" style="stroke:black;stroke-width:1" />
<line x1="485.7556512524195" y1="390.1461380254724" x2="870.3234282135281" y2="425.6249413989897" style="stroke:black;stroke-width:1" />
<line x1="629.4827814574215" y1="408.2646772155364" x2="485.7556512524195" y2="390.1461380254724" style="stroke:black;stroke-width:1" />
<line x1="445.6575893361151" y1="400.20444742941066" x2="629.4827814574215" y2="408.2646772155364" style="stroke:black;stroke-width:1" />
<line x1="178.1932987080991" y1="374.2213416508796" x2="445.6575893361151" y2="400.20444742941066" style="stroke:black;stroke-width:1" />
<line x1="199.49173653831042" y1="378.71847049463946" x2="178.1932987080991" y2="374.2213416508796" style="stroke:black;stroke-width:1" />
<line x1="710.0891237216731" y1="470.3661619496123" x2="199.49173653831042" y2="378.71847049463946" style="stroke:black;stroke-width:1" />
<line x1="858.1467984741435" y1="502.095335735655" x2="710.0891237216731" y2="470.3661619496123" style="stroke:black;stroke-width:1" />
<line x1="795.8603531746791" y1="510.0440811303414" x2="858.1467984741435" y2="502.095335735655" style="stroke:black;stroke-width:1" />
<line x1="445.8970229181658" y1="474.2783696308824" x2="795.8603531746791" y2="510.0440811303414" style="stroke:black;stroke-width:1" />
<line x1="933.849520227751" y1="628.1136031404875" x2="445.8970229181658" y2="474.2783696308824" style="stroke:black;stroke-width:1" />
<line x1="573.387132524285" y1="520.9273275027862" x2="933.849520227751" y2="628.1136031404875" style="stroke:black;stroke-width:1" />
<line x1="480.1505411845849" y1="502.15470012395724" x2="573.387132524285" y2="520.9273275027862" style="stroke:black;stroke-width:1" />
<line x1="650.5308656595708" y1="580.1283838388268" x2="480.1505411845849" y2="502.15470012395724" style="stroke:black;stroke-width:1" />
<line x1="743.0003341925129" y1="619.3600362256285" x2="650.5308656595708" y2="580.1283838388268" style="stroke:black;stroke-width:1" />
<line x1="833.160359523385" y1="654.5646849028809" x2="743.0003341925129" y2="619.3600362256285" style="stroke:black;stroke-width:1" />
<line x1="698.6935954597916" y1="615.575549927651" x2="833.160359523385" y2="654.5646849028809" style="stroke:black;stroke-width:1" />
<line x1="741.5615903820274" y1="639.8920264608977" x2="698.6935954597916" y2="615.575549927651" style="stroke:black;stroke-width:1" />
<line x1="743.9671622141668" y1="657.5961804555112" x2="741.5615903820274" y2="639.8920264608977" style="stroke:black;stroke-width:1" />
<line x1="906.0859539563737" y1="782.2106393966335" x2="743.9671622141668" y2="657.5961804555112" style="stroke:black;stroke-width:1" />
<line x1="816.6473435813061" y1="777.192393016644" x2="906.0859539563737" y2="782.2106393966335" style="stroke:black;stroke-width:1" />
<line x1="688.6980680526357" y1="735.4275057046664" x2="816.6473435813061" y2="777.192393016644" style="stroke:black;stroke-width:1" />
<line x1="790.9568588743041" y1="797.4879850098331" x2="688.6980680526357" y2="735.4275057046664" style="stroke:black;stroke-width:1" />
<line x1="751.6699390094864" y1="790.2601604960169" x2="790.9568588743041" y2="797.4879850098331" style="stroke:black;stroke-width:1" />
<line x1="622.496301749" y1="717.6541172035817" x2="751.6699390094864" y2="790.2601604960169" style="stroke:black;stroke-width:1" />
<line x1="955.8500426598043" y1="930.1674468988447" x2="622.496301749" y2="717.6541172035817" style="stroke:black;stroke-width:1" />
<line x1="742.508402397068" y1="824.0573458877238" x2="955.8500426598043" y2="930.1674468988447" style="stroke:black;stroke-width:1" />
<line x1="909.9475349112602" y1="956.8668022882762" x2="742.508402397068" y2="824.0573458877238" style="stroke:black;stroke-width:1" />
<line x1="652.6660844992865" y1="786.1996509240504" x2="909.9475349112602" y2="956.8668022882762" style="stroke:black;stroke-width:1" />
<line x1="549.5608319573969" y1="728.6073312418695" x2="652.6660844992865" y2="786.1996509240504" style="stroke:black;stroke-width:1" />
<line x1="364.70002625329545" y1="611.6848209624607" x2="549.5608319573969" y2="728.6073312418695" style="stroke:black;stroke-width:1" />
<line x1="817.8564441103587" y1="974.4314834913852" x2="364.70002625329545" y2="611.6848209624607" style="stroke:black;stroke-width:1" />
<line x1="701.4178885368735" y1="886.758078184425" x2="817.8564441103587" y2="974.4314834913852" style="stroke:black;stroke-width:1" />
<line x1="808.8489814350714" y1="979.6287626735362" x2="701.4178885368735" y2="886.758078184425" style="stroke:black;stroke-width:1" />
<line x1="672.9103214007952" y1="891.6658627048826" x2="808.8489814350714" y2="979.6287626735362" style="stroke:black;stroke-width:1" />
<line x1="772.5521098770349" y1="998.8849202538695" x2="672.9103214007952" y2="891.6658627048826" style="stroke:black;stroke-width:1" />
<line x1="103.61690345132956" y1="432.9905936269122" x2="772.5521098770349" y2="998.8849202538695" style="stroke:black;stroke-width:1" />
<line x1="454.87358902681154" y1="739.4985785103185" x2="103.61690345132956" y2="432.9905936269122" style="stroke:black;stroke-width:1" />
<line x1="704.0201780607853" y1="973.4754908302748" x2="454.87358902681154" y2="739.4985785103185" style="stroke:black;stroke-width:1" />
<line x1="656.035559746759" y1="948.3272642304615" x2="704.0201780607853" y2="973.4754908302748" style="stroke:black;stroke-width:1" />
<line x1="373.65769238119327" y1="696.1223753947445" x2="656.035559746759" y2="948.3272642304615" style="stroke:black;stroke-width:1" />
<line x1="657.3443025159621" y1="981.9346459224807" x2="373.65769238119327" y2="696.1223753947445" style="stroke:black;stroke-width:1" />
<line x1="197.9283192204787" y1="539.5565784379681" x2="657.3443025159621" y2="981.9346459224807" style="stroke:black;stroke-width:1" />
<line x1="377.2015549005562" y1="720.035367909019" x2="197.9283192204787" y2="539.5565784379681" style="stroke:black;stroke-width:1" />
<line x1="582.8181943115314" y1="944.5919689464082" x2="377.2015549005562" y2="720.035367909019" style="stroke:black;stroke-width:1" />
<line x1="433.8439888878216" y1="872.9896204927983" x2="582.8181943115314" y2="944.5919689464082" style="stroke:black;stroke-width:1" />
<line x1="129.99059730091167" y1="511.0403311192375" x2="433.8439888878216" y2="872.9896204927983" style="stroke:black;stroke-width:1" />
<line x1="357.75372886204025" y1="834.9139367289752" x2="129.99059730091167" y2="511.0403311192375" style="stroke:black;stroke-width:1" />
<line x1="346.50561366651266" y1="821.749310567107" x2="357.75372886204025" y2="834.9139367289752" style="stroke:black;stroke-width:1" />
<line x1="172.54950255841516" y1="587.2246425659765" x2="346.50561366651266" y2="821.749310567107" style="stroke:black;stroke-width:1" />
<line x1="109.89883048566529" y1="508.7505512730556" x2="172.54950255841516" y2="587.2246425659765" style="stroke:black;stroke-width:1" />
<line x1="277.1687004994636" y1="776.6443461782343" x2="109.89883048566529" y2="508.7505512730556" style="stroke:black;stroke-width:1" />
<line x1="387.29720191910747" y1="971.9092713110942" x2="277.1687004994636" y2="776.6443461782343" style="stroke:black;stroke-width:1" />
<line x1="390.1203316406454" y1="990.4694023314141" x2="387.29720191910747" y2="971.9092713110942" style="stroke:black;stroke-width:1" />
<line x1="199.89271997982073" y1="702.4861796143733" x2="390.1203316406454" y2="990.4694023314141" style="stroke:black;stroke-width:1" />
<line x1="72.01270532929405" y1="519.6915398746884" x2="199.89271997982073" y2="702.4861796143733" style="stroke:black;stroke-width:1" />
<line x1="157.57345895087948" y1="806.6610875863421" x2="72.01270532929405" y2="519.6915398746884" style="stroke:black;stroke-width:1" />
<line x1="166.5173004221726" y1="864.965194641246" x2="157.57345895087948" y2="806.6610875863421" style="stroke:black;stroke-width:1" />
<line x1="129.52037109849846" y1="790.2183004293446" x2="166.5173004221726" y2="864.965194641246" style="stroke:black;stroke-width:1" />
<line x1="123.0895025290959" y1="867.0125930094698" x2="129.52037109849846" y2="790.2183004293446" style="stroke:black;stroke-width:1" />
<line x1="83.57039994407478" y1="728.539409039039" x2="123.0895025290959" y2="867.0125930094698" style="stroke:black;stroke-width:1" />
<line x1="100.49198972443295" y1="820.9613287579964" x2="83.57039994407478" y2="728.539409039039" style="stroke:black;stroke-width:1" />
<line x1="124.04769369855273" y1="952.7140547808937" x2="100.49198972443295" y2="820.9613287579964" style="stroke:black;stroke-width:1" />
<line x1="64.92610492640071" y1="846.934776454462" x2="124.04769369855273" y2="952.7140547808937" style="stroke:black;stroke-width:1" />
<line x1="41.190711744660604" y1="960.3317234044749" x2="64.92610492640071" y2="846.934776454462" style="stroke:black;stroke-width:1" />
<line x1="17.913910463525973" y1="664.383978344191" x2="41.190711744660604" y2="960.3317234044749" style="stroke:black;stroke-width:1" />
<line x1="15.56865281520503" y1="879.6239126950002" x2="17.913910463525973" y2="664.383978344191" style="stroke:black;stroke-width:1" />
<line x1="16.952921729380233" y1="984.3880613644344" x2="15.56865281520503" y2="879.6239126950002" style="stroke:black;stroke-width:1" />
</svg>
