<?xml version="1.0" encoding="UTF-8" ?><svg xmlns="http://www.w3.org/2000/svg" version="1.1">
<line x1="690.4968889067909" y1="865.6791046728484" x2="692.0874486323434" y2="864.1150166259686" style="stroke:black;stroke-width:1" />
<line x1="898.9986228647166" y1="5.480245690117513" x2="891.0215337682008" y2="3.517103725966253" style="stroke:black;stroke-width:1" />
<line x1="980.8010594914714" y1="226.8609410809701" x2="969.2544915200439" y2="234.16871821736407" style="stroke:black;stroke-width:1" />
<line x1="980.8010594914714" y1="226.8609410809701" x2="996.5988070933521" y2="218.66673610832433" style="stroke:black;stroke-width:1" />
<line x1="435.06436792279277" y1="940.0168447130901" x2="439.69128493545685" y2="960.117276622167" style="stroke:black;stroke-width:1" />
<line x1="365.711238311366" y1="844.9565349366688" x2="343.7018580141237" y2="852.6049917174983" style="stroke:black;stroke-width:1" />
<line x1="248.23998934524138" y1="3.9690608406440786" x2="224.98938818031476" y2="1.0087817957750156" style="stroke:black;stroke-width:1" />
<line x1="209.64673217375696" y1="140.0826184989762" x2="185.88330555973943" y2="136.5336112894382" style="stroke:black;stroke-width:1" />
<line x1="913.844771113345" y1="986.8325619297667" x2="911.7885890067998" y2="961.0113350485531" style="stroke:black;stroke-width:1" />
<line x1="26.279355240278246" y1="260.4518558105823" x2="27.42047687668414" y2="290.0485122853902" style="stroke:black;stroke-width:1" />
<line x1="996.5988070933521" y1="218.66673610832433" x2="969.2544915200439" y2="234.16871821736407" style="stroke:black;stroke-width:1" />
<line x1="435.6694165218542" y1="991.6982963202372" x2="439.69128493545685" y2="960.117276622167" style="stroke:black;stroke-width:1" />
<line x1="425.7398061204921" y1="530.7043546459444" x2="456.8372226525961" y2="522.28822180559" style="stroke:black;stroke-width:1" />
<line x1="26.279355240278246" y1="260.4518558105823" x2="58.4845827310263" y2="257.3677875609669" style="stroke:black;stroke-width:1" />
<line x1="439.69128493545685" y1="960.117276622167" x2="408.06664060740707" y2="971.6238996519292" style="stroke:black;stroke-width:1" />
<line x1="790.9295291741716" y1="299.5507535498153" x2="764.4827329089287" y2="278.4211571848111" style="stroke:black;stroke-width:1" />
<line x1="435.6694165218542" y1="991.6982963202372" x2="408.06664060740707" y2="971.6238996519292" style="stroke:black;stroke-width:1" />
<line x1="949.8019154060925" y1="263.1285973662009" x2="969.2544915200439" y2="234.16871821736407" style="stroke:black;stroke-width:1" />
<line x1="94.05349225194037" y1="449.54948066268696" x2="128.99038964422925" y2="452.6149267781929" style="stroke:black;stroke-width:1" />
<line x1="160.7166650333536" y1="256.1956556647248" x2="172.7351802196242" y2="221.8574241547745" style="stroke:black;stroke-width:1" />
<line x1="682.3694819444185" y1="801.7864593923355" x2="715.2704825697899" y2="784.5374243924285" style="stroke:black;stroke-width:1" />
<line x1="736.1139671336111" y1="815.8705168810103" x2="715.2704825697899" y2="784.5374243924285" style="stroke:black;stroke-width:1" />
<line x1="224.98938818031476" y1="1.0087817957750156" x2="186.8219786902222" y2="11.952851056396208" style="stroke:black;stroke-width:1" />
<line x1="425.7398061204921" y1="530.7043546459444" x2="419.6708128410801" y2="570.7745500499208" style="stroke:black;stroke-width:1" />
<line x1="379.9714158814901" y1="500.83651004815" x2="412.7845664350367" y2="476.9690866291435" style="stroke:black;stroke-width:1" />
<line x1="440.5524377343052" y1="149.91110668443952" x2="440.33576411239784" y2="190.75546575178913" style="stroke:black;stroke-width:1" />
<line x1="120.50309133860625" y1="775.3181384910229" x2="82.88902828345445" y2="792.6750388538608" style="stroke:black;stroke-width:1" />
<line x1="435.06436792279277" y1="940.0168447130901" x2="408.06664060740707" y2="971.6238996519292" style="stroke:black;stroke-width:1" />
<line x1="675.1856745354802" y1="173.4616959061721" x2="655.5507346224063" y2="135.37133825085624" style="stroke:black;stroke-width:1" />
<line x1="847.5481992894439" y1="0.14970263475300172" x2="891.0215337682008" y2="3.517103725966253" style="stroke:black;stroke-width:1" />
<line x1="159.05783317817125" y1="95.23710003726215" x2="153.63234990203867" y2="50.70882617601524" style="stroke:black;stroke-width:1" />
<line x1="27.42047687668414" y1="290.0485122853902" x2="58.4845827310263" y2="257.3677875609669" style="stroke:black;stroke-width:1" />
<line x1="675.1856745354802" y1="173.4616959061721" x2="630.9650562910452" y2="186.3876444783734" style="stroke:black;stroke-width:1" />
<line x1="944.6774103667254" y1="186.70055730952916" x2="967.8457973733667" y2="145.39084494600408" style="stroke:black;stroke-width:1" />
<line x1="401.2089577136948" y1="217.66044671684037" x2="440.33576411239784" y2="190.75546575178913" style="stroke:black;stroke-width:1" />
<line x1="159.05783317817125" y1="95.23710003726215" x2="185.88330555973943" y2="136.5336112894382" style="stroke:black;stroke-width:1" />
<line x1="510.0771917470751" y1="817.6524648285578" x2="460.4715865794295" y2="824.460896915456" style="stroke:black;stroke-width:1" />
<line x1="153.63234990203867" y1="50.70882617601524" x2="186.8219786902222" y2="11.952851056396208" style="stroke:black;stroke-width:1" />
<line x1="847.5481992894439" y1="0.14970263475300172" x2="898.9986228647166" y2="5.480245690117513" style="stroke:black;stroke-width:1" />
<line x1="510.0771917470751" y1="817.6524648285578" x2="555.0970855129724" y2="789.6875802242048" style="stroke:black;stroke-width:1" />
<line x1="944.6774103667254" y1="186.70055730952916" x2="969.2544915200439" y2="234.16871821736407" style="stroke:black;stroke-width:1" />
<line x1="415.27364462919235" y1="663.9374440336999" x2="403.984279150295" y2="716.5044370718304" style="stroke:black;stroke-width:1" />
<line x1="632.1516452979415" y1="657.8058267763058" x2="675.379292017994" y2="625.5476464545072" style="stroke:black;stroke-width:1" />
<line x1="944.6774103667254" y1="186.70055730952916" x2="980.8010594914714" y2="226.8609410809701" style="stroke:black;stroke-width:1" />
<line x1="159.05783317817125" y1="95.23710003726215" x2="104.62611013322865" y2="91.6228370125911" style="stroke:black;stroke-width:1" />
<line x1="425.7398061204921" y1="530.7043546459444" x2="379.9714158814901" y2="500.83651004815" style="stroke:black;stroke-width:1" />
<line x1="39.145938358502555" y1="570.5964483071308" x2="64.69585652727972" y2="619.2744801291846" style="stroke:black;stroke-width:1" />
<line x1="294.89019874179326" y1="755.2024594847753" x2="327.7348609588733" y2="710.9776797202002" style="stroke:black;stroke-width:1" />
<line x1="425.7398061204921" y1="530.7043546459444" x2="412.7845664350367" y2="476.9690866291435" style="stroke:black;stroke-width:1" />
<line x1="682.3694819444185" y1="801.7864593923355" x2="736.1139671336111" y2="815.8705168810103" style="stroke:black;stroke-width:1" />
<line x1="290.58848224459445" y1="827.3685804136085" x2="296.74471475447274" y2="882.8883397191717" style="stroke:black;stroke-width:1" />
<line x1="296.74471475447274" y1="882.8883397191717" x2="343.7018580141237" y2="852.6049917174983" style="stroke:black;stroke-width:1" />
<line x1="655.5507346224063" y1="135.37133825085624" x2="630.9650562910452" y2="186.3876444783734" style="stroke:black;stroke-width:1" />
<line x1="296.74471475447274" y1="882.8883397191717" x2="325.1937375981009" y2="932.8906444374286" style="stroke:black;stroke-width:1" />
<line x1="290.58848224459445" y1="827.3685804136085" x2="343.7018580141237" y2="852.6049917174983" style="stroke:black;stroke-width:1" />
<line x1="944.6774103667254" y1="186.70055730952916" x2="996.5988070933521" y2="218.66673610832433" style="stroke:black;stroke-width:1" />
<line x1="419.6708128410801" y1="570.7745500499208" x2="456.8372226525961" y2="522.28822180559" style="stroke:black;stroke-width:1" />
<line x1="248.23998934524138" y1="3.9690608406440786" x2="186.8219786902222" y2="11.952851056396208" style="stroke:black;stroke-width:1" />
<line x1="209.64673217375696" y1="140.0826184989762" x2="255.3300083106389" y2="181.95709655897807" style="stroke:black;stroke-width:1" />
<line x1="401.2089577136948" y1="217.66044671684037" x2="353.8214628699482" y2="176.922501322775" style="stroke:black;stroke-width:1" />
<line x1="682.3694819444185" y1="801.7864593923355" x2="692.0874486323434" y2="864.1150166259686" style="stroke:black;stroke-width:1" />
<line x1="456.8372226525961" y1="522.28822180559" x2="412.7845664350367" y2="476.9690866291435" style="stroke:black;stroke-width:1" />
<line x1="153.63234990203867" y1="50.70882617601524" x2="104.62611013322865" y2="91.6228370125911" style="stroke:black;stroke-width:1" />
<line x1="690.4968889067909" y1="865.6791046728484" x2="682.3694819444185" y2="801.7864593923355" style="stroke:black;stroke-width:1" />
<line x1="949.8019154060925" y1="263.1285973662009" x2="996.5988070933521" y2="218.66673610832433" style="stroke:black;stroke-width:1" />
<line x1="736.1139671336111" y1="815.8705168810103" x2="692.0874486323434" y2="864.1150166259686" style="stroke:black;stroke-width:1" />
<line x1="589.0686104187972" y1="402.1385124148278" x2="597.1061796601067" y2="467.07870746250944" style="stroke:black;stroke-width:1" />
<line x1="192.98925386008415" y1="438.44575165295385" x2="128.99038964422925" y2="452.6149267781929" style="stroke:black;stroke-width:1" />
<line x1="192.98925386008415" y1="438.44575165295385" x2="190.19887925844392" y2="372.91504793025" style="stroke:black;stroke-width:1" />
<line x1="821.1699184275752" y1="902.7764590359172" x2="774.8980880349081" y2="949.2920742841212" style="stroke:black;stroke-width:1" />
<line x1="462.0719772093065" y1="254.39393059248826" x2="440.33576411239784" y2="190.75546575178913" style="stroke:black;stroke-width:1" />
<line x1="159.05783317817125" y1="95.23710003726215" x2="209.64673217375696" y2="140.0826184989762" style="stroke:black;stroke-width:1" />
<line x1="665.5596120959" y1="954.5813977317293" x2="630.1333324846769" y2="896.9843049355679" style="stroke:black;stroke-width:1" />
<line x1="690.4968889067909" y1="865.6791046728484" x2="630.1333324846769" y2="896.9843049355679" style="stroke:black;stroke-width:1" />
<line x1="462.0719772093065" y1="254.39393059248826" x2="516.1513548804451" y2="208.99180526915316" style="stroke:black;stroke-width:1" />
<line x1="462.0719772093065" y1="254.39393059248826" x2="401.2089577136948" y2="217.66044671684037" style="stroke:black;stroke-width:1" />
<line x1="189.47049507099578" y1="576.9095529706482" x2="247.4660199335752" y2="618.6760556914999" style="stroke:black;stroke-width:1" />
<line x1="519.3418659165525" y1="727.3388339801255" x2="555.0970855129724" y2="789.6875802242048" style="stroke:black;stroke-width:1" />
<line x1="290.58848224459445" y1="827.3685804136085" x2="294.89019874179326" y2="755.2024594847753" style="stroke:black;stroke-width:1" />
<line x1="105.91034237005204" y1="193.09383323632835" x2="172.7351802196242" y2="221.8574241547745" style="stroke:black;stroke-width:1" />
<line x1="569.0387248329341" y1="939.2923351893228" x2="630.1333324846769" y2="896.9843049355679" style="stroke:black;stroke-width:1" />
<line x1="944.6774103667254" y1="186.70055730952916" x2="871.3605464651716" y2="166.79195749952856" style="stroke:black;stroke-width:1" />
<line x1="403.984279150295" y1="716.5044370718304" x2="327.7348609588733" y2="710.9776797202002" style="stroke:black;stroke-width:1" />
<line x1="949.8019154060925" y1="263.1285973662009" x2="944.6774103667254" y2="186.70055730952916" style="stroke:black;stroke-width:1" />
<line x1="290.58848224459445" y1="827.3685804136085" x2="365.711238311366" y2="844.9565349366688" style="stroke:black;stroke-width:1" />
<line x1="440.33576411239784" y1="190.75546575178913" x2="516.1513548804451" y2="208.99180526915316" style="stroke:black;stroke-width:1" />
<line x1="440.5524377343052" y1="149.91110668443952" x2="401.2089577136948" y2="217.66044671684037" style="stroke:black;stroke-width:1" />
<line x1="296.74471475447274" y1="882.8883397191717" x2="365.711238311366" y2="844.9565349366688" style="stroke:black;stroke-width:1" />
<line x1="996.5988070933521" y1="218.66673610832433" x2="967.8457973733667" y2="145.39084494600408" style="stroke:black;stroke-width:1" />
<line x1="105.91034237005204" y1="193.09383323632835" x2="58.4845827310263" y2="257.3677875609669" style="stroke:black;stroke-width:1" />
<line x1="379.9714158814901" y1="500.83651004815" x2="419.6708128410801" y2="570.7745500499208" style="stroke:black;stroke-width:1" />
<line x1="814.2816936172695" y1="390.31826273445614" x2="759.3596118473174" y2="449.83811522537985" style="stroke:black;stroke-width:1" />
<line x1="185.88330555973943" y1="136.5336112894382" x2="255.3300083106389" y2="181.95709655897807" style="stroke:black;stroke-width:1" />
<line x1="105.91034237005204" y1="193.09383323632835" x2="160.7166650333536" y2="256.1956556647248" style="stroke:black;stroke-width:1" />
<line x1="105.91034237005204" y1="193.09383323632835" x2="31.022237739930958" y2="154.04952376721238" style="stroke:black;stroke-width:1" />
<line x1="462.0719772093065" y1="254.39393059248826" x2="463.80016840493363" y2="339.27214728649216" style="stroke:black;stroke-width:1" />
<line x1="586.9669869030694" y1="585.7837099865601" x2="632.1516452979415" y2="657.8058267763058" style="stroke:black;stroke-width:1" />
<line x1="185.88330555973943" y1="136.5336112894382" x2="172.7351802196242" y2="221.8574241547745" style="stroke:black;stroke-width:1" />
<line x1="423.11671817076615" y1="2.065903708651007" x2="366.4473983025626" y2="67.97484234417827" style="stroke:black;stroke-width:1" />
<line x1="159.05783317817125" y1="95.23710003726215" x2="186.8219786902222" y2="11.952851056396208" style="stroke:black;stroke-width:1" />
<line x1="860.8859494707285" y1="464.73273574209185" x2="814.2816936172695" y2="390.31826273445614" style="stroke:black;stroke-width:1" />
<line x1="519.3418659165525" y1="727.3388339801255" x2="510.0771917470751" y2="817.6524648285578" style="stroke:black;stroke-width:1" />
<line x1="440.5524377343052" y1="149.91110668443952" x2="353.8214628699482" y2="176.922501322775" style="stroke:black;stroke-width:1" />
<line x1="408.06664060740707" y1="971.6238996519292" x2="325.1937375981009" y2="932.8906444374286" style="stroke:black;stroke-width:1" />
<line x1="255.3300083106389" y1="181.95709655897807" x2="172.7351802196242" y2="221.8574241547745" style="stroke:black;stroke-width:1" />
<line x1="690.4968889067909" y1="865.6791046728484" x2="665.5596120959" y2="954.5813977317293" style="stroke:black;stroke-width:1" />
<line x1="94.05349225194037" y1="449.54948066268696" x2="94.51933362407917" y2="357.09883557436405" style="stroke:black;stroke-width:1" />
<line x1="185.88330555973943" y1="136.5336112894382" x2="104.62611013322865" y2="91.6228370125911" style="stroke:black;stroke-width:1" />
<line x1="415.27364462919235" y1="663.9374440336999" x2="419.6708128410801" y2="570.7745500499208" style="stroke:black;stroke-width:1" />
<line x1="790.9295291741716" y1="299.5507535498153" x2="814.2816936172695" y2="390.31826273445614" style="stroke:black;stroke-width:1" />
<line x1="665.5596120959" y1="954.5813977317293" x2="692.0874486323434" y2="864.1150166259686" style="stroke:black;stroke-width:1" />
<line x1="27.42047687668414" y1="290.0485122853902" x2="94.51933362407917" y2="357.09883557436405" style="stroke:black;stroke-width:1" />
<line x1="860.8859494707285" y1="464.73273574209185" x2="901.389960042071" y2="551.4846326875897" style="stroke:black;stroke-width:1" />
<line x1="440.5524377343052" y1="149.91110668443952" x2="516.1513548804451" y2="208.99180526915316" style="stroke:black;stroke-width:1" />
<line x1="104.62611013322865" y1="91.6228370125911" x2="31.022237739930958" y2="154.04952376721238" style="stroke:black;stroke-width:1" />
<line x1="325.1937375981009" y1="932.8906444374286" x2="365.711238311366" y2="844.9565349366688" style="stroke:black;stroke-width:1" />
<line x1="586.9669869030694" y1="585.7837099865601" x2="675.379292017994" y2="625.5476464545072" style="stroke:black;stroke-width:1" />
<line x1="365.711238311366" y1="844.9565349366688" x2="460.4715865794295" y2="824.460896915456" style="stroke:black;stroke-width:1" />
<line x1="190.19887925844392" y1="372.91504793025" x2="94.51933362407917" y2="357.09883557436405" style="stroke:black;stroke-width:1" />
<line x1="665.5596120959" y1="954.5813977317293" x2="569.0387248329341" y2="939.2923351893228" style="stroke:black;stroke-width:1" />
<line x1="105.91034237005204" y1="193.09383323632835" x2="185.88330555973943" y2="136.5336112894382" style="stroke:black;stroke-width:1" />
<line x1="120.50309133860625" y1="775.3181384910229" x2="187.14215288985724" y2="703.2268823290167" style="stroke:black;stroke-width:1" />
<line x1="255.3300083106389" y1="181.95709655897807" x2="353.8214628699482" y2="176.922501322775" style="stroke:black;stroke-width:1" />
<line x1="871.3605464651716" y1="166.79195749952856" x2="967.8457973733667" y2="145.39084494600408" style="stroke:black;stroke-width:1" />
<line x1="415.27364462919235" y1="663.9374440336999" x2="327.7348609588733" y2="710.9776797202002" style="stroke:black;stroke-width:1" />
<line x1="94.05349225194037" y1="449.54948066268696" x2="192.98925386008415" y2="438.44575165295385" style="stroke:black;stroke-width:1" />
<line x1="105.91034237005204" y1="193.09383323632835" x2="104.62611013322865" y2="91.6228370125911" style="stroke:black;stroke-width:1" />
<line x1="160.7166650333536" y1="256.1956556647248" x2="58.4845827310263" y2="257.3677875609669" style="stroke:black;stroke-width:1" />
<line x1="860.8859494707285" y1="464.73273574209185" x2="759.3596118473174" y2="449.83811522537985" style="stroke:black;stroke-width:1" />
<line x1="187.14215288985724" y1="703.2268823290167" x2="247.4660199335752" y2="618.6760556914999" style="stroke:black;stroke-width:1" />
<line x1="105.91034237005204" y1="193.09383323632835" x2="26.279355240278246" y2="260.4518558105823" style="stroke:black;stroke-width:1" />
<line x1="58.4845827310263" y1="257.3677875609669" x2="94.51933362407917" y2="357.09883557436405" style="stroke:black;stroke-width:1" />
<line x1="26.279355240278246" y1="260.4518558105823" x2="31.022237739930958" y2="154.04952376721238" style="stroke:black;stroke-width:1" />
<line x1="821.1699184275752" y1="902.7764590359172" x2="911.7885890067998" y2="961.0113350485531" style="stroke:black;stroke-width:1" />
<line x1="25.344119225883865" y1="17.676820631828406" x2="104.62611013322865" y2="91.6228370125911" style="stroke:black;stroke-width:1" />
<line x1="296.74471475447274" y1="882.8883397191717" x2="208.35082535461734" y2="945.7353286438754" style="stroke:black;stroke-width:1" />
<line x1="682.3694819444185" y1="801.7864593923355" x2="630.1333324846769" y2="896.9843049355679" style="stroke:black;stroke-width:1" />
<line x1="665.5596120959" y1="954.5813977317293" x2="774.8980880349081" y2="949.2920742841212" style="stroke:black;stroke-width:1" />
<line x1="366.4473983025626" y1="67.97484234417827" x2="353.8214628699482" y2="176.922501322775" style="stroke:black;stroke-width:1" />
<line x1="435.06436792279277" y1="940.0168447130901" x2="325.1937375981009" y2="932.8906444374286" style="stroke:black;stroke-width:1" />
<line x1="440.5524377343052" y1="149.91110668443952" x2="366.4473983025626" y2="67.97484234417827" style="stroke:black;stroke-width:1" />
<line x1="350.497055480157" y1="336.0135582629593" x2="463.80016840493363" y2="339.27214728649216" style="stroke:black;stroke-width:1" />
<line x1="519.3418659165525" y1="727.3388339801255" x2="460.4715865794295" y2="824.460896915456" style="stroke:black;stroke-width:1" />
<line x1="294.89019874179326" y1="755.2024594847753" x2="365.711238311366" y2="844.9565349366688" style="stroke:black;stroke-width:1" />
<line x1="186.8219786902222" y1="11.952851056396208" x2="104.62611013322865" y2="91.6228370125911" style="stroke:black;stroke-width:1" />
<line x1="294.89019874179326" y1="755.2024594847753" x2="403.984279150295" y2="716.5044370718304" style="stroke:black;stroke-width:1" />
<line x1="519.3418659165525" y1="727.3388339801255" x2="403.984279150295" y2="716.5044370718304" style="stroke:black;stroke-width:1" />
<line x1="630.9650562910452" y1="186.3876444783734" x2="516.1513548804451" y2="208.99180526915316" style="stroke:black;stroke-width:1" />
<line x1="208.35082535461734" y1="945.7353286438754" x2="325.1937375981009" y2="932.8906444374286" style="stroke:black;stroke-width:1" />
<line x1="435.06436792279277" y1="940.0168447130901" x2="365.711238311366" y2="844.9565349366688" style="stroke:black;stroke-width:1" />
<line x1="435.06436792279277" y1="940.0168447130901" x2="460.4715865794295" y2="824.460896915456" style="stroke:black;stroke-width:1" />
<line x1="692.0874486323434" y1="864.1150166259686" x2="774.8980880349081" y2="949.2920742841212" style="stroke:black;stroke-width:1" />
<line x1="586.9669869030694" y1="585.7837099865601" x2="597.1061796601067" y2="467.07870746250944" style="stroke:black;stroke-width:1" />
<line x1="294.89019874179326" y1="755.2024594847753" x2="187.14215288985724" y2="703.2268823290167" style="stroke:black;stroke-width:1" />
<line x1="160.7166650333536" y1="256.1956556647248" x2="255.3300083106389" y2="181.95709655897807" style="stroke:black;stroke-width:1" />
<line x1="160.7166650333536" y1="256.1956556647248" x2="190.19887925844392" y2="372.91504793025" style="stroke:black;stroke-width:1" />
<line x1="160.7166650333536" y1="256.1956556647248" x2="94.51933362407917" y2="357.09883557436405" style="stroke:black;stroke-width:1" />
<line x1="736.1139671336111" y1="815.8705168810103" x2="821.1699184275752" y2="902.7764590359172" style="stroke:black;stroke-width:1" />
<line x1="403.984279150295" y1="716.5044370718304" x2="460.4715865794295" y2="824.460896915456" style="stroke:black;stroke-width:1" />
<line x1="519.3418659165525" y1="727.3388339801255" x2="415.27364462919235" y2="663.9374440336999" style="stroke:black;stroke-width:1" />
<line x1="247.4660199335752" y1="618.6760556914999" x2="327.7348609588733" y2="710.9776797202002" style="stroke:black;stroke-width:1" />
<line x1="814.2816936172695" y1="390.31826273445614" x2="764.4827329089287" y2="278.4211571848111" style="stroke:black;stroke-width:1" />
<line x1="94.05349225194037" y1="449.54948066268696" x2="190.19887925844392" y2="372.91504793025" style="stroke:black;stroke-width:1" />
<line x1="949.8019154060925" y1="263.1285973662009" x2="871.3605464651716" y2="166.79195749952856" style="stroke:black;stroke-width:1" />
<line x1="997.9097973671516" y1="629.9871457624408" x2="901.389960042071" y2="551.4846326875897" style="stroke:black;stroke-width:1" />
<line x1="821.1699184275752" y1="902.7764590359172" x2="913.844771113345" y2="986.8325619297667" style="stroke:black;stroke-width:1" />
<line x1="435.6694165218542" y1="991.6982963202372" x2="325.1937375981009" y2="932.8906444374286" style="stroke:black;stroke-width:1" />
<line x1="189.47049507099578" y1="576.9095529706482" x2="187.14215288985724" y2="703.2268823290167" style="stroke:black;stroke-width:1" />
<line x1="159.05783317817125" y1="95.23710003726215" x2="248.23998934524138" y2="3.9690608406440786" style="stroke:black;stroke-width:1" />
<line x1="682.3694819444185" y1="801.7864593923355" x2="555.0970855129724" y2="789.6875802242048" style="stroke:black;stroke-width:1" />
<line x1="350.497055480157" y1="336.0135582629593" x2="401.2089577136948" y2="217.66044671684037" style="stroke:black;stroke-width:1" />
<line x1="655.5507346224063" y1="135.37133825085624" x2="657.5077843043609" y2="6.615452782934184" style="stroke:black;stroke-width:1" />
<line x1="555.0970855129724" y1="789.6875802242048" x2="630.1333324846769" y2="896.9843049355679" style="stroke:black;stroke-width:1" />
<line x1="439.69128493545685" y1="960.117276622167" x2="569.0387248329341" y2="939.2923351893228" style="stroke:black;stroke-width:1" />
<line x1="189.47049507099578" y1="576.9095529706482" x2="64.69585652727972" y2="619.2744801291846" style="stroke:black;stroke-width:1" />
<line x1="519.3418659165525" y1="727.3388339801255" x2="632.1516452979415" y2="657.8058267763058" style="stroke:black;stroke-width:1" />
<line x1="39.145938358502555" y1="570.5964483071308" x2="94.05349225194037" y2="449.54948066268696" style="stroke:black;stroke-width:1" />
<line x1="435.06436792279277" y1="940.0168447130901" x2="569.0387248329341" y2="939.2923351893228" style="stroke:black;stroke-width:1" />
<line x1="403.984279150295" y1="716.5044370718304" x2="365.711238311366" y2="844.9565349366688" style="stroke:black;stroke-width:1" />
<line x1="248.23998934524138" y1="3.9690608406440786" x2="366.4473983025626" y2="67.97484234417827" style="stroke:black;stroke-width:1" />
<line x1="821.1699184275752" y1="902.7764590359172" x2="692.0874486323434" y2="864.1150166259686" style="stroke:black;stroke-width:1" />
<line x1="510.0771917470751" y1="817.6524648285578" x2="569.0387248329341" y2="939.2923351893228" style="stroke:black;stroke-width:1" />
<line x1="25.344119225883865" y1="17.676820631828406" x2="31.022237739930958" y2="154.04952376721238" style="stroke:black;stroke-width:1" />
<line x1="401.2089577136948" y1="217.66044671684037" x2="463.80016840493363" y2="339.27214728649216" style="stroke:black;stroke-width:1" />
<line x1="187.14215288985724" y1="703.2268823290167" x2="82.88902828345445" y2="792.6750388538608" style="stroke:black;stroke-width:1" />
<line x1="675.1856745354802" y1="173.4616959061721" x2="764.4827329089287" y2="278.4211571848111" style="stroke:black;stroke-width:1" />
<line x1="189.47049507099578" y1="576.9095529706482" x2="128.99038964422925" y2="452.6149267781929" style="stroke:black;stroke-width:1" />
<line x1="189.47049507099578" y1="576.9095529706482" x2="192.98925386008415" y2="438.44575165295385" style="stroke:black;stroke-width:1" />
<line x1="589.0686104187972" y1="402.1385124148278" x2="463.80016840493363" y2="339.27214728649216" style="stroke:black;stroke-width:1" />
<line x1="516.1513548804451" y1="208.99180526915316" x2="463.80016840493363" y2="339.27214728649216" style="stroke:black;stroke-width:1" />
<line x1="187.14215288985724" y1="703.2268823290167" x2="327.7348609588733" y2="710.9776797202002" style="stroke:black;stroke-width:1" />
<line x1="248.23998934524138" y1="3.9690608406440786" x2="209.64673217375696" y2="140.0826184989762" style="stroke:black;stroke-width:1" />
<line x1="435.6694165218542" y1="991.6982963202372" x2="569.0387248329341" y2="939.2923351893228" style="stroke:black;stroke-width:1" />
<line x1="435.06436792279277" y1="940.0168447130901" x2="510.0771917470751" y2="817.6524648285578" style="stroke:black;stroke-width:1" />
<line x1="510.0771917470751" y1="817.6524648285578" x2="630.1333324846769" y2="896.9843049355679" style="stroke:black;stroke-width:1" />
<line x1="913.844771113345" y1="986.8325619297667" x2="774.8980880349081" y2="949.2920742841212" style="stroke:black;stroke-width:1" />
<line x1="290.58848224459445" y1="827.3685804136085" x2="208.35082535461734" y2="945.7353286438754" style="stroke:black;stroke-width:1" />
<line x1="586.9669869030694" y1="585.7837099865601" x2="456.8372226525961" y2="522.28822180559" style="stroke:black;stroke-width:1" />
<line x1="412.7845664350367" y1="476.9690866291435" x2="463.80016840493363" y2="339.27214728649216" style="stroke:black;stroke-width:1" />
<line x1="415.27364462919235" y1="663.9374440336999" x2="456.8372226525961" y2="522.28822180559" style="stroke:black;stroke-width:1" />
<line x1="39.145938358502555" y1="570.5964483071308" x2="128.99038964422925" y2="452.6149267781929" style="stroke:black;stroke-width:1" />
<line x1="187.14215288985724" y1="703.2268823290167" x2="64.69585652727972" y2="619.2744801291846" style="stroke:black;stroke-width:1" />
<line x1="209.64673217375696" y1="140.0826184989762" x2="353.8214628699482" y2="176.922501322775" style="stroke:black;stroke-width:1" />
<line x1="440.5524377343052" y1="149.91110668443952" x2="423.11671817076615" y2="2.065903708651007" style="stroke:black;stroke-width:1" />
<line x1="255.3300083106389" y1="181.95709655897807" x2="401.2089577136948" y2="217.66044671684037" style="stroke:black;stroke-width:1" />
<line x1="39.145938358502555" y1="570.5964483071308" x2="189.47049507099578" y2="576.9095529706482" style="stroke:black;stroke-width:1" />
<line x1="597.1061796601067" y1="467.07870746250944" x2="456.8372226525961" y2="522.28822180559" style="stroke:black;stroke-width:1" />
<line x1="632.1516452979415" y1="657.8058267763058" x2="715.2704825697899" y2="784.5374243924285" style="stroke:black;stroke-width:1" />
<line x1="682.3694819444185" y1="801.7864593923355" x2="632.1516452979415" y2="657.8058267763058" style="stroke:black;stroke-width:1" />
<line x1="632.1516452979415" y1="657.8058267763058" x2="555.0970855129724" y2="789.6875802242048" style="stroke:black;stroke-width:1" />
<line x1="350.497055480157" y1="336.0135582629593" x2="412.7845664350367" y2="476.9690866291435" style="stroke:black;stroke-width:1" />
<line x1="764.4827329089287" y1="278.4211571848111" x2="871.3605464651716" y2="166.79195749952856" style="stroke:black;stroke-width:1" />
<line x1="790.9295291741716" y1="299.5507535498153" x2="871.3605464651716" y2="166.79195749952856" style="stroke:black;stroke-width:1" />
<line x1="898.9986228647166" y1="5.480245690117513" x2="967.8457973733667" y2="145.39084494600408" style="stroke:black;stroke-width:1" />
<line x1="519.3418659165525" y1="727.3388339801255" x2="586.9669869030694" y2="585.7837099865601" style="stroke:black;stroke-width:1" />
<line x1="655.5507346224063" y1="135.37133825085624" x2="516.1513548804451" y2="208.99180526915316" style="stroke:black;stroke-width:1" />
<line x1="821.1699184275752" y1="902.7764590359172" x2="715.2704825697899" y2="784.5374243924285" style="stroke:black;stroke-width:1" />
<line x1="186.8219786902222" y1="11.952851056396208" x2="25.344119225883865" y2="17.676820631828406" style="stroke:black;stroke-width:1" />
<line x1="290.58848224459445" y1="827.3685804136085" x2="187.14215288985724" y2="703.2268823290167" style="stroke:black;stroke-width:1" />
<line x1="630.9650562910452" y1="186.3876444783734" x2="764.4827329089287" y2="278.4211571848111" style="stroke:black;stroke-width:1" />
<line x1="790.9295291741716" y1="299.5507535498153" x2="949.8019154060925" y2="263.1285973662009" style="stroke:black;stroke-width:1" />
<line x1="759.3596118473174" y1="449.83811522537985" x2="597.1061796601067" y2="467.07870746250944" style="stroke:black;stroke-width:1" />
<line x1="898.9986228647166" y1="5.480245690117513" x2="871.3605464651716" y2="166.79195749952856" style="stroke:black;stroke-width:1" />
<line x1="675.379292017994" y1="625.5476464545072" x2="715.2704825697899" y2="784.5374243924285" style="stroke:black;stroke-width:1" />
<line x1="350.497055480157" y1="336.0135582629593" x2="190.19887925844392" y2="372.91504793025" style="stroke:black;stroke-width:1" />
<line x1="415.27364462919235" y1="663.9374440336999" x2="379.9714158814901" y2="500.83651004815" style="stroke:black;stroke-width:1" />
<line x1="350.497055480157" y1="336.0135582629593" x2="379.9714158814901" y2="500.83651004815" style="stroke:black;stroke-width:1" />
<line x1="675.1856745354802" y1="173.4616959061721" x2="657.5077843043609" y2="6.615452782934184" style="stroke:black;stroke-width:1" />
<line x1="847.5481992894439" y1="0.14970263475300172" x2="871.3605464651716" y2="166.79195749952856" style="stroke:black;stroke-width:1" />
<line x1="759.3596118473174" y1="449.83811522537985" x2="764.4827329089287" y2="278.4211571848111" style="stroke:black;stroke-width:1" />
<line x1="366.4473983025626" y1="67.97484234417827" x2="209.64673217375696" y2="140.0826184989762" style="stroke:black;stroke-width:1" />
<line x1="94.05349225194037" y1="449.54948066268696" x2="27.42047687668414" y2="290.0485122853902" style="stroke:black;stroke-width:1" />
<line x1="415.27364462919235" y1="663.9374440336999" x2="247.4660199335752" y2="618.6760556914999" style="stroke:black;stroke-width:1" />
<line x1="64.69585652727972" y1="619.2744801291846" x2="82.88902828345445" y2="792.6750388538608" style="stroke:black;stroke-width:1" />
<line x1="759.3596118473174" y1="449.83811522537985" x2="901.389960042071" y2="551.4846326875897" style="stroke:black;stroke-width:1" />
<line x1="248.23998934524138" y1="3.9690608406440786" x2="423.11671817076615" y2="2.065903708651007" style="stroke:black;stroke-width:1" />
<line x1="675.379292017994" y1="625.5476464545072" x2="597.1061796601067" y2="467.07870746250944" style="stroke:black;stroke-width:1" />
<line x1="589.0686104187972" y1="402.1385124148278" x2="759.3596118473174" y2="449.83811522537985" style="stroke:black;stroke-width:1" />
<line x1="379.9714158814901" y1="500.83651004815" x2="247.4660199335752" y2="618.6760556914999" style="stroke:black;stroke-width:1" />
<line x1="290.58848224459445" y1="827.3685804136085" x2="120.50309133860625" y2="775.3181384910229" style="stroke:black;stroke-width:1" />
<line x1="589.0686104187972" y1="402.1385124148278" x2="456.8372226525961" y2="522.28822180559" style="stroke:black;stroke-width:1" />
<line x1="860.8859494707285" y1="464.73273574209185" x2="790.9295291741716" y2="299.5507535498153" style="stroke:black;stroke-width:1" />
<line x1="350.497055480157" y1="336.0135582629593" x2="255.3300083106389" y2="181.95709655897807" style="stroke:black;stroke-width:1" />
<line x1="456.8372226525961" y1="522.28822180559" x2="463.80016840493363" y2="339.27214728649216" style="stroke:black;stroke-width:1" />
<line x1="350.497055480157" y1="336.0135582629593" x2="192.98925386008415" y2="438.44575165295385" style="stroke:black;stroke-width:1" />
<line x1="192.98925386008415" y1="438.44575165295385" x2="247.4660199335752" y2="618.6760556914999" style="stroke:black;stroke-width:1" />
<line x1="415.27364462919235" y1="663.9374440336999" x2="586.9669869030694" y2="585.7837099865601" style="stroke:black;stroke-width:1" />
<line x1="847.5481992894439" y1="0.14970263475300172" x2="657.5077843043609" y2="6.615452782934184" style="stroke:black;stroke-width:1" />
<line x1="120.50309133860625" y1="775.3181384910229" x2="208.35082535461734" y2="945.7353286438754" style="stroke:black;stroke-width:1" />
<line x1="759.3596118473174" y1="449.83811522537985" x2="675.379292017994" y2="625.5476464545072" style="stroke:black;stroke-width:1" />
<line x1="675.1856745354802" y1="173.4616959061721" x2="871.3605464651716" y2="166.79195749952856" style="stroke:black;stroke-width:1" />
<line x1="379.9714158814901" y1="500.83651004815" x2="192.98925386008415" y2="438.44575165295385" style="stroke:black;stroke-width:1" />
<line x1="208.35082535461734" y1="945.7353286438754" x2="82.88902828345445" y2="792.6750388538608" style="stroke:black;stroke-width:1" />
<line x1="224.98938818031476" y1="1.0087817957750156" x2="423.11671817076615" y2="2.065903708651007" style="stroke:black;stroke-width:1" />
<line x1="224.98938818031476" y1="1.0087817957750156" x2="25.344119225883865" y2="17.676820631828406" style="stroke:black;stroke-width:1" />
<line x1="255.3300083106389" y1="181.95709655897807" x2="190.19887925844392" y2="372.91504793025" style="stroke:black;stroke-width:1" />
<line x1="589.0686104187972" y1="402.1385124148278" x2="516.1513548804451" y2="208.99180526915316" style="stroke:black;stroke-width:1" />
<line x1="589.0686104187972" y1="402.1385124148278" x2="764.4827329089287" y2="278.4211571848111" style="stroke:black;stroke-width:1" />
<line x1="860.8859494707285" y1="464.73273574209185" x2="997.9097973671516" y2="629.9871457624408" style="stroke:black;stroke-width:1" />
<line x1="655.5507346224063" y1="135.37133825085624" x2="440.5524377343052" y2="149.91110668443952" style="stroke:black;stroke-width:1" />
<line x1="589.0686104187972" y1="402.1385124148278" x2="630.9650562910452" y2="186.3876444783734" style="stroke:black;stroke-width:1" />
<line x1="860.8859494707285" y1="464.73273574209185" x2="949.8019154060925" y2="263.1285973662009" style="stroke:black;stroke-width:1" />
<line x1="39.145938358502555" y1="570.5964483071308" x2="82.88902828345445" y2="792.6750388538608" style="stroke:black;stroke-width:1" />
<line x1="435.6694165218542" y1="991.6982963202372" x2="208.35082535461734" y2="945.7353286438754" style="stroke:black;stroke-width:1" />
<line x1="435.6694165218542" y1="991.6982963202372" x2="665.5596120959" y2="954.5813977317293" style="stroke:black;stroke-width:1" />
<line x1="657.5077843043609" y1="6.615452782934184" x2="423.11671817076615" y2="2.065903708651007" style="stroke:black;stroke-width:1" />
<line x1="675.379292017994" y1="625.5476464545072" x2="901.389960042071" y2="551.4846326875897" style="stroke:black;stroke-width:1" />
<line x1="26.279355240278246" y1="260.4518558105823" x2="25.344119225883865" y2="17.676820631828406" style="stroke:black;stroke-width:1" />
<line x1="675.1856745354802" y1="173.4616959061721" x2="847.5481992894439" y2="0.14970263475300172" style="stroke:black;stroke-width:1" />
<line x1="665.5596120959" y1="954.5813977317293" x2="913.844771113345" y2="986.8325619297667" style="stroke:black;stroke-width:1" />
<line x1="440.5524377343052" y1="149.91110668443952" x2="657.5077843043609" y2="6.615452782934184" style="stroke:black;stroke-width:1" />
<line x1="715.2704825697899" y1="784.5374243924285" x2="911.7885890067998" y2="961.0113350485531" style="stroke:black;stroke-width:1" />
<line x1="39.145938358502555" y1="570.5964483071308" x2="27.42047687668414" y2="290.0485122853902" style="stroke:black;stroke-width:1" />
<line x1="860.8859494707285" y1="464.73273574209185" x2="996.5988070933521" y2="218.66673610832433" style="stroke:black;stroke-width:1" />
<line x1="715.2704825697899" y1="784.5374243924285" x2="901.389960042071" y2="551.4846326875897" style="stroke:black;stroke-width:1" />
<line x1="997.9097973671516" y1="629.9871457624408" x2="715.2704825697899" y2="784.5374243924285" style="stroke:black;stroke-width:1" />
<line x1="997.9097973671516" y1="629.9871457624408" x2="911.7885890067998" y2="961.0113350485531" style="stroke:black;stroke-width:1" />
<line x1="997.9097973671516" y1="629.9871457624408" x2="913.844771113345" y2="986.8325619297667" style="stroke:black;stroke-width:1" />
<line x1="997.9097973671516" y1="629.9871457624408" x2="996.5988070933521" y2="218.66673610832433" style="stroke:black;stroke-width:1" />
<line x1="847.5481992894439" y1="0.14970263475300172" x2="423.11671817076615" y2="2.065903708651007" style="stroke:black;stroke-width:1" />
<line x1="435.6694165218542" y1="991.6982963202372" x2="913.844771113345" y2="986.8325619297667" style="stroke:black;stroke-width:1" />
<line x1="847.5481992894439" y1="0.14970263475300172" x2="224.98938818031476" y2="1.0087817957750156" style="stroke:black;stroke-width:1" />
</svg>
