<?xml version="1.0" encoding="UTF-8" ?><svg width="100%" height="100%" viewBox="0 0 1000 1000" xmlns="http://www.w3.org/2000/svg" version="1.1">
<line x1="400" y1="400" x2="800.0" y2="400.0" style="stroke:black;stroke-width:3" />
<line x1="800.0" y1="400.0" x2="768.616361708862" y2="398.7669334932512" style="stroke:black;stroke-width:3" />
<line x1="768.616361708862" y1="398.7669334932512" x2="400.0" y2="380.0" style="stroke:black;stroke-width:3" />
<line x1="768.616361708862" y1="398.7669334932512" x2="737.4262139839076" y2="395.0753362380551" style="stroke:black;stroke-width:3" />
<line x1="737.4262139839076" y1="395.0753362380551" x2="400.0" y2="360.0" style="stroke:black;stroke-width:3" />
<line x1="737.4262139839076" y1="395.0753362380551" x2="706.6218544576377" y2="388.9479681590707" style="stroke:black;stroke-width:3" />
<line x1="706.6218544576377" y1="388.9479681590707" x2="400.0" y2="340.0" style="stroke:black;stroke-width:3" />
<line x1="706.6218544576377" y1="388.9479681590707" x2="676.3932022500209" y2="380.42260651806146" style="stroke:black;stroke-width:3" />
<line x1="676.3932022500209" y1="380.42260651806146" x2="400.0" y2="320.0" style="stroke:black;stroke-width:3" />
<line x1="676.3932022500209" y1="380.42260651806146" x2="646.9266270539639" y2="369.55181300451477" style="stroke:black;stroke-width:3" />
<line x1="646.9266270539639" y1="369.55181300451477" x2="400.0" y2="300.0" style="stroke:black;stroke-width:3" />
<line x1="646.9266270539639" y1="369.55181300451477" x2="618.4038001041811" y2="356.4026096753472" style="stroke:black;stroke-width:3" />
<line x1="618.4038001041811" y1="356.4026096753472" x2="400.0" y2="280.0" style="stroke:black;stroke-width:3" />
<line x1="618.4038001041811" y1="356.4026096753472" x2="591.0005741136202" y2="341.0560657416369" style="stroke:black;stroke-width:3" />
<line x1="591.0005741136202" y1="341.0560657416369" x2="400.0" y2="260.0" style="stroke:black;stroke-width:3" />
<line x1="591.0005741136202" y1="341.0560657416369" x2="564.8858990830105" y2="323.606797749979" style="stroke:black;stroke-width:3" />
<line x1="564.8858990830105" y1="323.606797749979" x2="400.0" y2="240.0" style="stroke:black;stroke-width:3" />
<line x1="564.8858990830105" y1="323.606797749979" x2="540.2207806679263" y2="304.16238624001244" style="stroke:black;stroke-width:3" />
<line x1="540.2207806679263" y1="304.16238624001244" x2="400.0" y2="220.0" style="stroke:black;stroke-width:3" />
<line x1="540.2207806679263" y1="304.16238624001244" x2="517.1572875253808" y2="282.8427124746191" style="stroke:black;stroke-width:3" />
<line x1="517.1572875253808" y1="282.8427124746191" x2="400.0" y2="200.0" style="stroke:black;stroke-width:3" />
<line x1="517.1572875253808" y1="282.8427124746191" x2="495.8376137599874" y2="259.7792193320735" style="stroke:black;stroke-width:3" />
<line x1="495.8376137599874" y1="259.7792193320735" x2="400.0" y2="180.0" style="stroke:black;stroke-width:3" />
<line x1="495.8376137599874" y1="259.7792193320735" x2="476.3932022500208" y2="235.11410091698932" style="stroke:black;stroke-width:3" />
<line x1="476.3932022500208" y1="235.11410091698932" x2="400.0" y2="160.0" style="stroke:black;stroke-width:3" />
<line x1="476.3932022500208" y1="235.11410091698932" x2="458.94393425836284" y2="208.9994258863796" style="stroke:black;stroke-width:3" />
<line x1="458.94393425836284" y1="208.9994258863796" x2="400.0" y2="140.0" style="stroke:black;stroke-width:3" />
<line x1="458.94393425836284" y1="208.9994258863796" x2="443.59739032465257" y2="181.59619989581878" style="stroke:black;stroke-width:3" />
<line x1="443.59739032465257" y1="181.59619989581878" x2="400.0" y2="120.0" style="stroke:black;stroke-width:3" />
<line x1="443.59739032465257" y1="181.59619989581878" x2="430.448186995485" y2="153.073372946036" style="stroke:black;stroke-width:3" />
<line x1="430.448186995485" y1="153.073372946036" x2="400.0" y2="100.0" style="stroke:black;stroke-width:3" />
<line x1="430.448186995485" y1="153.073372946036" x2="419.57739348193826" y2="123.60679774997905" style="stroke:black;stroke-width:3" />
<line x1="419.57739348193826" y1="123.60679774997905" x2="400.0" y2="80.0" style="stroke:black;stroke-width:3" />
<line x1="419.57739348193826" y1="123.60679774997905" x2="411.05203184092903" y2="93.37814554236225" style="stroke:black;stroke-width:3" />
<line x1="411.05203184092903" y1="93.37814554236225" x2="400.0" y2="60.0" style="stroke:black;stroke-width:3" />
<line x1="411.05203184092903" y1="93.37814554236225" x2="404.92466376194454" y2="62.573786016092434" style="stroke:black;stroke-width:3" />
<line x1="404.92466376194454" y1="62.573786016092434" x2="400.0" y2="40.0" style="stroke:black;stroke-width:3" />
<line x1="404.92466376194454" y1="62.573786016092434" x2="401.23306650674846" y2="31.383638291138062" style="stroke:black;stroke-width:3" />
<line x1="401.23306650674846" y1="31.383638291138062" x2="400.0" y2="20.0" style="stroke:black;stroke-width:3" />
<line x1="401.23306650674846" y1="31.383638291138062" x2="399.99999999999966" y2="8.526512829121202e-14" style="stroke:black;stroke-width:3" />
<line x1="399.99999999999966" y1="8.526512829121202e-14" x2="400.0" y2="0.0" style="stroke:black;stroke-width:3" />
<line x1="400" y1="400" x2="800.0" y2="400.0" style="stroke:black;stroke-width:3" />
<line x1="800.0" y1="400.0" x2="768.616361708862" y2="401.2330665067488" style="stroke:black;stroke-width:3" />
<line x1="768.616361708862" y1="401.2330665067488" x2="400.0" y2="420.0" style="stroke:black;stroke-width:3" />
<line x1="768.616361708862" y1="401.2330665067488" x2="737.4262139839076" y2="404.9246637619449" style="stroke:black;stroke-width:3" />
<line x1="737.4262139839076" y1="404.9246637619449" x2="400.0" y2="440.0" style="stroke:black;stroke-width:3" />
<line x1="737.4262139839076" y1="404.9246637619449" x2="706.6218544576377" y2="411.0520318409293" style="stroke:black;stroke-width:3" />
<line x1="706.6218544576377" y1="411.0520318409293" x2="400.0" y2="460.0" style="stroke:black;stroke-width:3" />
<line x1="706.6218544576377" y1="411.0520318409293" x2="676.3932022500209" y2="419.57739348193854" style="stroke:black;stroke-width:3" />
<line x1="676.3932022500209" y1="419.57739348193854" x2="400.0" y2="480.0" style="stroke:black;stroke-width:3" />
<line x1="676.3932022500209" y1="419.57739348193854" x2="646.9266270539639" y2="430.44818699548523" style="stroke:black;stroke-width:3" />
<line x1="646.9266270539639" y1="430.44818699548523" x2="400.0" y2="500.0" style="stroke:black;stroke-width:3" />
<line x1="646.9266270539639" y1="430.44818699548523" x2="618.4038001041811" y2="443.5973903246528" style="stroke:black;stroke-width:3" />
<line x1="618.4038001041811" y1="443.5973903246528" x2="400.0" y2="520.0" style="stroke:black;stroke-width:3" />
<line x1="618.4038001041811" y1="443.5973903246528" x2="591.0005741136202" y2="458.9439342583631" style="stroke:black;stroke-width:3" />
<line x1="591.0005741136202" y1="458.9439342583631" x2="400.0" y2="540.0" style="stroke:black;stroke-width:3" />
<line x1="591.0005741136202" y1="458.9439342583631" x2="564.8858990830105" y2="476.393202250021" style="stroke:black;stroke-width:3" />
<line x1="564.8858990830105" y1="476.393202250021" x2="400.0" y2="560.0" style="stroke:black;stroke-width:3" />
<line x1="564.8858990830105" y1="476.393202250021" x2="540.2207806679263" y2="495.83761375998756" style="stroke:black;stroke-width:3" />
<line x1="540.2207806679263" y1="495.83761375998756" x2="400.0" y2="580.0" style="stroke:black;stroke-width:3" />
<line x1="540.2207806679263" y1="495.83761375998756" x2="517.1572875253808" y2="517.157287525381" style="stroke:black;stroke-width:3" />
<line x1="517.1572875253808" y1="517.157287525381" x2="400.0" y2="600.0" style="stroke:black;stroke-width:3" />
<line x1="517.1572875253808" y1="517.157287525381" x2="495.8376137599874" y2="540.2207806679265" style="stroke:black;stroke-width:3" />
<line x1="495.8376137599874" y1="540.2207806679265" x2="400.0" y2="620.0" style="stroke:black;stroke-width:3" />
<line x1="495.8376137599874" y1="540.2207806679265" x2="476.3932022500208" y2="564.8858990830107" style="stroke:black;stroke-width:3" />
<line x1="476.3932022500208" y1="564.8858990830107" x2="400.0" y2="640.0" style="stroke:black;stroke-width:3" />
<line x1="476.3932022500208" y1="564.8858990830107" x2="458.94393425836284" y2="591.0005741136204" style="stroke:black;stroke-width:3" />
<line x1="458.94393425836284" y1="591.0005741136204" x2="400.0" y2="660.0" style="stroke:black;stroke-width:3" />
<line x1="458.94393425836284" y1="591.0005741136204" x2="443.59739032465257" y2="618.4038001041812" style="stroke:black;stroke-width:3" />
<line x1="443.59739032465257" y1="618.4038001041812" x2="400.0" y2="680.0" style="stroke:black;stroke-width:3" />
<line x1="443.59739032465257" y1="618.4038001041812" x2="430.448186995485" y2="646.926627053964" style="stroke:black;stroke-width:3" />
<line x1="430.448186995485" y1="646.926627053964" x2="400.0" y2="700.0" style="stroke:black;stroke-width:3" />
<line x1="430.448186995485" y1="646.926627053964" x2="419.57739348193826" y2="676.393202250021" style="stroke:black;stroke-width:3" />
<line x1="419.57739348193826" y1="676.393202250021" x2="400.0" y2="720.0" style="stroke:black;stroke-width:3" />
<line x1="419.57739348193826" y1="676.393202250021" x2="411.05203184092903" y2="706.6218544576378" style="stroke:black;stroke-width:3" />
<line x1="411.05203184092903" y1="706.6218544576378" x2="400.0" y2="740.0" style="stroke:black;stroke-width:3" />
<line x1="411.05203184092903" y1="706.6218544576378" x2="404.92466376194454" y2="737.4262139839076" style="stroke:black;stroke-width:3" />
<line x1="404.92466376194454" y1="737.4262139839076" x2="400.0" y2="760.0" style="stroke:black;stroke-width:3" />
<line x1="404.92466376194454" y1="737.4262139839076" x2="401.23306650674846" y2="768.616361708862" style="stroke:black;stroke-width:3" />
<line x1="401.23306650674846" y1="768.616361708862" x2="400.0" y2="780.0" style="stroke:black;stroke-width:3" />
<line x1="401.23306650674846" y1="768.616361708862" x2="399.99999999999966" y2="800.0" style="stroke:black;stroke-width:3" />
<line x1="399.99999999999966" y1="800.0" x2="400.0" y2="800.0" style="stroke:black;stroke-width:3" />
<line x1="400" y1="400" x2="400.0" y2="0.0" style="stroke:black;stroke-width:3" />
<line x1="400.0" y1="0.0" x2="398.7669334932512" y2="31.383638291137977" style="stroke:black;stroke-width:3" />
<line x1="398.7669334932512" y1="31.383638291137977" x2="380.0" y2="400.0" style="stroke:black;stroke-width:3" />
<line x1="398.7669334932512" y1="31.383638291137977" x2="395.0753362380551" y2="62.57378601609235" style="stroke:black;stroke-width:3" />
<line x1="395.0753362380551" y1="62.57378601609235" x2="360.0" y2="400.0" style="stroke:black;stroke-width:3" />
<line x1="395.0753362380551" y1="62.57378601609235" x2="388.9479681590707" y2="93.37814554236218" style="stroke:black;stroke-width:3" />
<line x1="388.9479681590707" y1="93.37814554236218" x2="340.0" y2="400.0" style="stroke:black;stroke-width:3" />
<line x1="388.9479681590707" y1="93.37814554236218" x2="380.42260651806146" y2="123.60679774997898" style="stroke:black;stroke-width:3" />
<line x1="380.42260651806146" y1="123.60679774997898" x2="320.0" y2="400.0" style="stroke:black;stroke-width:3" />
<line x1="380.42260651806146" y1="123.60679774997898" x2="369.5518130045147" y2="153.07337294603593" style="stroke:black;stroke-width:3" />
<line x1="369.5518130045147" y1="153.07337294603593" x2="300.0" y2="400.0" style="stroke:black;stroke-width:3" />
<line x1="369.5518130045147" y1="153.07337294603593" x2="356.40260967534715" y2="181.59619989581876" style="stroke:black;stroke-width:3" />
<line x1="356.40260967534715" y1="181.59619989581876" x2="280.0" y2="400.0" style="stroke:black;stroke-width:3" />
<line x1="356.40260967534715" y1="181.59619989581876" x2="341.05606574163687" y2="208.99942588637958" style="stroke:black;stroke-width:3" />
<line x1="341.05606574163687" y1="208.99942588637958" x2="260.0" y2="400.0" style="stroke:black;stroke-width:3" />
<line x1="341.05606574163687" y1="208.99942588637958" x2="323.60679774997897" y2="235.1141009169893" style="stroke:black;stroke-width:3" />
<line x1="323.60679774997897" y1="235.1141009169893" x2="240.0" y2="400.0" style="stroke:black;stroke-width:3" />
<line x1="323.60679774997897" y1="235.1141009169893" x2="304.1623862400124" y2="259.77921933207347" style="stroke:black;stroke-width:3" />
<line x1="304.1623862400124" y1="259.77921933207347" x2="220.0" y2="400.0" style="stroke:black;stroke-width:3" />
<line x1="304.1623862400124" y1="259.77921933207347" x2="282.842712474619" y2="282.842712474619" style="stroke:black;stroke-width:3" />
<line x1="282.842712474619" y1="282.842712474619" x2="200.0" y2="400.0" style="stroke:black;stroke-width:3" />
<line x1="282.842712474619" y1="282.842712474619" x2="259.77921933207347" y2="304.1623862400124" style="stroke:black;stroke-width:3" />
<line x1="259.77921933207347" y1="304.1623862400124" x2="180.0" y2="400.0" style="stroke:black;stroke-width:3" />
<line x1="259.77921933207347" y1="304.1623862400124" x2="235.11410091698926" y2="323.60679774997897" style="stroke:black;stroke-width:3" />
<line x1="235.11410091698926" y1="323.60679774997897" x2="160.0" y2="400.0" style="stroke:black;stroke-width:3" />
<line x1="235.11410091698926" y1="323.60679774997897" x2="208.99942588637956" y2="341.05606574163687" style="stroke:black;stroke-width:3" />
<line x1="208.99942588637956" y1="341.05606574163687" x2="140.0" y2="400.0" style="stroke:black;stroke-width:3" />
<line x1="208.99942588637956" y1="341.05606574163687" x2="181.59619989581873" y2="356.40260967534715" style="stroke:black;stroke-width:3" />
<line x1="181.59619989581873" y1="356.40260967534715" x2="120.0" y2="400.0" style="stroke:black;stroke-width:3" />
<line x1="181.59619989581873" y1="356.40260967534715" x2="153.07337294603593" y2="369.5518130045147" style="stroke:black;stroke-width:3" />
<line x1="153.07337294603593" y1="369.5518130045147" x2="100.0" y2="400.0" style="stroke:black;stroke-width:3" />
<line x1="153.07337294603593" y1="369.5518130045147" x2="123.606797749979" y2="380.42260651806146" style="stroke:black;stroke-width:3" />
<line x1="123.606797749979" y1="380.42260651806146" x2="80.0" y2="400.0" style="stroke:black;stroke-width:3" />
<line x1="123.606797749979" y1="380.42260651806146" x2="93.37814554236219" y2="388.9479681590707" style="stroke:black;stroke-width:3" />
<line x1="93.37814554236219" y1="388.9479681590707" x2="60.0" y2="400.0" style="stroke:black;stroke-width:3" />
<line x1="93.37814554236219" y1="388.9479681590707" x2="62.57378601609237" y2="395.0753362380551" style="stroke:black;stroke-width:3" />
<line x1="62.57378601609237" y1="395.0753362380551" x2="40.0" y2="400.0" style="stroke:black;stroke-width:3" />
<line x1="62.57378601609237" y1="395.0753362380551" x2="31.383638291138" y2="398.7669334932512" style="stroke:black;stroke-width:3" />
<line x1="31.383638291138" y1="398.7669334932512" x2="20.0" y2="400.0" style="stroke:black;stroke-width:3" />
<line x1="31.383638291138" y1="398.7669334932512" x2="2.1316282072803006e-14" y2="400.0" style="stroke:black;stroke-width:3" />
<line x1="2.1316282072803006e-14" y1="400.0" x2="0.0" y2="400.0" style="stroke:black;stroke-width:3" />
<line x1="400" y1="400" x2="400.0" y2="0.0" style="stroke:black;stroke-width:3" />
<line x1="400.0" y1="0.0" x2="401.2330665067488" y2="31.383638291137977" style="stroke:black;stroke-width:3" />
<line x1="401.2330665067488" y1="31.383638291137977" x2="420.0" y2="400.0" style="stroke:black;stroke-width:3" />
<line x1="401.2330665067488" y1="31.383638291137977" x2="404.9246637619449" y2="62.57378601609235" style="stroke:black;stroke-width:3" />
<line x1="404.9246637619449" y1="62.57378601609235" x2="440.0" y2="400.0" style="stroke:black;stroke-width:3" />
<line x1="404.9246637619449" y1="62.57378601609235" x2="411.0520318409293" y2="93.37814554236216" style="stroke:black;stroke-width:3" />
<line x1="411.0520318409293" y1="93.37814554236216" x2="460.0" y2="400.0" style="stroke:black;stroke-width:3" />
<line x1="411.0520318409293" y1="93.37814554236216" x2="419.57739348193854" y2="123.60679774997897" style="stroke:black;stroke-width:3" />
<line x1="419.57739348193854" y1="123.60679774997897" x2="480.0" y2="400.0" style="stroke:black;stroke-width:3" />
<line x1="419.57739348193854" y1="123.60679774997897" x2="430.44818699548523" y2="153.0733729460359" style="stroke:black;stroke-width:3" />
<line x1="430.44818699548523" y1="153.0733729460359" x2="500.0" y2="400.0" style="stroke:black;stroke-width:3" />
<line x1="430.44818699548523" y1="153.0733729460359" x2="443.5973903246528" y2="181.59619989581873" style="stroke:black;stroke-width:3" />
<line x1="443.5973903246528" y1="181.59619989581873" x2="520.0" y2="400.0" style="stroke:black;stroke-width:3" />
<line x1="443.5973903246528" y1="181.59619989581873" x2="458.9439342583631" y2="208.99942588637956" style="stroke:black;stroke-width:3" />
<line x1="458.9439342583631" y1="208.99942588637956" x2="540.0" y2="400.0" style="stroke:black;stroke-width:3" />
<line x1="458.9439342583631" y1="208.99942588637956" x2="476.393202250021" y2="235.11410091698926" style="stroke:black;stroke-width:3" />
<line x1="476.393202250021" y1="235.11410091698926" x2="560.0" y2="400.0" style="stroke:black;stroke-width:3" />
<line x1="476.393202250021" y1="235.11410091698926" x2="495.83761375998756" y2="259.77921933207347" style="stroke:black;stroke-width:3" />
<line x1="495.83761375998756" y1="259.77921933207347" x2="580.0" y2="400.0" style="stroke:black;stroke-width:3" />
<line x1="495.83761375998756" y1="259.77921933207347" x2="517.1572875253809" y2="282.842712474619" style="stroke:black;stroke-width:3" />
<line x1="517.1572875253809" y1="282.842712474619" x2="600.0" y2="400.0" style="stroke:black;stroke-width:3" />
<line x1="517.1572875253809" y1="282.842712474619" x2="540.2207806679264" y2="304.1623862400124" style="stroke:black;stroke-width:3" />
<line x1="540.2207806679264" y1="304.1623862400124" x2="620.0" y2="400.0" style="stroke:black;stroke-width:3" />
<line x1="540.2207806679264" y1="304.1623862400124" x2="564.8858990830106" y2="323.60679774997897" style="stroke:black;stroke-width:3" />
<line x1="564.8858990830106" y1="323.60679774997897" x2="640.0" y2="400.0" style="stroke:black;stroke-width:3" />
<line x1="564.8858990830106" y1="323.60679774997897" x2="591.0005741136204" y2="341.05606574163687" style="stroke:black;stroke-width:3" />
<line x1="591.0005741136204" y1="341.05606574163687" x2="660.0" y2="400.0" style="stroke:black;stroke-width:3" />
<line x1="591.0005741136204" y1="341.05606574163687" x2="618.4038001041812" y2="356.40260967534715" style="stroke:black;stroke-width:3" />
<line x1="618.4038001041812" y1="356.40260967534715" x2="680.0" y2="400.0" style="stroke:black;stroke-width:3" />
<line x1="618.4038001041812" y1="356.40260967534715" x2="646.926627053964" y2="369.5518130045147" style="stroke:black;stroke-width:3" />
<line x1="646.926627053964" y1="369.5518130045147" x2="700.0" y2="400.0" style="stroke:black;stroke-width:3" />
<line x1="646.926627053964" y1="369.5518130045147" x2="676.393202250021" y2="380.42260651806146" style="stroke:black;stroke-width:3" />
<line x1="676.393202250021" y1="380.42260651806146" x2="720.0" y2="400.0" style="stroke:black;stroke-width:3" />
<line x1="676.393202250021" y1="380.42260651806146" x2="706.6218544576378" y2="388.9479681590707" style="stroke:black;stroke-width:3" />
<line x1="706.6218544576378" y1="388.9479681590707" x2="740.0" y2="400.0" style="stroke:black;stroke-width:3" />
<line x1="706.6218544576378" y1="388.9479681590707" x2="737.4262139839076" y2="395.0753362380552" style="stroke:black;stroke-width:3" />
<line x1="737.4262139839076" y1="395.0753362380552" x2="760.0" y2="400.0" style="stroke:black;stroke-width:3" />
<line x1="737.4262139839076" y1="395.0753362380552" x2="768.616361708862" y2="398.76693349325126" style="stroke:black;stroke-width:3" />
<line x1="768.616361708862" y1="398.76693349325126" x2="780.0" y2="400.0" style="stroke:black;stroke-width:3" />
<line x1="768.616361708862" y1="398.76693349325126" x2="800.0" y2="400.00000000000006" style="stroke:black;stroke-width:3" />
<line x1="800.0" y1="400.00000000000006" x2="800.0" y2="400.0" style="stroke:black;stroke-width:3" />
<line x1="400" y1="400" x2="0.0" y2="399.99999999999994" style="stroke:black;stroke-width:3" />
<line x1="0.0" y1="399.99999999999994" x2="31.383638291137977" y2="401.23306650674874" style="stroke:black;stroke-width:3" />
<line x1="31.383638291137977" y1="401.23306650674874" x2="400.0" y2="420.0" style="stroke:black;stroke-width:3" />
<line x1="31.383638291137977" y1="401.23306650674874" x2="62.57378601609235" y2="404.9246637619448" style="stroke:black;stroke-width:3" />
<line x1="62.57378601609235" y1="404.9246637619448" x2="400.0" y2="440.0" style="stroke:black;stroke-width:3" />
<line x1="62.57378601609235" y1="404.9246637619448" x2="93.37814554236216" y2="411.05203184092926" style="stroke:black;stroke-width:3" />
<line x1="93.37814554236216" y1="411.05203184092926" x2="400.0" y2="460.0" style="stroke:black;stroke-width:3" />
<line x1="93.37814554236216" y1="411.05203184092926" x2="123.60679774997897" y2="419.5773934819385" style="stroke:black;stroke-width:3" />
<line x1="123.60679774997897" y1="419.5773934819385" x2="400.0" y2="480.0" style="stroke:black;stroke-width:3" />
<line x1="123.60679774997897" y1="419.5773934819385" x2="153.0733729460359" y2="430.44818699548523" style="stroke:black;stroke-width:3" />
<line x1="153.0733729460359" y1="430.44818699548523" x2="400.0" y2="500.0" style="stroke:black;stroke-width:3" />
<line x1="153.0733729460359" y1="430.44818699548523" x2="181.5961998958187" y2="443.5973903246528" style="stroke:black;stroke-width:3" />
<line x1="181.5961998958187" y1="443.5973903246528" x2="400.0" y2="520.0" style="stroke:black;stroke-width:3" />
<line x1="181.5961998958187" y1="443.5973903246528" x2="208.99942588637953" y2="458.9439342583631" style="stroke:black;stroke-width:3" />
<line x1="208.99942588637953" y1="458.9439342583631" x2="400.0" y2="540.0" style="stroke:black;stroke-width:3" />
<line x1="208.99942588637953" y1="458.9439342583631" x2="235.11410091698923" y2="476.393202250021" style="stroke:black;stroke-width:3" />
<line x1="235.11410091698923" y1="476.393202250021" x2="400.0" y2="560.0" style="stroke:black;stroke-width:3" />
<line x1="235.11410091698923" y1="476.393202250021" x2="259.77921933207347" y2="495.83761375998756" style="stroke:black;stroke-width:3" />
<line x1="259.77921933207347" y1="495.83761375998756" x2="400.0" y2="580.0" style="stroke:black;stroke-width:3" />
<line x1="259.77921933207347" y1="495.83761375998756" x2="282.842712474619" y2="517.157287525381" style="stroke:black;stroke-width:3" />
<line x1="282.842712474619" y1="517.157287525381" x2="400.0" y2="600.0" style="stroke:black;stroke-width:3" />
<line x1="282.842712474619" y1="517.157287525381" x2="304.1623862400124" y2="540.2207806679265" style="stroke:black;stroke-width:3" />
<line x1="304.1623862400124" y1="540.2207806679265" x2="400.0" y2="620.0" style="stroke:black;stroke-width:3" />
<line x1="304.1623862400124" y1="540.2207806679265" x2="323.60679774997897" y2="564.8858990830107" style="stroke:black;stroke-width:3" />
<line x1="323.60679774997897" y1="564.8858990830107" x2="400.0" y2="640.0" style="stroke:black;stroke-width:3" />
<line x1="323.60679774997897" y1="564.8858990830107" x2="341.05606574163687" y2="591.0005741136205" style="stroke:black;stroke-width:3" />
<line x1="341.05606574163687" y1="591.0005741136205" x2="400.0" y2="660.0" style="stroke:black;stroke-width:3" />
<line x1="341.05606574163687" y1="591.0005741136205" x2="356.40260967534715" y2="618.4038001041813" style="stroke:black;stroke-width:3" />
<line x1="356.40260967534715" y1="618.4038001041813" x2="400.0" y2="680.0" style="stroke:black;stroke-width:3" />
<line x1="356.40260967534715" y1="618.4038001041813" x2="369.5518130045147" y2="646.9266270539641" style="stroke:black;stroke-width:3" />
<line x1="369.5518130045147" y1="646.9266270539641" x2="400.0" y2="700.0" style="stroke:black;stroke-width:3" />
<line x1="369.5518130045147" y1="646.9266270539641" x2="380.42260651806146" y2="676.3932022500211" style="stroke:black;stroke-width:3" />
<line x1="380.42260651806146" y1="676.3932022500211" x2="400.0" y2="720.0" style="stroke:black;stroke-width:3" />
<line x1="380.42260651806146" y1="676.3932022500211" x2="388.9479681590707" y2="706.6218544576379" style="stroke:black;stroke-width:3" />
<line x1="388.9479681590707" y1="706.6218544576379" x2="400.0" y2="740.0" style="stroke:black;stroke-width:3" />
<line x1="388.9479681590707" y1="706.6218544576379" x2="395.0753362380551" y2="737.4262139839077" style="stroke:black;stroke-width:3" />
<line x1="395.0753362380551" y1="737.4262139839077" x2="400.0" y2="760.0" style="stroke:black;stroke-width:3" />
<line x1="395.0753362380551" y1="737.4262139839077" x2="398.7669334932512" y2="768.6163617088621" style="stroke:black;stroke-width:3" />
<line x1="398.7669334932512" y1="768.6163617088621" x2="400.0" y2="780.0" style="stroke:black;stroke-width:3" />
<line x1="398.7669334932512" y1="768.6163617088621" x2="400.0" y2="800.0000000000001" style="stroke:black;stroke-width:3" />
<line x1="400.0" y1="800.0000000000001" x2="400.0" y2="800.0" style="stroke:black;stroke-width:3" />
<line x1="400" y1="400" x2="0.0" y2="399.99999999999994" style="stroke:black;stroke-width:3" />
<line x1="0.0" y1="399.99999999999994" x2="31.383638291137977" y2="398.76693349325114" style="stroke:black;stroke-width:3" />
<line x1="31.383638291137977" y1="398.76693349325114" x2="400.0" y2="380.0" style="stroke:black;stroke-width:3" />
<line x1="31.383638291137977" y1="398.76693349325114" x2="62.573786016092356" y2="395.07533623805506" style="stroke:black;stroke-width:3" />
<line x1="62.573786016092356" y1="395.07533623805506" x2="400.0" y2="360.0" style="stroke:black;stroke-width:3" />
<line x1="62.573786016092356" y1="395.07533623805506" x2="93.37814554236218" y2="388.9479681590706" style="stroke:black;stroke-width:3" />
<line x1="93.37814554236218" y1="388.9479681590706" x2="400.0" y2="340.0" style="stroke:black;stroke-width:3" />
<line x1="93.37814554236218" y1="388.9479681590706" x2="123.60679774997898" y2="380.42260651806146" style="stroke:black;stroke-width:3" />
<line x1="123.60679774997898" y1="380.42260651806146" x2="400.0" y2="320.0" style="stroke:black;stroke-width:3" />
<line x1="123.60679774997898" y1="380.42260651806146" x2="153.07337294603593" y2="369.55181300451477" style="stroke:black;stroke-width:3" />
<line x1="153.07337294603593" y1="369.55181300451477" x2="400.0" y2="300.0" style="stroke:black;stroke-width:3" />
<line x1="153.07337294603593" y1="369.55181300451477" x2="181.59619989581876" y2="356.4026096753472" style="stroke:black;stroke-width:3" />
<line x1="181.59619989581876" y1="356.4026096753472" x2="400.0" y2="280.0" style="stroke:black;stroke-width:3" />
<line x1="181.59619989581876" y1="356.4026096753472" x2="208.9994258863796" y2="341.056065741637" style="stroke:black;stroke-width:3" />
<line x1="208.9994258863796" y1="341.056065741637" x2="400.0" y2="260.0" style="stroke:black;stroke-width:3" />
<line x1="208.9994258863796" y1="341.056065741637" x2="235.11410091698932" y2="323.6067977499791" style="stroke:black;stroke-width:3" />
<line x1="235.11410091698932" y1="323.6067977499791" x2="400.0" y2="240.0" style="stroke:black;stroke-width:3" />
<line x1="235.11410091698932" y1="323.6067977499791" x2="259.7792193320735" y2="304.1623862400125" style="stroke:black;stroke-width:3" />
<line x1="259.7792193320735" y1="304.1623862400125" x2="400.0" y2="220.0" style="stroke:black;stroke-width:3" />
<line x1="259.7792193320735" y1="304.1623862400125" x2="282.8427124746191" y2="282.84271247461913" style="stroke:black;stroke-width:3" />
<line x1="282.8427124746191" y1="282.84271247461913" x2="400.0" y2="200.0" style="stroke:black;stroke-width:3" />
<line x1="282.8427124746191" y1="282.84271247461913" x2="304.16238624001244" y2="259.7792193320736" style="stroke:black;stroke-width:3" />
<line x1="304.16238624001244" y1="259.7792193320736" x2="400.0" y2="180.0" style="stroke:black;stroke-width:3" />
<line x1="304.16238624001244" y1="259.7792193320736" x2="323.606797749979" y2="235.11410091698937" style="stroke:black;stroke-width:3" />
<line x1="323.606797749979" y1="235.11410091698937" x2="400.0" y2="160.0" style="stroke:black;stroke-width:3" />
<line x1="323.606797749979" y1="235.11410091698937" x2="341.0560657416369" y2="208.99942588637967" style="stroke:black;stroke-width:3" />
<line x1="341.0560657416369" y1="208.99942588637967" x2="400.0" y2="140.0" style="stroke:black;stroke-width:3" />
<line x1="341.0560657416369" y1="208.99942588637967" x2="356.40260967534715" y2="181.59619989581884" style="stroke:black;stroke-width:3" />
<line x1="356.40260967534715" y1="181.59619989581884" x2="400.0" y2="120.0" style="stroke:black;stroke-width:3" />
<line x1="356.40260967534715" y1="181.59619989581884" x2="369.5518130045147" y2="153.07337294603605" style="stroke:black;stroke-width:3" />
<line x1="369.5518130045147" y1="153.07337294603605" x2="400.0" y2="100.0" style="stroke:black;stroke-width:3" />
<line x1="369.5518130045147" y1="153.07337294603605" x2="380.42260651806146" y2="123.60679774997911" style="stroke:black;stroke-width:3" />
<line x1="380.42260651806146" y1="123.60679774997911" x2="400.0" y2="80.0" style="stroke:black;stroke-width:3" />
<line x1="380.42260651806146" y1="123.60679774997911" x2="388.9479681590707" y2="93.3781455423623" style="stroke:black;stroke-width:3" />
<line x1="388.9479681590707" y1="93.3781455423623" x2="400.0" y2="60.0" style="stroke:black;stroke-width:3" />
<line x1="388.9479681590707" y1="93.3781455423623" x2="395.0753362380552" y2="62.57378601609249" style="stroke:black;stroke-width:3" />
<line x1="395.0753362380552" y1="62.57378601609249" x2="400.0" y2="40.0" style="stroke:black;stroke-width:3" />
<line x1="395.0753362380552" y1="62.57378601609249" x2="398.76693349325126" y2="31.38363829113812" style="stroke:black;stroke-width:3" />
<line x1="398.76693349325126" y1="31.38363829113812" x2="400.0" y2="20.0" style="stroke:black;stroke-width:3" />
<line x1="398.76693349325126" y1="31.38363829113812" x2="400.00000000000006" y2="1.4210854715202004e-13" style="stroke:black;stroke-width:3" />
<line x1="400.00000000000006" y1="1.4210854715202004e-13" x2="400.0" y2="0.0" style="stroke:black;stroke-width:3" />
<line x1="400" y1="400" x2="399.99999999999994" y2="800.0" style="stroke:black;stroke-width:3" />
<line x1="399.99999999999994" y1="800.0" x2="401.23306650674874" y2="768.616361708862" style="stroke:black;stroke-width:3" />
<line x1="401.23306650674874" y1="768.616361708862" x2="420.0" y2="400.0" style="stroke:black;stroke-width:3" />
<line x1="401.23306650674874" y1="768.616361708862" x2="404.9246637619448" y2="737.4262139839076" style="stroke:black;stroke-width:3" />
<line x1="404.9246637619448" y1="737.4262139839076" x2="440.0" y2="400.0" style="stroke:black;stroke-width:3" />
<line x1="404.9246637619448" y1="737.4262139839076" x2="411.05203184092926" y2="706.6218544576378" style="stroke:black;stroke-width:3" />
<line x1="411.05203184092926" y1="706.6218544576378" x2="460.0" y2="400.0" style="stroke:black;stroke-width:3" />
<line x1="411.05203184092926" y1="706.6218544576378" x2="419.5773934819385" y2="676.393202250021" style="stroke:black;stroke-width:3" />
<line x1="419.5773934819385" y1="676.393202250021" x2="480.0" y2="400.0" style="stroke:black;stroke-width:3" />
<line x1="419.5773934819385" y1="676.393202250021" x2="430.44818699548523" y2="646.926627053964" style="stroke:black;stroke-width:3" />
<line x1="430.44818699548523" y1="646.926627053964" x2="500.0" y2="400.0" style="stroke:black;stroke-width:3" />
<line x1="430.44818699548523" y1="646.926627053964" x2="443.5973903246528" y2="618.4038001041812" style="stroke:black;stroke-width:3" />
<line x1="443.5973903246528" y1="618.4038001041812" x2="520.0" y2="400.0" style="stroke:black;stroke-width:3" />
<line x1="443.5973903246528" y1="618.4038001041812" x2="458.9439342583631" y2="591.0005741136204" style="stroke:black;stroke-width:3" />
<line x1="458.9439342583631" y1="591.0005741136204" x2="540.0" y2="400.0" style="stroke:black;stroke-width:3" />
<line x1="458.9439342583631" y1="591.0005741136204" x2="476.393202250021" y2="564.8858990830106" style="stroke:black;stroke-width:3" />
<line x1="476.393202250021" y1="564.8858990830106" x2="560.0" y2="400.0" style="stroke:black;stroke-width:3" />
<line x1="476.393202250021" y1="564.8858990830106" x2="495.83761375998756" y2="540.2207806679264" style="stroke:black;stroke-width:3" />
<line x1="495.83761375998756" y1="540.2207806679264" x2="580.0" y2="400.0" style="stroke:black;stroke-width:3" />
<line x1="495.83761375998756" y1="540.2207806679264" x2="517.157287525381" y2="517.1572875253809" style="stroke:black;stroke-width:3" />
<line x1="517.157287525381" y1="517.1572875253809" x2="600.0" y2="400.0" style="stroke:black;stroke-width:3" />
<line x1="517.157287525381" y1="517.1572875253809" x2="540.2207806679265" y2="495.8376137599875" style="stroke:black;stroke-width:3" />
<line x1="540.2207806679265" y1="495.8376137599875" x2="620.0" y2="400.0" style="stroke:black;stroke-width:3" />
<line x1="540.2207806679265" y1="495.8376137599875" x2="564.8858990830107" y2="476.3932022500209" style="stroke:black;stroke-width:3" />
<line x1="564.8858990830107" y1="476.3932022500209" x2="640.0" y2="400.0" style="stroke:black;stroke-width:3" />
<line x1="564.8858990830107" y1="476.3932022500209" x2="591.0005741136205" y2="458.943934258363" style="stroke:black;stroke-width:3" />
<line x1="591.0005741136205" y1="458.943934258363" x2="660.0" y2="400.0" style="stroke:black;stroke-width:3" />
<line x1="591.0005741136205" y1="458.943934258363" x2="618.4038001041813" y2="443.59739032465274" style="stroke:black;stroke-width:3" />
<line x1="618.4038001041813" y1="443.59739032465274" x2="680.0" y2="400.0" style="stroke:black;stroke-width:3" />
<line x1="618.4038001041813" y1="443.59739032465274" x2="646.9266270539641" y2="430.4481869954852" style="stroke:black;stroke-width:3" />
<line x1="646.9266270539641" y1="430.4481869954852" x2="700.0" y2="400.0" style="stroke:black;stroke-width:3" />
<line x1="646.9266270539641" y1="430.4481869954852" x2="676.3932022500211" y2="419.57739348193843" style="stroke:black;stroke-width:3" />
<line x1="676.3932022500211" y1="419.57739348193843" x2="720.0" y2="400.0" style="stroke:black;stroke-width:3" />
<line x1="676.3932022500211" y1="419.57739348193843" x2="706.6218544576379" y2="411.0520318409292" style="stroke:black;stroke-width:3" />
<line x1="706.6218544576379" y1="411.0520318409292" x2="740.0" y2="400.0" style="stroke:black;stroke-width:3" />
<line x1="706.6218544576379" y1="411.0520318409292" x2="737.4262139839077" y2="404.92466376194477" style="stroke:black;stroke-width:3" />
<line x1="737.4262139839077" y1="404.92466376194477" x2="760.0" y2="400.0" style="stroke:black;stroke-width:3" />
<line x1="737.4262139839077" y1="404.92466376194477" x2="768.6163617088621" y2="401.2330665067487" style="stroke:black;stroke-width:3" />
<line x1="768.6163617088621" y1="401.2330665067487" x2="780.0" y2="400.0" style="stroke:black;stroke-width:3" />
<line x1="768.6163617088621" y1="401.2330665067487" x2="800.0000000000001" y2="399.9999999999999" style="stroke:black;stroke-width:3" />
<line x1="800.0000000000001" y1="399.9999999999999" x2="800.0" y2="400.0" style="stroke:black;stroke-width:3" />
<line x1="400" y1="400" x2="399.99999999999994" y2="800.0" style="stroke:black;stroke-width:3" />
<line x1="399.99999999999994" y1="800.0" x2="398.76693349325114" y2="768.616361708862" style="stroke:black;stroke-width:3" />
<line x1="398.76693349325114" y1="768.616361708862" x2="380.0" y2="400.0" style="stroke:black;stroke-width:3" />
<line x1="398.76693349325114" y1="768.616361708862" x2="395.07533623805506" y2="737.4262139839076" style="stroke:black;stroke-width:3" />
<line x1="395.07533623805506" y1="737.4262139839076" x2="360.0" y2="400.0" style="stroke:black;stroke-width:3" />
<line x1="395.07533623805506" y1="737.4262139839076" x2="388.94796815907057" y2="706.6218544576378" style="stroke:black;stroke-width:3" />
<line x1="388.94796815907057" y1="706.6218544576378" x2="340.0" y2="400.0" style="stroke:black;stroke-width:3" />
<line x1="388.94796815907057" y1="706.6218544576378" x2="380.4226065180614" y2="676.393202250021" style="stroke:black;stroke-width:3" />
<line x1="380.4226065180614" y1="676.393202250021" x2="320.0" y2="400.0" style="stroke:black;stroke-width:3" />
<line x1="380.4226065180614" y1="676.393202250021" x2="369.55181300451466" y2="646.926627053964" style="stroke:black;stroke-width:3" />
<line x1="369.55181300451466" y1="646.926627053964" x2="300.0" y2="400.0" style="stroke:black;stroke-width:3" />
<line x1="369.55181300451466" y1="646.926627053964" x2="356.4026096753471" y2="618.4038001041812" style="stroke:black;stroke-width:3" />
<line x1="356.4026096753471" y1="618.4038001041812" x2="280.0" y2="400.0" style="stroke:black;stroke-width:3" />
<line x1="356.4026096753471" y1="618.4038001041812" x2="341.0560657416368" y2="591.0005741136204" style="stroke:black;stroke-width:3" />
<line x1="341.0560657416368" y1="591.0005741136204" x2="260.0" y2="400.0" style="stroke:black;stroke-width:3" />
<line x1="341.0560657416368" y1="591.0005741136204" x2="323.6067977499789" y2="564.8858990830106" style="stroke:black;stroke-width:3" />
<line x1="323.6067977499789" y1="564.8858990830106" x2="240.0" y2="400.0" style="stroke:black;stroke-width:3" />
<line x1="323.6067977499789" y1="564.8858990830106" x2="304.1623862400123" y2="540.2207806679264" style="stroke:black;stroke-width:3" />
<line x1="304.1623862400123" y1="540.2207806679264" x2="220.0" y2="400.0" style="stroke:black;stroke-width:3" />
<line x1="304.1623862400123" y1="540.2207806679264" x2="282.84271247461896" y2="517.1572875253809" style="stroke:black;stroke-width:3" />
<line x1="282.84271247461896" y1="517.1572875253809" x2="200.0" y2="400.0" style="stroke:black;stroke-width:3" />
<line x1="282.84271247461896" y1="517.1572875253809" x2="259.7792193320734" y2="495.83761375998745" style="stroke:black;stroke-width:3" />
<line x1="259.7792193320734" y1="495.83761375998745" x2="180.0" y2="400.0" style="stroke:black;stroke-width:3" />
<line x1="259.7792193320734" y1="495.83761375998745" x2="235.1141009169892" y2="476.39320225002086" style="stroke:black;stroke-width:3" />
<line x1="235.1141009169892" y1="476.39320225002086" x2="160.0" y2="400.0" style="stroke:black;stroke-width:3" />
<line x1="235.1141009169892" y1="476.39320225002086" x2="208.9994258863795" y2="458.94393425836296" style="stroke:black;stroke-width:3" />
<line x1="208.9994258863795" y1="458.94393425836296" x2="140.0" y2="400.0" style="stroke:black;stroke-width:3" />
<line x1="208.9994258863795" y1="458.94393425836296" x2="181.59619989581867" y2="443.59739032465274" style="stroke:black;stroke-width:3" />
<line x1="181.59619989581867" y1="443.59739032465274" x2="120.0" y2="400.0" style="stroke:black;stroke-width:3" />
<line x1="181.59619989581867" y1="443.59739032465274" x2="153.07337294603587" y2="430.4481869954852" style="stroke:black;stroke-width:3" />
<line x1="153.07337294603587" y1="430.4481869954852" x2="100.0" y2="400.0" style="stroke:black;stroke-width:3" />
<line x1="153.07337294603587" y1="430.4481869954852" x2="123.60679774997894" y2="419.57739348193843" style="stroke:black;stroke-width:3" />
<line x1="123.60679774997894" y1="419.57739348193843" x2="80.0" y2="400.0" style="stroke:black;stroke-width:3" />
<line x1="123.60679774997894" y1="419.57739348193843" x2="93.37814554236213" y2="411.0520318409292" style="stroke:black;stroke-width:3" />
<line x1="93.37814554236213" y1="411.0520318409292" x2="60.0" y2="400.0" style="stroke:black;stroke-width:3" />
<line x1="93.37814554236213" y1="411.0520318409292" x2="62.57378601609231" y2="404.92466376194477" style="stroke:black;stroke-width:3" />
<line x1="62.57378601609231" y1="404.92466376194477" x2="40.0" y2="400.0" style="stroke:black;stroke-width:3" />
<line x1="62.57378601609231" y1="404.92466376194477" x2="31.383638291137945" y2="401.2330665067486" style="stroke:black;stroke-width:3" />
<line x1="31.383638291137945" y1="401.2330665067486" x2="20.0" y2="400.0" style="stroke:black;stroke-width:3" />
<line x1="31.383638291137945" y1="401.2330665067486" x2="-3.197442310920451e-14" y2="399.9999999999998" style="stroke:black;stroke-width:3" />
<line x1="-3.197442310920451e-14" y1="399.9999999999998" x2="0.0" y2="400.0" style="stroke:black;stroke-width:3" />
</svg>
