<?xml version="1.0" encoding="UTF-8" ?><svg xmlns="http://www.w3.org/2000/svg" version="1.1">
<line x1="400" y1="400" x2="800.0" y2="400.0" style="stroke:black;stroke-width:3" />
<line x1="800.0" y1="400.0" x2="774.8837921882747" y2="399.21069137130866" style="stroke:black;stroke-width:3" />
<line x1="774.8837921882747" y1="399.21069137130866" x2="406.180339887499" y2="380.9788696740969" style="stroke:black;stroke-width:3" />
<line x1="774.8837921882747" y1="399.21069137130866" x2="749.8667065742784" y2="396.8458805257912" style="stroke:black;stroke-width:3" />
<line x1="749.8667065742784" y1="396.8458805257912" x2="412.36067977499795" y2="361.95773934819385" style="stroke:black;stroke-width:3" />
<line x1="749.8667065742784" y1="396.8458805257912" x2="725.0474741657102" y2="392.91490029147553" style="stroke:black;stroke-width:3" />
<line x1="725.0474741657102" y1="392.91490029147553" x2="418.5410196624969" y2="342.9366090222908" style="stroke:black;stroke-width:3" />
<line x1="725.0474741657102" y1="392.91490029147553" x2="700.5240451340582" y2="387.43326445145254" style="stroke:black;stroke-width:3" />
<line x1="700.5240451340582" y1="387.43326445145254" x2="424.7213595499959" y2="323.9154786963877" style="stroke:black;stroke-width:3" />
<line x1="700.5240451340582" y1="387.43326445145254" x2="676.3932022500211" y2="380.42260651806157" style="stroke:black;stroke-width:3" />
<line x1="676.3932022500211" y1="380.42260651806157" x2="430.90169943749487" y2="304.89434837048464" style="stroke:black;stroke-width:3" />
<line x1="676.3932022500211" y1="380.42260651806157" x2="652.7501789261289" y2="371.91059435530076" style="stroke:black;stroke-width:3" />
<line x1="652.7501789261289" y1="371.91059435530076" x2="437.08203932499384" y2="285.87321804458156" style="stroke:black;stroke-width:3" />
<line x1="652.7501789261289" y1="371.91059435530076" x2="629.688283373971" y2="361.93082098640804" style="stroke:black;stroke-width:3" />
<line x1="629.688283373971" y1="361.93082098640804" x2="443.2623792124928" y2="266.8520877186785" style="stroke:black;stroke-width:3" />
<line x1="629.688283373971" y1="361.93082098640804" x2="607.2985303593139" y2="350.5226720175457" style="stroke:black;stroke-width:3" />
<line x1="607.2985303593139" y1="350.5226720175457" x2="449.4427190999918" y2="247.83095739277542" style="stroke:black;stroke-width:3" />
<line x1="607.2985303593139" y1="350.5226720175457" x2="585.6692820084013" y2="337.73117020080633" style="stroke:black;stroke-width:3" />
<line x1="585.6692820084013" y1="337.73117020080633" x2="455.62305898749077" y2="228.80982706687234" style="stroke:black;stroke-width:3" />
<line x1="585.6692820084013" y1="337.73117020080633" x2="564.8858990830107" y2="323.6067977499793" style="stroke:black;stroke-width:3" />
<line x1="564.8858990830107" y1="323.6067977499793" x2="461.80339887498974" y2="209.78869674096927" style="stroke:black;stroke-width:3" />
<line x1="564.8858990830107" y1="323.6067977499793" x2="545.030404100524" y2="308.20529711031605" style="stroke:black;stroke-width:3" />
<line x1="545.030404100524" y1="308.20529711031605" x2="467.9837387624887" y2="190.7675664150662" style="stroke:black;stroke-width:3" />
<line x1="545.030404100524" y1="308.20529711031605" x2="526.1811576285244" y2="291.587450968565" style="stroke:black;stroke-width:3" />
<line x1="526.1811576285244" y1="291.587450968565" x2="474.1640786499877" y2="171.74643608916313" style="stroke:black;stroke-width:3" />
<line x1="526.1811576285244" y1="291.587450968565" x2="508.4125490314352" y2="273.8188423714759" style="stroke:black;stroke-width:3" />
<line x1="508.4125490314352" y1="273.8188423714759" x2="480.34441853748666" y2="152.72530576326005" style="stroke:black;stroke-width:3" />
<line x1="508.4125490314352" y1="273.8188423714759" x2="491.7947028896841" y2="254.96959589947636" style="stroke:black;stroke-width:3" />
<line x1="491.7947028896841" y1="254.96959589947636" x2="486.52475842498563" y2="133.70417543735698" style="stroke:black;stroke-width:3" />
<line x1="491.7947028896841" y1="254.96959589947636" x2="476.3932022500208" y2="235.11410091698974" style="stroke:black;stroke-width:3" />
<line x1="476.3932022500208" y1="235.11410091698974" x2="492.7050983124846" y2="114.68304511145391" style="stroke:black;stroke-width:3" />
<line x1="476.3932022500208" y1="235.11410091698974" x2="462.2688297991937" y2="214.33071799159916" style="stroke:black;stroke-width:3" />
<line x1="462.2688297991937" y1="214.33071799159916" x2="498.8854381999836" y2="95.66191478555083" style="stroke:black;stroke-width:3" />
<line x1="462.2688297991937" y1="214.33071799159916" x2="449.4773279824543" y2="192.70146964068664" style="stroke:black;stroke-width:3" />
<line x1="449.4773279824543" y1="192.70146964068664" x2="505.06577808748256" y2="76.64078445964776" style="stroke:black;stroke-width:3" />
<line x1="449.4773279824543" y1="192.70146964068664" x2="438.0691790135919" y2="170.3117166260296" style="stroke:black;stroke-width:3" />
<line x1="438.0691790135919" y1="170.3117166260296" x2="511.24611797498153" y2="57.61965413374469" style="stroke:black;stroke-width:3" />
<line x1="438.0691790135919" y1="170.3117166260296" x2="428.0894056446991" y2="147.24982107387174" style="stroke:black;stroke-width:3" />
<line x1="428.0894056446991" y1="147.24982107387174" x2="517.4264578624804" y2="38.598523807841616" style="stroke:black;stroke-width:3" />
<line x1="428.0894056446991" y1="147.24982107387174" x2="419.5773934819382" y2="123.60679774997955" style="stroke:black;stroke-width:3" />
<line x1="419.5773934819382" y1="123.60679774997955" x2="523.6067977499794" y2="19.577393481938547" style="stroke:black;stroke-width:3" />
<line x1="400" y1="400" x2="800.0" y2="400.0" style="stroke:black;stroke-width:3" />
<line x1="800.0" y1="400.0" x2="774.8837921882747" y2="400.78930862869134" style="stroke:black;stroke-width:3" />
<line x1="774.8837921882747" y1="400.78930862869134" x2="406.180339887499" y2="419.0211303259031" style="stroke:black;stroke-width:3" />
<line x1="774.8837921882747" y1="400.78930862869134" x2="749.8667065742784" y2="403.1541194742088" style="stroke:black;stroke-width:3" />
<line x1="749.8667065742784" y1="403.1541194742088" x2="412.36067977499795" y2="438.04226065180615" style="stroke:black;stroke-width:3" />
<line x1="749.8667065742784" y1="403.1541194742088" x2="725.0474741657102" y2="407.08509970852447" style="stroke:black;stroke-width:3" />
<line x1="725.0474741657102" y1="407.08509970852447" x2="418.5410196624969" y2="457.0633909777092" style="stroke:black;stroke-width:3" />
<line x1="725.0474741657102" y1="407.08509970852447" x2="700.5240451340582" y2="412.56673554854746" style="stroke:black;stroke-width:3" />
<line x1="700.5240451340582" y1="412.56673554854746" x2="424.7213595499959" y2="476.0845213036123" style="stroke:black;stroke-width:3" />
<line x1="700.5240451340582" y1="412.56673554854746" x2="676.3932022500211" y2="419.57739348193843" style="stroke:black;stroke-width:3" />
<line x1="676.3932022500211" y1="419.57739348193843" x2="430.90169943749487" y2="495.10565162951536" style="stroke:black;stroke-width:3" />
<line x1="676.3932022500211" y1="419.57739348193843" x2="652.7501789261289" y2="428.08940564469924" style="stroke:black;stroke-width:3" />
<line x1="652.7501789261289" y1="428.08940564469924" x2="437.08203932499384" y2="514.1267819554184" style="stroke:black;stroke-width:3" />
<line x1="652.7501789261289" y1="428.08940564469924" x2="629.688283373971" y2="438.06917901359196" style="stroke:black;stroke-width:3" />
<line x1="629.688283373971" y1="438.06917901359196" x2="443.2623792124928" y2="533.1479122813215" style="stroke:black;stroke-width:3" />
<line x1="629.688283373971" y1="438.06917901359196" x2="607.2985303593139" y2="449.4773279824543" style="stroke:black;stroke-width:3" />
<line x1="607.2985303593139" y1="449.4773279824543" x2="449.4427190999918" y2="552.1690426072246" style="stroke:black;stroke-width:3" />
<line x1="607.2985303593139" y1="449.4773279824543" x2="585.6692820084013" y2="462.26882979919367" style="stroke:black;stroke-width:3" />
<line x1="585.6692820084013" y1="462.26882979919367" x2="455.62305898749077" y2="571.1901729331277" style="stroke:black;stroke-width:3" />
<line x1="585.6692820084013" y1="462.26882979919367" x2="564.8858990830107" y2="476.3932022500207" style="stroke:black;stroke-width:3" />
<line x1="564.8858990830107" y1="476.3932022500207" x2="461.80339887498974" y2="590.2113032590307" style="stroke:black;stroke-width:3" />
<line x1="564.8858990830107" y1="476.3932022500207" x2="545.030404100524" y2="491.79470288968395" style="stroke:black;stroke-width:3" />
<line x1="545.030404100524" y1="491.79470288968395" x2="467.9837387624887" y2="609.2324335849338" style="stroke:black;stroke-width:3" />
<line x1="545.030404100524" y1="491.79470288968395" x2="526.1811576285244" y2="508.412549031435" style="stroke:black;stroke-width:3" />
<line x1="526.1811576285244" y1="508.412549031435" x2="474.1640786499877" y2="628.2535639108369" style="stroke:black;stroke-width:3" />
<line x1="526.1811576285244" y1="508.412549031435" x2="508.4125490314352" y2="526.1811576285241" style="stroke:black;stroke-width:3" />
<line x1="508.4125490314352" y1="526.1811576285241" x2="480.34441853748666" y2="647.27469423674" style="stroke:black;stroke-width:3" />
<line x1="508.4125490314352" y1="526.1811576285241" x2="491.7947028896841" y2="545.0304041005237" style="stroke:black;stroke-width:3" />
<line x1="491.7947028896841" y1="545.0304041005237" x2="486.52475842498563" y2="666.295824562643" style="stroke:black;stroke-width:3" />
<line x1="491.7947028896841" y1="545.0304041005237" x2="476.3932022500208" y2="564.8858990830103" style="stroke:black;stroke-width:3" />
<line x1="476.3932022500208" y1="564.8858990830103" x2="492.7050983124846" y2="685.3169548885461" style="stroke:black;stroke-width:3" />
<line x1="476.3932022500208" y1="564.8858990830103" x2="462.2688297991937" y2="585.6692820084008" style="stroke:black;stroke-width:3" />
<line x1="462.2688297991937" y1="585.6692820084008" x2="498.8854381999836" y2="704.3380852144492" style="stroke:black;stroke-width:3" />
<line x1="462.2688297991937" y1="585.6692820084008" x2="449.4773279824543" y2="607.2985303593133" style="stroke:black;stroke-width:3" />
<line x1="449.4773279824543" y1="607.2985303593133" x2="505.06577808748256" y2="723.3592155403522" style="stroke:black;stroke-width:3" />
<line x1="449.4773279824543" y1="607.2985303593133" x2="438.0691790135919" y2="629.6882833739703" style="stroke:black;stroke-width:3" />
<line x1="438.0691790135919" y1="629.6882833739703" x2="511.24611797498153" y2="742.3803458662553" style="stroke:black;stroke-width:3" />
<line x1="438.0691790135919" y1="629.6882833739703" x2="428.0894056446991" y2="652.7501789261281" style="stroke:black;stroke-width:3" />
<line x1="428.0894056446991" y1="652.7501789261281" x2="517.4264578624804" y2="761.4014761921584" style="stroke:black;stroke-width:3" />
<line x1="428.0894056446991" y1="652.7501789261281" x2="419.5773934819382" y2="676.3932022500203" style="stroke:black;stroke-width:3" />
<line x1="419.5773934819382" y1="676.3932022500203" x2="523.6067977499794" y2="780.4226065180615" style="stroke:black;stroke-width:3" />
<line x1="400" y1="400" x2="523.606797749979" y2="19.5773934819386" style="stroke:black;stroke-width:3" />
<line x1="523.606797749979" y1="19.5773934819386" x2="515.0947855872182" y2="43.22041680583082" style="stroke:black;stroke-width:3" />
<line x1="515.0947855872182" y1="43.22041680583082" x2="383.8196601125011" y2="388.2442949541505" style="stroke:black;stroke-width:3" />
<line x1="515.0947855872182" y1="43.22041680583082" x2="505.1150122183255" y2="66.2823123579887" style="stroke:black;stroke-width:3" />
<line x1="505.1150122183255" y1="66.2823123579887" x2="367.63932022500217" y2="376.48858990830104" style="stroke:black;stroke-width:3" />
<line x1="505.1150122183255" y1="66.2823123579887" x2="493.70686324946314" y2="88.67206537264576" style="stroke:black;stroke-width:3" />
<line x1="493.70686324946314" y1="88.67206537264576" x2="351.45898033750325" y2="364.73288486245156" style="stroke:black;stroke-width:3" />
<line x1="493.70686324946314" y1="88.67206537264576" x2="480.9153614327237" y2="110.30131372355831" style="stroke:black;stroke-width:3" />
<line x1="480.9153614327237" y1="110.30131372355831" x2="335.27864045000433" y2="352.9771798166021" style="stroke:black;stroke-width:3" />
<line x1="480.9153614327237" y1="110.30131372355831" x2="466.7909889818967" y2="131.08469664894892" style="stroke:black;stroke-width:3" />
<line x1="466.7909889818967" y1="131.08469664894892" x2="319.0983005625054" y2="341.2214747707526" style="stroke:black;stroke-width:3" />
<line x1="466.7909889818967" y1="131.08469664894892" x2="451.38948834223345" y2="150.94019163143557" style="stroke:black;stroke-width:3" />
<line x1="451.38948834223345" y1="150.94019163143557" x2="302.9179606750065" y2="329.4657697249031" style="stroke:black;stroke-width:3" />
<line x1="451.38948834223345" y1="150.94019163143557" x2="434.7716422004824" y2="169.78943810343517" style="stroke:black;stroke-width:3" />
<line x1="434.7716422004824" y1="169.78943810343517" x2="286.7376207875076" y2="317.71006467905363" style="stroke:black;stroke-width:3" />
<line x1="434.7716422004824" y1="169.78943810343517" x2="417.0030336033933" y2="187.55804670052433" style="stroke:black;stroke-width:3" />
<line x1="417.0030336033933" y1="187.55804670052433" x2="270.55728090000866" y2="305.95435963320415" style="stroke:black;stroke-width:3" />
<line x1="417.0030336033933" y1="187.55804670052433" x2="398.15378713139376" y2="204.17589284227543" style="stroke:black;stroke-width:3" />
<line x1="398.15378713139376" y1="204.17589284227543" x2="254.37694101250972" y2="294.19865458735467" style="stroke:black;stroke-width:3" />
<line x1="398.15378713139376" y1="204.17589284227543" x2="378.29829214890714" y2="219.57739348193874" style="stroke:black;stroke-width:3" />
<line x1="378.29829214890714" y1="219.57739348193874" x2="238.19660112501077" y2="282.4429495415052" style="stroke:black;stroke-width:3" />
<line x1="378.29829214890714" y1="219.57739348193874" x2="357.51490922351655" y2="233.70176593276582" style="stroke:black;stroke-width:3" />
<line x1="357.51490922351655" y1="233.70176593276582" x2="222.01626123751183" y2="270.6872444956557" style="stroke:black;stroke-width:3" />
<line x1="357.51490922351655" y1="233.70176593276582" x2="335.88566087260403" y2="246.49326774950526" style="stroke:black;stroke-width:3" />
<line x1="335.88566087260403" y1="246.49326774950526" x2="205.83592135001288" y2="258.9315394498062" style="stroke:black;stroke-width:3" />
<line x1="335.88566087260403" y1="246.49326774950526" x2="313.49590785794703" y2="257.90141671836767" style="stroke:black;stroke-width:3" />
<line x1="313.49590785794703" y1="257.90141671836767" x2="189.65558146251394" y2="247.17583440395677" style="stroke:black;stroke-width:3" />
<line x1="313.49590785794703" y1="257.90141671836767" x2="290.43401230578917" y2="267.88119008726045" style="stroke:black;stroke-width:3" />
<line x1="290.43401230578917" y1="267.88119008726045" x2="173.475241575015" y2="235.42012935810732" style="stroke:black;stroke-width:3" />
<line x1="290.43401230578917" y1="267.88119008726045" x2="266.790988981897" y2="276.3932022500214" style="stroke:black;stroke-width:3" />
<line x1="266.790988981897" y1="276.3932022500214" x2="157.29490168751605" y2="223.66442431225786" style="stroke:black;stroke-width:3" />
<line x1="266.790988981897" y1="276.3932022500214" x2="242.66014609785995" y2="283.40386018341246" style="stroke:black;stroke-width:3" />
<line x1="242.66014609785995" y1="283.40386018341246" x2="141.1145618000171" y2="211.9087192664084" style="stroke:black;stroke-width:3" />
<line x1="242.66014609785995" y1="283.40386018341246" x2="218.1367170662079" y2="288.8854960234355" style="stroke:black;stroke-width:3" />
<line x1="218.1367170662079" y1="288.8854960234355" x2="124.93422191251815" y2="200.15301422055896" style="stroke:black;stroke-width:3" />
<line x1="218.1367170662079" y1="288.8854960234355" x2="193.31748465763974" y2="292.8164762577512" style="stroke:black;stroke-width:3" />
<line x1="193.31748465763974" y1="292.8164762577512" x2="108.75388202501921" y2="188.3973091747095" style="stroke:black;stroke-width:3" />
<line x1="193.31748465763974" y1="292.8164762577512" x2="168.30039904364338" y2="295.18128710326874" style="stroke:black;stroke-width:3" />
<line x1="168.30039904364338" y1="295.18128710326874" x2="92.57354213752026" y2="176.64160412886005" style="stroke:black;stroke-width:3" />
<line x1="168.30039904364338" y1="295.18128710326874" x2="143.18419123191802" y2="295.9705957319602" style="stroke:black;stroke-width:3" />
<line x1="143.18419123191802" y1="295.9705957319602" x2="76.39320225002132" y2="164.8858990830106" style="stroke:black;stroke-width:3" />
<line x1="400" y1="400" x2="523.606797749979" y2="19.5773934819386" style="stroke:black;stroke-width:3" />
<line x1="523.606797749979" y1="19.5773934819386" x2="516.596139816588" y2="43.70823636597565" style="stroke:black;stroke-width:3" />
<line x1="516.596139816588" y1="43.70823636597565" x2="420.0" y2="400.0" style="stroke:black;stroke-width:3" />
<line x1="516.596139816588" y1="43.70823636597565" x2="511.11450397656495" y2="68.23166539762771" style="stroke:black;stroke-width:3" />
<line x1="511.11450397656495" y1="68.23166539762771" x2="440.0" y2="400.0" style="stroke:black;stroke-width:3" />
<line x1="511.11450397656495" y1="68.23166539762771" x2="507.1835237422493" y2="93.05089780619586" style="stroke:black;stroke-width:3" />
<line x1="507.1835237422493" y1="93.05089780619586" x2="460.0" y2="400.0" style="stroke:black;stroke-width:3" />
<line x1="507.1835237422493" y1="93.05089780619586" x2="504.8187128967318" y2="118.0679834201922" style="stroke:black;stroke-width:3" />
<line x1="504.8187128967318" y1="118.0679834201922" x2="480.0" y2="400.0" style="stroke:black;stroke-width:3" />
<line x1="504.8187128967318" y1="118.0679834201922" x2="504.0294042680405" y2="143.18419123191757" style="stroke:black;stroke-width:3" />
<line x1="504.0294042680405" y1="143.18419123191757" x2="500.0" y2="400.0" style="stroke:black;stroke-width:3" />
<line x1="504.0294042680405" y1="143.18419123191757" x2="504.8187128967319" y2="168.30039904364293" style="stroke:black;stroke-width:3" />
<line x1="504.8187128967319" y1="168.30039904364293" x2="520.0" y2="400.0" style="stroke:black;stroke-width:3" />
<line x1="504.8187128967319" y1="168.30039904364293" x2="507.1835237422494" y2="193.31748465763928" style="stroke:black;stroke-width:3" />
<line x1="507.1835237422494" y1="193.31748465763928" x2="540.0" y2="400.0" style="stroke:black;stroke-width:3" />
<line x1="507.1835237422494" y1="193.31748465763928" x2="511.1145039765651" y2="218.13671706620744" style="stroke:black;stroke-width:3" />
<line x1="511.1145039765651" y1="218.13671706620744" x2="560.0" y2="400.0" style="stroke:black;stroke-width:3" />
<line x1="511.1145039765651" y1="218.13671706620744" x2="516.5961398165882" y2="242.6601460978595" style="stroke:black;stroke-width:3" />
<line x1="516.5961398165882" y1="242.6601460978595" x2="580.0" y2="400.0" style="stroke:black;stroke-width:3" />
<line x1="516.5961398165882" y1="242.6601460978595" x2="523.6067977499793" y2="266.79098898189653" style="stroke:black;stroke-width:3" />
<line x1="523.6067977499793" y1="266.79098898189653" x2="600.0" y2="400.0" style="stroke:black;stroke-width:3" />
<line x1="523.6067977499793" y1="266.79098898189653" x2="532.1188099127402" y2="290.4340123057887" style="stroke:black;stroke-width:3" />
<line x1="532.1188099127402" y1="290.4340123057887" x2="620.0" y2="400.0" style="stroke:black;stroke-width:3" />
<line x1="532.1188099127402" y1="290.4340123057887" x2="542.098583281633" y2="313.4959078579466" style="stroke:black;stroke-width:3" />
<line x1="542.098583281633" y1="313.4959078579466" x2="640.0" y2="400.0" style="stroke:black;stroke-width:3" />
<line x1="542.098583281633" y1="313.4959078579466" x2="553.5067322504954" y2="335.8856608726036" style="stroke:black;stroke-width:3" />
<line x1="553.5067322504954" y1="335.8856608726036" x2="660.0" y2="400.0" style="stroke:black;stroke-width:3" />
<line x1="553.5067322504954" y1="335.8856608726036" x2="566.2982340672348" y2="357.51490922351604" style="stroke:black;stroke-width:3" />
<line x1="566.2982340672348" y1="357.51490922351604" x2="680.0" y2="400.0" style="stroke:black;stroke-width:3" />
<line x1="566.2982340672348" y1="357.51490922351604" x2="580.422606518062" y2="378.29829214890657" style="stroke:black;stroke-width:3" />
<line x1="580.422606518062" y1="378.29829214890657" x2="700.0" y2="400.0" style="stroke:black;stroke-width:3" />
<line x1="580.422606518062" y1="378.29829214890657" x2="595.8241071577254" y2="398.15378713139313" style="stroke:black;stroke-width:3" />
<line x1="595.8241071577254" y1="398.15378713139313" x2="720.0" y2="400.0" style="stroke:black;stroke-width:3" />
<line x1="595.8241071577254" y1="398.15378713139313" x2="612.4419532994766" y2="417.0030336033926" style="stroke:black;stroke-width:3" />
<line x1="612.4419532994766" y1="417.0030336033926" x2="740.0" y2="400.0" style="stroke:black;stroke-width:3" />
<line x1="612.4419532994766" y1="417.0030336033926" x2="630.2105618965659" y2="434.77164220048166" style="stroke:black;stroke-width:3" />
<line x1="630.2105618965659" y1="434.77164220048166" x2="760.0" y2="400.0" style="stroke:black;stroke-width:3" />
<line x1="630.2105618965659" y1="434.77164220048166" x2="649.0598083685655" y2="451.38948834223265" style="stroke:black;stroke-width:3" />
<line x1="649.0598083685655" y1="451.38948834223265" x2="780.0" y2="400.0" style="stroke:black;stroke-width:3" />
<line x1="649.0598083685655" y1="451.38948834223265" x2="668.9153033510522" y2="466.7909889818958" style="stroke:black;stroke-width:3" />
<line x1="668.9153033510522" y1="466.7909889818958" x2="800.0" y2="400.0" style="stroke:black;stroke-width:3" />
<line x1="400" y1="400" x2="76.39320225002109" y2="164.8858990830107" style="stroke:black;stroke-width:3" />
<line x1="76.39320225002109" y1="164.8858990830107" x2="96.24869723250772" y2="180.287399722674" style="stroke:black;stroke-width:3" />
<line x1="96.24869723250772" y1="180.287399722674" x2="383.819660112501" y2="411.7557050458495" style="stroke:black;stroke-width:3" />
<line x1="96.24869723250772" y1="180.287399722674" x2="115.09794370450732" y2="196.90524586442507" style="stroke:black;stroke-width:3" />
<line x1="115.09794370450732" y1="196.90524586442507" x2="367.63932022500205" y2="423.51141009169896" style="stroke:black;stroke-width:3" />
<line x1="115.09794370450732" y1="196.90524586442507" x2="132.86655230159647" y2="214.6738544615142" style="stroke:black;stroke-width:3" />
<line x1="132.86655230159647" y1="214.6738544615142" x2="351.4589803375031" y2="435.26711513754844" style="stroke:black;stroke-width:3" />
<line x1="132.86655230159647" y1="214.6738544615142" x2="149.48439844334757" y2="233.52310093351377" style="stroke:black;stroke-width:3" />
<line x1="149.48439844334757" y1="233.52310093351377" x2="335.2786404500041" y2="447.0228201833979" style="stroke:black;stroke-width:3" />
<line x1="149.48439844334757" y1="233.52310093351377" x2="164.88589908301086" y2="253.3785959160004" style="stroke:black;stroke-width:3" />
<line x1="164.88589908301086" y1="253.3785959160004" x2="319.09830056250513" y2="458.7785252292474" style="stroke:black;stroke-width:3" />
<line x1="164.88589908301086" y1="253.3785959160004" x2="179.01027153383794" y2="274.161978841391" style="stroke:black;stroke-width:3" />
<line x1="179.01027153383794" y1="274.161978841391" x2="302.91796067500616" y2="470.5342302750969" style="stroke:black;stroke-width:3" />
<line x1="179.01027153383794" y1="274.161978841391" x2="191.80177335057735" y2="295.7912271923035" style="stroke:black;stroke-width:3" />
<line x1="191.80177335057735" y1="295.7912271923035" x2="286.7376207875072" y2="482.28993532094637" style="stroke:black;stroke-width:3" />
<line x1="191.80177335057735" y1="295.7912271923035" x2="203.20992231943976" y2="318.18098020696056" style="stroke:black;stroke-width:3" />
<line x1="203.20992231943976" y1="318.18098020696056" x2="270.5572809000082" y2="494.04564036679585" style="stroke:black;stroke-width:3" />
<line x1="203.20992231943976" y1="318.18098020696056" x2="213.18969568833253" y2="341.2428757591184" style="stroke:black;stroke-width:3" />
<line x1="213.18969568833253" y1="341.2428757591184" x2="254.37694101250926" y2="505.80134541264533" style="stroke:black;stroke-width:3" />
<line x1="213.18969568833253" y1="341.2428757591184" x2="221.70170785109343" y2="364.8858990830106" style="stroke:black;stroke-width:3" />
<line x1="221.70170785109343" y1="364.8858990830106" x2="238.19660112501032" y2="517.5570504584948" style="stroke:black;stroke-width:3" />
<line x1="221.70170785109343" y1="364.8858990830106" x2="228.7123657844845" y2="389.01674196704766" style="stroke:black;stroke-width:3" />
<line x1="228.7123657844845" y1="389.01674196704766" x2="222.01626123751137" y2="529.3127555043443" style="stroke:black;stroke-width:3" />
<line x1="228.7123657844845" y1="389.01674196704766" x2="234.19400162450756" y2="413.5401709986997" style="stroke:black;stroke-width:3" />
<line x1="234.19400162450756" y1="413.5401709986997" x2="205.83592135001243" y2="541.0684605501938" style="stroke:black;stroke-width:3" />
<line x1="234.19400162450756" y1="413.5401709986997" x2="238.12498185882328" y2="438.35940340726785" style="stroke:black;stroke-width:3" />
<line x1="238.12498185882328" y1="438.35940340726785" x2="189.65558146251348" y2="552.8241655960433" style="stroke:black;stroke-width:3" />
<line x1="238.12498185882328" y1="438.35940340726785" x2="240.4897927043408" y2="463.3764890212642" style="stroke:black;stroke-width:3" />
<line x1="240.4897927043408" y1="463.3764890212642" x2="173.47524157501454" y2="564.5798706418927" style="stroke:black;stroke-width:3" />
<line x1="240.4897927043408" y1="463.3764890212642" x2="241.27910133303223" y2="488.49269683298957" style="stroke:black;stroke-width:3" />
<line x1="241.27910133303223" y1="488.49269683298957" x2="157.2949016875156" y2="576.3355756877422" style="stroke:black;stroke-width:3" />
<line x1="241.27910133303223" y1="488.49269683298957" x2="240.4897927043409" y2="513.6089046447149" style="stroke:black;stroke-width:3" />
<line x1="240.4897927043409" y1="513.6089046447149" x2="141.11456180001665" y2="588.0912807335917" style="stroke:black;stroke-width:3" />
<line x1="240.4897927043409" y1="513.6089046447149" x2="238.12498185882347" y2="538.6259902587112" style="stroke:black;stroke-width:3" />
<line x1="238.12498185882347" y1="538.6259902587112" x2="124.9342219125177" y2="599.8469857794412" style="stroke:black;stroke-width:3" />
<line x1="238.12498185882347" y1="538.6259902587112" x2="234.19400162450788" y2="563.4452226672794" style="stroke:black;stroke-width:3" />
<line x1="234.19400162450788" y1="563.4452226672794" x2="108.75388202501875" y2="611.6026908252907" style="stroke:black;stroke-width:3" />
<line x1="234.19400162450788" y1="563.4452226672794" x2="228.71236578448492" y2="587.9686516989315" style="stroke:black;stroke-width:3" />
<line x1="228.71236578448492" y1="587.9686516989315" x2="92.57354213751981" y2="623.3583958711401" style="stroke:black;stroke-width:3" />
<line x1="228.71236578448492" y1="587.9686516989315" x2="221.70170785109394" y2="612.0994945829685" style="stroke:black;stroke-width:3" />
<line x1="221.70170785109394" y1="612.0994945829685" x2="76.39320225002086" y2="635.1141009169896" style="stroke:black;stroke-width:3" />
<line x1="400" y1="400" x2="76.39320225002109" y2="164.8858990830107" style="stroke:black;stroke-width:3" />
<line x1="76.39320225002109" y1="164.8858990830107" x2="97.17658517541167" y2="179.0102715338378" style="stroke:black;stroke-width:3" />
<line x1="97.17658517541167" y1="179.0102715338378" x2="406.180339887499" y2="380.9788696740969" style="stroke:black;stroke-width:3" />
<line x1="97.17658517541167" y1="179.0102715338378" x2="118.8058335263242" y2="191.8017733505772" style="stroke:black;stroke-width:3" />
<line x1="118.8058335263242" y1="191.8017733505772" x2="412.36067977499795" y2="361.95773934819385" style="stroke:black;stroke-width:3" />
<line x1="118.8058335263242" y1="191.8017733505772" x2="141.19558654098125" y2="203.20992231943958" style="stroke:black;stroke-width:3" />
<line x1="141.19558654098125" y1="203.20992231943958" x2="418.5410196624969" y2="342.9366090222908" style="stroke:black;stroke-width:3" />
<line x1="141.19558654098125" y1="203.20992231943958" x2="164.25748209313912" y2="213.18969568833234" style="stroke:black;stroke-width:3" />
<line x1="164.25748209313912" y1="213.18969568833234" x2="424.7213595499959" y2="323.9154786963877" style="stroke:black;stroke-width:3" />
<line x1="164.25748209313912" y1="213.18969568833234" x2="187.90050541703133" y2="221.70170785109318" style="stroke:black;stroke-width:3" />
<line x1="187.90050541703133" y1="221.70170785109318" x2="430.90169943749487" y2="304.89434837048464" style="stroke:black;stroke-width:3" />
<line x1="187.90050541703133" y1="221.70170785109318" x2="212.0313483010684" y2="228.71236578448415" style="stroke:black;stroke-width:3" />
<line x1="212.0313483010684" y1="228.71236578448415" x2="437.08203932499384" y2="285.87321804458156" style="stroke:black;stroke-width:3" />
<line x1="212.0313483010684" y1="228.71236578448415" x2="236.55477733272045" y2="234.19400162450714" style="stroke:black;stroke-width:3" />
<line x1="236.55477733272045" y1="234.19400162450714" x2="443.2623792124928" y2="266.8520877186785" style="stroke:black;stroke-width:3" />
<line x1="236.55477733272045" y1="234.19400162450714" x2="261.3740097412886" y2="238.12498185882274" style="stroke:black;stroke-width:3" />
<line x1="261.3740097412886" y1="238.12498185882274" x2="449.4427190999918" y2="247.83095739277542" style="stroke:black;stroke-width:3" />
<line x1="261.3740097412886" y1="238.12498185882274" x2="286.39109535528496" y2="240.48979270434018" style="stroke:black;stroke-width:3" />
<line x1="286.39109535528496" y1="240.48979270434018" x2="455.62305898749077" y2="228.80982706687234" style="stroke:black;stroke-width:3" />
<line x1="286.39109535528496" y1="240.48979270434018" x2="311.5073031670103" y2="241.2791013330315" style="stroke:black;stroke-width:3" />
<line x1="311.5073031670103" y1="241.2791013330315" x2="461.80339887498974" y2="209.78869674096927" style="stroke:black;stroke-width:3" />
<line x1="311.5073031670103" y1="241.2791013330315" x2="336.6235109787357" y2="240.48979270434006" style="stroke:black;stroke-width:3" />
<line x1="336.6235109787357" y1="240.48979270434006" x2="467.9837387624887" y2="190.7675664150662" style="stroke:black;stroke-width:3" />
<line x1="336.6235109787357" y1="240.48979270434006" x2="361.64059659273204" y2="238.12498185882248" style="stroke:black;stroke-width:3" />
<line x1="361.64059659273204" y1="238.12498185882248" x2="474.1640786499877" y2="171.74643608916313" style="stroke:black;stroke-width:3" />
<line x1="361.64059659273204" y1="238.12498185882248" x2="386.4598290013002" y2="234.1940016245067" style="stroke:black;stroke-width:3" />
<line x1="386.4598290013002" y1="234.1940016245067" x2="480.34441853748666" y2="152.72530576326005" style="stroke:black;stroke-width:3" />
<line x1="386.4598290013002" y1="234.1940016245067" x2="410.9832580329522" y2="228.71236578448358" style="stroke:black;stroke-width:3" />
<line x1="410.9832580329522" y1="228.71236578448358" x2="486.52475842498563" y2="133.70417543735698" style="stroke:black;stroke-width:3" />
<line x1="410.9832580329522" y1="228.71236578448358" x2="435.11410091698923" y2="221.70170785109244" style="stroke:black;stroke-width:3" />
<line x1="435.11410091698923" y1="221.70170785109244" x2="492.7050983124846" y2="114.68304511145391" style="stroke:black;stroke-width:3" />
<line x1="435.11410091698923" y1="221.70170785109244" x2="458.7571242408814" y2="213.18969568833145" style="stroke:black;stroke-width:3" />
<line x1="458.7571242408814" y1="213.18969568833145" x2="498.8854381999836" y2="95.66191478555083" style="stroke:black;stroke-width:3" />
<line x1="458.7571242408814" y1="213.18969568833145" x2="481.8190197930392" y2="203.2099223194386" style="stroke:black;stroke-width:3" />
<line x1="481.8190197930392" y1="203.2099223194386" x2="505.06577808748256" y2="76.64078445964776" style="stroke:black;stroke-width:3" />
<line x1="481.8190197930392" y1="203.2099223194386" x2="504.2087728076962" y2="191.8017733505761" style="stroke:black;stroke-width:3" />
<line x1="504.2087728076962" y1="191.8017733505761" x2="511.24611797498153" y2="57.61965413374469" style="stroke:black;stroke-width:3" />
<line x1="504.2087728076962" y1="191.8017733505761" x2="525.8380211586086" y2="179.01027153383654" style="stroke:black;stroke-width:3" />
<line x1="525.8380211586086" y1="179.01027153383654" x2="517.4264578624804" y2="38.598523807841616" style="stroke:black;stroke-width:3" />
<line x1="525.8380211586086" y1="179.01027153383654" x2="546.6214040839991" y2="164.88589908300935" style="stroke:black;stroke-width:3" />
<line x1="546.6214040839991" y1="164.88589908300935" x2="523.6067977499794" y2="19.577393481938547" style="stroke:black;stroke-width:3" />
<line x1="400" y1="400" x2="76.39320225002098" y2="635.1141009169892" style="stroke:black;stroke-width:3" />
<line x1="76.39320225002098" y1="635.1141009169892" x2="97.17658517541157" y2="620.9897284661621" style="stroke:black;stroke-width:3" />
<line x1="97.17658517541157" y1="620.9897284661621" x2="406.1803398874989" y2="419.0211303259031" style="stroke:black;stroke-width:3" />
<line x1="97.17658517541157" y1="620.9897284661621" x2="118.80583352632411" y2="608.1982266494226" style="stroke:black;stroke-width:3" />
<line x1="118.80583352632411" y1="608.1982266494226" x2="412.36067977499783" y2="438.04226065180615" style="stroke:black;stroke-width:3" />
<line x1="118.80583352632411" y1="608.1982266494226" x2="141.19558654098114" y2="596.7900776805602" style="stroke:black;stroke-width:3" />
<line x1="141.19558654098114" y1="596.7900776805602" x2="418.54101966249675" y2="457.0633909777092" style="stroke:black;stroke-width:3" />
<line x1="141.19558654098114" y1="596.7900776805602" x2="164.257482093139" y2="586.8103043116674" style="stroke:black;stroke-width:3" />
<line x1="164.257482093139" y1="586.8103043116674" x2="424.72135954999567" y2="476.0845213036123" style="stroke:black;stroke-width:3" />
<line x1="164.257482093139" y1="586.8103043116674" x2="187.9005054170312" y2="578.2982921489065" style="stroke:black;stroke-width:3" />
<line x1="187.9005054170312" y1="578.2982921489065" x2="430.9016994374946" y2="495.10565162951536" style="stroke:black;stroke-width:3" />
<line x1="187.9005054170312" y1="578.2982921489065" x2="212.03134830106825" y2="571.2876342155155" style="stroke:black;stroke-width:3" />
<line x1="212.03134830106825" y1="571.2876342155155" x2="437.0820393249935" y2="514.1267819554184" style="stroke:black;stroke-width:3" />
<line x1="212.03134830106825" y1="571.2876342155155" x2="236.5547773327203" y2="565.8059983754924" style="stroke:black;stroke-width:3" />
<line x1="236.5547773327203" y1="565.8059983754924" x2="443.2623792124924" y2="533.1479122813215" style="stroke:black;stroke-width:3" />
<line x1="236.5547773327203" y1="565.8059983754924" x2="261.37400974128843" y2="561.8750181411767" style="stroke:black;stroke-width:3" />
<line x1="261.37400974128843" y1="561.8750181411767" x2="449.44271909999134" y2="552.1690426072246" style="stroke:black;stroke-width:3" />
<line x1="261.37400974128843" y1="561.8750181411767" x2="286.3910953552848" y2="559.5102072956593" style="stroke:black;stroke-width:3" />
<line x1="286.3910953552848" y1="559.5102072956593" x2="455.62305898749025" y2="571.1901729331277" style="stroke:black;stroke-width:3" />
<line x1="286.3910953552848" y1="559.5102072956593" x2="311.50730316701015" y2="558.7208986669679" style="stroke:black;stroke-width:3" />
<line x1="311.50730316701015" y1="558.7208986669679" x2="461.80339887498917" y2="590.2113032590307" style="stroke:black;stroke-width:3" />
<line x1="311.50730316701015" y1="558.7208986669679" x2="336.6235109787355" y2="559.5102072956591" style="stroke:black;stroke-width:3" />
<line x1="336.6235109787355" y1="559.5102072956591" x2="467.9837387624881" y2="609.2324335849338" style="stroke:black;stroke-width:3" />
<line x1="336.6235109787355" y1="559.5102072956591" x2="361.64059659273187" y2="561.8750181411766" style="stroke:black;stroke-width:3" />
<line x1="361.64059659273187" y1="561.8750181411766" x2="474.164078649987" y2="628.2535639108369" style="stroke:black;stroke-width:3" />
<line x1="361.64059659273187" y1="561.8750181411766" x2="386.4598290013" y2="565.8059983754922" style="stroke:black;stroke-width:3" />
<line x1="386.4598290013" y1="565.8059983754922" x2="480.3444185374859" y2="647.27469423674" style="stroke:black;stroke-width:3" />
<line x1="386.4598290013" y1="565.8059983754922" x2="410.9832580329521" y2="571.2876342155151" style="stroke:black;stroke-width:3" />
<line x1="410.9832580329521" y1="571.2876342155151" x2="486.52475842498484" y2="666.295824562643" style="stroke:black;stroke-width:3" />
<line x1="410.9832580329521" y1="571.2876342155151" x2="435.1141009169892" y2="578.2982921489062" style="stroke:black;stroke-width:3" />
<line x1="435.1141009169892" y1="578.2982921489062" x2="492.70509831248376" y2="685.3169548885461" style="stroke:black;stroke-width:3" />
<line x1="435.1141009169892" y1="578.2982921489062" x2="458.7571242408814" y2="586.810304311667" style="stroke:black;stroke-width:3" />
<line x1="458.7571242408814" y1="586.810304311667" x2="498.8854381999827" y2="704.3380852144492" style="stroke:black;stroke-width:3" />
<line x1="458.7571242408814" y1="586.810304311667" x2="481.8190197930393" y2="596.7900776805596" style="stroke:black;stroke-width:3" />
<line x1="481.8190197930393" y1="596.7900776805596" x2="505.0657780874816" y2="723.3592155403522" style="stroke:black;stroke-width:3" />
<line x1="481.8190197930393" y1="596.7900776805596" x2="504.20877280769633" y2="608.1982266494219" style="stroke:black;stroke-width:3" />
<line x1="504.20877280769633" y1="608.1982266494219" x2="511.2461179749805" y2="742.3803458662553" style="stroke:black;stroke-width:3" />
<line x1="504.20877280769633" y1="608.1982266494219" x2="525.8380211586089" y2="620.9897284661613" style="stroke:black;stroke-width:3" />
<line x1="525.8380211586089" y1="620.9897284661613" x2="517.4264578624794" y2="761.4014761921584" style="stroke:black;stroke-width:3" />
<line x1="525.8380211586089" y1="620.9897284661613" x2="546.6214040839994" y2="635.1141009169883" style="stroke:black;stroke-width:3" />
<line x1="546.6214040839994" y1="635.1141009169883" x2="523.6067977499783" y2="780.4226065180615" style="stroke:black;stroke-width:3" />
<line x1="400" y1="400" x2="76.39320225002098" y2="635.1141009169892" style="stroke:black;stroke-width:3" />
<line x1="76.39320225002098" y1="635.1141009169892" x2="96.24869723250762" y2="619.7126002773259" style="stroke:black;stroke-width:3" />
<line x1="96.24869723250762" y1="619.7126002773259" x2="383.8196601125011" y2="388.2442949541505" style="stroke:black;stroke-width:3" />
<line x1="96.24869723250762" y1="619.7126002773259" x2="115.09794370450722" y2="603.0947541355748" style="stroke:black;stroke-width:3" />
<line x1="115.09794370450722" y1="603.0947541355748" x2="367.63932022500217" y2="376.48858990830104" style="stroke:black;stroke-width:3" />
<line x1="115.09794370450722" y1="603.0947541355748" x2="132.86655230159639" y2="585.3261455384857" style="stroke:black;stroke-width:3" />
<line x1="132.86655230159639" y1="585.3261455384857" x2="351.45898033750325" y2="364.73288486245156" style="stroke:black;stroke-width:3" />
<line x1="132.86655230159639" y1="585.3261455384857" x2="149.48439844334746" y2="566.4768990664861" style="stroke:black;stroke-width:3" />
<line x1="149.48439844334746" y1="566.4768990664861" x2="335.27864045000433" y2="352.9771798166021" style="stroke:black;stroke-width:3" />
<line x1="149.48439844334746" y1="566.4768990664861" x2="164.8858990830107" y2="546.6214040839994" style="stroke:black;stroke-width:3" />
<line x1="164.8858990830107" y1="546.6214040839994" x2="319.0983005625054" y2="341.2214747707526" style="stroke:black;stroke-width:3" />
<line x1="164.8858990830107" y1="546.6214040839994" x2="179.01027153383777" y2="525.8380211586089" style="stroke:black;stroke-width:3" />
<line x1="179.01027153383777" y1="525.8380211586089" x2="302.9179606750065" y2="329.4657697249031" style="stroke:black;stroke-width:3" />
<line x1="179.01027153383777" y1="525.8380211586089" x2="191.80177335057712" y2="504.2087728076963" style="stroke:black;stroke-width:3" />
<line x1="191.80177335057712" y1="504.2087728076963" x2="286.7376207875076" y2="317.71006467905363" style="stroke:black;stroke-width:3" />
<line x1="191.80177335057712" y1="504.2087728076963" x2="203.20992231943947" y2="481.8190197930392" style="stroke:black;stroke-width:3" />
<line x1="203.20992231943947" y1="481.8190197930392" x2="270.55728090000866" y2="305.95435963320415" style="stroke:black;stroke-width:3" />
<line x1="203.20992231943947" y1="481.8190197930392" x2="213.18969568833216" y2="458.75712424088135" style="stroke:black;stroke-width:3" />
<line x1="213.18969568833216" y1="458.75712424088135" x2="254.37694101250972" y2="294.19865458735467" style="stroke:black;stroke-width:3" />
<line x1="213.18969568833216" y1="458.75712424088135" x2="221.701707851093" y2="435.1141009169891" style="stroke:black;stroke-width:3" />
<line x1="221.701707851093" y1="435.1141009169891" x2="238.19660112501077" y2="282.4429495415052" style="stroke:black;stroke-width:3" />
<line x1="221.701707851093" y1="435.1141009169891" x2="228.71236578448395" y2="410.98325803295205" style="stroke:black;stroke-width:3" />
<line x1="228.71236578448395" y1="410.98325803295205" x2="222.01626123751183" y2="270.6872444956557" style="stroke:black;stroke-width:3" />
<line x1="228.71236578448395" y1="410.98325803295205" x2="234.19400162450688" y2="386.45982900129997" style="stroke:black;stroke-width:3" />
<line x1="234.19400162450688" y1="386.45982900129997" x2="205.83592135001288" y2="258.9315394498062" style="stroke:black;stroke-width:3" />
<line x1="234.19400162450688" y1="386.45982900129997" x2="238.12498185882245" y2="361.6405965927318" style="stroke:black;stroke-width:3" />
<line x1="238.12498185882245" y1="361.6405965927318" x2="189.65558146251394" y2="247.17583440395677" style="stroke:black;stroke-width:3" />
<line x1="238.12498185882245" y1="361.6405965927318" x2="240.48979270433983" y2="336.62351097873545" style="stroke:black;stroke-width:3" />
<line x1="240.48979270433983" y1="336.62351097873545" x2="173.475241575015" y2="235.42012935810732" style="stroke:black;stroke-width:3" />
<line x1="240.48979270433983" y1="336.62351097873545" x2="241.2791013330311" y2="311.5073031670101" style="stroke:black;stroke-width:3" />
<line x1="241.2791013330311" y1="311.5073031670101" x2="157.29490168751605" y2="223.66442431225786" style="stroke:black;stroke-width:3" />
<line x1="241.2791013330311" y1="311.5073031670101" x2="240.4897927043396" y2="286.39109535528473" style="stroke:black;stroke-width:3" />
<line x1="240.4897927043396" y1="286.39109535528473" x2="141.1145618000171" y2="211.9087192664084" style="stroke:black;stroke-width:3" />
<line x1="240.4897927043396" y1="286.39109535528473" x2="238.124981858822" y2="261.3740097412884" style="stroke:black;stroke-width:3" />
<line x1="238.124981858822" y1="261.3740097412884" x2="124.93422191251815" y2="200.15301422055896" style="stroke:black;stroke-width:3" />
<line x1="238.124981858822" y1="261.3740097412884" x2="234.1940016245062" y2="236.55477733272025" style="stroke:black;stroke-width:3" />
<line x1="234.1940016245062" y1="236.55477733272025" x2="108.75388202501921" y2="188.3973091747095" style="stroke:black;stroke-width:3" />
<line x1="234.1940016245062" y1="236.55477733272025" x2="228.71236578448304" y2="212.03134830106822" style="stroke:black;stroke-width:3" />
<line x1="228.71236578448304" y1="212.03134830106822" x2="92.57354213752026" y2="176.64160412886005" style="stroke:black;stroke-width:3" />
<line x1="228.71236578448304" y1="212.03134830106822" x2="221.7017078510919" y2="187.9005054170312" style="stroke:black;stroke-width:3" />
<line x1="221.7017078510919" y1="187.9005054170312" x2="76.39320225002132" y2="164.8858990830106" style="stroke:black;stroke-width:3" />
<line x1="400" y1="400" x2="523.6067977499789" y2="780.4226065180615" style="stroke:black;stroke-width:3" />
<line x1="523.6067977499789" y1="780.4226065180615" x2="516.5961398165879" y2="756.2917636340244" style="stroke:black;stroke-width:3" />
<line x1="516.5961398165879" y1="756.2917636340244" x2="420.0" y2="400.0" style="stroke:black;stroke-width:3" />
<line x1="516.5961398165879" y1="756.2917636340244" x2="511.11450397656483" y2="731.7683346023723" style="stroke:black;stroke-width:3" />
<line x1="511.11450397656483" y1="731.7683346023723" x2="440.0" y2="400.0" style="stroke:black;stroke-width:3" />
<line x1="511.11450397656483" y1="731.7683346023723" x2="507.1835237422492" y2="706.9491021938042" style="stroke:black;stroke-width:3" />
<line x1="507.1835237422492" y1="706.9491021938042" x2="460.0" y2="400.0" style="stroke:black;stroke-width:3" />
<line x1="507.1835237422492" y1="706.9491021938042" x2="504.81871289673165" y2="681.9320165798079" style="stroke:black;stroke-width:3" />
<line x1="504.81871289673165" y1="681.9320165798079" x2="480.0" y2="400.0" style="stroke:black;stroke-width:3" />
<line x1="504.81871289673165" y1="681.9320165798079" x2="504.02940426804025" y2="656.8158087680825" style="stroke:black;stroke-width:3" />
<line x1="504.02940426804025" y1="656.8158087680825" x2="500.0" y2="400.0" style="stroke:black;stroke-width:3" />
<line x1="504.02940426804025" y1="656.8158087680825" x2="504.8187128967316" y2="631.6996009563572" style="stroke:black;stroke-width:3" />
<line x1="504.8187128967316" y1="631.6996009563572" x2="520.0" y2="400.0" style="stroke:black;stroke-width:3" />
<line x1="504.8187128967316" y1="631.6996009563572" x2="507.18352374224906" y2="606.682515342361" style="stroke:black;stroke-width:3" />
<line x1="507.18352374224906" y1="606.682515342361" x2="540.0" y2="400.0" style="stroke:black;stroke-width:3" />
<line x1="507.18352374224906" y1="606.682515342361" x2="511.1145039765647" y2="581.8632829337928" style="stroke:black;stroke-width:3" />
<line x1="511.1145039765647" y1="581.8632829337928" x2="560.0" y2="400.0" style="stroke:black;stroke-width:3" />
<line x1="511.1145039765647" y1="581.8632829337928" x2="516.5961398165878" y2="557.3398539021407" style="stroke:black;stroke-width:3" />
<line x1="516.5961398165878" y1="557.3398539021407" x2="580.0" y2="400.0" style="stroke:black;stroke-width:3" />
<line x1="516.5961398165878" y1="557.3398539021407" x2="523.6067977499788" y2="533.2090110181036" style="stroke:black;stroke-width:3" />
<line x1="523.6067977499788" y1="533.2090110181036" x2="600.0" y2="400.0" style="stroke:black;stroke-width:3" />
<line x1="523.6067977499788" y1="533.2090110181036" x2="532.1188099127396" y2="509.5659876942114" style="stroke:black;stroke-width:3" />
<line x1="532.1188099127396" y1="509.5659876942114" x2="620.0" y2="400.0" style="stroke:black;stroke-width:3" />
<line x1="532.1188099127396" y1="509.5659876942114" x2="542.0985832816323" y2="486.50409214205354" style="stroke:black;stroke-width:3" />
<line x1="542.0985832816323" y1="486.50409214205354" x2="640.0" y2="400.0" style="stroke:black;stroke-width:3" />
<line x1="542.0985832816323" y1="486.50409214205354" x2="553.5067322504946" y2="464.1143391273965" style="stroke:black;stroke-width:3" />
<line x1="553.5067322504946" y1="464.1143391273965" x2="660.0" y2="400.0" style="stroke:black;stroke-width:3" />
<line x1="553.5067322504946" y1="464.1143391273965" x2="566.2982340672339" y2="442.4850907764839" style="stroke:black;stroke-width:3" />
<line x1="566.2982340672339" y1="442.4850907764839" x2="680.0" y2="400.0" style="stroke:black;stroke-width:3" />
<line x1="566.2982340672339" y1="442.4850907764839" x2="580.422606518061" y2="421.70170785109326" style="stroke:black;stroke-width:3" />
<line x1="580.422606518061" y1="421.70170785109326" x2="700.0" y2="400.0" style="stroke:black;stroke-width:3" />
<line x1="580.422606518061" y1="421.70170785109326" x2="595.8241071577243" y2="401.8462128686066" style="stroke:black;stroke-width:3" />
<line x1="595.8241071577243" y1="401.8462128686066" x2="720.0" y2="400.0" style="stroke:black;stroke-width:3" />
<line x1="595.8241071577243" y1="401.8462128686066" x2="612.4419532994752" y2="382.996966396607" style="stroke:black;stroke-width:3" />
<line x1="612.4419532994752" y1="382.996966396607" x2="740.0" y2="400.0" style="stroke:black;stroke-width:3" />
<line x1="612.4419532994752" y1="382.996966396607" x2="630.2105618965644" y2="365.2283577995178" style="stroke:black;stroke-width:3" />
<line x1="630.2105618965644" y1="365.2283577995178" x2="760.0" y2="400.0" style="stroke:black;stroke-width:3" />
<line x1="630.2105618965644" y1="365.2283577995178" x2="649.059808368564" y2="348.6105116577667" style="stroke:black;stroke-width:3" />
<line x1="649.059808368564" y1="348.6105116577667" x2="780.0" y2="400.0" style="stroke:black;stroke-width:3" />
<line x1="649.059808368564" y1="348.6105116577667" x2="668.9153033510505" y2="333.2090110181034" style="stroke:black;stroke-width:3" />
<line x1="668.9153033510505" y1="333.2090110181034" x2="800.0" y2="400.0" style="stroke:black;stroke-width:3" />
<line x1="400" y1="400" x2="523.6067977499789" y2="780.4226065180615" style="stroke:black;stroke-width:3" />
<line x1="523.6067977499789" y1="780.4226065180615" x2="515.0947855872181" y2="756.7795831941693" style="stroke:black;stroke-width:3" />
<line x1="515.0947855872181" y1="756.7795831941693" x2="383.819660112501" y2="411.7557050458495" style="stroke:black;stroke-width:3" />
<line x1="515.0947855872181" y1="756.7795831941693" x2="505.1150122183254" y2="733.7176876420114" style="stroke:black;stroke-width:3" />
<line x1="505.1150122183254" y1="733.7176876420114" x2="367.63932022500205" y2="423.51141009169896" style="stroke:black;stroke-width:3" />
<line x1="505.1150122183254" y1="733.7176876420114" x2="493.70686324946297" y2="711.3279346273544" style="stroke:black;stroke-width:3" />
<line x1="493.70686324946297" y1="711.3279346273544" x2="351.4589803375031" y2="435.26711513754844" style="stroke:black;stroke-width:3" />
<line x1="493.70686324946297" y1="711.3279346273544" x2="480.91536143272356" y2="689.6986862764418" style="stroke:black;stroke-width:3" />
<line x1="480.91536143272356" y1="689.6986862764418" x2="335.2786404500041" y2="447.0228201833979" style="stroke:black;stroke-width:3" />
<line x1="480.91536143272356" y1="689.6986862764418" x2="466.7909889818965" y2="668.9153033510512" style="stroke:black;stroke-width:3" />
<line x1="466.7909889818965" y1="668.9153033510512" x2="319.09830056250513" y2="458.7785252292474" style="stroke:black;stroke-width:3" />
<line x1="466.7909889818965" y1="668.9153033510512" x2="451.38948834223316" y2="649.0598083685646" style="stroke:black;stroke-width:3" />
<line x1="451.38948834223316" y1="649.0598083685646" x2="302.91796067500616" y2="470.5342302750969" style="stroke:black;stroke-width:3" />
<line x1="451.38948834223316" y1="649.0598083685646" x2="434.77164220048206" y2="630.2105618965651" style="stroke:black;stroke-width:3" />
<line x1="434.77164220048206" y1="630.2105618965651" x2="286.7376207875072" y2="482.28993532094637" style="stroke:black;stroke-width:3" />
<line x1="434.77164220048206" y1="630.2105618965651" x2="417.0030336033929" y2="612.4419532994759" style="stroke:black;stroke-width:3" />
<line x1="417.0030336033929" y1="612.4419532994759" x2="270.5572809000082" y2="494.04564036679585" style="stroke:black;stroke-width:3" />
<line x1="417.0030336033929" y1="612.4419532994759" x2="398.1537871313933" y2="595.8241071577249" style="stroke:black;stroke-width:3" />
<line x1="398.1537871313933" y1="595.8241071577249" x2="254.37694101250926" y2="505.80134541264533" style="stroke:black;stroke-width:3" />
<line x1="398.1537871313933" y1="595.8241071577249" x2="378.2982921489066" y2="580.4226065180617" style="stroke:black;stroke-width:3" />
<line x1="378.2982921489066" y1="580.4226065180617" x2="238.19660112501032" y2="517.5570504584948" style="stroke:black;stroke-width:3" />
<line x1="378.2982921489066" y1="580.4226065180617" x2="357.514909223516" y2="566.2982340672347" style="stroke:black;stroke-width:3" />
<line x1="357.514909223516" y1="566.2982340672347" x2="222.01626123751137" y2="529.3127555043443" style="stroke:black;stroke-width:3" />
<line x1="357.514909223516" y1="566.2982340672347" x2="335.8856608726034" y2="553.5067322504954" style="stroke:black;stroke-width:3" />
<line x1="335.8856608726034" y1="553.5067322504954" x2="205.83592135001243" y2="541.0684605501938" style="stroke:black;stroke-width:3" />
<line x1="335.8856608726034" y1="553.5067322504954" x2="313.4959078579463" y2="542.0985832816331" style="stroke:black;stroke-width:3" />
<line x1="313.4959078579463" y1="542.0985832816331" x2="189.65558146251348" y2="552.8241655960433" style="stroke:black;stroke-width:3" />
<line x1="313.4959078579463" y1="542.0985832816331" x2="290.43401230578837" y2="532.1188099127404" style="stroke:black;stroke-width:3" />
<line x1="290.43401230578837" y1="532.1188099127404" x2="173.47524157501454" y2="564.5798706418927" style="stroke:black;stroke-width:3" />
<line x1="290.43401230578837" y1="532.1188099127404" x2="266.79098898189613" y2="523.6067977499796" style="stroke:black;stroke-width:3" />
<line x1="266.79098898189613" y1="523.6067977499796" x2="157.2949016875156" y2="576.3355756877422" style="stroke:black;stroke-width:3" />
<line x1="266.79098898189613" y1="523.6067977499796" x2="242.66014609785904" y2="516.5961398165887" style="stroke:black;stroke-width:3" />
<line x1="242.66014609785904" y1="516.5961398165887" x2="141.11456180001665" y2="588.0912807335917" style="stroke:black;stroke-width:3" />
<line x1="242.66014609785904" y1="516.5961398165887" x2="218.13671706620696" y2="511.1145039765658" style="stroke:black;stroke-width:3" />
<line x1="218.13671706620696" y1="511.1145039765658" x2="124.9342219125177" y2="599.8469857794412" style="stroke:black;stroke-width:3" />
<line x1="218.13671706620696" y1="511.1145039765658" x2="193.31748465763877" y2="507.18352374225026" style="stroke:black;stroke-width:3" />
<line x1="193.31748465763877" y1="507.18352374225026" x2="108.75388202501875" y2="611.6026908252907" style="stroke:black;stroke-width:3" />
<line x1="193.31748465763877" y1="507.18352374225026" x2="168.30039904364241" y2="504.8187128967329" style="stroke:black;stroke-width:3" />
<line x1="168.30039904364241" y1="504.8187128967329" x2="92.57354213751981" y2="623.3583958711401" style="stroke:black;stroke-width:3" />
<line x1="168.30039904364241" y1="504.8187128967329" x2="143.18419123191705" y2="504.02940426804173" style="stroke:black;stroke-width:3" />
<line x1="143.18419123191705" y1="504.02940426804173" x2="76.39320225002086" y2="635.1141009169896" style="stroke:black;stroke-width:3" />
</svg>
