<?xml version="1.0" encoding="UTF-8" ?><svg xmlns="http://www.w3.org/2000/svg" version="1.1">
<line x1="400" y1="400" x2="800.0" y2="400.0" style="stroke:black;stroke-width:3" />
<line x1="800.0" y1="400.0" x2="779.0656175028224" y2="399.45181390182955" style="stroke:black;stroke-width:3" />
<line x1="779.0656175028224" y1="399.45181390182955" x2="410.0" y2="382.6794919243112" style="stroke:black;stroke-width:3" />
<line x1="779.0656175028224" y1="399.45181390182955" x2="758.1886146929386" y2="397.80875814730933" style="stroke:black;stroke-width:3" />
<line x1="758.1886146929386" y1="397.80875814730933" x2="420.0" y2="365.3589838486224" style="stroke:black;stroke-width:3" />
<line x1="758.1886146929386" y1="397.80875814730933" x2="737.4262139839076" y2="395.0753362380551" style="stroke:black;stroke-width:3" />
<line x1="737.4262139839076" y1="395.0753362380551" x2="430.0" y2="348.0384757729336" style="stroke:black;stroke-width:3" />
<line x1="737.4262139839076" y1="395.0753362380551" x2="716.8353236728962" y2="391.2590402935223" style="stroke:black;stroke-width:3" />
<line x1="716.8353236728962" y1="391.2590402935223" x2="440.0" y2="330.71796769724483" style="stroke:black;stroke-width:3" />
<line x1="716.8353236728962" y1="391.2590402935223" x2="696.4723819589916" y2="386.3703305156273" style="stroke:black;stroke-width:3" />
<line x1="696.4723819589916" y1="386.3703305156273" x2="450.0" y2="313.39745962155604" style="stroke:black;stroke-width:3" />
<line x1="696.4723819589916" y1="386.3703305156273" x2="676.393202250021" y2="380.4226065180614" style="stroke:black;stroke-width:3" />
<line x1="676.393202250021" y1="380.4226065180614" x2="460.0" y2="296.07695154586725" style="stroke:black;stroke-width:3" />
<line x1="676.393202250021" y1="380.4226065180614" x2="656.6528201818799" y2="373.4321705988807" style="stroke:black;stroke-width:3" />
<line x1="656.6528201818799" y1="373.4321705988807" x2="470.0" y2="278.75644347017845" style="stroke:black;stroke-width:3" />
<line x1="656.6528201818799" y1="373.4321705988807" x2="637.3053427696799" y2="365.4181830570404" style="stroke:black;stroke-width:3" />
<line x1="637.3053427696799" y1="365.4181830570404" x2="480.0" y2="261.43593539448966" style="stroke:black;stroke-width:3" />
<line x1="637.3053427696799" y1="365.4181830570404" x2="618.4038001041813" y2="356.40260967534715" style="stroke:black;stroke-width:3" />
<line x1="618.4038001041813" y1="356.40260967534715" x2="490.0" y2="244.1154273188009" style="stroke:black;stroke-width:3" />
<line x1="618.4038001041813" y1="356.40260967534715" x2="600.0" y2="346.41016151377545" style="stroke:black;stroke-width:3" />
<line x1="600.0" y1="346.41016151377545" x2="500.0" y2="226.79491924311213" style="stroke:black;stroke-width:3" />
<line x1="600.0" y1="346.41016151377545" x2="582.1443859939892" y2="335.4682271781696" style="stroke:black;stroke-width:3" />
<line x1="582.1443859939892" y1="335.4682271781696" x2="510.0" y2="209.47441116742337" style="stroke:black;stroke-width:3" />
<line x1="582.1443859939892" y1="335.4682271781696" x2="564.8858990830108" y2="323.60679774997897" style="stroke:black;stroke-width:3" />
<line x1="564.8858990830108" y1="323.60679774997897" x2="520.0" y2="192.1539030917346" style="stroke:black;stroke-width:3" />
<line x1="564.8858990830108" y1="323.60679774997897" x2="548.2718435800651" y2="310.85838458278835" style="stroke:black;stroke-width:3" />
<line x1="548.2718435800651" y1="310.85838458278835" x2="530.0" y2="174.83339501604584" style="stroke:black;stroke-width:3" />
<line x1="548.2718435800651" y1="310.85838458278835" x2="532.3477574564569" y2="297.2579301909577" style="stroke:black;stroke-width:3" />
<line x1="532.3477574564569" y1="297.2579301909577" x2="540.0" y2="157.51288694035708" style="stroke:black;stroke-width:3" />
<line x1="532.3477574564569" y1="297.2579301909577" x2="517.1572875253811" y2="282.842712474619" style="stroke:black;stroke-width:3" />
<line x1="517.1572875253811" y1="282.842712474619" x2="550.0" y2="140.1923788646683" style="stroke:black;stroke-width:3" />
<line x1="517.1572875253811" y1="282.842712474619" x2="502.7420698090424" y2="267.6522425435433" style="stroke:black;stroke-width:3" />
<line x1="502.7420698090424" y1="267.6522425435433" x2="560.0" y2="122.87187078897955" style="stroke:black;stroke-width:3" />
<line x1="502.7420698090424" y1="267.6522425435433" x2="489.1416154172117" y2="251.728156419935" style="stroke:black;stroke-width:3" />
<line x1="489.1416154172117" y1="251.728156419935" x2="570.0" y2="105.55136271329079" style="stroke:black;stroke-width:3" />
<line x1="489.1416154172117" y1="251.728156419935" x2="476.3932022500211" y2="235.1141009169893" style="stroke:black;stroke-width:3" />
<line x1="476.3932022500211" y1="235.1141009169893" x2="580.0" y2="88.23085463760202" style="stroke:black;stroke-width:3" />
<line x1="476.3932022500211" y1="235.1141009169893" x2="464.53177282183043" y2="217.85561400601088" style="stroke:black;stroke-width:3" />
<line x1="464.53177282183043" y1="217.85561400601088" x2="590.0" y2="70.91034656191326" style="stroke:black;stroke-width:3" />
<line x1="464.53177282183043" y1="217.85561400601088" x2="453.5898384862246" y2="200.00000000000006" style="stroke:black;stroke-width:3" />
<line x1="453.5898384862246" y1="200.00000000000006" x2="600.0" y2="53.58983848622449" style="stroke:black;stroke-width:3" />
<line x1="400" y1="400" x2="800.0" y2="400.0" style="stroke:black;stroke-width:3" />
<line x1="800.0" y1="400.0" x2="779.0656175028224" y2="400.54818609817045" style="stroke:black;stroke-width:3" />
<line x1="779.0656175028224" y1="400.54818609817045" x2="410.0" y2="417.3205080756888" style="stroke:black;stroke-width:3" />
<line x1="779.0656175028224" y1="400.54818609817045" x2="758.1886146929386" y2="402.19124185269067" style="stroke:black;stroke-width:3" />
<line x1="758.1886146929386" y1="402.19124185269067" x2="420.0" y2="434.6410161513776" style="stroke:black;stroke-width:3" />
<line x1="758.1886146929386" y1="402.19124185269067" x2="737.4262139839076" y2="404.9246637619449" style="stroke:black;stroke-width:3" />
<line x1="737.4262139839076" y1="404.9246637619449" x2="430.0" y2="451.9615242270664" style="stroke:black;stroke-width:3" />
<line x1="737.4262139839076" y1="404.9246637619449" x2="716.8353236728962" y2="408.7409597064777" style="stroke:black;stroke-width:3" />
<line x1="716.8353236728962" y1="408.7409597064777" x2="440.0" y2="469.28203230275517" style="stroke:black;stroke-width:3" />
<line x1="716.8353236728962" y1="408.7409597064777" x2="696.4723819589916" y2="413.6296694843727" style="stroke:black;stroke-width:3" />
<line x1="696.4723819589916" y1="413.6296694843727" x2="450.0" y2="486.60254037844396" style="stroke:black;stroke-width:3" />
<line x1="696.4723819589916" y1="413.6296694843727" x2="676.393202250021" y2="419.5773934819386" style="stroke:black;stroke-width:3" />
<line x1="676.393202250021" y1="419.5773934819386" x2="460.0" y2="503.92304845413275" style="stroke:black;stroke-width:3" />
<line x1="676.393202250021" y1="419.5773934819386" x2="656.6528201818799" y2="426.5678294011193" style="stroke:black;stroke-width:3" />
<line x1="656.6528201818799" y1="426.5678294011193" x2="470.0" y2="521.2435565298215" style="stroke:black;stroke-width:3" />
<line x1="656.6528201818799" y1="426.5678294011193" x2="637.3053427696799" y2="434.5818169429596" style="stroke:black;stroke-width:3" />
<line x1="637.3053427696799" y1="434.5818169429596" x2="480.0" y2="538.5640646055102" style="stroke:black;stroke-width:3" />
<line x1="637.3053427696799" y1="434.5818169429596" x2="618.4038001041813" y2="443.59739032465285" style="stroke:black;stroke-width:3" />
<line x1="618.4038001041813" y1="443.59739032465285" x2="490.0" y2="555.884572681199" style="stroke:black;stroke-width:3" />
<line x1="618.4038001041813" y1="443.59739032465285" x2="600.0" y2="453.58983848622455" style="stroke:black;stroke-width:3" />
<line x1="600.0" y1="453.58983848622455" x2="500.0" y2="573.2050807568877" style="stroke:black;stroke-width:3" />
<line x1="600.0" y1="453.58983848622455" x2="582.1443859939892" y2="464.5317728218304" style="stroke:black;stroke-width:3" />
<line x1="582.1443859939892" y1="464.5317728218304" x2="510.0" y2="590.5255888325764" style="stroke:black;stroke-width:3" />
<line x1="582.1443859939892" y1="464.5317728218304" x2="564.8858990830108" y2="476.39320225002103" style="stroke:black;stroke-width:3" />
<line x1="564.8858990830108" y1="476.39320225002103" x2="520.0" y2="607.8460969082652" style="stroke:black;stroke-width:3" />
<line x1="564.8858990830108" y1="476.39320225002103" x2="548.2718435800651" y2="489.14161541721165" style="stroke:black;stroke-width:3" />
<line x1="548.2718435800651" y1="489.14161541721165" x2="530.0" y2="625.1666049839539" style="stroke:black;stroke-width:3" />
<line x1="548.2718435800651" y1="489.14161541721165" x2="532.3477574564569" y2="502.7420698090423" style="stroke:black;stroke-width:3" />
<line x1="532.3477574564569" y1="502.7420698090423" x2="540.0" y2="642.4871130596426" style="stroke:black;stroke-width:3" />
<line x1="532.3477574564569" y1="502.7420698090423" x2="517.1572875253811" y2="517.157287525381" style="stroke:black;stroke-width:3" />
<line x1="517.1572875253811" y1="517.157287525381" x2="550.0" y2="659.8076211353314" style="stroke:black;stroke-width:3" />
<line x1="517.1572875253811" y1="517.157287525381" x2="502.7420698090424" y2="532.3477574564567" style="stroke:black;stroke-width:3" />
<line x1="502.7420698090424" y1="532.3477574564567" x2="560.0" y2="677.1281292110201" style="stroke:black;stroke-width:3" />
<line x1="502.7420698090424" y1="532.3477574564567" x2="489.1416154172117" y2="548.271843580065" style="stroke:black;stroke-width:3" />
<line x1="489.1416154172117" y1="548.271843580065" x2="570.0" y2="694.4486372867088" style="stroke:black;stroke-width:3" />
<line x1="489.1416154172117" y1="548.271843580065" x2="476.3932022500211" y2="564.8858990830107" style="stroke:black;stroke-width:3" />
<line x1="476.3932022500211" y1="564.8858990830107" x2="580.0" y2="711.7691453623976" style="stroke:black;stroke-width:3" />
<line x1="476.3932022500211" y1="564.8858990830107" x2="464.53177282183043" y2="582.1443859939891" style="stroke:black;stroke-width:3" />
<line x1="464.53177282183043" y1="582.1443859939891" x2="590.0" y2="729.0896534380863" style="stroke:black;stroke-width:3" />
<line x1="464.53177282183043" y1="582.1443859939891" x2="453.5898384862246" y2="599.9999999999999" style="stroke:black;stroke-width:3" />
<line x1="453.5898384862246" y1="599.9999999999999" x2="600.0" y2="746.410161513775" style="stroke:black;stroke-width:3" />
<line x1="400" y1="400" x2="600.0" y2="53.58983848622455" style="stroke:black;stroke-width:3" />
<line x1="600.0" y1="53.58983848622455" x2="589.0580656643941" y2="71.44545249223538" style="stroke:black;stroke-width:3" />
<line x1="589.0580656643941" y1="71.44545249223538" x2="390.0" y2="382.6794919243112" style="stroke:black;stroke-width:3" />
<line x1="589.0580656643941" y1="71.44545249223538" x2="577.1966362362035" y2="88.7039394032138" style="stroke:black;stroke-width:3" />
<line x1="577.1966362362035" y1="88.7039394032138" x2="380.0" y2="365.3589838486224" style="stroke:black;stroke-width:3" />
<line x1="577.1966362362035" y1="88.7039394032138" x2="564.4482230690129" y2="105.31799490615953" style="stroke:black;stroke-width:3" />
<line x1="564.4482230690129" y1="105.31799490615953" x2="370.0" y2="348.0384757729336" style="stroke:black;stroke-width:3" />
<line x1="564.4482230690129" y1="105.31799490615953" x2="550.8477686771822" y2="121.24208102976783" style="stroke:black;stroke-width:3" />
<line x1="550.8477686771822" y1="121.24208102976783" x2="360.0" y2="330.71796769724483" style="stroke:black;stroke-width:3" />
<line x1="550.8477686771822" y1="121.24208102976783" x2="536.4325509608435" y2="136.43255096084357" style="stroke:black;stroke-width:3" />
<line x1="536.4325509608435" y1="136.43255096084357" x2="350.0" y2="313.39745962155604" style="stroke:black;stroke-width:3" />
<line x1="536.4325509608435" y1="136.43255096084357" x2="521.2420810297677" y2="150.84776867718224" style="stroke:black;stroke-width:3" />
<line x1="521.2420810297677" y1="150.84776867718224" x2="340.0" y2="296.07695154586725" style="stroke:black;stroke-width:3" />
<line x1="521.2420810297677" y1="150.84776867718224" x2="505.31799490615947" y2="164.4482230690129" style="stroke:black;stroke-width:3" />
<line x1="505.31799490615947" y1="164.4482230690129" x2="330.0" y2="278.75644347017845" style="stroke:black;stroke-width:3" />
<line x1="505.31799490615947" y1="164.4482230690129" x2="488.7039394032137" y2="177.19663623620352" style="stroke:black;stroke-width:3" />
<line x1="488.7039394032137" y1="177.19663623620352" x2="320.0" y2="261.43593539448966" style="stroke:black;stroke-width:3" />
<line x1="488.7039394032137" y1="177.19663623620352" x2="471.4454524922353" y2="189.05806566439418" style="stroke:black;stroke-width:3" />
<line x1="471.4454524922353" y1="189.05806566439418" x2="310.0" y2="244.1154273188009" style="stroke:black;stroke-width:3" />
<line x1="471.4454524922353" y1="189.05806566439418" x2="453.58983848622444" y2="200.00000000000003" style="stroke:black;stroke-width:3" />
<line x1="453.58983848622444" y1="200.00000000000003" x2="300.0" y2="226.79491924311213" style="stroke:black;stroke-width:3" />
<line x1="453.58983848622444" y1="200.00000000000003" x2="435.18603838204314" y2="209.99244816157173" style="stroke:black;stroke-width:3" />
<line x1="435.18603838204314" y1="209.99244816157173" x2="290.0" y2="209.47441116742337" style="stroke:black;stroke-width:3" />
<line x1="435.18603838204314" y1="209.99244816157173" x2="416.2844957165445" y2="219.00802154326493" style="stroke:black;stroke-width:3" />
<line x1="416.2844957165445" y1="219.00802154326493" x2="280.0" y2="192.1539030917346" style="stroke:black;stroke-width:3" />
<line x1="416.2844957165445" y1="219.00802154326493" x2="396.9370183043445" y2="227.02200908510528" style="stroke:black;stroke-width:3" />
<line x1="396.9370183043445" y1="227.02200908510528" x2="270.0" y2="174.83339501604584" style="stroke:black;stroke-width:3" />
<line x1="396.9370183043445" y1="227.02200908510528" x2="377.1966362362034" y2="234.012445004286" style="stroke:black;stroke-width:3" />
<line x1="377.1966362362034" y1="234.012445004286" x2="260.0" y2="157.51288694035708" style="stroke:black;stroke-width:3" />
<line x1="377.1966362362034" y1="234.012445004286" x2="357.1174565272327" y2="239.96016900185188" style="stroke:black;stroke-width:3" />
<line x1="357.1174565272327" y1="239.96016900185188" x2="250.0" y2="140.1923788646683" style="stroke:black;stroke-width:3" />
<line x1="357.1174565272327" y1="239.96016900185188" x2="336.75451481332817" y2="244.84887877974683" style="stroke:black;stroke-width:3" />
<line x1="336.75451481332817" y1="244.84887877974683" x2="240.0" y2="122.87187078897954" style="stroke:black;stroke-width:3" />
<line x1="336.75451481332817" y1="244.84887877974683" x2="316.1636245023168" y2="248.66517472427967" style="stroke:black;stroke-width:3" />
<line x1="316.1636245023168" y1="248.66517472427967" x2="230.0" y2="105.55136271329076" style="stroke:black;stroke-width:3" />
<line x1="316.1636245023168" y1="248.66517472427967" x2="295.40122379328585" y2="251.3985966335339" style="stroke:black;stroke-width:3" />
<line x1="295.40122379328585" y1="251.3985966335339" x2="220.0" y2="88.23085463760198" style="stroke:black;stroke-width:3" />
<line x1="295.40122379328585" y1="251.3985966335339" x2="274.524220983402" y2="253.04165238805413" style="stroke:black;stroke-width:3" />
<line x1="274.524220983402" y1="253.04165238805413" x2="210.0" y2="70.9103465619132" style="stroke:black;stroke-width:3" />
<line x1="274.524220983402" y1="253.04165238805413" x2="253.5898384862245" y2="253.58983848622458" style="stroke:black;stroke-width:3" />
<line x1="253.5898384862245" y1="253.58983848622458" x2="200.0" y2="53.58983848622442" style="stroke:black;stroke-width:3" />
<line x1="400" y1="400" x2="600.0" y2="53.58983848622455" style="stroke:black;stroke-width:3" />
<line x1="600.0" y1="53.58983848622455" x2="590.0075518384283" y2="71.99363859040582" style="stroke:black;stroke-width:3" />
<line x1="590.0075518384283" y1="71.99363859040582" x2="420.0" y2="400.0" style="stroke:black;stroke-width:3" />
<line x1="590.0075518384283" y1="71.99363859040582" x2="580.9919784567351" y2="90.89518125590445" style="stroke:black;stroke-width:3" />
<line x1="580.9919784567351" y1="90.89518125590445" x2="440.0" y2="400.0" style="stroke:black;stroke-width:3" />
<line x1="580.9919784567351" y1="90.89518125590445" x2="572.9779909148947" y2="110.24265866810441" style="stroke:black;stroke-width:3" />
<line x1="572.9779909148947" y1="110.24265866810441" x2="460.0" y2="400.0" style="stroke:black;stroke-width:3" />
<line x1="572.9779909148947" y1="110.24265866810441" x2="565.9875549957139" y2="129.98304073624556" style="stroke:black;stroke-width:3" />
<line x1="565.9875549957139" y1="129.98304073624556" x2="480.0" y2="400.0" style="stroke:black;stroke-width:3" />
<line x1="565.9875549957139" y1="129.98304073624556" x2="560.0398309981481" y2="150.0622204452162" style="stroke:black;stroke-width:3" />
<line x1="560.0398309981481" y1="150.0622204452162" x2="500.0" y2="400.0" style="stroke:black;stroke-width:3" />
<line x1="560.0398309981481" y1="150.0622204452162" x2="555.1511212202531" y2="170.4251621591208" style="stroke:black;stroke-width:3" />
<line x1="555.1511212202531" y1="170.4251621591208" x2="520.0" y2="400.0" style="stroke:black;stroke-width:3" />
<line x1="555.1511212202531" y1="170.4251621591208" x2="551.3348252757203" y2="191.01605247013217" style="stroke:black;stroke-width:3" />
<line x1="551.3348252757203" y1="191.01605247013217" x2="540.0" y2="400.0" style="stroke:black;stroke-width:3" />
<line x1="551.3348252757203" y1="191.01605247013217" x2="548.601403366466" y2="211.7784531791631" style="stroke:black;stroke-width:3" />
<line x1="548.601403366466" y1="211.7784531791631" x2="560.0" y2="400.0" style="stroke:black;stroke-width:3" />
<line x1="548.601403366466" y1="211.7784531791631" x2="546.9583476119458" y2="232.65545598904697" style="stroke:black;stroke-width:3" />
<line x1="546.9583476119458" y1="232.65545598904697" x2="580.0" y2="400.0" style="stroke:black;stroke-width:3" />
<line x1="546.9583476119458" y1="232.65545598904697" x2="546.4101615137753" y2="253.5898384862245" style="stroke:black;stroke-width:3" />
<line x1="546.4101615137753" y1="253.5898384862245" x2="600.0" y2="400.0" style="stroke:black;stroke-width:3" />
<line x1="546.4101615137753" y1="253.5898384862245" x2="546.9583476119458" y2="274.524220983402" style="stroke:black;stroke-width:3" />
<line x1="546.9583476119458" y1="274.524220983402" x2="620.0" y2="400.0" style="stroke:black;stroke-width:3" />
<line x1="546.9583476119458" y1="274.524220983402" x2="548.601403366466" y2="295.40122379328585" style="stroke:black;stroke-width:3" />
<line x1="548.601403366466" y1="295.40122379328585" x2="640.0" y2="400.0" style="stroke:black;stroke-width:3" />
<line x1="548.601403366466" y1="295.40122379328585" x2="551.3348252757203" y2="316.1636245023168" style="stroke:black;stroke-width:3" />
<line x1="551.3348252757203" y1="316.1636245023168" x2="660.0" y2="400.0" style="stroke:black;stroke-width:3" />
<line x1="551.3348252757203" y1="316.1636245023168" x2="555.1511212202531" y2="336.75451481332817" style="stroke:black;stroke-width:3" />
<line x1="555.1511212202531" y1="336.75451481332817" x2="680.0" y2="400.0" style="stroke:black;stroke-width:3" />
<line x1="555.1511212202531" y1="336.75451481332817" x2="560.0398309981481" y2="357.1174565272327" style="stroke:black;stroke-width:3" />
<line x1="560.0398309981481" y1="357.1174565272327" x2="700.0" y2="400.0" style="stroke:black;stroke-width:3" />
<line x1="560.0398309981481" y1="357.1174565272327" x2="565.9875549957139" y2="377.1966362362034" style="stroke:black;stroke-width:3" />
<line x1="565.9875549957139" y1="377.1966362362034" x2="720.0" y2="400.0" style="stroke:black;stroke-width:3" />
<line x1="565.9875549957139" y1="377.1966362362034" x2="572.9779909148947" y2="396.9370183043445" style="stroke:black;stroke-width:3" />
<line x1="572.9779909148947" y1="396.9370183043445" x2="740.0" y2="400.0" style="stroke:black;stroke-width:3" />
<line x1="572.9779909148947" y1="396.9370183043445" x2="580.9919784567351" y2="416.2844957165445" style="stroke:black;stroke-width:3" />
<line x1="580.9919784567351" y1="416.2844957165445" x2="760.0" y2="400.0" style="stroke:black;stroke-width:3" />
<line x1="580.9919784567351" y1="416.2844957165445" x2="590.0075518384283" y2="435.18603838204314" style="stroke:black;stroke-width:3" />
<line x1="590.0075518384283" y1="435.18603838204314" x2="780.0" y2="400.0" style="stroke:black;stroke-width:3" />
<line x1="590.0075518384283" y1="435.18603838204314" x2="600.0" y2="453.58983848622444" style="stroke:black;stroke-width:3" />
<line x1="600.0" y1="453.58983848622444" x2="800.0" y2="400.0" style="stroke:black;stroke-width:3" />
<line x1="400" y1="400" x2="200.00000000000009" y2="53.589838486224494" style="stroke:black;stroke-width:3" />
<line x1="200.00000000000009" y1="53.589838486224494" x2="209.99244816157176" y2="71.99363859040577" style="stroke:black;stroke-width:3" />
<line x1="209.99244816157176" y1="71.99363859040577" x2="380.0" y2="400.0" style="stroke:black;stroke-width:3" />
<line x1="209.99244816157176" y1="71.99363859040577" x2="219.00802154326496" y2="90.89518125590439" style="stroke:black;stroke-width:3" />
<line x1="219.00802154326496" y1="90.89518125590439" x2="360.0" y2="400.0" style="stroke:black;stroke-width:3" />
<line x1="219.00802154326496" y1="90.89518125590439" x2="227.0220090851053" y2="110.24265866810435" style="stroke:black;stroke-width:3" />
<line x1="227.0220090851053" y1="110.24265866810435" x2="340.0" y2="400.0" style="stroke:black;stroke-width:3" />
<line x1="227.0220090851053" y1="110.24265866810435" x2="234.01244500428604" y2="129.9830407362455" style="stroke:black;stroke-width:3" />
<line x1="234.01244500428604" y1="129.9830407362455" x2="320.0" y2="400.0" style="stroke:black;stroke-width:3" />
<line x1="234.01244500428604" y1="129.9830407362455" x2="239.9601690018519" y2="150.06222044521616" style="stroke:black;stroke-width:3" />
<line x1="239.9601690018519" y1="150.06222044521616" x2="300.0" y2="400.0" style="stroke:black;stroke-width:3" />
<line x1="239.9601690018519" y1="150.06222044521616" x2="244.84887877974685" y2="170.42516215912073" style="stroke:black;stroke-width:3" />
<line x1="244.84887877974685" y1="170.42516215912073" x2="280.0" y2="400.0" style="stroke:black;stroke-width:3" />
<line x1="244.84887877974685" y1="170.42516215912073" x2="248.6651747242797" y2="191.0160524701321" style="stroke:black;stroke-width:3" />
<line x1="248.6651747242797" y1="191.0160524701321" x2="260.0" y2="400.0" style="stroke:black;stroke-width:3" />
<line x1="248.6651747242797" y1="191.0160524701321" x2="251.39859663353394" y2="211.77845317916305" style="stroke:black;stroke-width:3" />
<line x1="251.39859663353394" y1="211.77845317916305" x2="240.0" y2="400.0" style="stroke:black;stroke-width:3" />
<line x1="251.39859663353394" y1="211.77845317916305" x2="253.04165238805416" y2="232.6554559890469" style="stroke:black;stroke-width:3" />
<line x1="253.04165238805416" y1="232.6554559890469" x2="220.0" y2="400.0" style="stroke:black;stroke-width:3" />
<line x1="253.04165238805416" y1="232.6554559890469" x2="253.5898384862246" y2="253.58983848622444" style="stroke:black;stroke-width:3" />
<line x1="253.5898384862246" y1="253.58983848622444" x2="200.0" y2="400.0" style="stroke:black;stroke-width:3" />
<line x1="253.5898384862246" y1="253.58983848622444" x2="253.04165238805416" y2="274.52422098340196" style="stroke:black;stroke-width:3" />
<line x1="253.04165238805416" y1="274.52422098340196" x2="180.0" y2="400.0" style="stroke:black;stroke-width:3" />
<line x1="253.04165238805416" y1="274.52422098340196" x2="251.39859663353394" y2="295.4012237932858" style="stroke:black;stroke-width:3" />
<line x1="251.39859663353394" y1="295.4012237932858" x2="160.0" y2="400.0" style="stroke:black;stroke-width:3" />
<line x1="251.39859663353394" y1="295.4012237932858" x2="248.6651747242797" y2="316.16362450231674" style="stroke:black;stroke-width:3" />
<line x1="248.6651747242797" y1="316.16362450231674" x2="140.0" y2="400.0" style="stroke:black;stroke-width:3" />
<line x1="248.6651747242797" y1="316.16362450231674" x2="244.84887877974685" y2="336.7545148133281" style="stroke:black;stroke-width:3" />
<line x1="244.84887877974685" y1="336.7545148133281" x2="120.0" y2="400.0" style="stroke:black;stroke-width:3" />
<line x1="244.84887877974685" y1="336.7545148133281" x2="239.9601690018519" y2="357.11745652723266" style="stroke:black;stroke-width:3" />
<line x1="239.9601690018519" y1="357.11745652723266" x2="100.0" y2="400.0" style="stroke:black;stroke-width:3" />
<line x1="239.9601690018519" y1="357.11745652723266" x2="234.01244500428604" y2="377.19663623620335" style="stroke:black;stroke-width:3" />
<line x1="234.01244500428604" y1="377.19663623620335" x2="80.0" y2="400.0" style="stroke:black;stroke-width:3" />
<line x1="234.01244500428604" y1="377.19663623620335" x2="227.0220090851053" y2="396.93701830434446" style="stroke:black;stroke-width:3" />
<line x1="227.0220090851053" y1="396.93701830434446" x2="60.0" y2="400.0" style="stroke:black;stroke-width:3" />
<line x1="227.0220090851053" y1="396.93701830434446" x2="219.00802154326496" y2="416.2844957165444" style="stroke:black;stroke-width:3" />
<line x1="219.00802154326496" y1="416.2844957165444" x2="40.0" y2="400.0" style="stroke:black;stroke-width:3" />
<line x1="219.00802154326496" y1="416.2844957165444" x2="209.99244816157176" y2="435.1860383820431" style="stroke:black;stroke-width:3" />
<line x1="209.99244816157176" y1="435.1860383820431" x2="20.0" y2="400.0" style="stroke:black;stroke-width:3" />
<line x1="209.99244816157176" y1="435.1860383820431" x2="200.00000000000009" y2="453.5898384862244" style="stroke:black;stroke-width:3" />
<line x1="200.00000000000009" y1="453.5898384862244" x2="0.0" y2="400.0" style="stroke:black;stroke-width:3" />
<line x1="400" y1="400" x2="200.00000000000009" y2="53.589838486224494" style="stroke:black;stroke-width:3" />
<line x1="200.00000000000009" y1="53.589838486224494" x2="210.94193433560594" y2="71.44545249223532" style="stroke:black;stroke-width:3" />
<line x1="210.94193433560594" y1="71.44545249223532" x2="410.0" y2="382.6794919243112" style="stroke:black;stroke-width:3" />
<line x1="210.94193433560594" y1="71.44545249223532" x2="222.80336376379657" y2="88.70393940321374" style="stroke:black;stroke-width:3" />
<line x1="222.80336376379657" y1="88.70393940321374" x2="420.0" y2="365.3589838486224" style="stroke:black;stroke-width:3" />
<line x1="222.80336376379657" y1="88.70393940321374" x2="235.5517769309872" y2="105.31799490615947" style="stroke:black;stroke-width:3" />
<line x1="235.5517769309872" y1="105.31799490615947" x2="430.0" y2="348.0384757729336" style="stroke:black;stroke-width:3" />
<line x1="235.5517769309872" y1="105.31799490615947" x2="249.15223132281784" y2="121.24208102976777" style="stroke:black;stroke-width:3" />
<line x1="249.15223132281784" y1="121.24208102976777" x2="440.0" y2="330.71796769724483" style="stroke:black;stroke-width:3" />
<line x1="249.15223132281784" y1="121.24208102976777" x2="263.56744903915654" y2="136.4325509608435" style="stroke:black;stroke-width:3" />
<line x1="263.56744903915654" y1="136.4325509608435" x2="450.0" y2="313.39745962155604" style="stroke:black;stroke-width:3" />
<line x1="263.56744903915654" y1="136.4325509608435" x2="278.75791897023225" y2="150.8477686771822" style="stroke:black;stroke-width:3" />
<line x1="278.75791897023225" y1="150.8477686771822" x2="460.0" y2="296.07695154586725" style="stroke:black;stroke-width:3" />
<line x1="278.75791897023225" y1="150.8477686771822" x2="294.68200509384053" y2="164.44822306901284" style="stroke:black;stroke-width:3" />
<line x1="294.68200509384053" y1="164.44822306901284" x2="470.0" y2="278.75644347017845" style="stroke:black;stroke-width:3" />
<line x1="294.68200509384053" y1="164.44822306901284" x2="311.2960605967863" y2="177.19663623620346" style="stroke:black;stroke-width:3" />
<line x1="311.2960605967863" y1="177.19663623620346" x2="480.0" y2="261.43593539448966" style="stroke:black;stroke-width:3" />
<line x1="311.2960605967863" y1="177.19663623620346" x2="328.5545475077647" y2="189.0580656643941" style="stroke:black;stroke-width:3" />
<line x1="328.5545475077647" y1="189.0580656643941" x2="490.0" y2="244.1154273188009" style="stroke:black;stroke-width:3" />
<line x1="328.5545475077647" y1="189.0580656643941" x2="346.41016151377556" y2="199.99999999999994" style="stroke:black;stroke-width:3" />
<line x1="346.41016151377556" y1="199.99999999999994" x2="500.0" y2="226.79491924311213" style="stroke:black;stroke-width:3" />
<line x1="346.41016151377556" y1="199.99999999999994" x2="364.81396161795686" y2="209.99244816157164" style="stroke:black;stroke-width:3" />
<line x1="364.81396161795686" y1="209.99244816157164" x2="510.0" y2="209.47441116742337" style="stroke:black;stroke-width:3" />
<line x1="364.81396161795686" y1="209.99244816157164" x2="383.7155042834555" y2="219.00802154326485" style="stroke:black;stroke-width:3" />
<line x1="383.7155042834555" y1="219.00802154326485" x2="520.0" y2="192.1539030917346" style="stroke:black;stroke-width:3" />
<line x1="383.7155042834555" y1="219.00802154326485" x2="403.0629816956555" y2="227.02200908510517" style="stroke:black;stroke-width:3" />
<line x1="403.0629816956555" y1="227.02200908510517" x2="530.0" y2="174.83339501604584" style="stroke:black;stroke-width:3" />
<line x1="403.0629816956555" y1="227.02200908510517" x2="422.8033637637966" y2="234.0124450042859" style="stroke:black;stroke-width:3" />
<line x1="422.8033637637966" y1="234.0124450042859" x2="540.0" y2="157.51288694035708" style="stroke:black;stroke-width:3" />
<line x1="422.8033637637966" y1="234.0124450042859" x2="442.8825434727673" y2="239.96016900185177" style="stroke:black;stroke-width:3" />
<line x1="442.8825434727673" y1="239.96016900185177" x2="550.0" y2="140.1923788646683" style="stroke:black;stroke-width:3" />
<line x1="442.8825434727673" y1="239.96016900185177" x2="463.24548518667183" y2="244.8488787797467" style="stroke:black;stroke-width:3" />
<line x1="463.24548518667183" y1="244.8488787797467" x2="560.0" y2="122.87187078897955" style="stroke:black;stroke-width:3" />
<line x1="463.24548518667183" y1="244.8488787797467" x2="483.8363754976832" y2="248.66517472427955" style="stroke:black;stroke-width:3" />
<line x1="483.8363754976832" y1="248.66517472427955" x2="570.0" y2="105.55136271329079" style="stroke:black;stroke-width:3" />
<line x1="483.8363754976832" y1="248.66517472427955" x2="504.59877620671415" y2="251.3985966335338" style="stroke:black;stroke-width:3" />
<line x1="504.59877620671415" y1="251.3985966335338" x2="580.0" y2="88.23085463760202" style="stroke:black;stroke-width:3" />
<line x1="504.59877620671415" y1="251.3985966335338" x2="525.475779016598" y2="253.04165238805402" style="stroke:black;stroke-width:3" />
<line x1="525.475779016598" y1="253.04165238805402" x2="590.0" y2="70.91034656191326" style="stroke:black;stroke-width:3" />
<line x1="525.475779016598" y1="253.04165238805402" x2="546.4101615137756" y2="253.58983848622447" style="stroke:black;stroke-width:3" />
<line x1="546.4101615137756" y1="253.58983848622447" x2="600.0" y2="53.58983848622449" style="stroke:black;stroke-width:3" />
<line x1="400" y1="400" x2="0.0" y2="399.99999999999994" style="stroke:black;stroke-width:3" />
<line x1="0.0" y1="399.99999999999994" x2="20.934382497177527" y2="400.5481860981704" style="stroke:black;stroke-width:3" />
<line x1="20.934382497177527" y1="400.5481860981704" x2="390.0" y2="417.3205080756888" style="stroke:black;stroke-width:3" />
<line x1="20.934382497177527" y1="400.5481860981704" x2="41.81138530706138" y2="402.1912418526906" style="stroke:black;stroke-width:3" />
<line x1="41.81138530706138" y1="402.1912418526906" x2="380.0" y2="434.6410161513776" style="stroke:black;stroke-width:3" />
<line x1="41.81138530706138" y1="402.1912418526906" x2="62.57378601609233" y2="404.9246637619448" style="stroke:black;stroke-width:3" />
<line x1="62.57378601609233" y1="404.9246637619448" x2="370.0" y2="451.9615242270664" style="stroke:black;stroke-width:3" />
<line x1="62.57378601609233" y1="404.9246637619448" x2="83.1646763271037" y2="408.74095970647767" style="stroke:black;stroke-width:3" />
<line x1="83.1646763271037" y1="408.74095970647767" x2="360.0" y2="469.28203230275517" style="stroke:black;stroke-width:3" />
<line x1="83.1646763271037" y1="408.74095970647767" x2="103.52761804100827" y2="413.6296694843726" style="stroke:black;stroke-width:3" />
<line x1="103.52761804100827" y1="413.6296694843726" x2="350.0" y2="486.60254037844396" style="stroke:black;stroke-width:3" />
<line x1="103.52761804100827" y1="413.6296694843726" x2="123.60679774997892" y2="419.5773934819385" style="stroke:black;stroke-width:3" />
<line x1="123.60679774997892" y1="419.5773934819385" x2="340.0" y2="503.92304845413275" style="stroke:black;stroke-width:3" />
<line x1="123.60679774997892" y1="419.5773934819385" x2="143.34717981812005" y2="426.56782940111924" style="stroke:black;stroke-width:3" />
<line x1="143.34717981812005" y1="426.56782940111924" x2="330.0" y2="521.2435565298215" style="stroke:black;stroke-width:3" />
<line x1="143.34717981812005" y1="426.56782940111924" x2="162.69465723032002" y2="434.58181694295956" style="stroke:black;stroke-width:3" />
<line x1="162.69465723032002" y1="434.58181694295956" x2="320.0" y2="538.5640646055102" style="stroke:black;stroke-width:3" />
<line x1="162.69465723032002" y1="434.58181694295956" x2="181.59619989581864" y2="443.5973903246528" style="stroke:black;stroke-width:3" />
<line x1="181.59619989581864" y1="443.5973903246528" x2="310.0" y2="555.884572681199" style="stroke:black;stroke-width:3" />
<line x1="181.59619989581864" y1="443.5973903246528" x2="199.99999999999991" y2="453.5898384862245" style="stroke:black;stroke-width:3" />
<line x1="199.99999999999991" y1="453.5898384862245" x2="300.0" y2="573.2050807568877" style="stroke:black;stroke-width:3" />
<line x1="199.99999999999991" y1="453.5898384862245" x2="217.85561400601074" y2="464.5317728218303" style="stroke:black;stroke-width:3" />
<line x1="217.85561400601074" y1="464.5317728218303" x2="290.0" y2="590.5255888325764" style="stroke:black;stroke-width:3" />
<line x1="217.85561400601074" y1="464.5317728218303" x2="235.11410091698914" y2="476.393202250021" style="stroke:black;stroke-width:3" />
<line x1="235.11410091698914" y1="476.393202250021" x2="280.0" y2="607.8460969082652" style="stroke:black;stroke-width:3" />
<line x1="235.11410091698914" y1="476.393202250021" x2="251.72815641993486" y2="489.1416154172116" style="stroke:black;stroke-width:3" />
<line x1="251.72815641993486" y1="489.1416154172116" x2="270.0" y2="625.1666049839539" style="stroke:black;stroke-width:3" />
<line x1="251.72815641993486" y1="489.1416154172116" x2="267.65224254354314" y2="502.7420698090423" style="stroke:black;stroke-width:3" />
<line x1="267.65224254354314" y1="502.7420698090423" x2="260.0" y2="642.4871130596426" style="stroke:black;stroke-width:3" />
<line x1="267.65224254354314" y1="502.7420698090423" x2="282.84271247461885" y2="517.157287525381" style="stroke:black;stroke-width:3" />
<line x1="282.84271247461885" y1="517.157287525381" x2="250.0" y2="659.8076211353314" style="stroke:black;stroke-width:3" />
<line x1="282.84271247461885" y1="517.157287525381" x2="297.25793019095755" y2="532.3477574564567" style="stroke:black;stroke-width:3" />
<line x1="297.25793019095755" y1="532.3477574564567" x2="240.0" y2="677.1281292110201" style="stroke:black;stroke-width:3" />
<line x1="297.25793019095755" y1="532.3477574564567" x2="310.8583845827882" y2="548.271843580065" style="stroke:black;stroke-width:3" />
<line x1="310.8583845827882" y1="548.271843580065" x2="230.0" y2="694.4486372867088" style="stroke:black;stroke-width:3" />
<line x1="310.8583845827882" y1="548.271843580065" x2="323.6067977499788" y2="564.8858990830107" style="stroke:black;stroke-width:3" />
<line x1="323.6067977499788" y1="564.8858990830107" x2="220.0" y2="711.7691453623976" style="stroke:black;stroke-width:3" />
<line x1="323.6067977499788" y1="564.8858990830107" x2="335.46822717816946" y2="582.1443859939891" style="stroke:black;stroke-width:3" />
<line x1="335.46822717816946" y1="582.1443859939891" x2="210.0" y2="729.0896534380863" style="stroke:black;stroke-width:3" />
<line x1="335.46822717816946" y1="582.1443859939891" x2="346.4101615137753" y2="599.9999999999999" style="stroke:black;stroke-width:3" />
<line x1="346.4101615137753" y1="599.9999999999999" x2="200.0" y2="746.410161513775" style="stroke:black;stroke-width:3" />
<line x1="400" y1="400" x2="0.0" y2="399.99999999999994" style="stroke:black;stroke-width:3" />
<line x1="0.0" y1="399.99999999999994" x2="20.934382497177527" y2="399.4518139018295" style="stroke:black;stroke-width:3" />
<line x1="20.934382497177527" y1="399.4518139018295" x2="390.0" y2="382.6794919243112" style="stroke:black;stroke-width:3" />
<line x1="20.934382497177527" y1="399.4518139018295" x2="41.81138530706138" y2="397.8087581473093" style="stroke:black;stroke-width:3" />
<line x1="41.81138530706138" y1="397.8087581473093" x2="380.0" y2="365.3589838486224" style="stroke:black;stroke-width:3" />
<line x1="41.81138530706138" y1="397.8087581473093" x2="62.573786016092335" y2="395.07533623805506" style="stroke:black;stroke-width:3" />
<line x1="62.573786016092335" y1="395.07533623805506" x2="370.0" y2="348.0384757729336" style="stroke:black;stroke-width:3" />
<line x1="62.573786016092335" y1="395.07533623805506" x2="83.16467632710372" y2="391.2590402935222" style="stroke:black;stroke-width:3" />
<line x1="83.16467632710372" y1="391.2590402935222" x2="360.0" y2="330.71796769724483" style="stroke:black;stroke-width:3" />
<line x1="83.16467632710372" y1="391.2590402935222" x2="103.52761804100828" y2="386.3703305156273" style="stroke:black;stroke-width:3" />
<line x1="103.52761804100828" y1="386.3703305156273" x2="350.0" y2="313.39745962155604" style="stroke:black;stroke-width:3" />
<line x1="103.52761804100828" y1="386.3703305156273" x2="123.60679774997894" y2="380.4226065180614" style="stroke:black;stroke-width:3" />
<line x1="123.60679774997894" y1="380.4226065180614" x2="340.0" y2="296.07695154586725" style="stroke:black;stroke-width:3" />
<line x1="123.60679774997894" y1="380.4226065180614" x2="143.34717981812008" y2="373.4321705988807" style="stroke:black;stroke-width:3" />
<line x1="143.34717981812008" y1="373.4321705988807" x2="330.0" y2="278.75644347017845" style="stroke:black;stroke-width:3" />
<line x1="143.34717981812008" y1="373.4321705988807" x2="162.69465723032005" y2="365.4181830570404" style="stroke:black;stroke-width:3" />
<line x1="162.69465723032005" y1="365.4181830570404" x2="320.0" y2="261.43593539448966" style="stroke:black;stroke-width:3" />
<line x1="162.69465723032005" y1="365.4181830570404" x2="181.59619989581867" y2="356.40260967534715" style="stroke:black;stroke-width:3" />
<line x1="181.59619989581867" y1="356.40260967534715" x2="310.0" y2="244.1154273188009" style="stroke:black;stroke-width:3" />
<line x1="181.59619989581867" y1="356.40260967534715" x2="199.99999999999997" y2="346.4101615137755" style="stroke:black;stroke-width:3" />
<line x1="199.99999999999997" y1="346.4101615137755" x2="300.0" y2="226.79491924311213" style="stroke:black;stroke-width:3" />
<line x1="199.99999999999997" y1="346.4101615137755" x2="217.8556140060108" y2="335.4682271781697" style="stroke:black;stroke-width:3" />
<line x1="217.8556140060108" y1="335.4682271781697" x2="290.0" y2="209.47441116742337" style="stroke:black;stroke-width:3" />
<line x1="217.8556140060108" y1="335.4682271781697" x2="235.1141009169892" y2="323.606797749979" style="stroke:black;stroke-width:3" />
<line x1="235.1141009169892" y1="323.606797749979" x2="280.0" y2="192.1539030917346" style="stroke:black;stroke-width:3" />
<line x1="235.1141009169892" y1="323.606797749979" x2="251.72815641993495" y2="310.8583845827884" style="stroke:black;stroke-width:3" />
<line x1="251.72815641993495" y1="310.8583845827884" x2="270.0" y2="174.83339501604584" style="stroke:black;stroke-width:3" />
<line x1="251.72815641993495" y1="310.8583845827884" x2="267.65224254354325" y2="297.2579301909578" style="stroke:black;stroke-width:3" />
<line x1="267.65224254354325" y1="297.2579301909578" x2="260.0" y2="157.51288694035708" style="stroke:black;stroke-width:3" />
<line x1="267.65224254354325" y1="297.2579301909578" x2="282.84271247461896" y2="282.8427124746191" style="stroke:black;stroke-width:3" />
<line x1="282.84271247461896" y1="282.8427124746191" x2="250.0" y2="140.1923788646683" style="stroke:black;stroke-width:3" />
<line x1="282.84271247461896" y1="282.8427124746191" x2="297.25793019095767" y2="267.65224254354337" style="stroke:black;stroke-width:3" />
<line x1="297.25793019095767" y1="267.65224254354337" x2="240.0" y2="122.87187078897954" style="stroke:black;stroke-width:3" />
<line x1="297.25793019095767" y1="267.65224254354337" x2="310.8583845827883" y2="251.72815641993506" style="stroke:black;stroke-width:3" />
<line x1="310.8583845827883" y1="251.72815641993506" x2="230.0" y2="105.55136271329076" style="stroke:black;stroke-width:3" />
<line x1="310.8583845827883" y1="251.72815641993506" x2="323.6067977499789" y2="235.11410091698934" style="stroke:black;stroke-width:3" />
<line x1="323.6067977499789" y1="235.11410091698934" x2="220.0" y2="88.23085463760198" style="stroke:black;stroke-width:3" />
<line x1="323.6067977499789" y1="235.11410091698934" x2="335.46822717816957" y2="217.85561400601094" style="stroke:black;stroke-width:3" />
<line x1="335.46822717816957" y1="217.85561400601094" x2="210.0" y2="70.9103465619132" style="stroke:black;stroke-width:3" />
<line x1="335.46822717816957" y1="217.85561400601094" x2="346.4101615137754" y2="200.0000000000001" style="stroke:black;stroke-width:3" />
<line x1="346.4101615137754" y1="200.0000000000001" x2="200.0" y2="53.58983848622442" style="stroke:black;stroke-width:3" />
<line x1="400" y1="400" x2="199.99999999999983" y2="746.4101615137754" style="stroke:black;stroke-width:3" />
<line x1="199.99999999999983" y1="746.4101615137754" x2="210.94193433560568" y2="728.5545475077646" style="stroke:black;stroke-width:3" />
<line x1="210.94193433560568" y1="728.5545475077646" x2="410.0" y2="417.3205080756888" style="stroke:black;stroke-width:3" />
<line x1="210.94193433560568" y1="728.5545475077646" x2="222.8033637637963" y2="711.2960605967862" style="stroke:black;stroke-width:3" />
<line x1="222.8033637637963" y1="711.2960605967862" x2="420.0" y2="434.6410161513776" style="stroke:black;stroke-width:3" />
<line x1="222.8033637637963" y1="711.2960605967862" x2="235.55177693098693" y2="694.6820050938405" style="stroke:black;stroke-width:3" />
<line x1="235.55177693098693" y1="694.6820050938405" x2="430.0" y2="451.9615242270664" style="stroke:black;stroke-width:3" />
<line x1="235.55177693098693" y1="694.6820050938405" x2="249.15223132281758" y2="678.7579189702323" style="stroke:black;stroke-width:3" />
<line x1="249.15223132281758" y1="678.7579189702323" x2="440.0" y2="469.28203230275517" style="stroke:black;stroke-width:3" />
<line x1="249.15223132281758" y1="678.7579189702323" x2="263.56744903915626" y2="663.5674490391565" style="stroke:black;stroke-width:3" />
<line x1="263.56744903915626" y1="663.5674490391565" x2="450.0" y2="486.60254037844396" style="stroke:black;stroke-width:3" />
<line x1="263.56744903915626" y1="663.5674490391565" x2="278.75791897023197" y2="649.1522313228178" style="stroke:black;stroke-width:3" />
<line x1="278.75791897023197" y1="649.1522313228178" x2="460.0" y2="503.92304845413275" style="stroke:black;stroke-width:3" />
<line x1="278.75791897023197" y1="649.1522313228178" x2="294.68200509384025" y2="635.5517769309871" style="stroke:black;stroke-width:3" />
<line x1="294.68200509384025" y1="635.5517769309871" x2="470.0" y2="521.2435565298215" style="stroke:black;stroke-width:3" />
<line x1="294.68200509384025" y1="635.5517769309871" x2="311.296060596786" y2="622.8033637637965" style="stroke:black;stroke-width:3" />
<line x1="311.296060596786" y1="622.8033637637965" x2="480.0" y2="538.5640646055102" style="stroke:black;stroke-width:3" />
<line x1="311.296060596786" y1="622.8033637637965" x2="328.5545475077644" y2="610.9419343356059" style="stroke:black;stroke-width:3" />
<line x1="328.5545475077644" y1="610.9419343356059" x2="490.0" y2="555.884572681199" style="stroke:black;stroke-width:3" />
<line x1="328.5545475077644" y1="610.9419343356059" x2="346.4101615137753" y2="600.0" style="stroke:black;stroke-width:3" />
<line x1="346.4101615137753" y1="600.0" x2="500.0" y2="573.2050807568877" style="stroke:black;stroke-width:3" />
<line x1="346.4101615137753" y1="600.0" x2="364.8139616179566" y2="590.0075518384283" style="stroke:black;stroke-width:3" />
<line x1="364.8139616179566" y1="590.0075518384283" x2="510.0" y2="590.5255888325764" style="stroke:black;stroke-width:3" />
<line x1="364.8139616179566" y1="590.0075518384283" x2="383.71550428345523" y2="580.9919784567351" style="stroke:black;stroke-width:3" />
<line x1="383.71550428345523" y1="580.9919784567351" x2="520.0" y2="607.8460969082652" style="stroke:black;stroke-width:3" />
<line x1="383.71550428345523" y1="580.9919784567351" x2="403.0629816956552" y2="572.9779909148947" style="stroke:black;stroke-width:3" />
<line x1="403.0629816956552" y1="572.9779909148947" x2="530.0" y2="625.1666049839539" style="stroke:black;stroke-width:3" />
<line x1="403.0629816956552" y1="572.9779909148947" x2="422.8033637637963" y2="565.9875549957139" style="stroke:black;stroke-width:3" />
<line x1="422.8033637637963" y1="565.9875549957139" x2="540.0" y2="642.4871130596426" style="stroke:black;stroke-width:3" />
<line x1="422.8033637637963" y1="565.9875549957139" x2="442.882543472767" y2="560.0398309981481" style="stroke:black;stroke-width:3" />
<line x1="442.882543472767" y1="560.0398309981481" x2="550.0" y2="659.8076211353314" style="stroke:black;stroke-width:3" />
<line x1="442.882543472767" y1="560.0398309981481" x2="463.24548518667154" y2="555.1511212202531" style="stroke:black;stroke-width:3" />
<line x1="463.24548518667154" y1="555.1511212202531" x2="560.0" y2="677.1281292110201" style="stroke:black;stroke-width:3" />
<line x1="463.24548518667154" y1="555.1511212202531" x2="483.8363754976829" y2="551.3348252757203" style="stroke:black;stroke-width:3" />
<line x1="483.8363754976829" y1="551.3348252757203" x2="570.0" y2="694.4486372867088" style="stroke:black;stroke-width:3" />
<line x1="483.8363754976829" y1="551.3348252757203" x2="504.59877620671386" y2="548.601403366466" style="stroke:black;stroke-width:3" />
<line x1="504.59877620671386" y1="548.601403366466" x2="580.0" y2="711.7691453623976" style="stroke:black;stroke-width:3" />
<line x1="504.59877620671386" y1="548.601403366466" x2="525.4757790165977" y2="546.9583476119458" style="stroke:black;stroke-width:3" />
<line x1="525.4757790165977" y1="546.9583476119458" x2="590.0" y2="729.0896534380863" style="stroke:black;stroke-width:3" />
<line x1="525.4757790165977" y1="546.9583476119458" x2="546.4101615137753" y2="546.4101615137753" style="stroke:black;stroke-width:3" />
<line x1="546.4101615137753" y1="546.4101615137753" x2="600.0" y2="746.410161513775" style="stroke:black;stroke-width:3" />
<line x1="400" y1="400" x2="199.99999999999983" y2="746.4101615137754" style="stroke:black;stroke-width:3" />
<line x1="199.99999999999983" y1="746.4101615137754" x2="209.9924481615715" y2="728.0063614095941" style="stroke:black;stroke-width:3" />
<line x1="209.9924481615715" y1="728.0063614095941" x2="380.0" y2="400.0" style="stroke:black;stroke-width:3" />
<line x1="209.9924481615715" y1="728.0063614095941" x2="219.0080215432647" y2="709.1048187440955" style="stroke:black;stroke-width:3" />
<line x1="219.0080215432647" y1="709.1048187440955" x2="360.0" y2="400.0" style="stroke:black;stroke-width:3" />
<line x1="219.0080215432647" y1="709.1048187440955" x2="227.02200908510503" y2="689.7573413318955" style="stroke:black;stroke-width:3" />
<line x1="227.02200908510503" y1="689.7573413318955" x2="340.0" y2="400.0" style="stroke:black;stroke-width:3" />
<line x1="227.02200908510503" y1="689.7573413318955" x2="234.01244500428575" y2="670.0169592637544" style="stroke:black;stroke-width:3" />
<line x1="234.01244500428575" y1="670.0169592637544" x2="320.0" y2="400.0" style="stroke:black;stroke-width:3" />
<line x1="234.01244500428575" y1="670.0169592637544" x2="239.96016900185163" y2="649.9377795547838" style="stroke:black;stroke-width:3" />
<line x1="239.96016900185163" y1="649.9377795547838" x2="300.0" y2="400.0" style="stroke:black;stroke-width:3" />
<line x1="239.96016900185163" y1="649.9377795547838" x2="244.84887877974657" y2="629.5748378408792" style="stroke:black;stroke-width:3" />
<line x1="244.84887877974657" y1="629.5748378408792" x2="280.0" y2="400.0" style="stroke:black;stroke-width:3" />
<line x1="244.84887877974657" y1="629.5748378408792" x2="248.6651747242794" y2="608.9839475298678" style="stroke:black;stroke-width:3" />
<line x1="248.6651747242794" y1="608.9839475298678" x2="260.0" y2="400.0" style="stroke:black;stroke-width:3" />
<line x1="248.6651747242794" y1="608.9839475298678" x2="251.39859663353366" y2="588.2215468208368" style="stroke:black;stroke-width:3" />
<line x1="251.39859663353366" y1="588.2215468208368" x2="240.0" y2="400.0" style="stroke:black;stroke-width:3" />
<line x1="251.39859663353366" y1="588.2215468208368" x2="253.04165238805388" y2="567.344544010953" style="stroke:black;stroke-width:3" />
<line x1="253.04165238805388" y1="567.344544010953" x2="220.0" y2="400.0" style="stroke:black;stroke-width:3" />
<line x1="253.04165238805388" y1="567.344544010953" x2="253.58983848622432" y2="546.4101615137754" style="stroke:black;stroke-width:3" />
<line x1="253.58983848622432" y1="546.4101615137754" x2="200.0" y2="400.0" style="stroke:black;stroke-width:3" />
<line x1="253.58983848622432" y1="546.4101615137754" x2="253.04165238805388" y2="525.4757790165978" style="stroke:black;stroke-width:3" />
<line x1="253.04165238805388" y1="525.4757790165978" x2="180.0" y2="400.0" style="stroke:black;stroke-width:3" />
<line x1="253.04165238805388" y1="525.4757790165978" x2="251.39859663353366" y2="504.598776206714" style="stroke:black;stroke-width:3" />
<line x1="251.39859663353366" y1="504.598776206714" x2="160.0" y2="400.0" style="stroke:black;stroke-width:3" />
<line x1="251.39859663353366" y1="504.598776206714" x2="248.6651747242794" y2="483.83637549768304" style="stroke:black;stroke-width:3" />
<line x1="248.6651747242794" y1="483.83637549768304" x2="140.0" y2="400.0" style="stroke:black;stroke-width:3" />
<line x1="248.6651747242794" y1="483.83637549768304" x2="244.84887877974657" y2="463.24548518667166" style="stroke:black;stroke-width:3" />
<line x1="244.84887877974657" y1="463.24548518667166" x2="120.0" y2="400.0" style="stroke:black;stroke-width:3" />
<line x1="244.84887877974657" y1="463.24548518667166" x2="239.96016900185165" y2="442.8825434727671" style="stroke:black;stroke-width:3" />
<line x1="239.96016900185165" y1="442.8825434727671" x2="100.0" y2="400.0" style="stroke:black;stroke-width:3" />
<line x1="239.96016900185165" y1="442.8825434727671" x2="234.01244500428578" y2="422.8033637637964" style="stroke:black;stroke-width:3" />
<line x1="234.01244500428578" y1="422.8033637637964" x2="80.0" y2="400.0" style="stroke:black;stroke-width:3" />
<line x1="234.01244500428578" y1="422.8033637637964" x2="227.02200908510505" y2="403.0629816956553" style="stroke:black;stroke-width:3" />
<line x1="227.02200908510505" y1="403.0629816956553" x2="60.0" y2="400.0" style="stroke:black;stroke-width:3" />
<line x1="227.02200908510505" y1="403.0629816956553" x2="219.00802154326476" y2="383.71550428345535" style="stroke:black;stroke-width:3" />
<line x1="219.00802154326476" y1="383.71550428345535" x2="40.0" y2="400.0" style="stroke:black;stroke-width:3" />
<line x1="219.00802154326476" y1="383.71550428345535" x2="209.99244816157153" y2="364.8139616179567" style="stroke:black;stroke-width:3" />
<line x1="209.99244816157153" y1="364.8139616179567" x2="20.0" y2="400.0" style="stroke:black;stroke-width:3" />
<line x1="209.99244816157153" y1="364.8139616179567" x2="199.99999999999983" y2="346.4101615137754" style="stroke:black;stroke-width:3" />
<line x1="199.99999999999983" y1="346.4101615137754" x2="0.0" y2="400.0" style="stroke:black;stroke-width:3" />
<line x1="400" y1="400" x2="600.0" y2="746.4101615137754" style="stroke:black;stroke-width:3" />
<line x1="600.0" y1="746.4101615137754" x2="590.0075518384283" y2="728.0063614095941" style="stroke:black;stroke-width:3" />
<line x1="590.0075518384283" y1="728.0063614095941" x2="420.0" y2="400.0" style="stroke:black;stroke-width:3" />
<line x1="590.0075518384283" y1="728.0063614095941" x2="580.9919784567351" y2="709.1048187440955" style="stroke:black;stroke-width:3" />
<line x1="580.9919784567351" y1="709.1048187440955" x2="440.0" y2="400.0" style="stroke:black;stroke-width:3" />
<line x1="580.9919784567351" y1="709.1048187440955" x2="572.9779909148947" y2="689.7573413318955" style="stroke:black;stroke-width:3" />
<line x1="572.9779909148947" y1="689.7573413318955" x2="460.0" y2="400.0" style="stroke:black;stroke-width:3" />
<line x1="572.9779909148947" y1="689.7573413318955" x2="565.9875549957139" y2="670.0169592637544" style="stroke:black;stroke-width:3" />
<line x1="565.9875549957139" y1="670.0169592637544" x2="480.0" y2="400.0" style="stroke:black;stroke-width:3" />
<line x1="565.9875549957139" y1="670.0169592637544" x2="560.0398309981481" y2="649.9377795547838" style="stroke:black;stroke-width:3" />
<line x1="560.0398309981481" y1="649.9377795547838" x2="500.0" y2="400.0" style="stroke:black;stroke-width:3" />
<line x1="560.0398309981481" y1="649.9377795547838" x2="555.1511212202531" y2="629.5748378408792" style="stroke:black;stroke-width:3" />
<line x1="555.1511212202531" y1="629.5748378408792" x2="520.0" y2="400.0" style="stroke:black;stroke-width:3" />
<line x1="555.1511212202531" y1="629.5748378408792" x2="551.3348252757203" y2="608.9839475298678" style="stroke:black;stroke-width:3" />
<line x1="551.3348252757203" y1="608.9839475298678" x2="540.0" y2="400.0" style="stroke:black;stroke-width:3" />
<line x1="551.3348252757203" y1="608.9839475298678" x2="548.601403366466" y2="588.2215468208368" style="stroke:black;stroke-width:3" />
<line x1="548.601403366466" y1="588.2215468208368" x2="560.0" y2="400.0" style="stroke:black;stroke-width:3" />
<line x1="548.601403366466" y1="588.2215468208368" x2="546.9583476119458" y2="567.344544010953" style="stroke:black;stroke-width:3" />
<line x1="546.9583476119458" y1="567.344544010953" x2="580.0" y2="400.0" style="stroke:black;stroke-width:3" />
<line x1="546.9583476119458" y1="567.344544010953" x2="546.4101615137753" y2="546.4101615137754" style="stroke:black;stroke-width:3" />
<line x1="546.4101615137753" y1="546.4101615137754" x2="600.0" y2="400.0" style="stroke:black;stroke-width:3" />
<line x1="546.4101615137753" y1="546.4101615137754" x2="546.9583476119458" y2="525.4757790165978" style="stroke:black;stroke-width:3" />
<line x1="546.9583476119458" y1="525.4757790165978" x2="620.0" y2="400.0" style="stroke:black;stroke-width:3" />
<line x1="546.9583476119458" y1="525.4757790165978" x2="548.601403366466" y2="504.598776206714" style="stroke:black;stroke-width:3" />
<line x1="548.601403366466" y1="504.598776206714" x2="640.0" y2="400.0" style="stroke:black;stroke-width:3" />
<line x1="548.601403366466" y1="504.598776206714" x2="551.3348252757203" y2="483.83637549768304" style="stroke:black;stroke-width:3" />
<line x1="551.3348252757203" y1="483.83637549768304" x2="660.0" y2="400.0" style="stroke:black;stroke-width:3" />
<line x1="551.3348252757203" y1="483.83637549768304" x2="555.1511212202531" y2="463.24548518667166" style="stroke:black;stroke-width:3" />
<line x1="555.1511212202531" y1="463.24548518667166" x2="680.0" y2="400.0" style="stroke:black;stroke-width:3" />
<line x1="555.1511212202531" y1="463.24548518667166" x2="560.0398309981481" y2="442.8825434727671" style="stroke:black;stroke-width:3" />
<line x1="560.0398309981481" y1="442.8825434727671" x2="700.0" y2="400.0" style="stroke:black;stroke-width:3" />
<line x1="560.0398309981481" y1="442.8825434727671" x2="565.9875549957139" y2="422.8033637637964" style="stroke:black;stroke-width:3" />
<line x1="565.9875549957139" y1="422.8033637637964" x2="720.0" y2="400.0" style="stroke:black;stroke-width:3" />
<line x1="565.9875549957139" y1="422.8033637637964" x2="572.9779909148947" y2="403.0629816956553" style="stroke:black;stroke-width:3" />
<line x1="572.9779909148947" y1="403.0629816956553" x2="740.0" y2="400.0" style="stroke:black;stroke-width:3" />
<line x1="572.9779909148947" y1="403.0629816956553" x2="580.9919784567351" y2="383.71550428345535" style="stroke:black;stroke-width:3" />
<line x1="580.9919784567351" y1="383.71550428345535" x2="760.0" y2="400.0" style="stroke:black;stroke-width:3" />
<line x1="580.9919784567351" y1="383.71550428345535" x2="590.0075518384283" y2="364.8139616179567" style="stroke:black;stroke-width:3" />
<line x1="590.0075518384283" y1="364.8139616179567" x2="780.0" y2="400.0" style="stroke:black;stroke-width:3" />
<line x1="590.0075518384283" y1="364.8139616179567" x2="600.0" y2="346.4101615137754" style="stroke:black;stroke-width:3" />
<line x1="600.0" y1="346.4101615137754" x2="800.0" y2="400.0" style="stroke:black;stroke-width:3" />
<line x1="400" y1="400" x2="600.0" y2="746.4101615137754" style="stroke:black;stroke-width:3" />
<line x1="600.0" y1="746.4101615137754" x2="589.0580656643941" y2="728.5545475077646" style="stroke:black;stroke-width:3" />
<line x1="589.0580656643941" y1="728.5545475077646" x2="390.0" y2="417.3205080756888" style="stroke:black;stroke-width:3" />
<line x1="589.0580656643941" y1="728.5545475077646" x2="577.1966362362035" y2="711.2960605967862" style="stroke:black;stroke-width:3" />
<line x1="577.1966362362035" y1="711.2960605967862" x2="380.0" y2="434.6410161513776" style="stroke:black;stroke-width:3" />
<line x1="577.1966362362035" y1="711.2960605967862" x2="564.4482230690129" y2="694.6820050938405" style="stroke:black;stroke-width:3" />
<line x1="564.4482230690129" y1="694.6820050938405" x2="370.0" y2="451.9615242270664" style="stroke:black;stroke-width:3" />
<line x1="564.4482230690129" y1="694.6820050938405" x2="550.8477686771822" y2="678.7579189702323" style="stroke:black;stroke-width:3" />
<line x1="550.8477686771822" y1="678.7579189702323" x2="360.0" y2="469.28203230275517" style="stroke:black;stroke-width:3" />
<line x1="550.8477686771822" y1="678.7579189702323" x2="536.4325509608435" y2="663.5674490391565" style="stroke:black;stroke-width:3" />
<line x1="536.4325509608435" y1="663.5674490391565" x2="350.0" y2="486.60254037844396" style="stroke:black;stroke-width:3" />
<line x1="536.4325509608435" y1="663.5674490391565" x2="521.2420810297677" y2="649.1522313228178" style="stroke:black;stroke-width:3" />
<line x1="521.2420810297677" y1="649.1522313228178" x2="340.0" y2="503.92304845413275" style="stroke:black;stroke-width:3" />
<line x1="521.2420810297677" y1="649.1522313228178" x2="505.31799490615947" y2="635.5517769309871" style="stroke:black;stroke-width:3" />
<line x1="505.31799490615947" y1="635.5517769309871" x2="330.0" y2="521.2435565298215" style="stroke:black;stroke-width:3" />
<line x1="505.31799490615947" y1="635.5517769309871" x2="488.7039394032138" y2="622.8033637637965" style="stroke:black;stroke-width:3" />
<line x1="488.7039394032138" y1="622.8033637637965" x2="320.0" y2="538.5640646055102" style="stroke:black;stroke-width:3" />
<line x1="488.7039394032138" y1="622.8033637637965" x2="471.44545249223535" y2="610.9419343356059" style="stroke:black;stroke-width:3" />
<line x1="471.44545249223535" y1="610.9419343356059" x2="310.0" y2="555.884572681199" style="stroke:black;stroke-width:3" />
<line x1="471.44545249223535" y1="610.9419343356059" x2="453.5898384862245" y2="600.0" style="stroke:black;stroke-width:3" />
<line x1="453.5898384862245" y1="600.0" x2="300.0" y2="573.2050807568877" style="stroke:black;stroke-width:3" />
<line x1="453.5898384862245" y1="600.0" x2="435.1860383820432" y2="590.0075518384283" style="stroke:black;stroke-width:3" />
<line x1="435.1860383820432" y1="590.0075518384283" x2="290.0" y2="590.5255888325764" style="stroke:black;stroke-width:3" />
<line x1="435.1860383820432" y1="590.0075518384283" x2="416.2844957165446" y2="580.9919784567351" style="stroke:black;stroke-width:3" />
<line x1="416.2844957165446" y1="580.9919784567351" x2="280.0" y2="607.8460969082652" style="stroke:black;stroke-width:3" />
<line x1="416.2844957165446" y1="580.9919784567351" x2="396.93701830434463" y2="572.9779909148947" style="stroke:black;stroke-width:3" />
<line x1="396.93701830434463" y1="572.9779909148947" x2="270.0" y2="625.1666049839539" style="stroke:black;stroke-width:3" />
<line x1="396.93701830434463" y1="572.9779909148947" x2="377.1966362362035" y2="565.9875549957139" style="stroke:black;stroke-width:3" />
<line x1="377.1966362362035" y1="565.9875549957139" x2="260.0" y2="642.4871130596426" style="stroke:black;stroke-width:3" />
<line x1="377.1966362362035" y1="565.9875549957139" x2="357.1174565272329" y2="560.0398309981481" style="stroke:black;stroke-width:3" />
<line x1="357.1174565272329" y1="560.0398309981481" x2="250.0" y2="659.8076211353314" style="stroke:black;stroke-width:3" />
<line x1="357.1174565272329" y1="560.0398309981481" x2="336.75451481332834" y2="555.1511212202531" style="stroke:black;stroke-width:3" />
<line x1="336.75451481332834" y1="555.1511212202531" x2="240.0" y2="677.1281292110201" style="stroke:black;stroke-width:3" />
<line x1="336.75451481332834" y1="555.1511212202531" x2="316.16362450231696" y2="551.3348252757203" style="stroke:black;stroke-width:3" />
<line x1="316.16362450231696" y1="551.3348252757203" x2="230.0" y2="694.4486372867088" style="stroke:black;stroke-width:3" />
<line x1="316.16362450231696" y1="551.3348252757203" x2="295.401223793286" y2="548.601403366466" style="stroke:black;stroke-width:3" />
<line x1="295.401223793286" y1="548.601403366466" x2="220.0" y2="711.7691453623976" style="stroke:black;stroke-width:3" />
<line x1="295.401223793286" y1="548.601403366466" x2="274.5242209834022" y2="546.9583476119458" style="stroke:black;stroke-width:3" />
<line x1="274.5242209834022" y1="546.9583476119458" x2="210.0" y2="729.0896534380863" style="stroke:black;stroke-width:3" />
<line x1="274.5242209834022" y1="546.9583476119458" x2="253.58983848622466" y2="546.4101615137753" style="stroke:black;stroke-width:3" />
<line x1="253.58983848622466" y1="546.4101615137753" x2="200.0" y2="746.410161513775" style="stroke:black;stroke-width:3" />
</svg>
