<?xml version="1.0" encoding="UTF-8" ?><svg  width="100%" height="100%" viewBox="0 0 2000 2000"  xmlns="http://www.w3.org/2000/svg" version="1.1">
<line x1="500" y1="500" x2="700.0" y2="500.0" style="stroke:black;stroke-width:1" />
<line x1="700.0" y1="500.0" x2="761.8033988749895" y2="309.78869674096927" style="stroke:black;stroke-width:1" />
<line x1="761.8033988749895" y1="309.78869674096927" x2="600.0" y2="192.23164628247463" style="stroke:black;stroke-width:1" />
<line x1="600.0" y1="192.23164628247463" x2="438.1966011250105" y2="309.7886967409692" style="stroke:black;stroke-width:1" />
<line x1="438.1966011250105" y1="309.7886967409692" x2="499.99999999999994" y2="499.99999999999994" style="stroke:black;stroke-width:1" />
<line x1="700.0" y1="500.0" x2="499.99999999999994" y2="499.99999999999994" style="stroke:black;stroke-width:1" />
<line x1="761.8033988749895" y1="309.78869674096927" x2="700.0" y2="500.0" style="stroke:black;stroke-width:1" />
<line x1="600.0" y1="192.23164628247463" x2="761.8033988749895" y2="309.78869674096927" style="stroke:black;stroke-width:1" />
<line x1="438.1966011250105" y1="309.7886967409692" x2="600.0" y2="192.23164628247463" style="stroke:black;stroke-width:1" />
<line x1="499.99999999999994" y1="499.99999999999994" x2="438.1966011250105" y2="309.7886967409692" style="stroke:black;stroke-width:1" />
<line x1="700.0" y1="500.0" x2="438.1966011250105" y2="309.7886967409692" style="stroke:black;stroke-width:1" />
<line x1="761.8033988749895" y1="309.78869674096927" x2="499.99999999999994" y2="499.99999999999994" style="stroke:black;stroke-width:1" />
<line x1="600.0" y1="192.23164628247463" x2="700.0" y2="500.0" style="stroke:black;stroke-width:1" />
<line x1="438.1966011250105" y1="309.7886967409692" x2="761.8033988749895" y2="309.78869674096927" style="stroke:black;stroke-width:1" />
<line x1="499.99999999999994" y1="499.99999999999994" x2="600.0" y2="192.23164628247463" style="stroke:black;stroke-width:1" />
</svg>
