<?xml version="1.0" encoding="UTF-8" ?><svg xmlns="http://www.w3.org/2000/svg" version="1.1">
<line x1="500" y1="500" x2="543.3012701892219" y2="475.0" style="stroke:black;stroke-width:1" />
<line x1="543.3012701892219" y1="475.0" x2="568.3012701892219" y2="431.69872981077805" style="stroke:black;stroke-width:1" />
<line x1="568.3012701892219" y1="431.69872981077805" x2="568.3012701892219" y2="381.69872981077805" style="stroke:black;stroke-width:1" />
<line x1="568.3012701892219" y1="381.69872981077805" x2="543.3012701892219" y2="338.3974596215561" style="stroke:black;stroke-width:1" />
<line x1="543.3012701892219" y1="338.3974596215561" x2="499.99999999999994" y2="313.3974596215561" style="stroke:black;stroke-width:1" />
<line x1="499.99999999999994" y1="313.3974596215561" x2="449.99999999999994" y2="313.3974596215561" style="stroke:black;stroke-width:1" />
<line x1="449.99999999999994" y1="313.3974596215561" x2="406.698729810778" y2="338.3974596215561" style="stroke:black;stroke-width:1" />
<line x1="406.698729810778" y1="338.3974596215561" x2="381.698729810778" y2="381.698729810778" style="stroke:black;stroke-width:1" />
<line x1="381.698729810778" y1="381.698729810778" x2="381.698729810778" y2="431.698729810778" style="stroke:black;stroke-width:1" />
<line x1="381.698729810778" y1="431.698729810778" x2="406.698729810778" y2="474.99999999999994" style="stroke:black;stroke-width:1" />
<line x1="406.698729810778" y1="474.99999999999994" x2="449.9999999999999" y2="499.99999999999994" style="stroke:black;stroke-width:1" />
<line x1="449.9999999999999" y1="499.99999999999994" x2="499.9999999999999" y2="499.99999999999994" style="stroke:black;stroke-width:1" />
<line x1="499.9999999999999" y1="499.99999999999994" x2="524.9999999999999" y2="456.698729810778" style="stroke:black;stroke-width:1" />
<line x1="524.9999999999999" y1="456.698729810778" x2="524.9999999999999" y2="406.698729810778" style="stroke:black;stroke-width:1" />
<line x1="524.9999999999999" y1="406.698729810778" x2="499.99999999999994" y2="363.39745962155604" style="stroke:black;stroke-width:1" />
<line x1="499.99999999999994" y1="363.39745962155604" x2="456.698729810778" y2="338.39745962155604" style="stroke:black;stroke-width:1" />
<line x1="456.698729810778" y1="338.39745962155604" x2="406.698729810778" y2="338.39745962155604" style="stroke:black;stroke-width:1" />
<line x1="406.698729810778" y1="338.39745962155604" x2="363.3974596215561" y2="363.3974596215561" style="stroke:black;stroke-width:1" />
<line x1="363.3974596215561" y1="363.3974596215561" x2="338.3974596215561" y2="406.69872981077805" style="stroke:black;stroke-width:1" />
<line x1="338.3974596215561" y1="406.69872981077805" x2="338.3974596215561" y2="456.69872981077805" style="stroke:black;stroke-width:1" />
<line x1="338.3974596215561" y1="456.69872981077805" x2="363.39745962155604" y2="500.0" style="stroke:black;stroke-width:1" />
<line x1="363.39745962155604" y1="500.0" x2="406.698729810778" y2="525.0" style="stroke:black;stroke-width:1" />
<line x1="406.698729810778" y1="525.0" x2="456.698729810778" y2="525.0" style="stroke:black;stroke-width:1" />
<line x1="456.698729810778" y1="525.0" x2="499.99999999999994" y2="500.00000000000006" style="stroke:black;stroke-width:1" />
<line x1="499.99999999999994" y1="500.00000000000006" x2="500.00000000000006" y2="450.00000000000006" style="stroke:black;stroke-width:1" />
<line x1="500.00000000000006" y1="450.00000000000006" x2="475.0" y2="406.69872981077816" style="stroke:black;stroke-width:1" />
<line x1="475.0" y1="406.69872981077816" x2="431.69872981077805" y2="381.69872981077816" style="stroke:black;stroke-width:1" />
<line x1="431.69872981077805" y1="381.69872981077816" x2="381.69872981077805" y2="381.6987298107781" style="stroke:black;stroke-width:1" />
<line x1="381.69872981077805" y1="381.6987298107781" x2="338.3974596215561" y2="406.69872981077805" style="stroke:black;stroke-width:1" />
<line x1="338.3974596215561" y1="406.69872981077805" x2="313.39745962155604" y2="449.99999999999994" style="stroke:black;stroke-width:1" />
<line x1="313.39745962155604" y1="449.99999999999994" x2="313.3974596215561" y2="499.99999999999994" style="stroke:black;stroke-width:1" />
<line x1="313.3974596215561" y1="499.99999999999994" x2="338.3974596215561" y2="543.3012701892219" style="stroke:black;stroke-width:1" />
<line x1="338.3974596215561" y1="543.3012701892219" x2="381.69872981077805" y2="568.3012701892219" style="stroke:black;stroke-width:1" />
<line x1="381.69872981077805" y1="568.3012701892219" x2="431.69872981077805" y2="568.3012701892219" style="stroke:black;stroke-width:1" />
<line x1="431.69872981077805" y1="568.3012701892219" x2="474.99999999999994" y2="543.3012701892218" style="stroke:black;stroke-width:1" />
<line x1="474.99999999999994" y1="543.3012701892218" x2="499.9999999999999" y2="499.99999999999983" style="stroke:black;stroke-width:1" />
<line x1="499.9999999999999" y1="499.99999999999983" x2="474.9999999999999" y2="456.6987298107779" style="stroke:black;stroke-width:1" />
<line x1="474.9999999999999" y1="456.6987298107779" x2="431.698729810778" y2="431.6987298107779" style="stroke:black;stroke-width:1" />
<line x1="431.698729810778" y1="431.6987298107779" x2="381.698729810778" y2="431.6987298107778" style="stroke:black;stroke-width:1" />
<line x1="381.698729810778" y1="431.6987298107778" x2="338.39745962155604" y2="456.69872981077776" style="stroke:black;stroke-width:1" />
<line x1="338.39745962155604" y1="456.69872981077776" x2="313.3974596215559" y2="499.99999999999966" style="stroke:black;stroke-width:1" />
<line x1="313.3974596215559" y1="499.99999999999966" x2="313.397459621556" y2="549.9999999999997" style="stroke:black;stroke-width:1" />
<line x1="313.397459621556" y1="549.9999999999997" x2="338.397459621556" y2="593.3012701892216" style="stroke:black;stroke-width:1" />
<line x1="338.397459621556" y1="593.3012701892216" x2="381.6987298107779" y2="618.3012701892216" style="stroke:black;stroke-width:1" />
<line x1="381.6987298107779" y1="618.3012701892216" x2="431.6987298107779" y2="618.3012701892216" style="stroke:black;stroke-width:1" />
<line x1="431.6987298107779" y1="618.3012701892216" x2="474.99999999999983" y2="593.3012701892217" style="stroke:black;stroke-width:1" />
<line x1="474.99999999999983" y1="593.3012701892217" x2="499.99999999999994" y2="549.9999999999998" style="stroke:black;stroke-width:1" />
<line x1="499.99999999999994" y1="549.9999999999998" x2="500.00000000000006" y2="499.9999999999998" style="stroke:black;stroke-width:1" />
<line x1="500.00000000000006" y1="499.9999999999998" x2="456.6987298107782" y2="474.9999999999996" style="stroke:black;stroke-width:1" />
<line x1="456.6987298107782" y1="474.9999999999996" x2="406.6987298107782" y2="474.9999999999994" style="stroke:black;stroke-width:1" />
<line x1="406.6987298107782" y1="474.9999999999994" x2="363.3974596215563" y2="499.99999999999943" style="stroke:black;stroke-width:1" />
<line x1="363.3974596215563" y1="499.99999999999943" x2="338.3974596215564" y2="543.3012701892214" style="stroke:black;stroke-width:1" />
<line x1="338.3974596215564" y1="543.3012701892214" x2="338.39745962155644" y2="593.3012701892214" style="stroke:black;stroke-width:1" />
<line x1="338.39745962155644" y1="593.3012701892214" x2="363.39745962155644" y2="636.6025403784433" style="stroke:black;stroke-width:1" />
<line x1="363.39745962155644" y1="636.6025403784433" x2="406.69872981077833" y2="661.6025403784433" style="stroke:black;stroke-width:1" />
<line x1="406.69872981077833" y1="661.6025403784433" x2="456.69872981077833" y2="661.6025403784435" style="stroke:black;stroke-width:1" />
<line x1="456.69872981077833" y1="661.6025403784435" x2="500.00000000000034" y2="636.6025403784436" style="stroke:black;stroke-width:1" />
<line x1="500.00000000000034" y1="636.6025403784436" x2="525.0000000000005" y2="593.3012701892217" style="stroke:black;stroke-width:1" />
<line x1="525.0000000000005" y1="593.3012701892217" x2="525.0000000000008" y2="543.3012701892217" style="stroke:black;stroke-width:1" />
<line x1="525.0000000000008" y1="543.3012701892217" x2="500.00000000000097" y2="499.99999999999966" style="stroke:black;stroke-width:1" />
<line x1="500.00000000000097" y1="499.99999999999966" x2="450.00000000000097" y2="499.9999999999998" style="stroke:black;stroke-width:1" />
<line x1="450.00000000000097" y1="499.9999999999998" x2="406.698729810779" y2="524.9999999999997" style="stroke:black;stroke-width:1" />
<line x1="406.698729810779" y1="524.9999999999997" x2="381.69872981077907" y2="568.3012701892217" style="stroke:black;stroke-width:1" />
<line x1="381.69872981077907" y1="568.3012701892217" x2="381.6987298107789" y2="618.3012701892217" style="stroke:black;stroke-width:1" />
<line x1="381.6987298107789" y1="618.3012701892217" x2="406.6987298107789" y2="661.6025403784436" style="stroke:black;stroke-width:1" />
<line x1="406.6987298107789" y1="661.6025403784436" x2="450.00000000000074" y2="686.6025403784438" style="stroke:black;stroke-width:1" />
<line x1="450.00000000000074" y1="686.6025403784438" x2="500.00000000000074" y2="686.6025403784439" style="stroke:black;stroke-width:1" />
<line x1="500.00000000000074" y1="686.6025403784439" x2="543.3012701892228" y2="661.6025403784441" style="stroke:black;stroke-width:1" />
<line x1="543.3012701892228" y1="661.6025403784441" x2="568.3012701892226" y2="618.3012701892221" style="stroke:black;stroke-width:1" />
<line x1="568.3012701892226" y1="618.3012701892221" x2="568.3012701892226" y2="568.3012701892221" style="stroke:black;stroke-width:1" />
<line x1="568.3012701892226" y1="568.3012701892221" x2="543.3012701892225" y2="525.0000000000002" style="stroke:black;stroke-width:1" />
<line x1="543.3012701892225" y1="525.0000000000002" x2="500.00000000000057" y2="500.00000000000017" style="stroke:black;stroke-width:1" />
<line x1="500.00000000000057" y1="500.00000000000017" x2="456.69872981077856" y2="525.0000000000001" style="stroke:black;stroke-width:1" />
<line x1="456.69872981077856" y1="525.0000000000001" x2="431.6987298107786" y2="568.3012701892221" style="stroke:black;stroke-width:1" />
<line x1="431.6987298107786" y1="568.3012701892221" x2="431.69872981077845" y2="618.3012701892221" style="stroke:black;stroke-width:1" />
<line x1="431.69872981077845" y1="618.3012701892221" x2="456.69872981077845" y2="661.602540378444" style="stroke:black;stroke-width:1" />
<line x1="456.69872981077845" y1="661.602540378444" x2="500.0000000000002" y2="686.6025403784442" style="stroke:black;stroke-width:1" />
<line x1="500.0000000000002" y1="686.6025403784442" x2="550.0000000000002" y2="686.6025403784444" style="stroke:black;stroke-width:1" />
<line x1="550.0000000000002" y1="686.6025403784444" x2="593.3012701892221" y2="661.6025403784442" style="stroke:black;stroke-width:1" />
<line x1="593.3012701892221" y1="661.6025403784442" x2="618.3012701892222" y2="618.3012701892224" style="stroke:black;stroke-width:1" />
<line x1="618.3012701892222" y1="618.3012701892224" x2="618.3012701892222" y2="568.3012701892224" style="stroke:black;stroke-width:1" />
<line x1="618.3012701892222" y1="568.3012701892224" x2="593.3012701892225" y2="525.0000000000003" style="stroke:black;stroke-width:1" />
<line x1="593.3012701892225" y1="525.0000000000003" x2="550.0000000000006" y2="500.0000000000003" style="stroke:black;stroke-width:1" />
<line x1="550.0000000000006" y1="500.0000000000003" x2="500.00000000000057" y2="500.0000000000004" style="stroke:black;stroke-width:1" />
<line x1="500.00000000000057" y1="500.0000000000004" x2="475.00000000000057" y2="543.3012701892224" style="stroke:black;stroke-width:1" />
<line x1="475.00000000000057" y1="543.3012701892224" x2="475.0000000000004" y2="593.3012701892224" style="stroke:black;stroke-width:1" />
<line x1="475.0000000000004" y1="593.3012701892224" x2="500.00000000000034" y2="636.6025403784442" style="stroke:black;stroke-width:1" />
<line x1="500.00000000000034" y1="636.6025403784442" x2="543.3012701892221" y2="661.6025403784445" style="stroke:black;stroke-width:1" />
<line x1="543.3012701892221" y1="661.6025403784445" x2="593.3012701892221" y2="661.6025403784446" style="stroke:black;stroke-width:1" />
<line x1="593.3012701892221" y1="661.6025403784446" x2="636.6025403784442" y2="636.6025403784448" style="stroke:black;stroke-width:1" />
<line x1="636.6025403784442" y1="636.6025403784448" x2="661.6025403784444" y2="593.3012701892229" style="stroke:black;stroke-width:1" />
<line x1="661.6025403784444" y1="593.3012701892229" x2="661.6025403784444" y2="543.3012701892229" style="stroke:black;stroke-width:1" />
<line x1="661.6025403784444" y1="543.3012701892229" x2="636.6025403784446" y2="500.0000000000009" style="stroke:black;stroke-width:1" />
<line x1="636.6025403784446" y1="500.0000000000009" x2="593.3012701892227" y2="475.00000000000085" style="stroke:black;stroke-width:1" />
<line x1="593.3012701892227" y1="475.00000000000085" x2="543.3012701892227" y2="475.00000000000057" style="stroke:black;stroke-width:1" />
<line x1="543.3012701892227" y1="475.00000000000057" x2="500.0000000000007" y2="500.00000000000045" style="stroke:black;stroke-width:1" />
<line x1="500.0000000000007" y1="500.00000000000045" x2="500.0000000000005" y2="550.0000000000005" style="stroke:black;stroke-width:1" />
<line x1="500.0000000000005" y1="550.0000000000005" x2="525.0000000000001" y2="593.3012701892226" style="stroke:black;stroke-width:1" />
<line x1="525.0000000000001" y1="593.3012701892226" x2="568.3012701892221" y2="618.3012701892225" style="stroke:black;stroke-width:1" />
<line x1="568.3012701892221" y1="618.3012701892225" x2="618.3012701892221" y2="618.3012701892229" style="stroke:black;stroke-width:1" />
<line x1="618.3012701892221" y1="618.3012701892229" x2="661.602540378444" y2="593.3012701892229" style="stroke:black;stroke-width:1" />
<line x1="661.602540378444" y1="593.3012701892229" x2="686.6025403784439" y2="550.0000000000009" style="stroke:black;stroke-width:1" />
<line x1="686.6025403784439" y1="550.0000000000009" x2="686.6025403784439" y2="500.0000000000009" style="stroke:black;stroke-width:1" />
<line x1="686.6025403784439" y1="500.0000000000009" x2="661.6025403784438" y2="456.698729810779" style="stroke:black;stroke-width:1" />
<line x1="661.6025403784438" y1="456.698729810779" x2="618.3012701892219" y2="431.69872981077896" style="stroke:black;stroke-width:1" />
<line x1="618.3012701892219" y1="431.69872981077896" x2="568.3012701892219" y2="431.698729810779" style="stroke:black;stroke-width:1" />
<line x1="568.3012701892219" y1="431.698729810779" x2="524.9999999999999" y2="456.6987298107789" style="stroke:black;stroke-width:1" />
<line x1="524.9999999999999" y1="456.6987298107789" x2="499.9999999999999" y2="500.00000000000085" style="stroke:black;stroke-width:1" />
<line x1="499.9999999999999" y1="500.00000000000085" x2="524.9999999999999" y2="543.3012701892228" style="stroke:black;stroke-width:1" />
<line x1="524.9999999999999" y1="543.3012701892228" x2="568.3012701892219" y2="568.3012701892227" style="stroke:black;stroke-width:1" />
<line x1="568.3012701892219" y1="568.3012701892227" x2="618.3012701892219" y2="568.3012701892228" style="stroke:black;stroke-width:1" />
<line x1="618.3012701892219" y1="568.3012701892228" x2="661.6025403784438" y2="543.3012701892228" style="stroke:black;stroke-width:1" />
<line x1="661.6025403784438" y1="543.3012701892228" x2="686.6025403784439" y2="500.00000000000097" style="stroke:black;stroke-width:1" />
<line x1="686.6025403784439" y1="500.00000000000097" x2="686.6025403784436" y2="450.00000000000097" style="stroke:black;stroke-width:1" />
<line x1="686.6025403784436" y1="450.00000000000097" x2="661.6025403784438" y2="406.6987298107789" style="stroke:black;stroke-width:1" />
<line x1="661.6025403784438" y1="406.6987298107789" x2="618.3012701892219" y2="381.69872981077884" style="stroke:black;stroke-width:1" />
<line x1="618.3012701892219" y1="381.69872981077884" x2="568.3012701892219" y2="381.69872981077816" style="stroke:black;stroke-width:1" />
<line x1="568.3012701892219" y1="381.69872981077816" x2="525.0" y2="406.69872981077833" style="stroke:black;stroke-width:1" />
<line x1="525.0" y1="406.69872981077833" x2="499.99999999999966" y2="450.00000000000006" style="stroke:black;stroke-width:1" />
<line x1="499.99999999999966" y1="450.00000000000006" x2="499.99999999999943" y2="500.00000000000006" style="stroke:black;stroke-width:1" />
<line x1="499.99999999999943" y1="500.00000000000006" x2="543.3012701892214" y2="525.0" style="stroke:black;stroke-width:1" />
<line x1="543.3012701892214" y1="525.0" x2="593.3012701892214" y2="524.9999999999998" style="stroke:black;stroke-width:1" />
<line x1="593.3012701892214" y1="524.9999999999998" x2="636.6025403784436" y2="500.00000000000006" style="stroke:black;stroke-width:1" />
<line x1="636.6025403784436" y1="500.00000000000006" x2="661.6025403784438" y2="456.6987298107782" style="stroke:black;stroke-width:1" />
<line x1="661.6025403784438" y1="456.6987298107782" x2="661.6025403784438" y2="406.6987298107782" style="stroke:black;stroke-width:1" />
<line x1="661.6025403784438" y1="406.6987298107782" x2="636.6025403784437" y2="363.3974596215563" style="stroke:black;stroke-width:1" />
<line x1="636.6025403784437" y1="363.3974596215563" x2="593.301270189222" y2="338.3974596215559" style="stroke:black;stroke-width:1" />
<line x1="593.301270189222" y1="338.3974596215559" x2="543.301270189222" y2="338.3974596215556" style="stroke:black;stroke-width:1" />
<line x1="543.301270189222" y1="338.3974596215556" x2="500.0" y2="363.3974596215554" style="stroke:black;stroke-width:1" />
<line x1="500.0" y1="363.3974596215554" x2="475.0" y2="406.6987298107773" style="stroke:black;stroke-width:1" />
<line x1="475.0" y1="406.6987298107773" x2="475.0000000000001" y2="456.6987298107773" style="stroke:black;stroke-width:1" />
<line x1="475.0000000000001" y1="456.6987298107773" x2="499.9999999999997" y2="499.99999999999943" style="stroke:black;stroke-width:1" />
<line x1="499.9999999999997" y1="499.99999999999943" x2="549.9999999999998" y2="499.9999999999996" style="stroke:black;stroke-width:1" />
<line x1="549.9999999999998" y1="499.9999999999996" x2="593.3012701892217" y2="474.9999999999996" style="stroke:black;stroke-width:1" />
<line x1="593.3012701892217" y1="474.9999999999996" x2="618.3012701892221" y2="431.69872981077793" style="stroke:black;stroke-width:1" />
<line x1="618.3012701892221" y1="431.69872981077793" x2="618.3012701892226" y2="381.69872981077793" style="stroke:black;stroke-width:1" />
<line x1="618.3012701892226" y1="381.69872981077793" x2="593.3012701892222" y2="338.3974596215562" style="stroke:black;stroke-width:1" />
<line x1="593.3012701892222" y1="338.3974596215562" x2="550.0000000000003" y2="313.3974596215561" style="stroke:black;stroke-width:1" />
<line x1="550.0000000000003" y1="313.3974596215561" x2="500.00000000000034" y2="313.3974596215561" style="stroke:black;stroke-width:1" />
<line x1="500.00000000000034" y1="313.3974596215561" x2="456.69872981077816" y2="338.39745962155564" style="stroke:black;stroke-width:1" />
<line x1="456.69872981077816" y1="338.39745962155564" x2="431.69872981077845" y2="381.6987298107777" style="stroke:black;stroke-width:1" />
<line x1="431.69872981077845" y1="381.6987298107777" x2="431.6987298107782" y2="431.6987298107777" style="stroke:black;stroke-width:1" />
<line x1="431.6987298107782" y1="431.6987298107777" x2="456.6987298107781" y2="474.99999999999966" style="stroke:black;stroke-width:1" />
<line x1="456.6987298107781" y1="474.99999999999966" x2="499.9999999999997" y2="500.0000000000002" style="stroke:black;stroke-width:1" />
</svg>
