<svg>
<line x1="300" y1="500.0" x2="300" y2="500.0" style="stroke:black;stroke-width:1" />
<line x1="500.0" y1="300" x2="500.0" y2="300" style="stroke:black;stroke-width:1" />
<line x1="325" y1="596.8245836551854" x2="325" y2="403.1754163448146" style="stroke:black;stroke-width:1" />
<line x1="596.8245836551854" y1="325" x2="403.1754163448146" y2="325" style="stroke:black;stroke-width:1" />
<line x1="350" y1="632.2875655532296" x2="350" y2="367.71243444677043" style="stroke:black;stroke-width:1" />
<line x1="632.2875655532296" y1="350" x2="367.71243444677043" y2="350" style="stroke:black;stroke-width:1" />
<line x1="375" y1="656.12494995996" x2="375" y2="343.87505004004004" style="stroke:black;stroke-width:1" />
<line x1="656.12494995996" y1="375" x2="343.87505004004004" y2="375" style="stroke:black;stroke-width:1" />
<line x1="400" y1="673.2050807568877" x2="400" y2="326.7949192431123" style="stroke:black;stroke-width:1" />
<line x1="673.2050807568877" y1="400" x2="326.7949192431123" y2="400" style="stroke:black;stroke-width:1" />
<line x1="425" y1="685.4049621773916" x2="425" y2="314.59503782260845" style="stroke:black;stroke-width:1" />
<line x1="685.4049621773916" y1="425" x2="314.59503782260845" y2="425" style="stroke:black;stroke-width:1" />
<line x1="450" y1="693.6491673103708" x2="450" y2="306.35083268962916" style="stroke:black;stroke-width:1" />
<line x1="693.6491673103708" y1="450" x2="306.35083268962916" y2="450" style="stroke:black;stroke-width:1" />
<line x1="475" y1="698.4313483298442" x2="475" y2="301.5686516701557" style="stroke:black;stroke-width:1" />
<line x1="698.4313483298442" y1="475" x2="301.5686516701557" y2="475" style="stroke:black;stroke-width:1" />
<line x1="500" y1="700.0" x2="500" y2="300.0" style="stroke:black;stroke-width:1" />
<line x1="700.0" y1="500" x2="300.0" y2="500" style="stroke:black;stroke-width:1" />
<line x1="525" y1="698.4313483298442" x2="525" y2="301.5686516701557" style="stroke:black;stroke-width:1" />
<line x1="698.4313483298442" y1="525" x2="301.5686516701557" y2="525" style="stroke:black;stroke-width:1" />
<line x1="550" y1="693.6491673103708" x2="550" y2="306.35083268962916" style="stroke:black;stroke-width:1" />
<line x1="693.6491673103708" y1="550" x2="306.35083268962916" y2="550" style="stroke:black;stroke-width:1" />
<line x1="575" y1="685.4049621773916" x2="575" y2="314.59503782260845" style="stroke:black;stroke-width:1" />
<line x1="685.4049621773916" y1="575" x2="314.59503782260845" y2="575" style="stroke:black;stroke-width:1" />
<line x1="600" y1="673.2050807568877" x2="600" y2="326.7949192431123" style="stroke:black;stroke-width:1" />
<line x1="673.2050807568877" y1="600" x2="326.7949192431123" y2="600" style="stroke:black;stroke-width:1" />
<line x1="625" y1="656.12494995996" x2="625" y2="343.87505004004004" style="stroke:black;stroke-width:1" />
<line x1="656.12494995996" y1="625" x2="343.87505004004004" y2="625" style="stroke:black;stroke-width:1" />
<line x1="650" y1="632.2875655532296" x2="650" y2="367.71243444677043" style="stroke:black;stroke-width:1" />
<line x1="632.2875655532296" y1="650" x2="367.71243444677043" y2="650" style="stroke:black;stroke-width:1" />
<line x1="675" y1="596.8245836551854" x2="675" y2="403.1754163448146" style="stroke:black;stroke-width:1" />
<line x1="596.8245836551854" y1="675" x2="403.1754163448146" y2="675" style="stroke:black;stroke-width:1" />
<line x1="700" y1="500.0" x2="700" y2="500.0" style="stroke:black;stroke-width:1" />
<line x1="500.0" y1="700" x2="500.0" y2="700" style="stroke:black;stroke-width:1" />
</svg>
