<?xml version="1.0" encoding="UTF-8" ?><svg  width="100%" height="100%" viewBox="0 0 2000 2000"  xmlns="http://www.w3.org/2000/svg" version="1.1">
<line x1="500" y1="500" x2="900.0" y2="500.0" style="stroke:black;stroke-width:1" />
<line x1="900.0" y1="500.0" x2="900.0" y2="900.0" style="stroke:black;stroke-width:1" />
<line x1="900.0" y1="900.0" x2="500.0" y2="900.0" style="stroke:black;stroke-width:1" />
<line x1="500.0" y1="900.0" x2="499.99999999999994" y2="500.0" style="stroke:black;stroke-width:1" />
<line x1="499.99999999999994" y1="500.0" x2="600.0" y2="500.0" style="stroke:black;stroke-width:1" />
<line x1="600.0" y1="500.0" x2="900.000307187946" y2="599.9998183555253" style="stroke:black;stroke-width:1" />
<line x1="900.000307187946" y1="599.9998183555253" x2="800.000488832421" y2="900.0001255434714" style="stroke:black;stroke-width:1" />
<line x1="800.000488832421" y1="900.0001255434714" x2="500.0001816444749" y2="800.0003071879464" style="stroke:black;stroke-width:1" />
<line x1="500.0001816444749" y1="800.0003071879464" x2="599.9999999999999" y2="500.00000000000034" style="stroke:black;stroke-width:1" />
<line x1="599.9999999999999" y1="500.00000000000034" x2="675.0000767969864" y2="524.9999545888816" style="stroke:black;stroke-width:1" />
<line x1="675.0000767969864" y1="524.9999545888816" x2="875.0006284012961" y2="674.9998357158635" style="stroke:black;stroke-width:1" />
<line x1="875.0006284012961" y1="674.9998357158635" x2="725.0007472743146" y2="875.0003873201734" style="stroke:black;stroke-width:1" />
<line x1="725.0007472743146" y1="875.0003873201734" x2="525.0001956700046" y2="725.0005061931919" style="stroke:black;stroke-width:1" />
<line x1="525.0001956700046" y1="725.0005061931919" x2="675.0000767969858" y2="524.9999545888816" style="stroke:black;stroke-width:1" />
<line x1="675.0000767969858" y1="524.9999545888816" x2="725.0002146980634" y2="562.499924870627" style="stroke:black;stroke-width:1" />
<line x1="725.0002146980634" y1="562.499924870627" x2="837.5008798305712" y2="724.9999979898412" style="stroke:black;stroke-width:1" />
<line x1="837.5008798305712" y1="724.9999979898412" x2="675.0008067113567" y2="837.5006631223488" style="stroke:black;stroke-width:1" />
<line x1="675.0008067113567" y1="837.5006631223488" x2="562.5001415788488" y2="675.0005900031347" style="stroke:black;stroke-width:1" />
<line x1="562.5001415788488" y1="675.0005900031347" x2="725.0002146980631" y2="562.4999248706271" style="stroke:black;stroke-width:1" />
<line x1="725.0002146980631" y1="562.4999248706271" x2="753.1253809811901" y2="603.1249431504306" style="stroke:black;stroke-width:1" />
<line x1="753.1253809811901" y1="603.1249431504306" x2="796.8760217409888" y2="753.1252379803169" style="stroke:black;stroke-width:1" />
<line x1="796.8760217409888" y1="753.1252379803169" x2="646.8757269111024" y2="796.8758787401158" style="stroke:black;stroke-width:1" />
<line x1="646.8757269111024" y1="796.8758787401158" x2="603.1250861513032" y2="646.8755839102296" style="stroke:black;stroke-width:1" />
<line x1="603.1250861513032" y1="646.8755839102296" x2="753.1253809811894" y2="603.1249431504307" style="stroke:black;stroke-width:1" />
<line x1="753.1253809811894" y1="603.1249431504307" x2="764.0630411711393" y2="640.6250168579022" style="stroke:black;stroke-width:1" />
<line x1="764.0630411711393" y1="640.6250168579022" x2="759.3760497495028" y2="764.0629934983174" style="stroke:black;stroke-width:1" />
<line x1="759.3760497495028" y1="764.0629934983174" x2="635.9380731090877" y2="759.3760020766807" style="stroke:black;stroke-width:1" />
<line x1="635.9380731090877" y1="759.3760020766807" x2="640.6250645307246" y2="635.9380254362655" style="stroke:black;stroke-width:1" />
<line x1="640.6250645307246" y1="635.9380254362655" x2="764.0630411711397" y2="640.6250168579027" style="stroke:black;stroke-width:1" />
<line x1="764.0630411711397" y1="640.6250168579027" x2="762.8912933157304" y2="671.4845110180065" style="stroke:black;stroke-width:1" />
<line x1="762.8912933157304" y1="671.4845110180065" x2="728.5166080444966" y2="762.8913425679701" style="stroke:black;stroke-width:1" />
<line x1="728.5166080444966" y1="762.8913425679701" x2="637.1097764945331" y2="728.5166572967362" style="stroke:black;stroke-width:1" />
<line x1="637.1097764945331" y1="728.5166572967362" x2="671.4844617657673" y2="637.1098257467727" style="stroke:black;stroke-width:1" />
<line x1="671.4844617657673" y1="637.1098257467727" x2="762.8912933157306" y2="671.484511018007" style="stroke:black;stroke-width:1" />
<line x1="762.8912933157306" y1="671.484511018007" x2="754.2976219979222" y2="694.3362189054978" style="stroke:black;stroke-width:1" />
<line x1="754.2976219979222" y1="694.3362189054978" x2="705.6649152671483" y2="754.2977570577833" style="stroke:black;stroke-width:1" />
<line x1="705.6649152671483" y1="754.2977570577833" x2="645.7033771148633" y2="705.6650503270089" style="stroke:black;stroke-width:1" />
<line x1="645.7033771148633" y1="705.6650503270089" x2="694.3360838456379" y2="645.703512174724" style="stroke:black;stroke-width:1" />
<line x1="694.3360838456379" y1="645.703512174724" x2="754.2976219979231" y2="694.3362189054982" style="stroke:black;stroke-width:1" />
<line x1="754.2976219979231" y1="694.3362189054982" x2="742.1394453152295" y2="709.3266034435695" style="stroke:black;stroke-width:1" />
<line x1="742.1394453152295" y1="709.3266034435695" x2="690.6745206098296" y2="742.1396485084003" style="stroke:black;stroke-width:1" />
<line x1="690.6745206098296" y1="742.1396485084003" x2="657.8614755449989" y2="690.6747238030003" style="stroke:black;stroke-width:1" />
<line x1="657.8614755449989" y1="690.6747238030003" x2="709.3264002503993" y2="657.8616787381701" style="stroke:black;stroke-width:1" />
<line x1="709.3264002503993" y1="657.8616787381701" x2="742.1394453152302" y2="709.32660344357" style="stroke:black;stroke-width:1" />
<line x1="742.1394453152302" y1="709.32660344357" x2="729.2732141388801" y2="717.5298647097776" style="stroke:black;stroke-width:1" />
<line x1="729.2732141388801" y1="717.5298647097776" x2="682.471234720882" y2="729.2734659022783" style="stroke:black;stroke-width:1" />
<line x1="682.471234720882" y1="729.2734659022783" x2="670.7276335283814" y2="682.4714864842801" style="stroke:black;stroke-width:1" />
<line x1="670.7276335283814" y1="682.4714864842801" x2="717.5296129463795" y2="670.7278852917793" style="stroke:black;stroke-width:1" />
<line x1="717.5296129463795" y1="670.7278852917793" x2="729.27321413888" y2="717.5298647097776" style="stroke:black;stroke-width:1" />
<line x1="729.27321413888" y1="717.5298647097776" x2="717.5727192843805" y2="720.4657650079027" style="stroke:black;stroke-width:1" />
<line x1="717.5727192843805" y1="720.4657650079027" x2="679.5353038131475" y2="717.5730013198128" style="stroke:black;stroke-width:1" />
<line x1="679.5353038131475" y1="717.5730013198128" x2="682.4280675012374" y2="679.5355858485798" style="stroke:black;stroke-width:1" />
<line x1="682.4280675012374" y1="679.5355858485798" x2="720.4654829724703" y2="682.4283495366694" style="stroke:black;stroke-width:1" />
<line x1="720.4654829724703" y1="682.4283495366694" x2="717.5727192843804" y2="720.4657650079024" style="stroke:black;stroke-width:1" />
<line x1="717.5727192843804" y1="720.4657650079024" x2="708.0633654165721" y2="719.7425740858798" style="stroke:black;stroke-width:1" />
<line x1="708.0633654165721" y1="719.7425740858798" x2="680.2584642099447" y2="708.0636625036647" style="stroke:black;stroke-width:1" />
<line x1="680.2584642099447" y1="708.0636625036647" x2="691.9373757921597" y2="680.2587612970373" style="stroke:black;stroke-width:1" />
<line x1="691.9373757921597" y1="680.2587612970373" x2="719.742276998787" y2="691.9376728792525" style="stroke:black;stroke-width:1" />
<line x1="719.742276998787" y1="691.9376728792525" x2="708.0633654165719" y2="719.7425740858799" style="stroke:black;stroke-width:1" />
<line x1="708.0633654165719" y1="719.7425740858799" x2="701.112140114915" y2="716.8228461903262" style="stroke:black;stroke-width:1" />
<line x1="701.112140114915" y1="716.8228461903262" x2="683.1781654486479" y2="701.1124408594723" style="stroke:black;stroke-width:1" />
<line x1="683.1781654486479" y1="701.1124408594723" x2="698.8885707795017" y2="683.178466193205" style="stroke:black;stroke-width:1" />
<line x1="698.8885707795017" y1="683.178466193205" x2="716.822545445769" y2="698.8888715240588" style="stroke:black;stroke-width:1" />
<line x1="716.822545445769" y1="698.8888715240588" x2="701.1121401149152" y2="716.822846190326" style="stroke:black;stroke-width:1" />
<line x1="701.1121401149152" y1="716.822846190326" x2="696.6286464483484" y2="712.8952448576125" style="stroke:black;stroke-width:1" />
<line x1="696.6286464483484" y1="712.8952448576125" x2="687.1057458743384" y2="696.6289432718061" style="stroke:black;stroke-width:1" />
<line x1="687.1057458743384" y1="696.6289432718061" x2="703.3720474601449" y2="687.1060426977962" style="stroke:black;stroke-width:1" />
<line x1="703.3720474601449" y1="687.1060426977962" x2="712.8949480341547" y2="703.3723442836027" style="stroke:black;stroke-width:1" />
<line x1="712.8949480341547" y1="703.3723442836027" x2="696.6286464483481" y2="712.8952448576125" style="stroke:black;stroke-width:1" />
<line x1="696.6286464483481" y1="712.8952448576125" x2="694.2479213048457" y2="708.8286694611609" style="stroke:black;stroke-width:1" />
<line x1="694.2479213048457" y1="708.8286694611609" x2="691.1723065707798" y2="694.2482099607297" style="stroke:black;stroke-width:1" />
<line x1="691.1723065707798" y1="694.2482099607297" x2="705.7527660712109" y2="691.1725952266637" style="stroke:black;stroke-width:1" />
<line x1="705.7527660712109" y1="691.1725952266637" x2="708.8283808052768" y2="705.7530547270949" style="stroke:black;stroke-width:1" />
<line x1="708.8283808052768" y1="705.7530547270949" x2="694.2479213048456" y2="708.8286694611606" style="stroke:black;stroke-width:1" />
<line x1="694.2479213048456" y1="708.8286694611606" x2="693.479017621329" y2="705.1835545860529" style="stroke:black;stroke-width:1" />
<line x1="693.479017621329" y1="705.1835545860529" x2="694.8174124627584" y2="693.4792964765306" style="stroke:black;stroke-width:1" />
<line x1="694.8174124627584" y1="693.4792964765306" x2="706.5216705722806" y2="694.8176913179598" style="stroke:black;stroke-width:1" />
<line x1="706.5216705722806" y1="694.8176913179598" x2="705.1832757308515" y2="706.521949427482" style="stroke:black;stroke-width:1" />
<line x1="705.1832757308515" y1="706.521949427482" x2="693.4790176213293" y2="705.1835545860529" style="stroke:black;stroke-width:1" />
<line x1="693.4790176213293" y1="705.1835545860529" x2="693.8136163316866" y2="702.2574900586723" style="stroke:black;stroke-width:1" />
<line x1="693.8136163316866" y1="702.2574900586723" x2="697.7434727029515" y2="693.8138855905903" style="stroke:black;stroke-width:1" />
<line x1="697.7434727029515" y1="693.8138855905903" x2="706.1870771710335" y2="697.7437419618551" style="stroke:black;stroke-width:1" />
<line x1="706.1870771710335" y1="697.7437419618551" x2="702.2572207997686" y2="706.1873464299371" style="stroke:black;stroke-width:1" />
<line x1="702.2572207997686" y1="706.1873464299371" x2="693.8136163316865" y2="702.2574900586723" style="stroke:black;stroke-width:1" />
<line x1="693.8136163316865" y1="702.2574900586723" x2="694.7960804245027" y2="700.1465889416518" style="stroke:black;stroke-width:1" />
<line x1="694.7960804245027" y1="700.1465889416518" x2="699.8543730036479" y2="694.7963414143809" style="stroke:black;stroke-width:1" />
<line x1="699.8543730036479" y1="694.7963414143809" x2="705.2046205309186" y2="699.854633993526" style="stroke:black;stroke-width:1" />
<line x1="705.2046205309186" y1="699.854633993526" x2="700.1463279517735" y2="705.2048815207969" style="stroke:black;stroke-width:1" />
<line x1="700.1463279517735" y1="705.2048815207969" x2="694.7960804245027" y2="700.1465889416518" style="stroke:black;stroke-width:1" />
<line x1="694.7960804245027" y1="700.1465889416518" x2="696.060653569289" y2="698.8090270598341" style="stroke:black;stroke-width:1" />
<line x1="696.060653569289" y1="698.8090270598341" x2="701.1919363404746" y2="696.0609081533112" style="stroke:black;stroke-width:1" />
<line x1="701.1919363404746" y1="696.0609081533112" x2="703.9400552469975" y2="701.1921909244968" style="stroke:black;stroke-width:1" />
<line x1="703.9400552469975" y1="701.1921909244968" x2="698.8087724758119" y2="703.9403098310196" style="stroke:black;stroke-width:1" />
<line x1="698.8087724758119" y1="703.9403098310196" x2="696.060653569289" y2="698.809027059834" style="stroke:black;stroke-width:1" />
<line x1="696.060653569289" y1="698.809027059834" x2="697.3434742620854" y2="698.1219973332032" style="stroke:black;stroke-width:1" />
<line x1="697.3434742620854" y1="698.1219973332032" x2="701.8789687598243" y2="697.343724405462" style="stroke:black;stroke-width:1" />
<line x1="701.8789687598243" y1="697.343724405462" x2="702.6572416875654" y2="701.8792189032009" style="stroke:black;stroke-width:1" />
<line x1="702.6572416875654" y1="701.8792189032009" x2="698.1217471898265" y2="702.657491830942" style="stroke:black;stroke-width:1" />
<line x1="698.1217471898265" y1="702.657491830942" x2="697.3434742620854" y2="698.1219973332031" style="stroke:black;stroke-width:1" />
<line x1="697.3434742620854" y1="698.1219973332031" x2="698.4773478865201" y2="697.9274291012679" style="stroke:black;stroke-width:1" />
<line x1="698.4773478865201" y1="697.9274291012679" x2="702.0735401214602" y2="698.4775953725879" style="stroke:black;stroke-width:1" />
<line x1="702.0735401214602" y1="698.4775953725879" x2="701.5233738501402" y2="702.073787607528" style="stroke:black;stroke-width:1" />
<line x1="701.5233738501402" y1="702.073787607528" x2="697.9271816152" y2="701.5236213362081" style="stroke:black;stroke-width:1" />
<line x1="697.9271816152" y1="701.5236213362081" x2="698.4773478865199" y2="697.9274291012679" style="stroke:black;stroke-width:1" />
<line x1="698.4773478865199" y1="697.9274291012679" x2="699.3763959452549" y2="698.0649706690979" style="stroke:black;stroke-width:1" />
<line x1="699.3763959452549" y1="698.0649706690979" x2="701.9360015652339" y2="699.3766422207628" style="stroke:black;stroke-width:1" />
<line x1="701.9360015652339" y1="699.3766422207628" x2="700.624330013569" y2="701.9362478407419" style="stroke:black;stroke-width:1" />
<line x1="700.624330013569" y1="701.9362478407419" x2="698.0647243935899" y2="700.6245762890769" style="stroke:black;stroke-width:1" />
<line x1="698.0647243935899" y1="700.6245762890769" x2="699.3763959452549" y2="698.0649706690979" style="stroke:black;stroke-width:1" />
<line x1="699.3763959452549" y1="698.0649706690979" x2="700.0162973502496" y2="698.3928885570141" style="stroke:black;stroke-width:1" />
<line x1="700.0162973502496" y1="698.3928885570141" x2="701.6080862386623" y2="700.0165434707363" style="stroke:black;stroke-width:1" />
<line x1="701.6080862386623" y1="700.0165434707363" x2="699.9844313249401" y2="701.608332359149" style="stroke:black;stroke-width:1" />
<line x1="699.9844313249401" y1="701.608332359149" x2="698.3926424365275" y2="699.9846774454268" style="stroke:black;stroke-width:1" />
<line x1="698.3926424365275" y1="699.9846774454268" x2="700.0162973502497" y2="698.3928885570141" style="stroke:black;stroke-width:1" />
<line x1="700.0162973502497" y1="698.3928885570141" x2="700.4142445723529" y2="698.7988022854446" style="stroke:black;stroke-width:1" />
<line x1="700.4142445723529" y1="698.7988022854446" x2="701.2021744699977" y2="700.4144912169083" style="stroke:black;stroke-width:1" />
<line x1="701.2021744699977" y1="700.4144912169083" x2="699.5864855385339" y2="701.2024211145531" style="stroke:black;stroke-width:1" />
<line x1="699.5864855385339" y1="701.2024211145531" x2="698.7985556408892" y2="699.5867321830893" style="stroke:black;stroke-width:1" />
<line x1="698.7985556408892" y1="699.5867321830893" x2="700.4142445723529" y2="698.7988022854446" style="stroke:black;stroke-width:1" />
<line x1="700.4142445723529" y1="698.7988022854446" x2="700.611227046764" y2="699.2027245183106" style="stroke:black;stroke-width:1" />
<line x1="700.611227046764" y1="699.2027245183106" x2="700.7982535759405" y2="700.6114745743122" style="stroke:black;stroke-width:1" />
<line x1="700.7982535759405" y1="700.6114745743122" x2="699.3895035199389" y2="700.7985011034887" style="stroke:black;stroke-width:1" />
<line x1="699.3895035199389" y1="700.7985011034887" x2="699.2024769907624" y2="699.389751047487" style="stroke:black;stroke-width:1" />
<line x1="699.2024769907624" y1="699.389751047487" x2="700.611227046764" y2="699.2027245183106" style="stroke:black;stroke-width:1" />
<line x1="700.611227046764" y1="699.2027245183106" x2="700.6579836790581" y2="699.554912032311" style="stroke:black;stroke-width:1" />
<line x1="700.6579836790581" y1="699.554912032311" x2="700.4460668452999" y2="700.6582322035531" style="stroke:black;stroke-width:1" />
<line x1="700.4460668452999" y1="700.6582322035531" x2="699.3427466740578" y2="700.4463153697949" style="stroke:black;stroke-width:1" />
<line x1="699.3427466740578" y1="700.4463153697949" x2="699.554663507816" y2="699.3429951985528" style="stroke:black;stroke-width:1" />
<line x1="699.554663507816" y1="699.3429951985528" x2="700.6579836790581" y2="699.554912032311" style="stroke:black;stroke-width:1" />
<line x1="700.6579836790581" y1="699.554912032311" x2="700.6050044706186" y2="699.8307420751215" style="stroke:black;stroke-width:1" />
<line x1="700.6050044706186" y1="699.8307420751215" x2="700.1702371407738" y2="700.605253938664" style="stroke:black;stroke-width:1" />
<line x1="700.1702371407738" y1="700.605253938664" x2="699.3957252772313" y2="700.1704866088191" style="stroke:black;stroke-width:1" />
<line x1="699.3957252772313" y1="700.1704866088191" x2="699.8304926070762" y2="699.3959747452767" style="stroke:black;stroke-width:1" />
<line x1="699.8304926070762" y1="699.3959747452767" x2="700.6050044706186" y2="699.8307420751216" style="stroke:black;stroke-width:1" />
<line x1="700.6050044706186" y1="699.8307420751216" x2="700.4963126381574" y2="700.0243700410073" style="stroke:black;stroke-width:1" />
<line x1="700.4963126381574" y1="700.0243700410073" x2="699.9766091927145" y2="700.4965628984373" style="stroke:black;stroke-width:1" />
<line x1="699.9766091927145" y1="700.4965628984373" x2="699.5044163352844" y2="699.9768594529944" style="stroke:black;stroke-width:1" />
<line x1="699.5044163352844" y1="699.9768594529944" x2="700.0241197807273" y2="699.5046665955643" style="stroke:black;stroke-width:1" />
<line x1="700.0241197807273" y1="699.5046665955643" x2="700.4963126381574" y2="700.0243700410073" style="stroke:black;stroke-width:1" />
<line x1="700.4963126381574" y1="700.0243700410073" x2="700.3663867767966" y2="700.1424182553648" style="stroke:black;stroke-width:1" />
<line x1="700.3663867767966" y1="700.1424182553648" x2="699.8585607936683" y2="700.3666376357096" style="stroke:black;stroke-width:1" />
<line x1="699.8585607936683" y1="700.3666376357096" x2="699.6343414133235" y2="699.8588116525813" style="stroke:black;stroke-width:1" />
<line x1="699.6343414133235" y1="699.8588116525813" x2="700.1421673964518" y2="699.6345922722364" style="stroke:black;stroke-width:1" />
<line x1="700.1421673964518" y1="699.6345922722364" x2="700.3663867767966" y2="700.1424182553648" style="stroke:black;stroke-width:1" />
<line x1="700.3663867767966" y1="700.1424182553648" x2="700.2394302810145" y2="700.198473100451" style="stroke:black;stroke-width:1" />
<line x1="700.2394302810145" y1="700.198473100451" x2="699.8025056604075" y2="700.2396815427308" style="stroke:black;stroke-width:1" />
<line x1="699.8025056604075" y1="700.2396815427308" x2="699.7612972181278" y2="699.8027569221238" style="stroke:black;stroke-width:1" />
<line x1="699.7612972181278" y1="699.8027569221238" x2="700.1982218387348" y2="699.761548479844" style="stroke:black;stroke-width:1" />
<line x1="700.1982218387348" y1="699.761548479844" x2="700.2394302810145" y2="700.198473100451" style="stroke:black;stroke-width:1" />
<line x1="700.2394302810145" y1="700.198473100451" x2="700.1301991258628" y2="700.2087752110209" style="stroke:black;stroke-width:1" />
<line x1="700.1301991258628" y1="700.2087752110209" x2="699.7922032330059" y2="700.1304506176382" style="stroke:black;stroke-width:1" />
<line x1="699.7922032330059" y1="700.1304506176382" x2="699.8705278263886" y2="699.7924547247814" style="stroke:black;stroke-width:1" />
<line x1="699.8705278263886" y1="699.7924547247814" x2="700.2085237192455" y2="699.8707793181641" style="stroke:black;stroke-width:1" />
<line x1="700.2085237192455" y1="699.8707793181641" x2="700.1301991258628" y2="700.2087752110209" style="stroke:black;stroke-width:1" />
<line x1="700.1301991258628" y1="700.2087752110209" x2="700.0457001526486" y2="700.1891940626753" style="stroke:black;stroke-width:1" />
<line x1="700.0457001526486" y1="700.1891940626753" x2="699.8117840862128" y2="700.0459517377608" style="stroke:black;stroke-width:1" />
<line x1="699.8117840862128" y1="700.0459517377608" x2="699.9550264111273" y2="699.812035671325" style="stroke:black;stroke-width:1" />
<line x1="699.9550264111273" y1="699.812035671325" x2="700.188942477563" y2="699.9552779962395" style="stroke:black;stroke-width:1" />
<line x1="700.188942477563" y1="699.9552779962395" x2="700.0457001526486" y2="700.1891940626753" style="stroke:black;stroke-width:1" />
<line x1="700.0457001526486" y1="700.1891940626753" x2="699.9872211360397" y2="700.1533834814467" style="stroke:black;stroke-width:1" />
<line x1="699.9872211360397" y1="700.1533834814467" x2="699.8475944227531" y2="699.98747271737" style="stroke:black;stroke-width:1" />
<line x1="699.8475944227531" y1="699.98747271737" x2="700.0135051868298" y2="699.8478460040834" style="stroke:black;stroke-width:1" />
<line x1="700.0135051868298" y1="699.8478460040834" x2="700.1531319001164" y2="700.0137567681601" style="stroke:black;stroke-width:1" />
<line x1="700.1531319001164" y1="700.0137567681601" x2="699.9872211360397" y2="700.1533834814467" style="stroke:black;stroke-width:1" />
<line x1="699.9872211360397" y1="700.1533834814467" x2="699.952314457718" y2="700.1119057904275" style="stroke:black;stroke-width:1" />
<line x1="699.952314457718" y1="700.1119057904275" x2="699.8890719312012" y2="699.95256597504" style="stroke:black;stroke-width:1" />
<line x1="699.8890719312012" y1="699.95256597504" x2="700.0484117465887" y2="699.8893234485232" style="stroke:black;stroke-width:1" />
<line x1="700.0484117465887" y1="699.8893234485232" x2="700.1116542731055" y2="700.0486632639107" style="stroke:black;stroke-width:1" />
<line x1="700.1116542731055" y1="700.0486632639107" x2="699.952314457718" y2="700.1119057904275" style="stroke:black;stroke-width:1" />
<line x1="699.952314457718" y1="700.1119057904275" x2="699.9365038260888" y2="700.0720708365806" style="stroke:black;stroke-width:1" />
<line x1="699.9365038260888" y1="700.0720708365806" x2="699.9289067641217" y2="699.9367552497616" style="stroke:black;stroke-width:1" />
<line x1="699.9289067641217" y1="699.9367552497616" x2="700.0642223509407" y2="699.9291581877945" style="stroke:black;stroke-width:1" />
<line x1="700.0642223509407" y1="699.9291581877945" x2="700.0718194129078" y2="700.0644737746135" style="stroke:black;stroke-width:1" />
<line x1="700.0718194129078" y1="700.0644737746135" x2="699.9365038260888" y2="700.0720708365806" style="stroke:black;stroke-width:1" />
<line x1="699.9365038260888" y1="700.0720708365806" x2="699.9346045605971" y2="700.0382419398759" style="stroke:black;stroke-width:1" />
<line x1="699.9346045605971" y1="700.0382419398759" x2="699.9627355935439" y2="699.9348558838016" style="stroke:black;stroke-width:1" />
<line x1="699.9627355935439" y1="699.9348558838016" x2="700.0661216496183" y2="699.9629869167484" style="stroke:black;stroke-width:1" />
<line x1="700.0661216496183" y1="699.9629869167484" x2="700.0379906166714" y2="700.0663729728227" style="stroke:black;stroke-width:1" />
<line x1="700.0379906166714" y1="700.0663729728227" x2="699.9346045605971" y2="700.0382419398759" style="stroke:black;stroke-width:1" />
<line x1="699.9346045605971" y1="700.0382419398759" x2="699.9416373188338" y2="700.0123954258573" style="stroke:black;stroke-width:1" />
<line x1="699.9416373188338" y1="700.0123954258573" x2="699.9885820822176" y2="699.9418885498662" style="stroke:black;stroke-width:1" />
<line x1="699.9885820822176" y1="699.9418885498662" x2="700.0590889582087" y2="699.98883331325" style="stroke:black;stroke-width:1" />
<line x1="700.0590889582087" y1="699.98883331325" x2="700.0121441948249" y2="700.0593401892411" style="stroke:black;stroke-width:1" />
<line x1="700.0121441948249" y1="700.0593401892411" x2="699.9416373188338" y2="700.0123954258573" style="stroke:black;stroke-width:1" />
<line x1="699.9416373188338" y1="700.0123954258573" x2="699.9533735096797" y2="699.9947687068595" style="stroke:black;stroke-width:1" />
<line x1="699.9533735096797" y1="699.9947687068595" x2="700.0062088052495" y2="699.9536246652468" style="stroke:black;stroke-width:1" />
<line x1="700.0062088052495" y1="699.9536246652468" x2="700.0473528468622" y2="700.0064599608165" style="stroke:black;stroke-width:1" />
<line x1="700.0473528468622" y1="700.0064599608165" x2="699.9945175512925" y2="700.0476040024292" style="stroke:black;stroke-width:1" />
<line x1="699.9945175512925" y1="700.0476040024292" x2="699.9533735096797" y2="699.9947687068595" style="stroke:black;stroke-width:1" />
<line x1="699.9533735096797" y1="699.9947687068595" x2="699.9665823335722" y2="699.9844826964563" style="stroke:black;stroke-width:1" />
<line x1="699.9665823335722" y1="699.9844826964563" x2="700.0164948375447" y2="699.9668334335488" style="stroke:black;stroke-width:1" />
<line x1="700.0164948375447" y1="699.9668334335488" x2="700.0341441004522" y2="700.0167459375213" style="stroke:black;stroke-width:1" />
<line x1="700.0341441004522" y1="700.0167459375213" x2="699.9842315964797" y2="700.0343952004288" style="stroke:black;stroke-width:1" />
<line x1="699.9842315964797" y1="700.0343952004288" x2="699.9665823335722" y2="699.9844826964563" style="stroke:black;stroke-width:1" />
<line x1="699.9665823335722" y1="699.9844826964563" x2="699.9790604595653" y2="699.9800703807294" style="stroke:black;stroke-width:1" />
<line x1="699.9790604595653" y1="699.9800703807294" x2="700.0209071835881" y2="699.9793115233219" style="stroke:black;stroke-width:1" />
<line x1="700.0209071835881" y1="699.9793115233219" x2="700.0216660409956" y2="700.0211582473447" style="stroke:black;stroke-width:1" />
<line x1="700.0216660409956" y1="700.0211582473447" x2="699.9798193169728" y2="700.0219171047522" style="stroke:black;stroke-width:1" />
<line x1="699.9798193169728" y1="700.0219171047522" x2="699.9790604595653" y2="699.9800703807294" style="stroke:black;stroke-width:1" />
<line x1="699.9790604595653" y1="699.9800703807294" x2="699.989522140571" y2="699.9798806663775" style="stroke:black;stroke-width:1" />
<line x1="699.989522140571" y1="699.9798806663775" x2="700.0210969297324" y2="699.9897731847418" style="stroke:black;stroke-width:1" />
<line x1="700.0210969297324" y1="699.9897731847418" x2="700.0112044113681" y2="700.0213479739032" style="stroke:black;stroke-width:1" />
<line x1="700.0112044113681" y1="700.0213479739032" x2="699.9796296222067" y2="700.0114554555389" style="stroke:black;stroke-width:1" />
<line x1="699.9796296222067" y1="700.0114554555389" x2="699.989522140571" y2="699.9798806663775" style="stroke:black;stroke-width:1" />
<line x1="699.989522140571" y1="699.9798806663775" x2="699.9974158378614" y2="699.9823537959686" style="stroke:black;stroke-width:1" />
<line x1="699.9974158378614" y1="699.9823537959686" x2="700.0186238288821" y2="699.9976668752909" style="stroke:black;stroke-width:1" />
<line x1="700.0186238288821" y1="699.9976668752909" x2="700.0033107495599" y2="700.0188748663116" style="stroke:black;stroke-width:1" />
<line x1="700.0033107495599" y1="700.0188748663116" x2="699.9821027585391" y2="700.0035617869894" style="stroke:black;stroke-width:1" />
<line x1="699.9821027585391" y1="700.0035617869894" x2="699.9974158378614" y2="699.9823537959686" style="stroke:black;stroke-width:1" />
<line x1="699.9974158378614" y1="699.9823537959686" x2="700.0027178356165" y2="699.9861820657992" style="stroke:black;stroke-width:1" />
<line x1="700.0027178356165" y1="699.9861820657992" x2="700.0147955822924" y2="700.0029688751753" style="stroke:black;stroke-width:1" />
<line x1="700.0147955822924" y1="700.0029688751753" x2="699.9980087729164" y2="700.0150466218512" style="stroke:black;stroke-width:1" />
<line x1="699.9980087729164" y1="700.0150466218512" x2="699.9859310262405" y2="699.9982598124751" style="stroke:black;stroke-width:1" />
<line x1="699.9859310262405" y1="699.9982598124751" x2="700.0027178356165" y2="699.9861820657992" style="stroke:black;stroke-width:1" />
<line x1="700.0027178356165" y1="699.9861820657992" x2="700.0057372722855" y2="699.9903787681432" style="stroke:black;stroke-width:1" />
<line x1="700.0057372722855" y1="699.9903787681432" x2="700.0105988968469" y2="700.0059883192513" style="stroke:black;stroke-width:1" />
<line x1="700.0105988968469" y1="700.0059883192513" x2="699.9949893457388" y2="700.0108499438127" style="stroke:black;stroke-width:1" />
<line x1="699.9949893457388" y1="700.0108499438127" x2="699.9901277211774" y2="699.9952403927045" style="stroke:black;stroke-width:1" />
<line x1="699.9901277211774" y1="699.9952403927045" x2="700.0057372722855" y2="699.9903787681432" style="stroke:black;stroke-width:1" />
<line x1="700.0057372722855" y1="699.9903787681432" x2="700.0069526784258" y2="699.9942811559202" style="stroke:black;stroke-width:1" />
<line x1="700.0069526784258" y1="699.9942811559202" x2="700.0066965198919" y2="700.0072037351716" style="stroke:black;stroke-width:1" />
<line x1="700.0066965198919" y1="700.0072037351716" x2="699.9937739406405" y2="700.0069475766377" style="stroke:black;stroke-width:1" />
<line x1="699.9937739406405" y1="700.0069475766377" x2="699.9940300991744" y2="699.9940249973863" style="stroke:black;stroke-width:1" />
<line x1="699.9940300991744" y1="699.9940249973863" x2="700.0069526784258" y2="699.9942811559202" style="stroke:black;stroke-width:1" />
<line x1="700.0069526784258" y1="699.9942811559202" x2="700.0068886387924" y2="699.9975118007332" style="stroke:black;stroke-width:1" />
<line x1="700.0068886387924" y1="699.9975118007332" x2="700.0034658807506" y2="700.0071397055787" style="stroke:black;stroke-width:1" />
<line x1="700.0034658807506" y1="700.0071397055787" x2="699.9938379759051" y2="700.0037169475369" style="stroke:black;stroke-width:1" />
<line x1="699.9938379759051" y1="700.0037169475369" x2="699.9972607339469" y2="699.9940890426914" style="stroke:black;stroke-width:1" />
<line x1="699.9972607339469" y1="699.9940890426914" x2="700.0068886387924" y2="699.9975118007332" style="stroke:black;stroke-width:1" />
<line x1="700.0068886387924" y1="699.9975118007332" x2="700.0060329492819" y2="699.9999187769446" style="stroke:black;stroke-width:1" />
<line x1="700.0060329492819" y1="699.9999187769446" x2="700.0010589062828" y2="700.0062840250165" style="stroke:black;stroke-width:1" />
<line x1="700.0010589062828" y1="700.0062840250165" x2="699.9946936582108" y2="700.0013099820173" style="stroke:black;stroke-width:1" />
<line x1="699.9946936582108" y1="700.0013099820173" x2="699.99966770121" y2="699.9949447339454" style="stroke:black;stroke-width:1" />
<line x1="699.99966770121" y1="699.9949447339454" x2="700.0060329492819" y2="699.9999187769446" style="stroke:black;stroke-width:1" />
<line x1="700.0060329492819" y1="699.9999187769446" x2="700.0047894385322" y2="700.0015100889626" style="stroke:black;stroke-width:1" />
<line x1="700.0047894385322" y1="700.0015100889626" x2="699.9994675933355" y2="700.0050405214139" style="stroke:black;stroke-width:1" />
<line x1="699.9994675933355" y1="700.0050405214139" x2="699.9959371608842" y2="699.9997186762172" style="stroke:black;stroke-width:1" />
<line x1="699.9959371608842" y1="699.9997186762172" x2="700.0012590060809" y2="699.9961882437659" style="stroke:black;stroke-width:1" />
<line x1="700.0012590060809" y1="699.9961882437659" x2="700.0047894385322" y2="700.0015100889626" style="stroke:black;stroke-width:1" />
<line x1="700.0047894385322" y1="700.0015100889626" x2="700.003458977233" y2="700.0023926970755" style="stroke:black;stroke-width:1" />
<line x1="700.003458977233" y1="700.0023926970755" x2="699.9985849827389" y2="700.0037100652428" style="stroke:black;stroke-width:1" />
<line x1="699.9985849827389" y1="700.0037100652428" x2="699.9972676145716" y2="699.9988360707487" style="stroke:black;stroke-width:1" />
<line x1="699.9972676145716" y1="699.9988360707487" x2="700.0021416090657" y2="699.9975187025814" style="stroke:black;stroke-width:1" />
<line x1="700.0021416090657" y1="699.9975187025814" x2="700.003458977233" y2="700.0023926970755" style="stroke:black;stroke-width:1" />
<line x1="700.003458977233" y1="700.0023926970755" x2="700.0022404786095" y2="700.0027220391173" style="stroke:black;stroke-width:1" />
<line x1="700.0022404786095" y1="700.0027220391173" x2="699.9982556375521" y2="700.0024915698442" style="stroke:black;stroke-width:1" />
<line x1="699.9982556375521" y1="700.0024915698442" x2="699.9984861068252" y2="699.9985067287869" style="stroke:black;stroke-width:1" />
<line x1="699.9984861068252" y1="699.9985067287869" x2="700.0024709478826" y2="699.99873719806" style="stroke:black;stroke-width:1" />
<line x1="700.0024709478826" y1="699.99873719806" x2="700.0022404786095" y2="700.0027220391173" style="stroke:black;stroke-width:1" />
<line x1="700.0022404786095" y1="700.0027220391173" x2="700.0012442683451" y2="700.0026644217991" style="stroke:black;stroke-width:1" />
</svg>
