<?xml version="1.0" encoding="UTF-8" ?><svg  width="100%" height="100%" viewBox="0 0 2000 2000"  xmlns="http://www.w3.org/2000/svg" version="1.1">
<line x1="500.0" y1="470.0" x2="474.01923788646684" y2="515.0" style="stroke:black;stroke-width:1" />
<line x1="474.01923788646684" y1="515.0" x2="525.9807621135332" y2="515.0" style="stroke:black;stroke-width:1" />
<line x1="525.9807621135332" y1="515.0" x2="500.0" y2="470.0" style="stroke:black;stroke-width:1" />
<line x1="500.0" y1="440.0" x2="448.0384757729337" y2="530.0" style="stroke:black;stroke-width:1" />
<line x1="448.0384757729337" y1="530.0" x2="551.9615242270663" y2="530.0" style="stroke:black;stroke-width:1" />
<line x1="551.9615242270663" y1="530.0" x2="500.0" y2="440.0" style="stroke:black;stroke-width:1" />
<line x1="500.0000000000002" y1="410.0" x2="422.0577136594008" y2="544.9999999999999" style="stroke:black;stroke-width:1" />
<line x1="422.0577136594008" y1="544.9999999999999" x2="577.9422863405996" y2="544.9999999999998" style="stroke:black;stroke-width:1" />
<line x1="577.9422863405996" y1="544.9999999999998" x2="500.0000000000002" y2="410.0" style="stroke:black;stroke-width:1" />
<line x1="500.0" y1="379.9999999999998" x2="396.07695154586736" y2="559.9999999999997" style="stroke:black;stroke-width:1" />
<line x1="396.07695154586736" y1="559.9999999999997" x2="603.9230484541328" y2="559.9999999999999" style="stroke:black;stroke-width:1" />
<line x1="603.9230484541328" y1="559.9999999999999" x2="500.0" y2="379.9999999999998" style="stroke:black;stroke-width:1" />
<line x1="500.00000000000074" y1="349.99999999999943" x2="370.0961894323352" y2="574.9999999999997" style="stroke:black;stroke-width:1" />
<line x1="370.0961894323352" y1="574.9999999999997" x2="629.9038105676668" y2="575.0" style="stroke:black;stroke-width:1" />
<line x1="629.9038105676668" y1="575.0" x2="500.00000000000074" y2="349.99999999999943" style="stroke:black;stroke-width:1" />
<line x1="500.0000000000023" y1="319.9999999999999" x2="344.1154273188026" y2="589.9999999999995" style="stroke:black;stroke-width:1" />
<line x1="344.1154273188026" y1="589.9999999999995" x2="655.8845726812006" y2="590.0000000000011" style="stroke:black;stroke-width:1" />
<line x1="655.8845726812006" y1="590.0000000000011" x2="500.0000000000023" y2="319.9999999999999" style="stroke:black;stroke-width:1" />
<line x1="500.00000000000165" y1="290.00000000000097" x2="318.13466520526856" y2="605.0000000000006" style="stroke:black;stroke-width:1" />
<line x1="318.13466520526856" y1="605.0000000000006" x2="681.8653347947322" y2="605.0000000000011" style="stroke:black;stroke-width:1" />
<line x1="681.8653347947322" y1="605.0000000000011" x2="500.00000000000165" y2="290.00000000000097" style="stroke:black;stroke-width:1" />
<line x1="500.0000000000002" y1="260.0000000000009" x2="292.15390309173375" y2="620.0000000000005" style="stroke:black;stroke-width:1" />
<line x1="292.15390309173375" y1="620.0000000000005" x2="707.8460969082645" y2="620.0000000000027" style="stroke:black;stroke-width:1" />
<line x1="707.8460969082645" y1="620.0000000000027" x2="500.0000000000002" y2="260.0000000000009" style="stroke:black;stroke-width:1" />
<line x1="499.99999999999943" y1="230.00000000000244" x2="266.1731409781995" y2="635.0000000000018" style="stroke:black;stroke-width:1" />
<line x1="266.1731409781995" y1="635.0000000000018" x2="733.8268590217965" y2="635.0000000000011" style="stroke:black;stroke-width:1" />
<line x1="733.8268590217965" y1="635.0000000000011" x2="499.99999999999943" y2="230.00000000000244" style="stroke:black;stroke-width:1" />
<line x1="499.99999999999847" y1="200.00000000000074" x2="240.19237886466516" y2="650.0" style="stroke:black;stroke-width:1" />
<line x1="240.19237886466516" y1="650.0" x2="759.8076211353284" y2="649.9999999999994" style="stroke:black;stroke-width:1" />
<line x1="759.8076211353284" y1="649.9999999999994" x2="499.99999999999847" y2="200.00000000000074" style="stroke:black;stroke-width:1" />
<line x1="499.999999999995" y1="169.99999999999892" x2="214.21161675112938" y2="665.0" style="stroke:black;stroke-width:1" />
<line x1="214.21161675112938" y1="665.0" x2="785.7883832488603" y2="665.0000000000015" style="stroke:black;stroke-width:1" />
<line x1="785.7883832488603" y1="665.0000000000015" x2="499.999999999995" y2="169.99999999999892" style="stroke:black;stroke-width:1" />
<line x1="499.99999999999744" y1="139.9999999999988" x2="188.2308546375998" y2="679.9999999999977" style="stroke:black;stroke-width:1" />
<line x1="188.2308546375998" y1="679.9999999999977" x2="811.7691453623945" y2="679.9999999999995" style="stroke:black;stroke-width:1" />
<line x1="811.7691453623945" y1="679.9999999999995" x2="499.99999999999744" y2="139.9999999999988" style="stroke:black;stroke-width:1" />
<line x1="500.0000000000003" y1="109.99999999999875" x2="162.25009252406517" y2="694.9999999999951" style="stroke:black;stroke-width:1" />
<line x1="162.25009252406517" y1="694.9999999999951" x2="837.7499074759262" y2="695.000000000002" style="stroke:black;stroke-width:1" />
<line x1="837.7499074759262" y1="695.000000000002" x2="500.0000000000003" y2="109.99999999999875" style="stroke:black;stroke-width:1" />
<line x1="499.9999999999949" y1="80.00000000000352" x2="136.26933041053064" y2="710.000000000002" style="stroke:black;stroke-width:1" />
<line x1="136.26933041053064" y1="710.000000000002" x2="863.7306695894579" y2="710.0000000000045" style="stroke:black;stroke-width:1" />
<line x1="863.7306695894579" y1="710.0000000000045" x2="499.9999999999949" y2="80.00000000000352" style="stroke:black;stroke-width:1" />
<line x1="499.99999999999824" y1="50.00000000000347" x2="110.28856829699589" y2="724.9999999999991" style="stroke:black;stroke-width:1" />
<line x1="110.28856829699589" y1="724.9999999999991" x2="889.7114317029861" y2="725.0000000000019" style="stroke:black;stroke-width:1" />
<line x1="889.7114317029861" y1="725.0000000000019" x2="499.99999999999824" y2="50.00000000000347" style="stroke:black;stroke-width:1" />
</svg>
