<svg>
<line x1="400" y1="400" x2="800.0" y2="400.0" style="stroke:black;stroke-width:1" />
<line x1="800.0" y1="400.0" x2="779.0656175028224" y2="399.45181390182955" style="stroke:black;stroke-width:1" />
<line x1="779.0656175028224" y1="399.45181390182955" x2="400.0" y2="386.6666666666667" style="stroke:black;stroke-width:1" />
<line x1="779.0656175028224" y1="399.45181390182955" x2="758.1886146929386" y2="397.80875814730933" style="stroke:black;stroke-width:1" />
<line x1="758.1886146929386" y1="397.80875814730933" x2="400.0" y2="373.33333333333337" style="stroke:black;stroke-width:1" />
<line x1="758.1886146929386" y1="397.80875814730933" x2="737.4262139839076" y2="395.0753362380551" style="stroke:black;stroke-width:1" />
<line x1="737.4262139839076" y1="395.0753362380551" x2="400.0" y2="360.00000000000006" style="stroke:black;stroke-width:1" />
<line x1="737.4262139839076" y1="395.0753362380551" x2="716.8353236728962" y2="391.2590402935223" style="stroke:black;stroke-width:1" />
<line x1="716.8353236728962" y1="391.2590402935223" x2="400.0" y2="346.66666666666674" style="stroke:black;stroke-width:1" />
<line x1="716.8353236728962" y1="391.2590402935223" x2="696.4723819589916" y2="386.3703305156273" style="stroke:black;stroke-width:1" />
<line x1="696.4723819589916" y1="386.3703305156273" x2="400.0" y2="333.3333333333334" style="stroke:black;stroke-width:1" />
<line x1="696.4723819589916" y1="386.3703305156273" x2="676.393202250021" y2="380.4226065180614" style="stroke:black;stroke-width:1" />
<line x1="676.393202250021" y1="380.4226065180614" x2="400.0" y2="320.0000000000001" style="stroke:black;stroke-width:1" />
<line x1="676.393202250021" y1="380.4226065180614" x2="656.6528201818799" y2="373.4321705988807" style="stroke:black;stroke-width:1" />
<line x1="656.6528201818799" y1="373.4321705988807" x2="400.0" y2="306.6666666666668" style="stroke:black;stroke-width:1" />
<line x1="656.6528201818799" y1="373.4321705988807" x2="637.3053427696799" y2="365.4181830570404" style="stroke:black;stroke-width:1" />
<line x1="637.3053427696799" y1="365.4181830570404" x2="400.0" y2="293.3333333333335" style="stroke:black;stroke-width:1" />
<line x1="637.3053427696799" y1="365.4181830570404" x2="618.4038001041813" y2="356.40260967534715" style="stroke:black;stroke-width:1" />
<line x1="618.4038001041813" y1="356.40260967534715" x2="400.0" y2="280.00000000000017" style="stroke:black;stroke-width:1" />
<line x1="618.4038001041813" y1="356.40260967534715" x2="600.0" y2="346.41016151377545" style="stroke:black;stroke-width:1" />
<line x1="600.0" y1="346.41016151377545" x2="400.0" y2="266.66666666666686" style="stroke:black;stroke-width:1" />
<line x1="600.0" y1="346.41016151377545" x2="582.1443859939892" y2="335.4682271781696" style="stroke:black;stroke-width:1" />
<line x1="582.1443859939892" y1="335.4682271781696" x2="400.0" y2="253.3333333333335" style="stroke:black;stroke-width:1" />
<line x1="582.1443859939892" y1="335.4682271781696" x2="564.8858990830108" y2="323.60679774997897" style="stroke:black;stroke-width:1" />
<line x1="564.8858990830108" y1="323.60679774997897" x2="400.0" y2="240.00000000000017" style="stroke:black;stroke-width:1" />
<line x1="564.8858990830108" y1="323.60679774997897" x2="548.2718435800651" y2="310.85838458278835" style="stroke:black;stroke-width:1" />
<line x1="548.2718435800651" y1="310.85838458278835" x2="400.0" y2="226.66666666666683" style="stroke:black;stroke-width:1" />
<line x1="548.2718435800651" y1="310.85838458278835" x2="532.3477574564569" y2="297.2579301909577" style="stroke:black;stroke-width:1" />
<line x1="532.3477574564569" y1="297.2579301909577" x2="400.0" y2="213.33333333333348" style="stroke:black;stroke-width:1" />
<line x1="532.3477574564569" y1="297.2579301909577" x2="517.1572875253811" y2="282.842712474619" style="stroke:black;stroke-width:1" />
<line x1="517.1572875253811" y1="282.842712474619" x2="400.0" y2="200.00000000000014" style="stroke:black;stroke-width:1" />
<line x1="517.1572875253811" y1="282.842712474619" x2="502.7420698090424" y2="267.6522425435433" style="stroke:black;stroke-width:1" />
<line x1="502.7420698090424" y1="267.6522425435433" x2="400.0" y2="186.6666666666668" style="stroke:black;stroke-width:1" />
<line x1="502.7420698090424" y1="267.6522425435433" x2="489.1416154172117" y2="251.728156419935" style="stroke:black;stroke-width:1" />
<line x1="489.1416154172117" y1="251.728156419935" x2="400.0" y2="173.33333333333346" style="stroke:black;stroke-width:1" />
<line x1="489.1416154172117" y1="251.728156419935" x2="476.3932022500211" y2="235.1141009169893" style="stroke:black;stroke-width:1" />
<line x1="476.3932022500211" y1="235.1141009169893" x2="400.0" y2="160.0000000000001" style="stroke:black;stroke-width:1" />
<line x1="476.3932022500211" y1="235.1141009169893" x2="464.53177282183043" y2="217.85561400601088" style="stroke:black;stroke-width:1" />
<line x1="464.53177282183043" y1="217.85561400601088" x2="400.0" y2="146.66666666666677" style="stroke:black;stroke-width:1" />
<line x1="464.53177282183043" y1="217.85561400601088" x2="453.5898384862246" y2="200.00000000000006" style="stroke:black;stroke-width:1" />
<line x1="453.5898384862246" y1="200.00000000000006" x2="400.0" y2="133.33333333333343" style="stroke:black;stroke-width:1" />
<line x1="453.5898384862246" y1="200.00000000000006" x2="443.5973903246529" y2="181.59619989581878" style="stroke:black;stroke-width:1" />
<line x1="443.5973903246529" y1="181.59619989581878" x2="400.0" y2="120.0000000000001" style="stroke:black;stroke-width:1" />
<line x1="443.5973903246529" y1="181.59619989581878" x2="434.5818169429597" y2="162.69465723032016" style="stroke:black;stroke-width:1" />
<line x1="434.5818169429597" y1="162.69465723032016" x2="400.0" y2="106.66666666666677" style="stroke:black;stroke-width:1" />
<line x1="434.5818169429597" y1="162.69465723032016" x2="426.56782940111935" y2="143.3471798181202" style="stroke:black;stroke-width:1" />
<line x1="426.56782940111935" y1="143.3471798181202" x2="400.0" y2="93.33333333333344" style="stroke:black;stroke-width:1" />
<line x1="426.56782940111935" y1="143.3471798181202" x2="419.5773934819386" y2="123.60679774997907" style="stroke:black;stroke-width:1" />
<line x1="419.5773934819386" y1="123.60679774997907" x2="400.0" y2="80.00000000000011" style="stroke:black;stroke-width:1" />
<line x1="419.5773934819386" y1="123.60679774997907" x2="413.6296694843727" y2="103.52761804100841" style="stroke:black;stroke-width:1" />
<line x1="413.6296694843727" y1="103.52761804100841" x2="400.0" y2="66.66666666666679" style="stroke:black;stroke-width:1" />
<line x1="413.6296694843727" y1="103.52761804100841" x2="408.7409597064778" y2="83.16467632710385" style="stroke:black;stroke-width:1" />
<line x1="408.7409597064778" y1="83.16467632710385" x2="400.0" y2="53.33333333333345" style="stroke:black;stroke-width:1" />
<line x1="408.7409597064778" y1="83.16467632710385" x2="404.92466376194494" y2="62.57378601609247" style="stroke:black;stroke-width:1" />
<line x1="404.92466376194494" y1="62.57378601609247" x2="400.0" y2="40.000000000000114" style="stroke:black;stroke-width:1" />
<line x1="404.92466376194494" y1="62.57378601609247" x2="402.1912418526907" y2="41.811385307061514" style="stroke:black;stroke-width:1" />
<line x1="402.1912418526907" y1="41.811385307061514" x2="400.0" y2="26.666666666666778" style="stroke:black;stroke-width:1" />
<line x1="402.1912418526907" y1="41.811385307061514" x2="400.5481860981705" y2="20.934382497177662" style="stroke:black;stroke-width:1" />
<line x1="400.5481860981705" y1="20.934382497177662" x2="400.0" y2="13.333333333333444" style="stroke:black;stroke-width:1" />
<line x1="400.5481860981705" y1="20.934382497177662" x2="400.00000000000006" y2="1.3500311979441904e-13" style="stroke:black;stroke-width:1" />
<line x1="400.00000000000006" y1="1.3500311979441904e-13" x2="400.0" y2="1.1013412404281553e-13" style="stroke:black;stroke-width:1" />
<line x1="400" y1="400" x2="800.0" y2="400.0" style="stroke:black;stroke-width:1" />
<line x1="800.0" y1="400.0" x2="779.0656175028224" y2="400.54818609817045" style="stroke:black;stroke-width:1" />
<line x1="779.0656175028224" y1="400.54818609817045" x2="400.0" y2="413.3333333333333" style="stroke:black;stroke-width:1" />
<line x1="779.0656175028224" y1="400.54818609817045" x2="758.1886146929386" y2="402.19124185269067" style="stroke:black;stroke-width:1" />
<line x1="758.1886146929386" y1="402.19124185269067" x2="400.0" y2="426.66666666666663" style="stroke:black;stroke-width:1" />
<line x1="758.1886146929386" y1="402.19124185269067" x2="737.4262139839076" y2="404.9246637619449" style="stroke:black;stroke-width:1" />
<line x1="737.4262139839076" y1="404.9246637619449" x2="400.0" y2="439.99999999999994" style="stroke:black;stroke-width:1" />
<line x1="737.4262139839076" y1="404.9246637619449" x2="716.8353236728962" y2="408.7409597064777" style="stroke:black;stroke-width:1" />
<line x1="716.8353236728962" y1="408.7409597064777" x2="400.0" y2="453.33333333333326" style="stroke:black;stroke-width:1" />
<line x1="716.8353236728962" y1="408.7409597064777" x2="696.4723819589916" y2="413.6296694843727" style="stroke:black;stroke-width:1" />
<line x1="696.4723819589916" y1="413.6296694843727" x2="400.0" y2="466.6666666666666" style="stroke:black;stroke-width:1" />
<line x1="696.4723819589916" y1="413.6296694843727" x2="676.393202250021" y2="419.5773934819386" style="stroke:black;stroke-width:1" />
<line x1="676.393202250021" y1="419.5773934819386" x2="400.0" y2="479.9999999999999" style="stroke:black;stroke-width:1" />
<line x1="676.393202250021" y1="419.5773934819386" x2="656.6528201818799" y2="426.5678294011193" style="stroke:black;stroke-width:1" />
<line x1="656.6528201818799" y1="426.5678294011193" x2="400.0" y2="493.3333333333332" style="stroke:black;stroke-width:1" />
<line x1="656.6528201818799" y1="426.5678294011193" x2="637.3053427696799" y2="434.5818169429596" style="stroke:black;stroke-width:1" />
<line x1="637.3053427696799" y1="434.5818169429596" x2="400.0" y2="506.6666666666665" style="stroke:black;stroke-width:1" />
<line x1="637.3053427696799" y1="434.5818169429596" x2="618.4038001041813" y2="443.59739032465285" style="stroke:black;stroke-width:1" />
<line x1="618.4038001041813" y1="443.59739032465285" x2="400.0" y2="519.9999999999999" style="stroke:black;stroke-width:1" />
<line x1="618.4038001041813" y1="443.59739032465285" x2="600.0" y2="453.58983848622455" style="stroke:black;stroke-width:1" />
<line x1="600.0" y1="453.58983848622455" x2="400.0" y2="533.3333333333333" style="stroke:black;stroke-width:1" />
<line x1="600.0" y1="453.58983848622455" x2="582.1443859939892" y2="464.5317728218304" style="stroke:black;stroke-width:1" />
<line x1="582.1443859939892" y1="464.5317728218304" x2="400.0" y2="546.6666666666666" style="stroke:black;stroke-width:1" />
<line x1="582.1443859939892" y1="464.5317728218304" x2="564.8858990830108" y2="476.39320225002103" style="stroke:black;stroke-width:1" />
<line x1="564.8858990830108" y1="476.39320225002103" x2="400.0" y2="560.0" style="stroke:black;stroke-width:1" />
<line x1="564.8858990830108" y1="476.39320225002103" x2="548.2718435800651" y2="489.14161541721165" style="stroke:black;stroke-width:1" />
<line x1="548.2718435800651" y1="489.14161541721165" x2="400.0" y2="573.3333333333334" style="stroke:black;stroke-width:1" />
<line x1="548.2718435800651" y1="489.14161541721165" x2="532.3477574564569" y2="502.7420698090423" style="stroke:black;stroke-width:1" />
<line x1="532.3477574564569" y1="502.7420698090423" x2="400.0" y2="586.6666666666667" style="stroke:black;stroke-width:1" />
<line x1="532.3477574564569" y1="502.7420698090423" x2="517.1572875253811" y2="517.157287525381" style="stroke:black;stroke-width:1" />
<line x1="517.1572875253811" y1="517.157287525381" x2="400.0" y2="600.0000000000001" style="stroke:black;stroke-width:1" />
<line x1="517.1572875253811" y1="517.157287525381" x2="502.7420698090424" y2="532.3477574564567" style="stroke:black;stroke-width:1" />
<line x1="502.7420698090424" y1="532.3477574564567" x2="400.0" y2="613.3333333333335" style="stroke:black;stroke-width:1" />
<line x1="502.7420698090424" y1="532.3477574564567" x2="489.1416154172117" y2="548.271843580065" style="stroke:black;stroke-width:1" />
<line x1="489.1416154172117" y1="548.271843580065" x2="400.0" y2="626.6666666666669" style="stroke:black;stroke-width:1" />
<line x1="489.1416154172117" y1="548.271843580065" x2="476.3932022500211" y2="564.8858990830107" style="stroke:black;stroke-width:1" />
<line x1="476.3932022500211" y1="564.8858990830107" x2="400.0" y2="640.0000000000002" style="stroke:black;stroke-width:1" />
<line x1="476.3932022500211" y1="564.8858990830107" x2="464.53177282183043" y2="582.1443859939891" style="stroke:black;stroke-width:1" />
<line x1="464.53177282183043" y1="582.1443859939891" x2="400.0" y2="653.3333333333336" style="stroke:black;stroke-width:1" />
<line x1="464.53177282183043" y1="582.1443859939891" x2="453.5898384862246" y2="599.9999999999999" style="stroke:black;stroke-width:1" />
<line x1="453.5898384862246" y1="599.9999999999999" x2="400.0" y2="666.666666666667" style="stroke:black;stroke-width:1" />
<line x1="453.5898384862246" y1="599.9999999999999" x2="443.5973903246529" y2="618.4038001041812" style="stroke:black;stroke-width:1" />
<line x1="443.5973903246529" y1="618.4038001041812" x2="400.0" y2="680.0000000000003" style="stroke:black;stroke-width:1" />
<line x1="443.5973903246529" y1="618.4038001041812" x2="434.5818169429597" y2="637.3053427696798" style="stroke:black;stroke-width:1" />
<line x1="434.5818169429597" y1="637.3053427696798" x2="400.0" y2="693.3333333333337" style="stroke:black;stroke-width:1" />
<line x1="434.5818169429597" y1="637.3053427696798" x2="426.56782940111935" y2="656.6528201818797" style="stroke:black;stroke-width:1" />
<line x1="426.56782940111935" y1="656.6528201818797" x2="400.0" y2="706.6666666666671" style="stroke:black;stroke-width:1" />
<line x1="426.56782940111935" y1="656.6528201818797" x2="419.5773934819386" y2="676.3932022500209" style="stroke:black;stroke-width:1" />
<line x1="419.5773934819386" y1="676.3932022500209" x2="400.0" y2="720.0000000000005" style="stroke:black;stroke-width:1" />
<line x1="419.5773934819386" y1="676.3932022500209" x2="413.6296694843727" y2="696.4723819589915" style="stroke:black;stroke-width:1" />
<line x1="413.6296694843727" y1="696.4723819589915" x2="400.0" y2="733.3333333333338" style="stroke:black;stroke-width:1" />
<line x1="413.6296694843727" y1="696.4723819589915" x2="408.7409597064778" y2="716.835323672896" style="stroke:black;stroke-width:1" />
<line x1="408.7409597064778" y1="716.835323672896" x2="400.0" y2="746.6666666666672" style="stroke:black;stroke-width:1" />
<line x1="408.7409597064778" y1="716.835323672896" x2="404.92466376194494" y2="737.4262139839075" style="stroke:black;stroke-width:1" />
<line x1="404.92466376194494" y1="737.4262139839075" x2="400.0" y2="760.0000000000006" style="stroke:black;stroke-width:1" />
<line x1="404.92466376194494" y1="737.4262139839075" x2="402.1912418526907" y2="758.1886146929385" style="stroke:black;stroke-width:1" />
<line x1="402.1912418526907" y1="758.1886146929385" x2="400.0" y2="773.3333333333339" style="stroke:black;stroke-width:1" />
<line x1="402.1912418526907" y1="758.1886146929385" x2="400.5481860981705" y2="779.0656175028223" style="stroke:black;stroke-width:1" />
<line x1="400.5481860981705" y1="779.0656175028223" x2="400.0" y2="786.6666666666673" style="stroke:black;stroke-width:1" />
<line x1="400.5481860981705" y1="779.0656175028223" x2="400.00000000000006" y2="799.9999999999999" style="stroke:black;stroke-width:1" />
<line x1="400.00000000000006" y1="799.9999999999999" x2="400.0" y2="800.0000000000007" style="stroke:black;stroke-width:1" />
<line x1="400" y1="400" x2="400.0" y2="0.0" style="stroke:black;stroke-width:1" />
<line x1="400.0" y1="0.0" x2="399.45181390182955" y2="20.934382497177527" style="stroke:black;stroke-width:1" />
<line x1="399.45181390182955" y1="20.934382497177527" x2="386.6666666666667" y2="400.0" style="stroke:black;stroke-width:1" />
<line x1="399.45181390182955" y1="20.934382497177527" x2="397.80875814730933" y2="41.81138530706138" style="stroke:black;stroke-width:1" />
<line x1="397.80875814730933" y1="41.81138530706138" x2="373.33333333333337" y2="400.0" style="stroke:black;stroke-width:1" />
<line x1="397.80875814730933" y1="41.81138530706138" x2="395.0753362380551" y2="62.573786016092335" style="stroke:black;stroke-width:1" />
<line x1="395.0753362380551" y1="62.573786016092335" x2="360.00000000000006" y2="400.0" style="stroke:black;stroke-width:1" />
<line x1="395.0753362380551" y1="62.573786016092335" x2="391.2590402935223" y2="83.16467632710372" style="stroke:black;stroke-width:1" />
<line x1="391.2590402935223" y1="83.16467632710372" x2="346.66666666666674" y2="400.0" style="stroke:black;stroke-width:1" />
<line x1="391.2590402935223" y1="83.16467632710372" x2="386.37033051562736" y2="103.52761804100828" style="stroke:black;stroke-width:1" />
<line x1="386.37033051562736" y1="103.52761804100828" x2="333.3333333333334" y2="400.0" style="stroke:black;stroke-width:1" />
<line x1="386.37033051562736" y1="103.52761804100828" x2="380.42260651806146" y2="123.60679774997894" style="stroke:black;stroke-width:1" />
<line x1="380.42260651806146" y1="123.60679774997894" x2="320.0000000000001" y2="400.0" style="stroke:black;stroke-width:1" />
<line x1="380.42260651806146" y1="123.60679774997894" x2="373.4321705988807" y2="143.34717981812008" style="stroke:black;stroke-width:1" />
<line x1="373.4321705988807" y1="143.34717981812008" x2="306.6666666666668" y2="400.0" style="stroke:black;stroke-width:1" />
<line x1="373.4321705988807" y1="143.34717981812008" x2="365.4181830570404" y2="162.69465723032005" style="stroke:black;stroke-width:1" />
<line x1="365.4181830570404" y1="162.69465723032005" x2="293.3333333333335" y2="400.0" style="stroke:black;stroke-width:1" />
<line x1="365.4181830570404" y1="162.69465723032005" x2="356.40260967534715" y2="181.59619989581867" style="stroke:black;stroke-width:1" />
<line x1="356.40260967534715" y1="181.59619989581867" x2="280.00000000000017" y2="400.0" style="stroke:black;stroke-width:1" />
<line x1="356.40260967534715" y1="181.59619989581867" x2="346.41016151377545" y2="199.99999999999994" style="stroke:black;stroke-width:1" />
<line x1="346.41016151377545" y1="199.99999999999994" x2="266.66666666666686" y2="400.0" style="stroke:black;stroke-width:1" />
<line x1="346.41016151377545" y1="199.99999999999994" x2="335.4682271781696" y2="217.85561400601077" style="stroke:black;stroke-width:1" />
<line x1="335.4682271781696" y1="217.85561400601077" x2="253.3333333333335" y2="400.0" style="stroke:black;stroke-width:1" />
<line x1="335.4682271781696" y1="217.85561400601077" x2="323.60679774997897" y2="235.11410091698917" style="stroke:black;stroke-width:1" />
<line x1="323.60679774997897" y1="235.11410091698917" x2="240.00000000000017" y2="400.0" style="stroke:black;stroke-width:1" />
<line x1="323.60679774997897" y1="235.11410091698917" x2="310.85838458278835" y2="251.7281564199349" style="stroke:black;stroke-width:1" />
<line x1="310.85838458278835" y1="251.7281564199349" x2="226.66666666666683" y2="400.0" style="stroke:black;stroke-width:1" />
<line x1="310.85838458278835" y1="251.7281564199349" x2="297.2579301909577" y2="267.6522425435432" style="stroke:black;stroke-width:1" />
<line x1="297.2579301909577" y1="267.6522425435432" x2="213.33333333333348" y2="400.0" style="stroke:black;stroke-width:1" />
<line x1="297.2579301909577" y1="267.6522425435432" x2="282.842712474619" y2="282.8427124746189" style="stroke:black;stroke-width:1" />
<line x1="282.842712474619" y1="282.8427124746189" x2="200.00000000000014" y2="400.0" style="stroke:black;stroke-width:1" />
<line x1="282.842712474619" y1="282.8427124746189" x2="267.6522425435433" y2="297.2579301909576" style="stroke:black;stroke-width:1" />
<line x1="267.6522425435433" y1="297.2579301909576" x2="186.6666666666668" y2="400.0" style="stroke:black;stroke-width:1" />
<line x1="267.6522425435433" y1="297.2579301909576" x2="251.728156419935" y2="310.8583845827883" style="stroke:black;stroke-width:1" />
<line x1="251.728156419935" y1="310.8583845827883" x2="173.33333333333346" y2="400.0" style="stroke:black;stroke-width:1" />
<line x1="251.728156419935" y1="310.8583845827883" x2="235.1141009169893" y2="323.6067977499789" style="stroke:black;stroke-width:1" />
<line x1="235.1141009169893" y1="323.6067977499789" x2="160.0000000000001" y2="400.0" style="stroke:black;stroke-width:1" />
<line x1="235.1141009169893" y1="323.6067977499789" x2="217.85561400601088" y2="335.46822717816957" style="stroke:black;stroke-width:1" />
<line x1="217.85561400601088" y1="335.46822717816957" x2="146.66666666666677" y2="400.0" style="stroke:black;stroke-width:1" />
<line x1="217.85561400601088" y1="335.46822717816957" x2="200.00000000000006" y2="346.4101615137754" style="stroke:black;stroke-width:1" />
<line x1="200.00000000000006" y1="346.4101615137754" x2="133.33333333333343" y2="400.0" style="stroke:black;stroke-width:1" />
<line x1="200.00000000000006" y1="346.4101615137754" x2="181.59619989581878" y2="356.4026096753471" style="stroke:black;stroke-width:1" />
<line x1="181.59619989581878" y1="356.4026096753471" x2="120.0000000000001" y2="400.0" style="stroke:black;stroke-width:1" />
<line x1="181.59619989581878" y1="356.4026096753471" x2="162.69465723032016" y2="365.4181830570403" style="stroke:black;stroke-width:1" />
<line x1="162.69465723032016" y1="365.4181830570403" x2="106.66666666666677" y2="400.0" style="stroke:black;stroke-width:1" />
<line x1="162.69465723032016" y1="365.4181830570403" x2="143.3471798181202" y2="373.43217059888065" style="stroke:black;stroke-width:1" />
<line x1="143.3471798181202" y1="373.43217059888065" x2="93.33333333333344" y2="400.0" style="stroke:black;stroke-width:1" />
<line x1="143.3471798181202" y1="373.43217059888065" x2="123.60679774997907" y2="380.4226065180614" style="stroke:black;stroke-width:1" />
<line x1="123.60679774997907" y1="380.4226065180614" x2="80.00000000000011" y2="400.0" style="stroke:black;stroke-width:1" />
<line x1="123.60679774997907" y1="380.4226065180614" x2="103.52761804100841" y2="386.3703305156273" style="stroke:black;stroke-width:1" />
<line x1="103.52761804100841" y1="386.3703305156273" x2="66.66666666666679" y2="400.0" style="stroke:black;stroke-width:1" />
<line x1="103.52761804100841" y1="386.3703305156273" x2="83.16467632710385" y2="391.2590402935222" style="stroke:black;stroke-width:1" />
<line x1="83.16467632710385" y1="391.2590402935222" x2="53.33333333333345" y2="400.0" style="stroke:black;stroke-width:1" />
<line x1="83.16467632710385" y1="391.2590402935222" x2="62.57378601609247" y2="395.07533623805506" style="stroke:black;stroke-width:1" />
<line x1="62.57378601609247" y1="395.07533623805506" x2="40.000000000000114" y2="400.0" style="stroke:black;stroke-width:1" />
<line x1="62.57378601609247" y1="395.07533623805506" x2="41.811385307061514" y2="397.8087581473093" style="stroke:black;stroke-width:1" />
<line x1="41.811385307061514" y1="397.8087581473093" x2="26.666666666666778" y2="400.0" style="stroke:black;stroke-width:1" />
<line x1="41.811385307061514" y1="397.8087581473093" x2="20.934382497177662" y2="399.4518139018295" style="stroke:black;stroke-width:1" />
<line x1="20.934382497177662" y1="399.4518139018295" x2="13.333333333333444" y2="400.0" style="stroke:black;stroke-width:1" />
<line x1="20.934382497177662" y1="399.4518139018295" x2="1.3500311979441904e-13" y2="399.99999999999994" style="stroke:black;stroke-width:1" />
<line x1="1.3500311979441904e-13" y1="399.99999999999994" x2="1.1013412404281553e-13" y2="400.0" style="stroke:black;stroke-width:1" />
<line x1="400" y1="400" x2="400.0" y2="0.0" style="stroke:black;stroke-width:1" />
<line x1="400.0" y1="0.0" x2="400.54818609817045" y2="20.934382497177527" style="stroke:black;stroke-width:1" />
<line x1="400.54818609817045" y1="20.934382497177527" x2="413.3333333333333" y2="400.0" style="stroke:black;stroke-width:1" />
<line x1="400.54818609817045" y1="20.934382497177527" x2="402.19124185269067" y2="41.81138530706138" style="stroke:black;stroke-width:1" />
<line x1="402.19124185269067" y1="41.81138530706138" x2="426.66666666666663" y2="400.0" style="stroke:black;stroke-width:1" />
<line x1="402.19124185269067" y1="41.81138530706138" x2="404.92466376194494" y2="62.57378601609233" style="stroke:black;stroke-width:1" />
<line x1="404.92466376194494" y1="62.57378601609233" x2="439.99999999999994" y2="400.0" style="stroke:black;stroke-width:1" />
<line x1="404.92466376194494" y1="62.57378601609233" x2="408.7409597064778" y2="83.1646763271037" style="stroke:black;stroke-width:1" />
<line x1="408.7409597064778" y1="83.1646763271037" x2="453.33333333333326" y2="400.0" style="stroke:black;stroke-width:1" />
<line x1="408.7409597064778" y1="83.1646763271037" x2="413.6296694843727" y2="103.52761804100828" style="stroke:black;stroke-width:1" />
<line x1="413.6296694843727" y1="103.52761804100828" x2="466.6666666666666" y2="400.0" style="stroke:black;stroke-width:1" />
<line x1="413.6296694843727" y1="103.52761804100828" x2="419.5773934819386" y2="123.60679774997894" style="stroke:black;stroke-width:1" />
<line x1="419.5773934819386" y1="123.60679774997894" x2="479.9999999999999" y2="400.0" style="stroke:black;stroke-width:1" />
<line x1="419.5773934819386" y1="123.60679774997894" x2="426.56782940111935" y2="143.34717981812008" style="stroke:black;stroke-width:1" />
<line x1="426.56782940111935" y1="143.34717981812008" x2="493.3333333333332" y2="400.0" style="stroke:black;stroke-width:1" />
<line x1="426.56782940111935" y1="143.34717981812008" x2="434.5818169429597" y2="162.69465723032005" style="stroke:black;stroke-width:1" />
<line x1="434.5818169429597" y1="162.69465723032005" x2="506.6666666666665" y2="400.0" style="stroke:black;stroke-width:1" />
<line x1="434.5818169429597" y1="162.69465723032005" x2="443.5973903246529" y2="181.59619989581867" style="stroke:black;stroke-width:1" />
<line x1="443.5973903246529" y1="181.59619989581867" x2="519.9999999999999" y2="400.0" style="stroke:black;stroke-width:1" />
<line x1="443.5973903246529" y1="181.59619989581867" x2="453.58983848622455" y2="199.99999999999997" style="stroke:black;stroke-width:1" />
<line x1="453.58983848622455" y1="199.99999999999997" x2="533.3333333333333" y2="400.0" style="stroke:black;stroke-width:1" />
<line x1="453.58983848622455" y1="199.99999999999997" x2="464.5317728218304" y2="217.8556140060108" style="stroke:black;stroke-width:1" />
<line x1="464.5317728218304" y1="217.8556140060108" x2="546.6666666666666" y2="400.0" style="stroke:black;stroke-width:1" />
<line x1="464.5317728218304" y1="217.8556140060108" x2="476.393202250021" y2="235.11410091698923" style="stroke:black;stroke-width:1" />
<line x1="476.393202250021" y1="235.11410091698923" x2="560.0" y2="400.0" style="stroke:black;stroke-width:1" />
<line x1="476.393202250021" y1="235.11410091698923" x2="489.1416154172116" y2="251.72815641993495" style="stroke:black;stroke-width:1" />
<line x1="489.1416154172116" y1="251.72815641993495" x2="573.3333333333334" y2="400.0" style="stroke:black;stroke-width:1" />
<line x1="489.1416154172116" y1="251.72815641993495" x2="502.7420698090423" y2="267.65224254354325" style="stroke:black;stroke-width:1" />
<line x1="502.7420698090423" y1="267.65224254354325" x2="586.6666666666667" y2="400.0" style="stroke:black;stroke-width:1" />
<line x1="502.7420698090423" y1="267.65224254354325" x2="517.157287525381" y2="282.84271247461896" style="stroke:black;stroke-width:1" />
<line x1="517.157287525381" y1="282.84271247461896" x2="600.0000000000001" y2="400.0" style="stroke:black;stroke-width:1" />
<line x1="517.157287525381" y1="282.84271247461896" x2="532.3477574564567" y2="297.25793019095767" style="stroke:black;stroke-width:1" />
<line x1="532.3477574564567" y1="297.25793019095767" x2="613.3333333333335" y2="400.0" style="stroke:black;stroke-width:1" />
<line x1="532.3477574564567" y1="297.25793019095767" x2="548.271843580065" y2="310.85838458278835" style="stroke:black;stroke-width:1" />
<line x1="548.271843580065" y1="310.85838458278835" x2="626.6666666666669" y2="400.0" style="stroke:black;stroke-width:1" />
<line x1="548.271843580065" y1="310.85838458278835" x2="564.8858990830107" y2="323.60679774997897" style="stroke:black;stroke-width:1" />
<line x1="564.8858990830107" y1="323.60679774997897" x2="640.0000000000002" y2="400.0" style="stroke:black;stroke-width:1" />
<line x1="564.8858990830107" y1="323.60679774997897" x2="582.1443859939891" y2="335.4682271781696" style="stroke:black;stroke-width:1" />
<line x1="582.1443859939891" y1="335.4682271781696" x2="653.3333333333336" y2="400.0" style="stroke:black;stroke-width:1" />
<line x1="582.1443859939891" y1="335.4682271781696" x2="599.9999999999999" y2="346.41016151377545" style="stroke:black;stroke-width:1" />
<line x1="599.9999999999999" y1="346.41016151377545" x2="666.666666666667" y2="400.0" style="stroke:black;stroke-width:1" />
<line x1="599.9999999999999" y1="346.41016151377545" x2="618.4038001041812" y2="356.40260967534715" style="stroke:black;stroke-width:1" />
<line x1="618.4038001041812" y1="356.40260967534715" x2="680.0000000000003" y2="400.0" style="stroke:black;stroke-width:1" />
<line x1="618.4038001041812" y1="356.40260967534715" x2="637.3053427696798" y2="365.4181830570404" style="stroke:black;stroke-width:1" />
<line x1="637.3053427696798" y1="365.4181830570404" x2="693.3333333333337" y2="400.0" style="stroke:black;stroke-width:1" />
<line x1="637.3053427696798" y1="365.4181830570404" x2="656.6528201818797" y2="373.4321705988807" style="stroke:black;stroke-width:1" />
<line x1="656.6528201818797" y1="373.4321705988807" x2="706.6666666666671" y2="400.0" style="stroke:black;stroke-width:1" />
<line x1="656.6528201818797" y1="373.4321705988807" x2="676.3932022500209" y2="380.42260651806146" style="stroke:black;stroke-width:1" />
<line x1="676.3932022500209" y1="380.42260651806146" x2="720.0000000000005" y2="400.0" style="stroke:black;stroke-width:1" />
<line x1="676.3932022500209" y1="380.42260651806146" x2="696.4723819589915" y2="386.37033051562736" style="stroke:black;stroke-width:1" />
<line x1="696.4723819589915" y1="386.37033051562736" x2="733.3333333333338" y2="400.0" style="stroke:black;stroke-width:1" />
<line x1="696.4723819589915" y1="386.37033051562736" x2="716.835323672896" y2="391.25904029352233" style="stroke:black;stroke-width:1" />
<line x1="716.835323672896" y1="391.25904029352233" x2="746.6666666666672" y2="400.0" style="stroke:black;stroke-width:1" />
<line x1="716.835323672896" y1="391.25904029352233" x2="737.4262139839075" y2="395.0753362380552" style="stroke:black;stroke-width:1" />
<line x1="737.4262139839075" y1="395.0753362380552" x2="760.0000000000006" y2="400.0" style="stroke:black;stroke-width:1" />
<line x1="737.4262139839075" y1="395.0753362380552" x2="758.1886146929385" y2="397.8087581473094" style="stroke:black;stroke-width:1" />
<line x1="758.1886146929385" y1="397.8087581473094" x2="773.3333333333339" y2="400.0" style="stroke:black;stroke-width:1" />
<line x1="758.1886146929385" y1="397.8087581473094" x2="779.0656175028223" y2="399.4518139018296" style="stroke:black;stroke-width:1" />
<line x1="779.0656175028223" y1="399.4518139018296" x2="786.6666666666673" y2="400.0" style="stroke:black;stroke-width:1" />
<line x1="779.0656175028223" y1="399.4518139018296" x2="799.9999999999999" y2="400.00000000000006" style="stroke:black;stroke-width:1" />
<line x1="799.9999999999999" y1="400.00000000000006" x2="800.0000000000007" y2="400.0" style="stroke:black;stroke-width:1" />
<line x1="400" y1="400" x2="0.0" y2="399.99999999999994" style="stroke:black;stroke-width:1" />
<line x1="0.0" y1="399.99999999999994" x2="20.934382497177527" y2="400.5481860981704" style="stroke:black;stroke-width:1" />
<line x1="20.934382497177527" y1="400.5481860981704" x2="400.0" y2="413.3333333333333" style="stroke:black;stroke-width:1" />
<line x1="20.934382497177527" y1="400.5481860981704" x2="41.81138530706138" y2="402.1912418526906" style="stroke:black;stroke-width:1" />
<line x1="41.81138530706138" y1="402.1912418526906" x2="400.0" y2="426.66666666666663" style="stroke:black;stroke-width:1" />
<line x1="41.81138530706138" y1="402.1912418526906" x2="62.57378601609233" y2="404.9246637619448" style="stroke:black;stroke-width:1" />
<line x1="62.57378601609233" y1="404.9246637619448" x2="400.0" y2="439.99999999999994" style="stroke:black;stroke-width:1" />
<line x1="62.57378601609233" y1="404.9246637619448" x2="83.1646763271037" y2="408.74095970647767" style="stroke:black;stroke-width:1" />
<line x1="83.1646763271037" y1="408.74095970647767" x2="400.0" y2="453.33333333333326" style="stroke:black;stroke-width:1" />
<line x1="83.1646763271037" y1="408.74095970647767" x2="103.52761804100827" y2="413.6296694843726" style="stroke:black;stroke-width:1" />
<line x1="103.52761804100827" y1="413.6296694843726" x2="400.0" y2="466.6666666666666" style="stroke:black;stroke-width:1" />
<line x1="103.52761804100827" y1="413.6296694843726" x2="123.60679774997892" y2="419.5773934819385" style="stroke:black;stroke-width:1" />
<line x1="123.60679774997892" y1="419.5773934819385" x2="400.0" y2="479.9999999999999" style="stroke:black;stroke-width:1" />
<line x1="123.60679774997892" y1="419.5773934819385" x2="143.34717981812005" y2="426.56782940111924" style="stroke:black;stroke-width:1" />
<line x1="143.34717981812005" y1="426.56782940111924" x2="400.0" y2="493.3333333333332" style="stroke:black;stroke-width:1" />
<line x1="143.34717981812005" y1="426.56782940111924" x2="162.69465723032002" y2="434.58181694295956" style="stroke:black;stroke-width:1" />
<line x1="162.69465723032002" y1="434.58181694295956" x2="400.0" y2="506.6666666666665" style="stroke:black;stroke-width:1" />
<line x1="162.69465723032002" y1="434.58181694295956" x2="181.59619989581864" y2="443.5973903246528" style="stroke:black;stroke-width:1" />
<line x1="181.59619989581864" y1="443.5973903246528" x2="400.0" y2="519.9999999999999" style="stroke:black;stroke-width:1" />
<line x1="181.59619989581864" y1="443.5973903246528" x2="199.99999999999991" y2="453.5898384862245" style="stroke:black;stroke-width:1" />
<line x1="199.99999999999991" y1="453.5898384862245" x2="400.0" y2="533.3333333333333" style="stroke:black;stroke-width:1" />
<line x1="199.99999999999991" y1="453.5898384862245" x2="217.85561400601074" y2="464.5317728218303" style="stroke:black;stroke-width:1" />
<line x1="217.85561400601074" y1="464.5317728218303" x2="400.0" y2="546.6666666666666" style="stroke:black;stroke-width:1" />
<line x1="217.85561400601074" y1="464.5317728218303" x2="235.11410091698914" y2="476.393202250021" style="stroke:black;stroke-width:1" />
<line x1="235.11410091698914" y1="476.393202250021" x2="400.0" y2="560.0" style="stroke:black;stroke-width:1" />
<line x1="235.11410091698914" y1="476.393202250021" x2="251.72815641993486" y2="489.1416154172116" style="stroke:black;stroke-width:1" />
<line x1="251.72815641993486" y1="489.1416154172116" x2="400.0" y2="573.3333333333334" style="stroke:black;stroke-width:1" />
<line x1="251.72815641993486" y1="489.1416154172116" x2="267.65224254354314" y2="502.7420698090423" style="stroke:black;stroke-width:1" />
<line x1="267.65224254354314" y1="502.7420698090423" x2="400.0" y2="586.6666666666667" style="stroke:black;stroke-width:1" />
<line x1="267.65224254354314" y1="502.7420698090423" x2="282.84271247461885" y2="517.157287525381" style="stroke:black;stroke-width:1" />
<line x1="282.84271247461885" y1="517.157287525381" x2="400.0" y2="600.0000000000001" style="stroke:black;stroke-width:1" />
<line x1="282.84271247461885" y1="517.157287525381" x2="297.25793019095755" y2="532.3477574564567" style="stroke:black;stroke-width:1" />
<line x1="297.25793019095755" y1="532.3477574564567" x2="400.0" y2="613.3333333333335" style="stroke:black;stroke-width:1" />
<line x1="297.25793019095755" y1="532.3477574564567" x2="310.8583845827882" y2="548.271843580065" style="stroke:black;stroke-width:1" />
<line x1="310.8583845827882" y1="548.271843580065" x2="400.0" y2="626.6666666666669" style="stroke:black;stroke-width:1" />
<line x1="310.8583845827882" y1="548.271843580065" x2="323.6067977499788" y2="564.8858990830107" style="stroke:black;stroke-width:1" />
<line x1="323.6067977499788" y1="564.8858990830107" x2="400.0" y2="640.0000000000002" style="stroke:black;stroke-width:1" />
<line x1="323.6067977499788" y1="564.8858990830107" x2="335.46822717816946" y2="582.1443859939891" style="stroke:black;stroke-width:1" />
<line x1="335.46822717816946" y1="582.1443859939891" x2="400.0" y2="653.3333333333336" style="stroke:black;stroke-width:1" />
<line x1="335.46822717816946" y1="582.1443859939891" x2="346.4101615137753" y2="599.9999999999999" style="stroke:black;stroke-width:1" />
<line x1="346.4101615137753" y1="599.9999999999999" x2="400.0" y2="666.666666666667" style="stroke:black;stroke-width:1" />
<line x1="346.4101615137753" y1="599.9999999999999" x2="356.402609675347" y2="618.4038001041812" style="stroke:black;stroke-width:1" />
<line x1="356.402609675347" y1="618.4038001041812" x2="400.0" y2="680.0000000000003" style="stroke:black;stroke-width:1" />
<line x1="356.402609675347" y1="618.4038001041812" x2="365.4181830570402" y2="637.3053427696798" style="stroke:black;stroke-width:1" />
<line x1="365.4181830570402" y1="637.3053427696798" x2="400.0" y2="693.3333333333337" style="stroke:black;stroke-width:1" />
<line x1="365.4181830570402" y1="637.3053427696798" x2="373.43217059888053" y2="656.6528201818797" style="stroke:black;stroke-width:1" />
<line x1="373.43217059888053" y1="656.6528201818797" x2="400.0" y2="706.6666666666671" style="stroke:black;stroke-width:1" />
<line x1="373.43217059888053" y1="656.6528201818797" x2="380.4226065180613" y2="676.3932022500209" style="stroke:black;stroke-width:1" />
<line x1="380.4226065180613" y1="676.3932022500209" x2="400.0" y2="720.0000000000005" style="stroke:black;stroke-width:1" />
<line x1="380.4226065180613" y1="676.3932022500209" x2="386.3703305156272" y2="696.4723819589915" style="stroke:black;stroke-width:1" />
<line x1="386.3703305156272" y1="696.4723819589915" x2="400.0" y2="733.3333333333338" style="stroke:black;stroke-width:1" />
<line x1="386.3703305156272" y1="696.4723819589915" x2="391.2590402935221" y2="716.835323672896" style="stroke:black;stroke-width:1" />
<line x1="391.2590402935221" y1="716.835323672896" x2="400.0" y2="746.6666666666672" style="stroke:black;stroke-width:1" />
<line x1="391.2590402935221" y1="716.835323672896" x2="395.07533623805494" y2="737.4262139839075" style="stroke:black;stroke-width:1" />
<line x1="395.07533623805494" y1="737.4262139839075" x2="400.0" y2="760.0000000000006" style="stroke:black;stroke-width:1" />
<line x1="395.07533623805494" y1="737.4262139839075" x2="397.80875814730916" y2="758.1886146929385" style="stroke:black;stroke-width:1" />
<line x1="397.80875814730916" y1="758.1886146929385" x2="400.0" y2="773.3333333333339" style="stroke:black;stroke-width:1" />
<line x1="397.80875814730916" y1="758.1886146929385" x2="399.4518139018294" y2="779.0656175028223" style="stroke:black;stroke-width:1" />
<line x1="399.4518139018294" y1="779.0656175028223" x2="400.0" y2="786.6666666666673" style="stroke:black;stroke-width:1" />
<line x1="399.4518139018294" y1="779.0656175028223" x2="399.99999999999983" y2="799.9999999999999" style="stroke:black;stroke-width:1" />
<line x1="399.99999999999983" y1="799.9999999999999" x2="400.0" y2="800.0000000000007" style="stroke:black;stroke-width:1" />
<line x1="400" y1="400" x2="0.0" y2="399.99999999999994" style="stroke:black;stroke-width:1" />
<line x1="0.0" y1="399.99999999999994" x2="20.934382497177527" y2="399.4518139018295" style="stroke:black;stroke-width:1" />
<line x1="20.934382497177527" y1="399.4518139018295" x2="400.0" y2="386.6666666666667" style="stroke:black;stroke-width:1" />
<line x1="20.934382497177527" y1="399.4518139018295" x2="41.81138530706138" y2="397.8087581473093" style="stroke:black;stroke-width:1" />
<line x1="41.81138530706138" y1="397.8087581473093" x2="400.0" y2="373.33333333333337" style="stroke:black;stroke-width:1" />
<line x1="41.81138530706138" y1="397.8087581473093" x2="62.573786016092335" y2="395.07533623805506" style="stroke:black;stroke-width:1" />
<line x1="62.573786016092335" y1="395.07533623805506" x2="400.0" y2="360.00000000000006" style="stroke:black;stroke-width:1" />
<line x1="62.573786016092335" y1="395.07533623805506" x2="83.16467632710372" y2="391.2590402935222" style="stroke:black;stroke-width:1" />
<line x1="83.16467632710372" y1="391.2590402935222" x2="400.0" y2="346.66666666666674" style="stroke:black;stroke-width:1" />
<line x1="83.16467632710372" y1="391.2590402935222" x2="103.52761804100828" y2="386.3703305156273" style="stroke:black;stroke-width:1" />
<line x1="103.52761804100828" y1="386.3703305156273" x2="400.0" y2="333.3333333333334" style="stroke:black;stroke-width:1" />
<line x1="103.52761804100828" y1="386.3703305156273" x2="123.60679774997894" y2="380.4226065180614" style="stroke:black;stroke-width:1" />
<line x1="123.60679774997894" y1="380.4226065180614" x2="400.0" y2="320.0000000000001" style="stroke:black;stroke-width:1" />
<line x1="123.60679774997894" y1="380.4226065180614" x2="143.34717981812008" y2="373.4321705988807" style="stroke:black;stroke-width:1" />
<line x1="143.34717981812008" y1="373.4321705988807" x2="400.0" y2="306.6666666666668" style="stroke:black;stroke-width:1" />
<line x1="143.34717981812008" y1="373.4321705988807" x2="162.69465723032005" y2="365.4181830570404" style="stroke:black;stroke-width:1" />
<line x1="162.69465723032005" y1="365.4181830570404" x2="400.0" y2="293.3333333333335" style="stroke:black;stroke-width:1" />
<line x1="162.69465723032005" y1="365.4181830570404" x2="181.59619989581867" y2="356.40260967534715" style="stroke:black;stroke-width:1" />
<line x1="181.59619989581867" y1="356.40260967534715" x2="400.0" y2="280.00000000000017" style="stroke:black;stroke-width:1" />
<line x1="181.59619989581867" y1="356.40260967534715" x2="199.99999999999997" y2="346.4101615137755" style="stroke:black;stroke-width:1" />
<line x1="199.99999999999997" y1="346.4101615137755" x2="400.0" y2="266.66666666666686" style="stroke:black;stroke-width:1" />
<line x1="199.99999999999997" y1="346.4101615137755" x2="217.8556140060108" y2="335.4682271781697" style="stroke:black;stroke-width:1" />
<line x1="217.8556140060108" y1="335.4682271781697" x2="400.0" y2="253.3333333333335" style="stroke:black;stroke-width:1" />
<line x1="217.8556140060108" y1="335.4682271781697" x2="235.1141009169892" y2="323.606797749979" style="stroke:black;stroke-width:1" />
<line x1="235.1141009169892" y1="323.606797749979" x2="400.0" y2="240.00000000000017" style="stroke:black;stroke-width:1" />
<line x1="235.1141009169892" y1="323.606797749979" x2="251.72815641993495" y2="310.8583845827884" style="stroke:black;stroke-width:1" />
<line x1="251.72815641993495" y1="310.8583845827884" x2="400.0" y2="226.66666666666683" style="stroke:black;stroke-width:1" />
<line x1="251.72815641993495" y1="310.8583845827884" x2="267.65224254354325" y2="297.2579301909578" style="stroke:black;stroke-width:1" />
<line x1="267.65224254354325" y1="297.2579301909578" x2="400.0" y2="213.33333333333348" style="stroke:black;stroke-width:1" />
<line x1="267.65224254354325" y1="297.2579301909578" x2="282.84271247461896" y2="282.8427124746191" style="stroke:black;stroke-width:1" />
<line x1="282.84271247461896" y1="282.8427124746191" x2="400.0" y2="200.00000000000014" style="stroke:black;stroke-width:1" />
<line x1="282.84271247461896" y1="282.8427124746191" x2="297.25793019095767" y2="267.65224254354337" style="stroke:black;stroke-width:1" />
<line x1="297.25793019095767" y1="267.65224254354337" x2="400.0" y2="186.6666666666668" style="stroke:black;stroke-width:1" />
<line x1="297.25793019095767" y1="267.65224254354337" x2="310.8583845827883" y2="251.72815641993506" style="stroke:black;stroke-width:1" />
<line x1="310.8583845827883" y1="251.72815641993506" x2="400.0" y2="173.33333333333346" style="stroke:black;stroke-width:1" />
<line x1="310.8583845827883" y1="251.72815641993506" x2="323.6067977499789" y2="235.11410091698934" style="stroke:black;stroke-width:1" />
<line x1="323.6067977499789" y1="235.11410091698934" x2="400.0" y2="160.0000000000001" style="stroke:black;stroke-width:1" />
<line x1="323.6067977499789" y1="235.11410091698934" x2="335.46822717816957" y2="217.85561400601094" style="stroke:black;stroke-width:1" />
<line x1="335.46822717816957" y1="217.85561400601094" x2="400.0" y2="146.66666666666677" style="stroke:black;stroke-width:1" />
<line x1="335.46822717816957" y1="217.85561400601094" x2="346.4101615137754" y2="200.0000000000001" style="stroke:black;stroke-width:1" />
<line x1="346.4101615137754" y1="200.0000000000001" x2="400.0" y2="133.33333333333343" style="stroke:black;stroke-width:1" />
<line x1="346.4101615137754" y1="200.0000000000001" x2="356.4026096753471" y2="181.59619989581884" style="stroke:black;stroke-width:1" />
<line x1="356.4026096753471" y1="181.59619989581884" x2="400.0" y2="120.0000000000001" style="stroke:black;stroke-width:1" />
<line x1="356.4026096753471" y1="181.59619989581884" x2="365.4181830570403" y2="162.69465723032022" style="stroke:black;stroke-width:1" />
<line x1="365.4181830570403" y1="162.69465723032022" x2="400.0" y2="106.66666666666677" style="stroke:black;stroke-width:1" />
<line x1="365.4181830570403" y1="162.69465723032022" x2="373.43217059888065" y2="143.34717981812025" style="stroke:black;stroke-width:1" />
<line x1="373.43217059888065" y1="143.34717981812025" x2="400.0" y2="93.33333333333344" style="stroke:black;stroke-width:1" />
<line x1="373.43217059888065" y1="143.34717981812025" x2="380.4226065180614" y2="123.60679774997912" style="stroke:black;stroke-width:1" />
<line x1="380.4226065180614" y1="123.60679774997912" x2="400.0" y2="80.00000000000011" style="stroke:black;stroke-width:1" />
<line x1="380.4226065180614" y1="123.60679774997912" x2="386.3703305156273" y2="103.52761804100847" style="stroke:black;stroke-width:1" />
<line x1="386.3703305156273" y1="103.52761804100847" x2="400.0" y2="66.66666666666679" style="stroke:black;stroke-width:1" />
<line x1="386.3703305156273" y1="103.52761804100847" x2="391.2590402935222" y2="83.1646763271039" style="stroke:black;stroke-width:1" />
<line x1="391.2590402935222" y1="83.1646763271039" x2="400.0" y2="53.33333333333345" style="stroke:black;stroke-width:1" />
<line x1="391.2590402935222" y1="83.1646763271039" x2="395.07533623805506" y2="62.57378601609253" style="stroke:black;stroke-width:1" />
<line x1="395.07533623805506" y1="62.57378601609253" x2="400.0" y2="40.000000000000114" style="stroke:black;stroke-width:1" />
<line x1="395.07533623805506" y1="62.57378601609253" x2="397.8087581473093" y2="41.81138530706157" style="stroke:black;stroke-width:1" />
<line x1="397.8087581473093" y1="41.81138530706157" x2="400.0" y2="26.666666666666778" style="stroke:black;stroke-width:1" />
<line x1="397.8087581473093" y1="41.81138530706157" x2="399.4518139018295" y2="20.93438249717772" style="stroke:black;stroke-width:1" />
<line x1="399.4518139018295" y1="20.93438249717772" x2="400.0" y2="13.333333333333444" style="stroke:black;stroke-width:1" />
<line x1="399.4518139018295" y1="20.93438249717772" x2="399.99999999999994" y2="1.9184653865522705e-13" style="stroke:black;stroke-width:1" />
<line x1="399.99999999999994" y1="1.9184653865522705e-13" x2="400.0" y2="1.1013412404281553e-13" style="stroke:black;stroke-width:1" />
<line x1="400" y1="400" x2="399.99999999999994" y2="800.0" style="stroke:black;stroke-width:1" />
<line x1="399.99999999999994" y1="800.0" x2="400.5481860981704" y2="779.0656175028224" style="stroke:black;stroke-width:1" />
<line x1="400.5481860981704" y1="779.0656175028224" x2="413.3333333333333" y2="400.0" style="stroke:black;stroke-width:1" />
<line x1="400.5481860981704" y1="779.0656175028224" x2="402.1912418526906" y2="758.1886146929386" style="stroke:black;stroke-width:1" />
<line x1="402.1912418526906" y1="758.1886146929386" x2="426.66666666666663" y2="400.0" style="stroke:black;stroke-width:1" />
<line x1="402.1912418526906" y1="758.1886146929386" x2="404.9246637619448" y2="737.4262139839076" style="stroke:black;stroke-width:1" />
<line x1="404.9246637619448" y1="737.4262139839076" x2="439.99999999999994" y2="400.0" style="stroke:black;stroke-width:1" />
<line x1="404.9246637619448" y1="737.4262139839076" x2="408.74095970647767" y2="716.8353236728962" style="stroke:black;stroke-width:1" />
<line x1="408.74095970647767" y1="716.8353236728962" x2="453.33333333333326" y2="400.0" style="stroke:black;stroke-width:1" />
<line x1="408.74095970647767" y1="716.8353236728962" x2="413.6296694843726" y2="696.4723819589916" style="stroke:black;stroke-width:1" />
<line x1="413.6296694843726" y1="696.4723819589916" x2="466.6666666666666" y2="400.0" style="stroke:black;stroke-width:1" />
<line x1="413.6296694843726" y1="696.4723819589916" x2="419.5773934819385" y2="676.393202250021" style="stroke:black;stroke-width:1" />
<line x1="419.5773934819385" y1="676.393202250021" x2="479.9999999999999" y2="400.0" style="stroke:black;stroke-width:1" />
<line x1="419.5773934819385" y1="676.393202250021" x2="426.56782940111924" y2="656.6528201818799" style="stroke:black;stroke-width:1" />
<line x1="426.56782940111924" y1="656.6528201818799" x2="493.3333333333332" y2="400.0" style="stroke:black;stroke-width:1" />
<line x1="426.56782940111924" y1="656.6528201818799" x2="434.58181694295956" y2="637.3053427696799" style="stroke:black;stroke-width:1" />
<line x1="434.58181694295956" y1="637.3053427696799" x2="506.6666666666665" y2="400.0" style="stroke:black;stroke-width:1" />
<line x1="434.58181694295956" y1="637.3053427696799" x2="443.5973903246528" y2="618.4038001041813" style="stroke:black;stroke-width:1" />
<line x1="443.5973903246528" y1="618.4038001041813" x2="519.9999999999999" y2="400.0" style="stroke:black;stroke-width:1" />
<line x1="443.5973903246528" y1="618.4038001041813" x2="453.5898384862245" y2="600.0" style="stroke:black;stroke-width:1" />
<line x1="453.5898384862245" y1="600.0" x2="533.3333333333333" y2="400.0" style="stroke:black;stroke-width:1" />
<line x1="453.5898384862245" y1="600.0" x2="464.5317728218303" y2="582.1443859939892" style="stroke:black;stroke-width:1" />
<line x1="464.5317728218303" y1="582.1443859939892" x2="546.6666666666666" y2="400.0" style="stroke:black;stroke-width:1" />
<line x1="464.5317728218303" y1="582.1443859939892" x2="476.393202250021" y2="564.8858990830108" style="stroke:black;stroke-width:1" />
<line x1="476.393202250021" y1="564.8858990830108" x2="560.0" y2="400.0" style="stroke:black;stroke-width:1" />
<line x1="476.393202250021" y1="564.8858990830108" x2="489.1416154172116" y2="548.2718435800651" style="stroke:black;stroke-width:1" />
<line x1="489.1416154172116" y1="548.2718435800651" x2="573.3333333333334" y2="400.0" style="stroke:black;stroke-width:1" />
<line x1="489.1416154172116" y1="548.2718435800651" x2="502.7420698090423" y2="532.3477574564569" style="stroke:black;stroke-width:1" />
<line x1="502.7420698090423" y1="532.3477574564569" x2="586.6666666666667" y2="400.0" style="stroke:black;stroke-width:1" />
<line x1="502.7420698090423" y1="532.3477574564569" x2="517.157287525381" y2="517.1572875253811" style="stroke:black;stroke-width:1" />
<line x1="517.157287525381" y1="517.1572875253811" x2="600.0000000000001" y2="400.0" style="stroke:black;stroke-width:1" />
<line x1="517.157287525381" y1="517.1572875253811" x2="532.3477574564567" y2="502.7420698090424" style="stroke:black;stroke-width:1" />
<line x1="532.3477574564567" y1="502.7420698090424" x2="613.3333333333335" y2="400.0" style="stroke:black;stroke-width:1" />
<line x1="532.3477574564567" y1="502.7420698090424" x2="548.271843580065" y2="489.1416154172117" style="stroke:black;stroke-width:1" />
<line x1="548.271843580065" y1="489.1416154172117" x2="626.6666666666669" y2="400.0" style="stroke:black;stroke-width:1" />
<line x1="548.271843580065" y1="489.1416154172117" x2="564.8858990830107" y2="476.3932022500211" style="stroke:black;stroke-width:1" />
<line x1="564.8858990830107" y1="476.3932022500211" x2="640.0000000000002" y2="400.0" style="stroke:black;stroke-width:1" />
<line x1="564.8858990830107" y1="476.3932022500211" x2="582.1443859939891" y2="464.53177282183043" style="stroke:black;stroke-width:1" />
<line x1="582.1443859939891" y1="464.53177282183043" x2="653.3333333333336" y2="400.0" style="stroke:black;stroke-width:1" />
<line x1="582.1443859939891" y1="464.53177282183043" x2="599.9999999999999" y2="453.5898384862246" style="stroke:black;stroke-width:1" />
<line x1="599.9999999999999" y1="453.5898384862246" x2="666.666666666667" y2="400.0" style="stroke:black;stroke-width:1" />
<line x1="599.9999999999999" y1="453.5898384862246" x2="618.4038001041812" y2="443.5973903246529" style="stroke:black;stroke-width:1" />
<line x1="618.4038001041812" y1="443.5973903246529" x2="680.0000000000003" y2="400.0" style="stroke:black;stroke-width:1" />
<line x1="618.4038001041812" y1="443.5973903246529" x2="637.3053427696798" y2="434.5818169429597" style="stroke:black;stroke-width:1" />
<line x1="637.3053427696798" y1="434.5818169429597" x2="693.3333333333337" y2="400.0" style="stroke:black;stroke-width:1" />
<line x1="637.3053427696798" y1="434.5818169429597" x2="656.6528201818797" y2="426.56782940111935" style="stroke:black;stroke-width:1" />
<line x1="656.6528201818797" y1="426.56782940111935" x2="706.6666666666671" y2="400.0" style="stroke:black;stroke-width:1" />
<line x1="656.6528201818797" y1="426.56782940111935" x2="676.3932022500209" y2="419.5773934819386" style="stroke:black;stroke-width:1" />
<line x1="676.3932022500209" y1="419.5773934819386" x2="720.0000000000005" y2="400.0" style="stroke:black;stroke-width:1" />
<line x1="676.3932022500209" y1="419.5773934819386" x2="696.4723819589915" y2="413.6296694843727" style="stroke:black;stroke-width:1" />
<line x1="696.4723819589915" y1="413.6296694843727" x2="733.3333333333338" y2="400.0" style="stroke:black;stroke-width:1" />
<line x1="696.4723819589915" y1="413.6296694843727" x2="716.835323672896" y2="408.7409597064778" style="stroke:black;stroke-width:1" />
<line x1="716.835323672896" y1="408.7409597064778" x2="746.6666666666672" y2="400.0" style="stroke:black;stroke-width:1" />
<line x1="716.835323672896" y1="408.7409597064778" x2="737.4262139839075" y2="404.92466376194494" style="stroke:black;stroke-width:1" />
<line x1="737.4262139839075" y1="404.92466376194494" x2="760.0000000000006" y2="400.0" style="stroke:black;stroke-width:1" />
<line x1="737.4262139839075" y1="404.92466376194494" x2="758.1886146929385" y2="402.1912418526907" style="stroke:black;stroke-width:1" />
<line x1="758.1886146929385" y1="402.1912418526907" x2="773.3333333333339" y2="400.0" style="stroke:black;stroke-width:1" />
<line x1="758.1886146929385" y1="402.1912418526907" x2="779.0656175028223" y2="400.5481860981705" style="stroke:black;stroke-width:1" />
<line x1="779.0656175028223" y1="400.5481860981705" x2="786.6666666666673" y2="400.0" style="stroke:black;stroke-width:1" />
<line x1="779.0656175028223" y1="400.5481860981705" x2="799.9999999999999" y2="400.00000000000006" style="stroke:black;stroke-width:1" />
<line x1="799.9999999999999" y1="400.00000000000006" x2="800.0000000000007" y2="400.0" style="stroke:black;stroke-width:1" />
<line x1="400" y1="400" x2="399.99999999999994" y2="800.0" style="stroke:black;stroke-width:1" />
<line x1="399.99999999999994" y1="800.0" x2="399.4518139018295" y2="779.0656175028224" style="stroke:black;stroke-width:1" />
<line x1="399.4518139018295" y1="779.0656175028224" x2="386.6666666666667" y2="400.0" style="stroke:black;stroke-width:1" />
<line x1="399.4518139018295" y1="779.0656175028224" x2="397.8087581473093" y2="758.1886146929386" style="stroke:black;stroke-width:1" />
<line x1="397.8087581473093" y1="758.1886146929386" x2="373.33333333333337" y2="400.0" style="stroke:black;stroke-width:1" />
<line x1="397.8087581473093" y1="758.1886146929386" x2="395.07533623805506" y2="737.4262139839076" style="stroke:black;stroke-width:1" />
<line x1="395.07533623805506" y1="737.4262139839076" x2="360.00000000000006" y2="400.0" style="stroke:black;stroke-width:1" />
<line x1="395.07533623805506" y1="737.4262139839076" x2="391.2590402935222" y2="716.8353236728962" style="stroke:black;stroke-width:1" />
<line x1="391.2590402935222" y1="716.8353236728962" x2="346.66666666666674" y2="400.0" style="stroke:black;stroke-width:1" />
<line x1="391.2590402935222" y1="716.8353236728962" x2="386.3703305156273" y2="696.4723819589916" style="stroke:black;stroke-width:1" />
<line x1="386.3703305156273" y1="696.4723819589916" x2="333.3333333333334" y2="400.0" style="stroke:black;stroke-width:1" />
<line x1="386.3703305156273" y1="696.4723819589916" x2="380.4226065180614" y2="676.393202250021" style="stroke:black;stroke-width:1" />
<line x1="380.4226065180614" y1="676.393202250021" x2="320.0000000000001" y2="400.0" style="stroke:black;stroke-width:1" />
<line x1="380.4226065180614" y1="676.393202250021" x2="373.4321705988807" y2="656.6528201818799" style="stroke:black;stroke-width:1" />
<line x1="373.4321705988807" y1="656.6528201818799" x2="306.6666666666668" y2="400.0" style="stroke:black;stroke-width:1" />
<line x1="373.4321705988807" y1="656.6528201818799" x2="365.4181830570404" y2="637.3053427696799" style="stroke:black;stroke-width:1" />
<line x1="365.4181830570404" y1="637.3053427696799" x2="293.3333333333335" y2="400.0" style="stroke:black;stroke-width:1" />
<line x1="365.4181830570404" y1="637.3053427696799" x2="356.40260967534715" y2="618.4038001041813" style="stroke:black;stroke-width:1" />
<line x1="356.40260967534715" y1="618.4038001041813" x2="280.00000000000017" y2="400.0" style="stroke:black;stroke-width:1" />
<line x1="356.40260967534715" y1="618.4038001041813" x2="346.41016151377545" y2="600.0" style="stroke:black;stroke-width:1" />
<line x1="346.41016151377545" y1="600.0" x2="266.66666666666686" y2="400.0" style="stroke:black;stroke-width:1" />
<line x1="346.41016151377545" y1="600.0" x2="335.4682271781696" y2="582.1443859939892" style="stroke:black;stroke-width:1" />
<line x1="335.4682271781696" y1="582.1443859939892" x2="253.3333333333335" y2="400.0" style="stroke:black;stroke-width:1" />
<line x1="335.4682271781696" y1="582.1443859939892" x2="323.606797749979" y2="564.8858990830108" style="stroke:black;stroke-width:1" />
<line x1="323.606797749979" y1="564.8858990830108" x2="240.00000000000017" y2="400.0" style="stroke:black;stroke-width:1" />
<line x1="323.606797749979" y1="564.8858990830108" x2="310.8583845827884" y2="548.2718435800651" style="stroke:black;stroke-width:1" />
<line x1="310.8583845827884" y1="548.2718435800651" x2="226.66666666666683" y2="400.0" style="stroke:black;stroke-width:1" />
<line x1="310.8583845827884" y1="548.2718435800651" x2="297.2579301909577" y2="532.3477574564569" style="stroke:black;stroke-width:1" />
<line x1="297.2579301909577" y1="532.3477574564569" x2="213.33333333333348" y2="400.0" style="stroke:black;stroke-width:1" />
<line x1="297.2579301909577" y1="532.3477574564569" x2="282.842712474619" y2="517.1572875253811" style="stroke:black;stroke-width:1" />
<line x1="282.842712474619" y1="517.1572875253811" x2="200.00000000000014" y2="400.0" style="stroke:black;stroke-width:1" />
<line x1="282.842712474619" y1="517.1572875253811" x2="267.6522425435433" y2="502.74206980904245" style="stroke:black;stroke-width:1" />
<line x1="267.6522425435433" y1="502.74206980904245" x2="186.6666666666668" y2="400.0" style="stroke:black;stroke-width:1" />
<line x1="267.6522425435433" y1="502.74206980904245" x2="251.72815641993503" y2="489.14161541721177" style="stroke:black;stroke-width:1" />
<line x1="251.72815641993503" y1="489.14161541721177" x2="173.33333333333346" y2="400.0" style="stroke:black;stroke-width:1" />
<line x1="251.72815641993503" y1="489.14161541721177" x2="235.11410091698932" y2="476.39320225002115" style="stroke:black;stroke-width:1" />
<line x1="235.11410091698932" y1="476.39320225002115" x2="160.0000000000001" y2="400.0" style="stroke:black;stroke-width:1" />
<line x1="235.11410091698932" y1="476.39320225002115" x2="217.8556140060109" y2="464.5317728218305" style="stroke:black;stroke-width:1" />
<line x1="217.8556140060109" y1="464.5317728218305" x2="146.66666666666677" y2="400.0" style="stroke:black;stroke-width:1" />
<line x1="217.8556140060109" y1="464.5317728218305" x2="200.00000000000009" y2="453.58983848622466" style="stroke:black;stroke-width:1" />
<line x1="200.00000000000009" y1="453.58983848622466" x2="133.33333333333343" y2="400.0" style="stroke:black;stroke-width:1" />
<line x1="200.00000000000009" y1="453.58983848622466" x2="181.5961998958188" y2="443.59739032465296" style="stroke:black;stroke-width:1" />
<line x1="181.5961998958188" y1="443.59739032465296" x2="120.0000000000001" y2="400.0" style="stroke:black;stroke-width:1" />
<line x1="181.5961998958188" y1="443.59739032465296" x2="162.6946572303202" y2="434.58181694295973" style="stroke:black;stroke-width:1" />
<line x1="162.6946572303202" y1="434.58181694295973" x2="106.66666666666677" y2="400.0" style="stroke:black;stroke-width:1" />
<line x1="162.6946572303202" y1="434.58181694295973" x2="143.34717981812022" y2="426.56782940111935" style="stroke:black;stroke-width:1" />
<line x1="143.34717981812022" y1="426.56782940111935" x2="93.33333333333344" y2="400.0" style="stroke:black;stroke-width:1" />
<line x1="143.34717981812022" y1="426.56782940111935" x2="123.6067977499791" y2="419.5773934819386" style="stroke:black;stroke-width:1" />
<line x1="123.6067977499791" y1="419.5773934819386" x2="80.00000000000011" y2="400.0" style="stroke:black;stroke-width:1" />
<line x1="123.6067977499791" y1="419.5773934819386" x2="103.52761804100844" y2="413.6296694843727" style="stroke:black;stroke-width:1" />
<line x1="103.52761804100844" y1="413.6296694843727" x2="66.66666666666679" y2="400.0" style="stroke:black;stroke-width:1" />
<line x1="103.52761804100844" y1="413.6296694843727" x2="83.16467632710388" y2="408.7409597064778" style="stroke:black;stroke-width:1" />
<line x1="83.16467632710388" y1="408.7409597064778" x2="53.33333333333345" y2="400.0" style="stroke:black;stroke-width:1" />
<line x1="83.16467632710388" y1="408.7409597064778" x2="62.5737860160925" y2="404.92466376194494" style="stroke:black;stroke-width:1" />
<line x1="62.5737860160925" y1="404.92466376194494" x2="40.000000000000114" y2="400.0" style="stroke:black;stroke-width:1" />
<line x1="62.5737860160925" y1="404.92466376194494" x2="41.81138530706154" y2="402.19124185269067" style="stroke:black;stroke-width:1" />
<line x1="41.81138530706154" y1="402.19124185269067" x2="26.666666666666778" y2="400.0" style="stroke:black;stroke-width:1" />
<line x1="41.81138530706154" y1="402.19124185269067" x2="20.93438249717769" y2="400.54818609817045" style="stroke:black;stroke-width:1" />
<line x1="20.93438249717769" y1="400.54818609817045" x2="13.333333333333444" y2="400.0" style="stroke:black;stroke-width:1" />
<line x1="20.93438249717769" y1="400.54818609817045" x2="1.6342482922482304e-13" y2="400.0" style="stroke:black;stroke-width:1" />
<line x1="1.6342482922482304e-13" y1="400.0" x2="1.1013412404281553e-13" y2="400.0" style="stroke:black;stroke-width:1" />
</svg>
