<?xml version="1.0" encoding="UTF-8" ?><svg  width="100%" height="100%" viewBox="0 0 2000 2000"  xmlns="http://www.w3.org/2000/svg" version="1.1">
<line x1="500" y1="500" x2="500" y2="500" style="stroke:black;stroke-width:3" />
<line x1="500" y1="500" x2="500" y2="1000" style="stroke:black;stroke-width:3" />
<line x1="500" y1="1000" x2="1000" y2="1000" style="stroke:black;stroke-width:3" />
<line x1="1000" y1="1000" x2="1000" y2="500" style="stroke:black;stroke-width:3" />
<line x1="1000" y1="500" x2="500" y2="500" style="stroke:black;stroke-width:3" />
<line x1="501.1504355036056" y1="509.99632423203866" x2="501.1504355036056" y2="509.99632423203866" style="stroke:black;stroke-width:3" />
<line x1="501.1504355036056" y1="509.99632423203866" x2="347.2413710070547" y2="932.8580035856975" style="stroke:black;stroke-width:3" />
<line x1="347.2413710070547" y1="932.8580035856975" x2="770.1030503607135" y2="1086.7670680822484" style="stroke:black;stroke-width:3" />
<line x1="770.1030503607135" y1="1086.7670680822484" x2="924.0121148572644" y2="663.9053887285896" style="stroke:black;stroke-width:3" />
<line x1="924.0121148572644" y1="663.9053887285896" x2="501.1504355036056" y2="509.99632423203866" style="stroke:black;stroke-width:3" />
<line x1="499.04633585977643" y1="518.8045740405329" x2="499.04633585977643" y2="518.8045740405329" style="stroke:black;stroke-width:3" />
<line x1="499.04633585977643" y1="518.8045740405329" x2="238.71735393672805" y2="829.052573503719" style="stroke:black;stroke-width:3" />
<line x1="238.71735393672805" y1="829.052573503719" x2="548.9653533999142" y2="1089.3815554267676" style="stroke:black;stroke-width:3" />
<line x1="548.9653533999142" y1="1089.3815554267676" x2="809.2943353229626" y2="779.1335559635813" style="stroke:black;stroke-width:3" />
<line x1="809.2943353229626" y1="779.1335559635813" x2="499.04633585977643" y2="518.8045740405329" style="stroke:black;stroke-width:3" />
<line x1="494.5555106661879" y1="525.6062366373271" x2="494.5555106661879" y2="525.6062366373271" style="stroke:black;stroke-width:3" />
<line x1="494.5555106661879" y1="525.6062366373271" x2="178.88925098675998" y2="707.8562366373274" style="stroke:black;stroke-width:3" />
<line x1="178.88925098675998" y1="707.8562366373274" x2="361.13925098676003" y2="1023.5224963167552" style="stroke:black;stroke-width:3" />
<line x1="361.13925098676003" y1="1023.5224963167552" x2="676.805510666188" y2="841.2724963167551" style="stroke:black;stroke-width:3" />
<line x1="676.805510666188" y1="841.2724963167551" x2="494.5555106661879" y2="525.6062366373271" style="stroke:black;stroke-width:3" />
<line x1="488.6638398455112" y1="529.9762041647565" x2="488.6638398455112" y2="529.9762041647565" style="stroke:black;stroke-width:3" />
<line x1="488.6638398455112" y1="529.9762041647565" x2="165.59765646985625" y2="586.9414888483931" style="stroke:black;stroke-width:3" />
<line x1="165.59765646985625" y1="586.9414888483931" x2="222.56294115349277" y2="910.007672224048" style="stroke:black;stroke-width:3" />
<line x1="222.56294115349277" y1="910.007672224048" x2="545.6291245291477" y2="853.0423875404115" style="stroke:black;stroke-width:3" />
<line x1="545.6291245291477" y1="853.0423875404115" x2="488.6638398455112" y2="529.9762041647565" style="stroke:black;stroke-width:3" />
<line x1="482.33596098259665" y1="531.858424690832" x2="482.33596098259665" y2="531.858424690832" style="stroke:black;stroke-width:3" />
<line x1="482.33596098259665" y1="531.858424690832" x2="191.57639594450717" y2="480.5896684755591" style="stroke:black;stroke-width:3" />
<line x1="191.57639594450717" y1="480.5896684755591" x2="140.30763972923438" y2="771.3492335136485" style="stroke:black;stroke-width:3" />
<line x1="140.30763972923438" y1="771.3492335136485" x2="431.0672047673238" y2="822.6179897289214" style="stroke:black;stroke-width:3" />
<line x1="431.0672047673238" y1="822.6179897289214" x2="482.33596098259665" y2="531.858424690832" style="stroke:black;stroke-width:3" />
<line x1="476.4049444164706" y1="531.5024267238949" x2="476.4049444164706" y2="531.5024267238949" style="stroke:black;stroke-width:3" />
<line x1="476.4049444164706" y1="531.5024267238949" x2="246.28424111016756" y2="398.642176723895" style="stroke:black;stroke-width:3" />
<line x1="246.28424111016756" y1="398.642176723895" x2="113.4239911101676" y2="628.762880030198" style="stroke:black;stroke-width:3" />
<line x1="113.4239911101676" y1="628.762880030198" x2="343.5446944164705" y2="761.6231300301979" style="stroke:black;stroke-width:3" />
<line x1="343.5446944164705" y1="761.6231300301979" x2="476.4049444164706" y2="531.5024267238949" style="stroke:black;stroke-width:3" />
<line x1="471.4985277937256" y1="529.375676505192" x2="471.4985277937256" y2="529.375676505192" style="stroke:black;stroke-width:3" />
<line x1="471.4985277937256" y1="529.375676505192" x2="317.77686725798463" y2="346.17733530217527" style="stroke:black;stroke-width:3" />
<line x1="317.77686725798463" y1="346.17733530217527" x2="134.57852605496788" y2="499.8989958379161" style="stroke:black;stroke-width:3" />
<line x1="134.57852605496788" y1="499.8989958379161" x2="288.3001865907088" y2="683.0973370409329" style="stroke:black;stroke-width:3" />
<line x1="288.3001865907088" y1="683.0973370409329" x2="471.4985277937256" y2="529.375676505192" style="stroke:black;stroke-width:3" />
<line x1="468.0037089214771" y1="526.0667501822251" x2="468.0037089214771" y2="526.0667501822251" style="stroke:black;stroke-width:3" />
<line x1="468.0037089214771" y1="526.0667501822251" x2="394.3894804908766" y2="323.813319818576" style="stroke:black;stroke-width:3" />
<line x1="394.3894804908766" y1="323.813319818576" x2="192.13605012722763" y2="397.4275482491764" style="stroke:black;stroke-width:3" />
<line x1="192.13605012722763" y1="397.4275482491764" x2="265.750278557828" y2="599.6809786128254" style="stroke:black;stroke-width:3" />
<line x1="265.750278557828" y1="599.6809786128254" x2="468.0037089214771" y2="526.0667501822251" style="stroke:black;stroke-width:3" />
<line x1="466.0666064764771" y1="522.1925452922251" x2="466.0666064764771" y2="522.1925452922251" style="stroke:black;stroke-width:3" />
<line x1="466.0666064764771" y1="522.1925452922251" x2="466.066606476477" y2="328.4823007922249" style="stroke:black;stroke-width:3" />
<line x1="466.066606476477" y1="328.4823007922249" x2="272.356361976477" y2="328.48230079222503" style="stroke:black;stroke-width:3" />
<line x1="272.356361976477" y1="328.48230079222503" x2="272.35636197647705" y2="522.192545292225" style="stroke:black;stroke-width:3" />
<line x1="272.35636197647705" y1="522.192545292225" x2="466.0666064764771" y2="522.1925452922251" style="stroke:black;stroke-width:3" />
<line x1="465.6209041911073" y1="518.319764470046" x2="465.6209041911073" y2="518.319764470046" style="stroke:black;stroke-width:3" />
<line x1="465.6209041911073" y1="518.319764470046" x2="525.2484292198935" y2="354.4944858754902" style="stroke:black;stroke-width:3" />
<line x1="525.2484292198935" y1="354.4944858754902" x2="361.42315062533777" y2="294.866960846704" style="stroke:black;stroke-width:3" />
<line x1="361.42315062533777" y1="294.866960846704" x2="301.79562559655153" y2="458.6922394412597" style="stroke:black;stroke-width:3" />
<line x1="301.79562559655153" y1="458.6922394412597" x2="465.6209041911073" y2="518.319764470046" style="stroke:black;stroke-width:3" />
<line x1="466.43607550402425" y1="514.907268022005" x2="466.43607550402425" y2="514.907268022005" style="stroke:black;stroke-width:3" />
<line x1="466.43607550402425" y1="514.907268022005" x2="567.2928569815239" y2="394.71083635870565" style="stroke:black;stroke-width:3" />
<line x1="567.2928569815239" y1="394.71083635870565" x2="447.0964253182245" y2="293.8540548812061" style="stroke:black;stroke-width:3" />
<line x1="447.0964253182245" y1="293.8540548812061" x2="346.23964384072497" y2="414.0504865445054" style="stroke:black;stroke-width:3" />
<line x1="346.23964384072497" y1="414.0504865445054" x2="466.43607550402425" y2="514.907268022005" style="stroke:black;stroke-width:3" />
<line x1="468.17591319653786" y1="512.272164572742" x2="468.17591319653786" y2="512.272164572742" style="stroke:black;stroke-width:3" />
<line x1="468.17591319653786" y1="512.272164572742" x2="590.4714898823428" y2="441.66478045249187" style="stroke:black;stroke-width:3" />
<line x1="590.4714898823428" y1="441.66478045249187" x2="519.8641057620928" y2="319.36920376668695" style="stroke:black;stroke-width:3" />
<line x1="519.8641057620928" y1="319.36920376668695" x2="397.56852907628786" y2="389.976587886937" style="stroke:black;stroke-width:3" />
<line x1="397.56852907628786" y1="389.976587886937" x2="468.17591319653786" y2="512.272164572742" style="stroke:black;stroke-width:3" />
<line x1="470.4584671869115" y1="510.57914961635123" x2="470.4584671869115" y2="510.57914961635123" style="stroke:black;stroke-width:3" />
<line x1="470.4584671869115" y1="510.57914961635123" x2="595.6209259296714" y2="488.50963116819247" style="stroke:black;stroke-width:3" />
<line x1="595.6209259296714" y1="488.50963116819247" x2="573.5514074815127" y2="363.34717242543263" style="stroke:black;stroke-width:3" />
<line x1="573.5514074815127" y1="363.34717242543263" x2="448.38894873875284" y2="385.4166908735913" style="stroke:black;stroke-width:3" />
<line x1="448.38894873875284" y1="385.4166908735913" x2="470.4584671869115" y2="510.57914961635123" style="stroke:black;stroke-width:3" />
<line x1="472.9100171103146" y1="509.84993881973327" x2="472.9100171103146" y2="509.84993881973327" style="stroke:black;stroke-width:3" />
<line x1="472.9100171103146" y1="509.84993881973327" x2="585.5562299787986" y2="529.712505423076" style="stroke:black;stroke-width:3" />
<line x1="585.5562299787986" y1="529.712505423076" x2="605.4187965821413" y2="417.06629255459205" style="stroke:black;stroke-width:3" />
<line x1="605.4187965821413" y1="417.06629255459205" x2="492.7725837136574" y2="397.20372595124934" style="stroke:black;stroke-width:3" />
<line x1="492.7725837136574" y1="397.20372595124934" x2="472.9100171103146" y2="509.84993881973327" style="stroke:black;stroke-width:3" />
<line x1="475.20781444863024" y1="509.98785972616696" x2="475.20781444863024" y2="509.98785972616696" style="stroke:black;stroke-width:3" />
<line x1="475.20781444863024" y1="509.98785972616696" x2="564.3612898525821" y2="561.4606427498292" style="stroke:black;stroke-width:3" />
<line x1="564.3612898525821" y1="561.4606427498292" x2="615.8340728762444" y2="472.30716734587736" style="stroke:black;stroke-width:3" />
<line x1="615.8340728762444" y1="472.30716734587736" x2="526.6805974722926" y2="420.8343843222151" style="stroke:black;stroke-width:3" />
<line x1="526.6805974722926" y1="420.8343843222151" x2="475.20781444863024" y2="509.98785972616696" style="stroke:black;stroke-width:3" />
<line x1="477.10866077585183" y1="510.8118063358777" x2="477.10866077585183" y2="510.8118063358777" style="stroke:black;stroke-width:3" />
<line x1="477.10866077585183" y1="510.8118063358777" x2="536.6635816705007" y2="581.7865972687393" style="stroke:black;stroke-width:3" />
<line x1="536.6635816705007" y1="581.7865972687393" x2="607.6383726033623" y2="522.2316763740905" style="stroke:black;stroke-width:3" />
<line x1="607.6383726033623" y1="522.2316763740905" x2="548.0834517087135" y2="451.256885441229" style="stroke:black;stroke-width:3" />
<line x1="548.0834517087135" y1="451.256885441229" x2="477.10866077585183" y2="510.8118063358777" style="stroke:black;stroke-width:3" />
<line x1="478.4626252123048" y1="512.0937521899865" x2="478.4626252123048" y2="512.0937521899865" style="stroke:black;stroke-width:3" />
<line x1="478.4626252123048" y1="512.0937521899865" x2="506.98228558824576" y2="590.450875083399" style="stroke:black;stroke-width:3" />
<line x1="506.98228558824576" y1="590.450875083399" x2="585.3394084816581" y2="561.931214707458" style="stroke:black;stroke-width:3" />
<line x1="585.3394084816581" y1="561.931214707458" x2="556.8197481057172" y2="483.57409181404563" style="stroke:black;stroke-width:3" />
<line x1="556.8197481057172" y1="483.57409181404563" x2="478.4626252123048" y2="512.0937521899865" style="stroke:black;stroke-width:3" />
<line x1="479.2130983887898" y1="513.5946985429565" x2="479.2130983887898" y2="513.5946985429565" style="stroke:black;stroke-width:3" />
<line x1="479.2130983887898" y1="513.5946985429565" x2="479.21309838878983" y2="588.6420161914562" style="stroke:black;stroke-width:3" />
<line x1="479.21309838878983" y1="588.6420161914562" x2="554.2604160372895" y2="588.6420161914562" style="stroke:black;stroke-width:3" />
<line x1="554.2604160372895" y1="588.6420161914562" x2="554.2604160372894" y2="513.5946985429565" style="stroke:black;stroke-width:3" />
<line x1="554.2604160372894" y1="513.5946985429565" x2="479.2130983887898" y2="513.5946985429565" style="stroke:black;stroke-width:3" />
<line x1="479.38577258613617" y1="515.095093182875" x2="479.38577258613617" y2="515.095093182875" style="stroke:black;stroke-width:3" />
<line x1="479.38577258613617" y1="515.095093182875" x2="456.2848476816241" y2="578.564362726539" style="stroke:black;stroke-width:3" />
<line x1="456.2848476816241" y1="578.564362726539" x2="519.7541172252882" y2="601.6652876310511" style="stroke:black;stroke-width:3" />
<line x1="519.7541172252882" y1="601.6652876310511" x2="542.8550421298003" y2="538.1960180873871" style="stroke:black;stroke-width:3" />
<line x1="542.8550421298003" y1="538.1960180873871" x2="479.38577258613617" y2="515.095093182875" style="stroke:black;stroke-width:3" />
<line x1="479.0699585174671" y1="516.4171642254857" x2="479.0699585174671" y2="516.4171642254857" style="stroke:black;stroke-width:3" />
<line x1="479.0699585174671" y1="516.4171642254857" x2="439.99597491848806" y2="562.9837245565363" style="stroke:black;stroke-width:3" />
<line x1="439.99597491848806" y1="562.9837245565363" x2="486.5625352495386" y2="602.0577081555153" style="stroke:black;stroke-width:3" />
<line x1="486.5625352495386" y1="602.0577081555153" x2="525.6365188485177" y2="555.4911478244649" style="stroke:black;stroke-width:3" />
<line x1="525.6365188485177" y1="555.4911478244649" x2="479.0699585174671" y2="516.4171642254857" style="stroke:black;stroke-width:3" />
<line x1="478.39590974785284" y1="517.4380572923649" x2="478.39590974785284" y2="517.4380572923649" style="stroke:black;stroke-width:3" />
<line x1="478.39590974785284" y1="517.4380572923649" x2="431.01609762570126" y2="544.7928045752429" style="stroke:black;stroke-width:3" />
<line x1="431.01609762570126" y1="544.7928045752429" x2="458.3708449085794" y2="592.1726166973946" style="stroke:black;stroke-width:3" />
<line x1="458.3708449085794" y1="592.1726166973946" x2="505.75065703073096" y2="564.8178694145164" style="stroke:black;stroke-width:3" />
<line x1="505.75065703073096" y1="564.8178694145164" x2="478.39590974785284" y2="517.4380572923649" style="stroke:black;stroke-width:3" />
<line x1="477.5116015647334" y1="518.0939659746541" x2="477.5116015647334" y2="518.0939659746541" style="stroke:black;stroke-width:3" />
<line x1="477.5116015647334" y1="518.0939659746541" x2="429.021100594171" y2="526.6441496038343" style="stroke:black;stroke-width:3" />
<line x1="429.021100594171" y1="526.6441496038343" x2="437.5712842233512" y2="575.1346505743967" style="stroke:black;stroke-width:3" />
<line x1="437.5712842233512" y1="575.1346505743967" x2="486.0617851939136" y2="566.5844669452165" style="stroke:black;stroke-width:3" />
<line x1="486.0617851939136" y1="566.5844669452165" x2="477.5116015647334" y2="518.0939659746541" style="stroke:black;stroke-width:3" />
<line x1="476.56182089460066" y1="518.3764771780639" x2="476.56182089460066" y2="518.3764771780639" style="stroke:black;stroke-width:3" />
<line x1="476.56182089460066" y1="518.3764771780639" x2="432.9203700210945" y2="510.6813119118018" style="stroke:black;stroke-width:3" />
<line x1="432.9203700210945" y1="510.6813119118018" x2="425.22520475483236" y2="554.322762785308" style="stroke:black;stroke-width:3" />
<line x1="425.22520475483236" y1="554.322762785308" x2="468.8666556283385" y2="562.01792805157" style="stroke:black;stroke-width:3" />
<line x1="468.8666556283385" y1="562.01792805157" x2="476.56182089460066" y2="518.3764771780639" style="stroke:black;stroke-width:3" />
<line x1="475.6716071261675" y1="518.32304379305" x2="475.6716071261675" y2="518.32304379305" style="stroke:black;stroke-width:3" />
<line x1="475.6716071261675" y1="518.32304379305" x2="441.13172408911896" y2="498.3814330238319" style="stroke:black;stroke-width:3" />
<line x1="441.13172408911896" y1="498.3814330238319" x2="421.19011331990083" y2="532.9213160608804" style="stroke:black;stroke-width:3" />
<line x1="421.19011331990083" y1="532.9213160608804" x2="455.72999635694936" y2="552.8629268300986" style="stroke:black;stroke-width:3" />
<line x1="455.72999635694936" y1="552.8629268300986" x2="475.6716071261675" y2="518.32304379305" style="stroke:black;stroke-width:3" />
<line x1="474.93518031256144" y1="518.003829994606" x2="474.93518031256144" y2="518.003829994606" style="stroke:black;stroke-width:3" />
<line x1="474.93518031256144" y1="518.003829994606" x2="451.8623837372003" y2="490.50674178472394" style="stroke:black;stroke-width:3" />
<line x1="451.8623837372003" y1="490.50674178472394" x2="424.36529552731827" y2="513.579538360085" style="stroke:black;stroke-width:3" />
<line x1="424.36529552731827" y1="513.579538360085" x2="447.43809210267943" y2="541.0766265699672" style="stroke:black;stroke-width:3" />
<line x1="447.43809210267943" y1="541.0766265699672" x2="474.93518031256144" y2="518.003829994606" style="stroke:black;stroke-width:3" />
<line x1="474.41062674850224" y1="517.5071779049356" x2="474.41062674850224" y2="517.5071779049356" style="stroke:black;stroke-width:3" />
<line x1="474.41062674850224" y1="517.5071779049356" x2="463.3615259795413" y2="487.15002303693666" style="stroke:black;stroke-width:3" />
<line x1="463.3615259795413" y1="487.15002303693666" x2="433.00437111154235" y2="498.1991238058976" style="stroke:black;stroke-width:3" />
<line x1="433.00437111154235" y1="498.1991238058976" x2="444.0534718805033" y2="528.5562786738966" style="stroke:black;stroke-width:3" />
<line x1="444.0534718805033" y1="528.5562786738966" x2="474.41062674850224" y2="517.5071779049356" style="stroke:black;stroke-width:3" />
<line x1="474.1198780634871" y1="516.9256805349052" x2="474.1198780634871" y2="516.9256805349052" style="stroke:black;stroke-width:3" />
<line x1="474.1198780634871" y1="516.9256805349052" x2="474.119878063487" y2="487.8508120333851" style="stroke:black;stroke-width:3" />
<line x1="474.119878063487" y1="487.8508120333851" x2="445.045009561967" y2="487.8508120333851" style="stroke:black;stroke-width:3" />
<line x1="445.045009561967" y1="487.8508120333851" x2="445.045009561967" y2="516.9256805349052" style="stroke:black;stroke-width:3" />
<line x1="445.045009561967" y1="516.9256805349052" x2="474.1198780634871" y2="516.9256805349052" style="stroke:black;stroke-width:3" />
<line x1="474.0529805415134" y1="516.344396909815" x2="474.0529805415134" y2="516.344396909815" style="stroke:black;stroke-width:3" />
<line x1="474.0529805415134" y1="516.344396909815" x2="483.00275216437177" y2="491.7551014667359" style="stroke:black;stroke-width:3" />
<line x1="483.00275216437177" y1="491.7551014667359" x2="458.4134567212926" y2="482.80532984387753" style="stroke:black;stroke-width:3" />
<line x1="458.4134567212926" y1="482.80532984387753" x2="449.46368509843427" y2="507.3946252869566" style="stroke:black;stroke-width:3" />
<line x1="449.46368509843427" y1="507.3946252869566" x2="474.0529805415134" y2="516.344396909815" style="stroke:black;stroke-width:3" />
<line x1="474.17533338243027" y1="515.832199499994" x2="474.17533338243027" y2="515.832199499994" style="stroke:black;stroke-width:3" />
<line x1="474.17533338243027" y1="515.832199499994" x2="489.31339521552474" y2="497.7913599254904" style="stroke:black;stroke-width:3" />
<line x1="489.31339521552474" y1="497.7913599254904" x2="471.2725556410211" y2="482.65329809239597" style="stroke:black;stroke-width:3" />
<line x1="471.2725556410211" y1="482.65329809239597" x2="456.1344938079267" y2="500.69413766689956" style="stroke:black;stroke-width:3" />
<line x1="456.1344938079267" y1="500.69413766689956" x2="474.17533338243027" y2="515.832199499994" style="stroke:black;stroke-width:3" />
<line x1="474.4364736863641" y1="515.436684608807" x2="474.4364736863641" y2="515.436684608807" style="stroke:black;stroke-width:3" />
<line x1="474.4364736863641" y1="515.436684608807" x2="492.7923836674562" y2="504.8388950400029" style="stroke:black;stroke-width:3" />
<line x1="492.7923836674562" y1="504.8388950400029" x2="482.1945940986521" y2="486.48298505891086" style="stroke:black;stroke-width:3" />
<line x1="482.1945940986521" y1="486.48298505891086" x2="463.83868411756004" y2="497.0807746277149" style="stroke:black;stroke-width:3" />
<line x1="463.83868411756004" y1="497.0807746277149" x2="474.4364736863641" y2="515.436684608807" style="stroke:black;stroke-width:3" />
<line x1="474.7790727950949" y1="515.1825721463752" x2="474.7790727950949" y2="515.1825721463752" style="stroke:black;stroke-width:3" />
<line x1="474.7790727950949" y1="515.1825721463752" x2="493.56528639296516" y2="511.87005582371836" style="stroke:black;stroke-width:3" />
<line x1="493.56528639296516" y1="511.87005582371836" x2="490.25277007030843" y2="493.0838422258481" style="stroke:black;stroke-width:3" />
<line x1="490.25277007030843" y1="493.0838422258481" x2="471.4665564724381" y2="496.3963585485049" style="stroke:black;stroke-width:3" />
<line x1="471.4665564724381" y1="496.3963585485049" x2="474.7790727950949" y2="515.1825721463752" style="stroke:black;stroke-width:3" />
<line x1="475.1470372867605" y1="515.0731215178022" x2="475.1470372867605" y2="515.0731215178022" style="stroke:black;stroke-width:3" />
<line x1="475.1470372867605" y1="515.0731215178022" x2="492.05462952484373" y2="518.0543862081933" style="stroke:black;stroke-width:3" />
<line x1="492.05462952484373" y1="518.0543862081933" x2="495.0358942152348" y2="501.14679397011" style="stroke:black;stroke-width:3" />
<line x1="495.0358942152348" y1="501.14679397011" x2="478.1283019771516" y2="498.1655292797189" style="stroke:black;stroke-width:3" />
<line x1="478.1283019771516" y1="498.1655292797189" x2="475.1470372867605" y2="515.0731215178022" style="stroke:black;stroke-width:3" />
<line x1="475.4919243402414" y1="515.0938227059531" x2="475.4919243402414" y2="515.0938227059531" style="stroke:black;stroke-width:3" />
<line x1="475.4919243402414" y1="515.0938227059531" x2="488.87338271645757" y2="522.8196113016113" style="stroke:black;stroke-width:3" />
<line x1="488.87338271645757" y1="522.8196113016113" x2="496.59917131211574" y2="509.4381529253952" style="stroke:black;stroke-width:3" />
<line x1="496.59917131211574" y1="509.4381529253952" x2="483.21771293589956" y2="501.712364329737" style="stroke:black;stroke-width:3" />
<line x1="483.21771293589956" y1="501.712364329737" x2="475.4919243402414" y2="515.0938227059531" style="stroke:black;stroke-width:3" />
<line x1="475.77723117648134" y1="515.2174926718419" x2="475.77723117648134" y2="515.2174926718419" style="stroke:black;stroke-width:3" />
<line x1="475.77723117648134" y1="515.2174926718419" x2="484.7161053083053" y2="525.8704280321905" style="stroke:black;stroke-width:3" />
<line x1="484.7161053083053" y1="525.8704280321905" x2="495.36904066865395" y2="516.9315539003666" style="stroke:black;stroke-width:3" />
<line x1="495.36904066865395" y1="516.9315539003666" x2="486.43016653683003" y2="506.27861854001793" style="stroke:black;stroke-width:3" />
<line x1="486.43016653683003" y1="506.27861854001793" x2="475.77723117648134" y2="515.2174926718419" style="stroke:black;stroke-width:3" />
<line x1="475.98045397477586" y1="515.4099058672849" x2="475.98045397477586" y2="515.4099058672849" style="stroke:black;stroke-width:3" />
<line x1="475.98045397477586" y1="515.4099058672849" x2="480.26110199769704" y2="527.1708896508937" style="stroke:black;stroke-width:3" />
<line x1="480.26110199769704" y1="527.1708896508937" x2="492.0220857813059" y2="522.8902416279726" style="stroke:black;stroke-width:3" />
<line x1="492.0220857813059" y1="522.8902416279726" x2="487.7414377583848" y2="511.12925784436374" style="stroke:black;stroke-width:3" />
<line x1="487.7414377583848" y1="511.12925784436374" x2="475.98045397477586" y2="515.4099058672849" style="stroke:black;stroke-width:3" />
<line x1="476.0930959725006" y1="515.6351898627343" x2="476.0930959725006" y2="515.6351898627343" style="stroke:black;stroke-width:3" />
<line x1="476.0930959725006" y1="515.6351898627343" x2="476.0930959725006" y2="526.8993896352039" style="stroke:black;stroke-width:3" />
<line x1="476.0930959725006" y1="526.8993896352039" x2="487.3572957449702" y2="526.8993896352039" style="stroke:black;stroke-width:3" />
<line x1="487.3572957449702" y1="526.8993896352039" x2="487.3572957449702" y2="515.6351898627343" style="stroke:black;stroke-width:3" />
<line x1="487.3572957449702" y1="515.6351898627343" x2="476.0930959725006" y2="515.6351898627343" style="stroke:black;stroke-width:3" />
<line x1="476.11901344317647" y1="515.8603910490144" x2="476.11901344317647" y2="515.8603910490144" style="stroke:black;stroke-width:3" />
<line x1="476.11901344317647" y1="515.8603910490144" x2="472.6516885446104" y2="525.3867879137376" style="stroke:black;stroke-width:3" />
<line x1="472.6516885446104" y1="525.3867879137376" x2="482.17808540933356" y2="528.8541128123037" style="stroke:black;stroke-width:3" />
<line x1="482.17808540933356" y1="528.8541128123037" x2="485.6454103078997" y2="519.3277159475805" style="stroke:black;stroke-width:3" />
<line x1="485.6454103078997" y1="519.3277159475805" x2="476.11901344317647" y2="515.8603910490144" style="stroke:black;stroke-width:3" />
<line x1="476.07161144571796" y1="516.0588268199917" x2="476.07161144571796" y2="516.0588268199917" style="stroke:black;stroke-width:3" />
<line x1="476.07161144571796" y1="516.0588268199917" x2="470.2068161278283" y2="523.0482177099166" style="stroke:black;stroke-width:3" />
<line x1="470.2068161278283" y1="523.0482177099166" x2="477.196207017753" y2="528.9130130278062" style="stroke:black;stroke-width:3" />
<line x1="477.196207017753" y1="528.9130130278062" x2="483.0610023356427" y2="521.9236221378815" style="stroke:black;stroke-width:3" />
<line x1="483.0610023356427" y1="521.9236221378815" x2="476.07161144571796" y2="516.0588268199917" style="stroke:black;stroke-width:3" />
<line x1="475.9704403414703" y1="516.2120573925422" x2="475.9704403414703" y2="516.2120573925422" style="stroke:black;stroke-width:3" />
<line x1="475.9704403414703" y1="516.2120573925422" x2="468.8589847205556" y2="520.3178582096074" style="stroke:black;stroke-width:3" />
<line x1="468.8589847205556" y1="520.3178582096074" x2="472.9647855376208" y2="527.4293138305221" style="stroke:black;stroke-width:3" />
<line x1="472.9647855376208" y1="527.4293138305221" x2="480.0762411585355" y2="523.3235130134569" style="stroke:black;stroke-width:3" />
<line x1="480.0762411585355" y1="523.3235130134569" x2="475.9704403414703" y2="516.2120573925422" style="stroke:black;stroke-width:3" />
<line x1="475.8377104272348" y1="516.3105057669985" x2="475.8377104272348" y2="516.3105057669985" style="stroke:black;stroke-width:3" />
<line x1="475.8377104272348" y1="516.3105057669985" x2="468.5595463686895" y2="517.5938424605428" style="stroke:black;stroke-width:3" />
<line x1="468.5595463686895" y1="517.5938424605428" x2="469.8428830622337" y2="524.8720065190881" style="stroke:black;stroke-width:3" />
<line x1="469.8428830622337" y1="524.8720065190881" x2="477.121047120779" y2="523.5886698255439" style="stroke:black;stroke-width:3" />
<line x1="477.121047120779" y1="523.5886698255439" x2="475.8377104272348" y2="516.3105057669985" style="stroke:black;stroke-width:3" />
<line x1="475.69515344393915" y1="516.3529091830417" x2="475.69515344393915" y2="516.3529091830417" style="stroke:black;stroke-width:3" />
<line x1="475.69515344393915" y1="516.3529091830417" x2="469.1448057912483" y2="515.197906158852" style="stroke:black;stroke-width:3" />
<line x1="469.1448057912483" y1="515.197906158852" x2="467.98980276705856" y2="521.7482538115428" style="stroke:black;stroke-width:3" />
<line x1="467.98980276705856" y1="521.7482538115428" x2="474.54015041974935" y2="522.9032568357325" style="stroke:black;stroke-width:3" />
<line x1="474.54015041974935" y1="522.9032568357325" x2="475.69515344393915" y2="516.3529091830417" style="stroke:black;stroke-width:3" />
<line x1="475.5615371330298" y1="516.3448891186054" x2="475.5615371330298" y2="516.3448891186054" style="stroke:black;stroke-width:3" />
<line x1="475.5615371330298" y1="516.3448891186054" x2="470.37728598538297" y2="513.3517603229649" style="stroke:black;stroke-width:3" />
<line x1="470.37728598538297" y1="513.3517603229649" x2="467.3841571897425" y2="518.5360114706117" style="stroke:black;stroke-width:3" />
<line x1="467.3841571897425" y1="518.5360114706117" x2="472.56840833738926" y2="521.5291402662522" style="stroke:black;stroke-width:3" />
<line x1="472.56840833738926" y1="521.5291402662522" x2="475.5615371330298" y2="516.3448891186054" style="stroke:black;stroke-width:3" />
<line x1="475.45100341901866" y1="516.2969768399461" x2="475.45100341901866" y2="516.2969768399461" style="stroke:black;stroke-width:3" />
<line x1="475.45100341901866" y1="516.2969768399461" x2="471.98790043175796" y2="512.1698114133544" style="stroke:black;stroke-width:3" />
<line x1="471.98790043175796" y1="512.1698114133544" x2="467.8607350051663" y2="515.6329144006152" style="stroke:black;stroke-width:3" />
<line x1="467.8607350051663" y1="515.6329144006152" x2="471.323837992427" y2="519.7600798272068" style="stroke:black;stroke-width:3" />
<line x1="471.323837992427" y1="519.7600798272068" x2="475.45100341901866" y2="516.2969768399461" style="stroke:black;stroke-width:3" />
<line x1="475.37227074312744" y1="516.2224320256776" x2="475.37227074312744" y2="516.2224320256776" style="stroke:black;stroke-width:3" />
<line x1="475.37227074312744" y1="516.2224320256776" x2="473.7138599928505" y2="511.66598593711075" style="stroke:black;stroke-width:3" />
<line x1="473.7138599928505" y1="511.66598593711075" x2="469.1574139042836" y2="513.3243966873877" style="stroke:black;stroke-width:3" />
<line x1="469.1574139042836" y1="513.3243966873877" x2="470.81582465456063" y2="517.8808427759545" style="stroke:black;stroke-width:3" />
<line x1="470.81582465456063" y1="517.8808427759545" x2="475.37227074312744" y2="516.2224320256776" style="stroke:black;stroke-width:3" />
<line x1="475.32863092528703" y1="516.1351523899966" x2="475.32863092528703" y2="516.1351523899966" style="stroke:black;stroke-width:3" />
<line x1="475.32863092528703" y1="516.1351523899966" x2="475.328630925287" y2="511.7711706059528" style="stroke:black;stroke-width:3" />
<line x1="475.328630925287" y1="511.7711706059528" x2="470.9646491412431" y2="511.7711706059528" style="stroke:black;stroke-width:3" />
<line x1="470.9646491412431" y1="511.7711706059528" x2="470.9646491412431" y2="516.1351523899966" style="stroke:black;stroke-width:3" />
<line x1="470.9646491412431" y1="516.1351523899966" x2="475.32863092528703" y2="516.1351523899966" style="stroke:black;stroke-width:3" />
<line x1="475.3185899661241" y1="516.0479048362846" x2="475.3185899661241" y2="516.0479048362846" style="stroke:black;stroke-width:3" />
<line x1="475.3185899661241" y1="516.0479048362846" x2="476.66190267384843" y2="512.3571835045456" style="stroke:black;stroke-width:3" />
<line x1="476.66190267384843" y1="512.3571835045456" x2="472.97118134210933" y2="511.01387079682115" style="stroke:black;stroke-width:3" />
<line x1="472.97118134210933" y1="511.01387079682115" x2="471.627868634385" y2="514.7045921285603" style="stroke:black;stroke-width:3" />
<line x1="471.627868634385" y1="514.7045921285603" x2="475.3185899661241" y2="516.0479048362846" style="stroke:black;stroke-width:3" />
<line x1="475.33695447115906" y1="515.9710267528575" x2="475.33695447115906" y2="515.9710267528575" style="stroke:black;stroke-width:3" />
<line x1="475.33695447115906" y1="515.9710267528575" x2="477.6090963411008" y2="513.2631935164707" style="stroke:black;stroke-width:3" />
<line x1="477.6090963411008" y1="513.2631935164707" x2="474.901263104714" y2="510.99105164652894" style="stroke:black;stroke-width:3" />
<line x1="474.901263104714" y1="510.99105164652894" x2="472.62912123477224" y2="513.6988848829158" style="stroke:black;stroke-width:3" />
<line x1="472.62912123477224" y1="513.6988848829158" x2="475.33695447115906" y2="515.9710267528575" style="stroke:black;stroke-width:3" />
<line x1="475.37615022983937" y1="515.9116620895103" x2="475.37615022983937" y2="515.9116620895103" style="stroke:black;stroke-width:3" />
<line x1="475.37615022983937" y1="515.9116620895103" x2="478.1312738439959" y2="514.3209907292262" style="stroke:black;stroke-width:3" />
<line x1="478.1312738439959" y1="514.3209907292262" x2="476.54060248371195" y2="511.5658671150697" style="stroke:black;stroke-width:3" />
<line x1="476.54060248371195" y1="511.5658671150697" x2="473.7854788695554" y2="513.1565384753536" style="stroke:black;stroke-width:3" />
<line x1="473.7854788695554" y1="513.1565384753536" x2="475.37615022983937" y2="515.9116620895103" style="stroke:black;stroke-width:3" />
<line x1="475.4275725181174" y1="515.8735211721371" x2="475.4275725181174" y2="515.8735211721371" style="stroke:black;stroke-width:3" />
<line x1="475.4275725181174" y1="515.8735211721371" x2="478.2472823967013" y2="515.3763302427726" style="stroke:black;stroke-width:3" />
<line x1="478.2472823967013" y1="515.3763302427726" x2="477.75009146733674" y2="512.5566203641887" style="stroke:black;stroke-width:3" />
<line x1="477.75009146733674" y1="512.5566203641887" x2="474.9303815887529" y2="513.0538112935533" style="stroke:black;stroke-width:3" />
<line x1="474.9303815887529" y1="513.0538112935533" x2="475.4275725181174" y2="515.8735211721371" style="stroke:black;stroke-width:3" />
<line x1="475.48280201429617" y1="515.8570932199584" x2="475.48280201429617" y2="515.8570932199584" style="stroke:black;stroke-width:3" />
<line x1="475.48280201429617" y1="515.8570932199584" x2="478.0205409050217" y2="516.3045650563865" style="stroke:black;stroke-width:3" />
<line x1="478.0205409050217" y1="516.3045650563865" x2="478.46801274144974" y2="513.766826165661" style="stroke:black;stroke-width:3" />
<line x1="478.46801274144974" y1="513.766826165661" x2="475.93027385072423" y2="513.319354329233" style="stroke:black;stroke-width:3" />
<line x1="475.93027385072423" y1="513.319354329233" x2="475.48280201429617" y2="515.8570932199584" style="stroke:black;stroke-width:3" />
</svg>
